<svg xmlns="http://www.w3.org/2000/svg" width="43" height="36.277" viewBox="0 0 43 36.277">
  <g id="_3a84a4b199dfe05381ae0912d36f5d76" data-name="3a84a4b199dfe05381ae0912d36f5d76" transform="translate(-9.996 -86.619)">
    <g id="Group_2066" data-name="Group 2066" transform="translate(9.996 86.619)">
      <path id="Path_6421" data-name="Path 6421" d="M47.968-424.249a4.067,4.067,0,0,0-2.914,4.821,1.127,1.127,0,0,1,.067.512c-.168.143-4.972,3.435-5.073,3.477-.075.034-.3-.067-.521-.21a4.042,4.042,0,0,0-1.94-.647,3.884,3.884,0,0,0-3.141,1.218l-.538.529-2.066-.706-2.066-.706-.1-.7a3.99,3.99,0,0,0-1.982-3.141,4.592,4.592,0,0,0-2.024-.554,4.078,4.078,0,0,0-3.83,2.847,4.493,4.493,0,0,0-.05,2.209l.109.378L19.3-413.1l-2.6,1.805-.412-.277a4.029,4.029,0,0,0-6.174,2.369,4.039,4.039,0,0,0,4.855,4.855,4.048,4.048,0,0,0,2.965-4.813l-.109-.445.26-.193c.6-.445,4.8-3.351,4.9-3.385.059-.025.277.084.487.227a3.973,3.973,0,0,0,5.065-.571l.537-.537,2.066.714,2.075.706.093.706a3.93,3.93,0,0,0,1.31,2.637,4.033,4.033,0,0,0,6.551-1.831,5.584,5.584,0,0,0,.05-2.36c-.025-.235.109-.336,2.537-2.024l2.554-1.772.4.269a4.027,4.027,0,0,0,6.156-2.377A4.048,4.048,0,0,0,47.968-424.249Zm1.621,1.982a2.226,2.226,0,0,1,1.394,1.915,2.115,2.115,0,0,1-2.016,2.016,1.836,1.836,0,0,1-1.386-.63,1.816,1.816,0,0,1,0-2.772A1.854,1.854,0,0,1,49.589-422.267Zm-22.947,4.2a2.13,2.13,0,0,1,.991,1.352A2.034,2.034,0,0,1,26.6-414.54a1.884,1.884,0,0,1-.949.193,1.489,1.489,0,0,1-1.008-.252,2.026,2.026,0,0,1,.361-3.62A2.229,2.229,0,0,1,26.642-418.067Zm11.725,4.074a2.16,2.16,0,0,1,.647.647,1.512,1.512,0,0,1,.252,1.058,1.512,1.512,0,0,1-.252,1.058,1.931,1.931,0,0,1-1.571.932,1.407,1.407,0,0,1-.991-.2,2,2,0,0,1,.336-3.729A2.245,2.245,0,0,1,38.367-413.994Zm-23.719,3.822a2.493,2.493,0,0,1,1.294,1.294,1.84,1.84,0,0,1-.529,2.007,1.817,1.817,0,0,1-2.772,0,1.816,1.816,0,0,1,0-2.772A1.854,1.854,0,0,1,14.648-410.172Z" transform="translate(-9.996 424.382)" fill="#00a786"/>
      <path id="Path_6422" data-name="Path 6422" d="M807.389-148.237a1.453,1.453,0,0,0-.756.916c-.025.151-.034,5.225-.025,11.289.025,10.978.025,11.02.2,11.247a2.31,2.31,0,0,0,.4.4c.227.168.327.176,3.41.176s3.183-.008,3.41-.176a2.308,2.308,0,0,0,.4-.4c.176-.227.176-.252.176-11.474s0-11.247-.176-11.474a2.305,2.305,0,0,0-.4-.4c-.219-.168-.344-.176-3.309-.193A16.257,16.257,0,0,0,807.389-148.237Z" transform="translate(-771.651 160.448)" fill="#00a786"/>
      <path id="Path_6423" data-name="Path 6423" d="M276.875-56.654a1.538,1.538,0,0,0-.4.269c-.462.428-.437-.075-.437,9.743v9.105l.193.277a2.194,2.194,0,0,0,.42.454c.227.168.344.176,3.293.2,2.923.025,3.074.017,3.393-.143a1.524,1.524,0,0,0,.521-.487l.2-.319V-55.78l-.2-.319a1.427,1.427,0,0,0-.521-.479c-.3-.16-.5-.168-3.284-.16A30.35,30.35,0,0,0,276.875-56.654Z" transform="translate(-264.361 72.871)" fill="#00a786"/>
      <path id="Path_6424" data-name="Path 6424" d="M541.86,35.381a1.644,1.644,0,0,0-.5.487c-.176.294-.176.378-.176,7.391s0,7.1.176,7.391a1.644,1.644,0,0,0,.5.487c.327.185.344.185,3.41.168,2.973-.025,3.091-.033,3.318-.2a2.481,2.481,0,0,0,.428-.454l.185-.277V36.144l-.185-.277a2.481,2.481,0,0,0-.428-.454c-.227-.168-.344-.176-3.318-.2C542.2,35.2,542.187,35.2,541.86,35.381Z" transform="translate(-517.873 -15.04)" fill="#00a786"/>
      <path id="Path_6425" data-name="Path 6425" d="M10.981,127.413a1.454,1.454,0,0,0-.756.916c-.025.151-.042,2.5-.025,5.241.025,4.872.025,4.972.2,5.2a2.307,2.307,0,0,0,.4.4c.227.168.328.176,3.41.176s3.183-.008,3.41-.176a2.307,2.307,0,0,0,.4-.4c.176-.227.176-.311.176-5.426s0-5.2-.176-5.426a2.307,2.307,0,0,0-.4-.4c-.219-.168-.344-.176-3.309-.193A16.255,16.255,0,0,0,10.981,127.413Z" transform="translate(-10.184 -103.108)" fill="#00a786"/>
    </g>
  </g>
</svg>
