<svg xmlns="http://www.w3.org/2000/svg" xmlns:xlink="http://www.w3.org/1999/xlink" width="114.197" height="128.89" viewBox="0 0 114.197 128.89">
  <defs>
    <clipPath id="clip-path">
      <rect id="Rectangle_100" data-name="Rectangle 100" width="114.197" height="128.89" fill="none"/>
    </clipPath>
  </defs>
  <g id="Layer_2" data-name="Layer 2" transform="translate(0.05 0.11)">
    <g id="Layer_1" data-name="Layer 1" transform="translate(-0.05 -0.11)">
      <g id="Group_2233" data-name="Group 2233" clip-path="url(#clip-path)">
        <path id="Path_6448" data-name="Path 6448" d="M15.312,52.538l13.055,8.028L52.193,66.09s11.692-.221,18.579-3.683,19.7-11.048,19.7-11.048l6.187,6.7,3.683,8.249S83.771,84.724,51.53,84.411c0,0-29.461,0-46.29-18.1Z" transform="translate(4.408 43.208)" fill="#eaeff2"/>
        <path id="Path_6449" data-name="Path 6449" d="M55.486,107.677A53.535,53.535,0,1,1,93.252,91.99a53.545,53.545,0,0,1-37.766,15.687" transform="translate(1.594 0.517)" fill="#eaeff2"/>
        <path id="Path_6450" data-name="Path 6450" d="M24.47,51.33h1.215l1.768,1.436v2.265h3.02V52.324h-1.51l-.755-.608V51.33h4.217v.994h-.755v7h-.46l-.737-.608V55.823h-3.02v1.031h-.994l-1.234-1.031v-.792h.994V52.95l-.755-.626H24.47Z" transform="translate(20.678 43.386)" fill="#48c3d1"/>
        <path id="Path_6451" data-name="Path 6451" d="M28.79,51.33H32.1v.994h-.921v7h-.46l-.755-.608V52.324H28.79Z" transform="translate(24.313 43.386)" fill="#48c3d1"/>
        <path id="Path_6452" data-name="Path 6452" d="M30.61,51.33H36.1v.994h-1.51v2.117l-.018.313-.092.276-.2.221-.239.184-.331.11-.368.055-.239.018-.221.037-.239.184-.018.239.018.258.239.46.35.405.405.442.5.479.534.405.387.331.589.424-.46-.018-.921-.552-.626-.442-.663-.5-.516-.442L31.88,56.8l-.368-.46-.239-.516-.092-.423.037-.368.092-.313.239-.184.368-.184.423-.055h.387l.276.092.166.147.166-.074.037-.166v-1.97H30.61Z" transform="translate(25.844 43.386)" fill="#48c3d1"/>
        <path id="Path_6453" data-name="Path 6453" d="M33.64,51.347l7.623-.037v1.031h-.9v7H39.9l-.755-.608v-3.5h-3.37l-.313.092-.2.184-.092.258.055.35.092.313.166.331.239.387.258.313.276.331.368.368.35.331.424.295.46.35h-.368l-.35-.147-.295-.2-.258-.166-.331-.276-.295-.221-.295-.276-.295-.258-.276-.295-.276-.331-.221-.295-.2-.331-.147-.331-.092-.331v-.35l.055-.313.147-.276.2-.2.35-.184.313-.092.5-.037h3.425V52.341H33.64Z" transform="translate(28.393 43.369)" fill="#48c3d1"/>
        <path id="Path_6454" data-name="Path 6454" d="M11.738,53.453l-.258-.2" transform="translate(9.658 44.799)" fill="none" stroke="#000" stroke-width="0.12"/>
        <path id="Path_6455" data-name="Path 6455" d="M106.2,103.739a69.583,69.583,0,0,0,7.789-9.206l-13.312-7.365a54.438,54.438,0,1,0-87.056.368L.05,94.478a69.968,69.968,0,0,0,7.807,9.206c.884.9,1.841,1.841,2.744,2.615L7.489,109.65a74.093,74.093,0,0,0,99.264-.11l-2.725-3.683c.755-.681,1.51-1.4,2.228-2.136M4.34,54.577A52.688,52.688,0,1,1,19.77,91.826,52.679,52.679,0,0,1,4.34,54.577m52.7,71.718a71.129,71.129,0,0,1-45.443-16.222L21.354,98.16a56.343,56.343,0,0,0,71.81-.368l10.164,11.563a71.184,71.184,0,0,1-46.29,16.94" transform="translate(0.042 0.091)" fill="#48c3d1"/>
        <path id="Path_6456" data-name="Path 6456" d="M47.087,80.709a34.984,34.984,0,1,1,33.589-26,34.984,34.984,0,0,1-33.589,26" transform="translate(9.993 9.035)" fill="#48c3d1"/>
        <path id="Path_6457" data-name="Path 6457" d="M52.95,47.711a23.126,23.126,0,0,1,9.206,1.841l10.5-3.572L63.758,44.4a.644.644,0,0,1-.2-1.215l6.224-3.5H63.39a.663.663,0,0,1-.331-1.215L69.5,34.582l-9.575.737a.663.663,0,0,1-.626-.331.644.644,0,0,1,0-.7l4.051-5.616L57.24,32.5a.663.663,0,0,1-.773,0,.626.626,0,0,1-.166-.755l3.775-8.617L52.6,29.979a.663.663,0,0,1-1.1-.479V22.246l-3.683,5.911a.626.626,0,0,1-.7.295A.644.644,0,0,1,46.6,27.9l-1.252-9.888L43.172,27.7a.663.663,0,0,1-.552.5.626.626,0,0,1-.663-.35l-3.112-5.911v7.126a.663.663,0,0,1-1.2.368l-5.524-8.175,2.431,10.09a.663.663,0,0,1-.295.7.626.626,0,0,1-.755,0l-5.358-4.382,2.6,7.255a.663.663,0,0,1-.884.81l-6.371-2.983,4.456,4.382a.681.681,0,0,1,.147.718.644.644,0,0,1-.608.405h-6.7l4.769,3.278a.663.663,0,0,1-.313,1.2l-7.66.516,10.569,5.69a23.5,23.5,0,0,1,15.338.11h2.191a20.623,20.623,0,0,1,7.365-1.326m9.1,3.259a.534.534,0,0,1-.295,0,21.433,21.433,0,0,0-15.761-.589H43.3a.645.645,0,0,1-.258,0c-6.868-2.909-14.73,0-14.73,0a.755.755,0,0,1-.534,0L15.037,43.457a.644.644,0,0,1-.331-.7.663.663,0,0,1,.608-.516l8.01-.552L18.37,38.283a.663.663,0,0,1,.368-1.2h7.2L19.9,31.158a.644.644,0,0,1,0-.829.626.626,0,0,1,.81-.221l8.47,3.94-2.854-8.01a.663.663,0,0,1,.239-.755.644.644,0,0,1,.792,0L32.88,29.85,29.989,18.011a.658.658,0,0,1,1.178-.534l6.389,9.372V19.281a.663.663,0,0,1,1.234-.313l3.517,6.7,2.578-11.545a.681.681,0,0,1,.681-.516.644.644,0,0,1,.608.571L47.7,25.91l3.9-6.3a.663.663,0,0,1,.737-.276.626.626,0,0,1,.479.626v7.991l8.654-7.936a.7.7,0,0,1,.829,0,.644.644,0,0,1,.221.792l-4.18,9.556,7.163-4.4a.644.644,0,0,1,.829.11.7.7,0,0,1,0,.829l-5.045,7.071,10.937-.847a.644.644,0,0,1,.663.46.626.626,0,0,1-.276.755L65.82,38.431h6.463a.644.644,0,0,1,.313,1.215l-6.813,3.83,9.593,1.712a.644.644,0,0,1,.534.608.663.663,0,0,1-.442.663L62.322,50.933h-.2" transform="translate(12.361 11.45)" fill="#fff"/>
        <path id="Path_6458" data-name="Path 6458" d="M38.22,55.818l-.921-.442c-5.911-2.817-14.933-1.289-15.025-1.27l-.755.129V33.17h1.307V52.706a38.261,38.261,0,0,1,4.732-.331,24.747,24.747,0,0,1,9.372,1.418V33.225H38.22Z" transform="translate(18.104 27.905)" fill="#fff"/>
        <path id="Path_6459" data-name="Path 6459" d="M31.2,55.848V33.2h1.307V53.786a33.254,33.254,0,0,1,14.73-1.142V33.826h1.307V54.08h-.737a40.177,40.177,0,0,0-11.839.2,15.006,15.006,0,0,0-3.775,1.142Z" transform="translate(26.248 27.931)" fill="#fff"/>
        <path id="Path_6460" data-name="Path 6460" d="M41.366,33.959c-.129.608-1.289.9-2.6.644s-2.21-.939-2.21-1.565,1.27-.884,2.6-.644,2.3.939,2.191,1.547m-6.868-.35c-.847,0-1.528-1.841-1.528-4.143s.681-4.124,1.528-4.124,1.528,1.841,1.528,4.124-.681,4.143-1.528,4.143m-4.6.994c-1.326.2-2.467-.129-2.559-.737s.921-1.252,2.246-1.455,2.467.129,2.559.755-.884,1.27-2.228,1.455Zm11.582-1.841a5.008,5.008,0,0,0-4.806-.773,13.755,13.755,0,0,0,.295-2.559c0-2.872-1.1-5.211-2.449-5.211s-2.449,2.338-2.449,5.211a10.145,10.145,0,0,0,.387,2.836,4.456,4.456,0,0,0-5.3.534,2.338,2.338,0,0,0-.552,1.528c0,1.841.81,6.5,7.9,6.408,6.518,0,7.7-3.94,7.862-5.947a2.265,2.265,0,0,0-.884-2.025" transform="translate(22.361 20.359)" fill="#fff"/>
        <rect id="Rectangle_68" data-name="Rectangle 68" width="1.086" height="1.307" transform="translate(43.178 62.18)" fill="#fff"/>
        <path id="Path_6461" data-name="Path 6461" d="M26.691,35.077H24.61V33.77h2.081Zm3.13,0H27.74V33.77h2.081Z" transform="translate(20.704 28.41)" fill="#fff"/>
        <rect id="Rectangle_69" data-name="Rectangle 69" width="1.086" height="1.307" transform="translate(51.574 62.18)" fill="#fff"/>
        <rect id="Rectangle_70" data-name="Rectangle 70" width="1.086" height="1.307" transform="translate(43.178 64.353)" fill="#fff"/>
        <path id="Path_6462" data-name="Path 6462" d="M26.691,36.215H24.61V35h2.081Zm3.13,0H27.74V35h2.081Z" transform="translate(20.704 29.445)" fill="#fff"/>
        <rect id="Rectangle_71" data-name="Rectangle 71" width="1.086" height="1.307" transform="translate(51.574 64.353)" fill="#fff"/>
        <rect id="Rectangle_72" data-name="Rectangle 72" width="1.086" height="1.307" transform="translate(43.178 66.526)" fill="#fff"/>
        <path id="Path_6463" data-name="Path 6463" d="M26.691,37.447H24.61V36.14h2.081Zm3.13,0H27.74V36.14h2.081Z" transform="translate(20.704 30.404)" fill="#fff"/>
        <rect id="Rectangle_73" data-name="Rectangle 73" width="1.086" height="1.307" transform="translate(51.574 66.526)" fill="#fff"/>
        <rect id="Rectangle_74" data-name="Rectangle 74" width="1.086" height="1.307" transform="translate(43.178 68.717)" fill="#fff"/>
        <path id="Path_6464" data-name="Path 6464" d="M26.691,38.6H24.61V37.29h2.081Zm3.13,0H27.74V37.29h2.081Z" transform="translate(20.704 31.372)" fill="#fff"/>
        <rect id="Rectangle_75" data-name="Rectangle 75" width="1.086" height="1.307" transform="translate(51.574 68.717)" fill="#fff"/>
        <rect id="Rectangle_76" data-name="Rectangle 76" width="1.086" height="1.307" transform="translate(43.178 70.89)" fill="#fff"/>
        <path id="Path_6465" data-name="Path 6465" d="M26.691,39.807H24.61V38.5h2.081Zm3.13,0H27.74V38.5h2.081Z" transform="translate(20.704 32.39)" fill="#fff"/>
        <rect id="Rectangle_77" data-name="Rectangle 77" width="1.086" height="1.307" transform="translate(51.574 70.89)" fill="#fff"/>
        <rect id="Rectangle_78" data-name="Rectangle 78" width="1.086" height="1.307" transform="translate(43.178 73.062)" fill="#fff"/>
        <path id="Path_6466" data-name="Path 6466" d="M26.691,40.979H24.61V39.69h2.081Zm3.13,0H27.74V39.69h2.081Z" transform="translate(20.704 33.391)" fill="#fff"/>
        <rect id="Rectangle_79" data-name="Rectangle 79" width="1.086" height="1.307" transform="translate(51.574 73.062)" fill="#fff"/>
        <rect id="Rectangle_80" data-name="Rectangle 80" width="1.086" height="1.307" transform="translate(43.178 75.235)" fill="#fff"/>
        <path id="Path_6467" data-name="Path 6467" d="M26.691,42.177H24.61V40.87h2.081Zm3.13,0H27.74V40.87h2.081Z" transform="translate(20.704 34.383)" fill="#fff"/>
        <rect id="Rectangle_81" data-name="Rectangle 81" width="1.086" height="1.307" transform="translate(51.574 75.235)" fill="#fff"/>
        <rect id="Rectangle_82" data-name="Rectangle 82" width="1.086" height="1.307" transform="translate(43.178 77.426)" fill="#fff"/>
        <path id="Path_6468" data-name="Path 6468" d="M26.691,43.357H24.61V42.05h2.081Zm3.13,0H27.74V42.05h2.081Z" transform="translate(20.704 35.376)" fill="#fff"/>
        <rect id="Rectangle_83" data-name="Rectangle 83" width="1.086" height="1.307" transform="translate(51.574 77.426)" fill="#fff"/>
        <rect id="Rectangle_84" data-name="Rectangle 84" width="1.086" height="1.307" transform="translate(61.352 62.18)" fill="#fff"/>
        <path id="Path_6469" data-name="Path 6469" d="M36.579,35.077h-2.1V33.77h2.1Zm3.13,0h-2.1V33.77h2.1Z" transform="translate(29.008 28.41)" fill="#fff"/>
        <rect id="Rectangle_85" data-name="Rectangle 85" width="1.086" height="1.307" transform="translate(69.748 62.18)" fill="#fff"/>
        <rect id="Rectangle_86" data-name="Rectangle 86" width="1.086" height="1.307" transform="translate(61.352 64.353)" fill="#fff"/>
        <path id="Path_6470" data-name="Path 6470" d="M36.579,36.215h-2.1V35h2.1Zm3.13,0h-2.1V35h2.1Z" transform="translate(29.008 29.445)" fill="#fff"/>
        <rect id="Rectangle_87" data-name="Rectangle 87" width="1.086" height="1.307" transform="translate(69.748 64.353)" fill="#fff"/>
        <rect id="Rectangle_88" data-name="Rectangle 88" width="1.086" height="1.307" transform="translate(61.352 66.526)" fill="#fff"/>
        <path id="Path_6471" data-name="Path 6471" d="M36.579,37.447h-2.1V36.14h2.1Zm3.13,0h-2.1V36.14h2.1Z" transform="translate(29.008 30.404)" fill="#fff"/>
        <rect id="Rectangle_89" data-name="Rectangle 89" width="1.086" height="1.307" transform="translate(69.748 66.526)" fill="#fff"/>
        <rect id="Rectangle_90" data-name="Rectangle 90" width="1.086" height="1.307" transform="translate(61.352 68.717)" fill="#fff"/>
        <path id="Path_6472" data-name="Path 6472" d="M36.579,38.6h-2.1V37.29h2.1Zm3.13,0h-2.1V37.29h2.1Z" transform="translate(29.008 31.372)" fill="#fff"/>
        <rect id="Rectangle_91" data-name="Rectangle 91" width="1.086" height="1.307" transform="translate(69.748 68.717)" fill="#fff"/>
        <rect id="Rectangle_92" data-name="Rectangle 92" width="1.086" height="1.307" transform="translate(61.352 70.89)" fill="#fff"/>
        <path id="Path_6473" data-name="Path 6473" d="M36.579,39.807h-2.1V38.5h2.1Zm3.13,0h-2.1V38.5h2.1Z" transform="translate(29.008 32.39)" fill="#fff"/>
        <rect id="Rectangle_93" data-name="Rectangle 93" width="1.086" height="1.307" transform="translate(69.748 70.89)" fill="#fff"/>
        <rect id="Rectangle_94" data-name="Rectangle 94" width="1.086" height="1.307" transform="translate(61.352 73.062)" fill="#fff"/>
        <path id="Path_6474" data-name="Path 6474" d="M36.579,40.979h-2.1V39.69h2.1Zm3.13,0h-2.1V39.69h2.1Z" transform="translate(29.008 33.391)" fill="#fff"/>
        <rect id="Rectangle_95" data-name="Rectangle 95" width="1.086" height="1.307" transform="translate(69.748 73.062)" fill="#fff"/>
        <rect id="Rectangle_96" data-name="Rectangle 96" width="1.086" height="1.307" transform="translate(61.352 75.235)" fill="#fff"/>
        <path id="Path_6475" data-name="Path 6475" d="M36.579,42.177h-2.1V40.87h2.1Zm3.13,0h-2.1V40.87h2.1Z" transform="translate(29.008 34.383)" fill="#fff"/>
        <rect id="Rectangle_97" data-name="Rectangle 97" width="1.086" height="1.307" transform="translate(69.748 75.235)" fill="#fff"/>
        <rect id="Rectangle_98" data-name="Rectangle 98" width="1.086" height="1.307" transform="translate(61.352 77.426)" fill="#fff"/>
        <path id="Path_6476" data-name="Path 6476" d="M36.579,43.357h-2.1V42.05h2.1Zm3.13,0h-2.1V42.05h2.1Z" transform="translate(29.008 35.376)" fill="#fff"/>
        <rect id="Rectangle_99" data-name="Rectangle 99" width="1.086" height="1.307" transform="translate(69.748 77.426)" fill="#fff"/>
        <path id="Path_6477" data-name="Path 6477" d="M11.055,22.2l.718,1.031.571.7.258-.092.184-.239.092-.276.442.737-.092.239-.239.276-.258.11h-.166l-.35-.074-.295-.221-.589-.9-.681-1.05Z" transform="translate(9.052 18.879)" fill="#48c3d1"/>
        <path id="Path_6478" data-name="Path 6478" d="M7.74,27.568l.5-3.388,1.1.147-.35,2.412v.239l.11.129.2-.055.2-.11h.35l.368.092.184.2-.037.405-.239.423-.368.295-.368.276-.295.11H8.7l-.368-.037-.295-.147-.221-.276-.074-.368Z" transform="translate(6.604 20.545)" fill="#48c3d1"/>
        <path id="Path_6479" data-name="Path 6479" d="M18.185,14.756h0l1.142-1.381-.7-.755a46.032,46.032,0,0,0-6.5,9.759l-.81-.295a2.965,2.965,0,0,0-.608-.221l-.773-.2a3.5,3.5,0,0,0-1.381,0,2.228,2.228,0,0,0-1.16.681l-.092.184-.129.239a1.952,1.952,0,0,0-.184.681,2.375,2.375,0,0,0,0,.718,2.044,2.044,0,0,0,.276.681,2.43,2.43,0,0,0,.46.516,7.512,7.512,0,0,0,.718.368l.313.147.295.092c.2,0,.295.092.313,0h0l.571-.939L9.4,24.791,9.163,24.7l-.258-.11-.295-.221H8.389a1.252,1.252,0,0,1-.46-.663.957.957,0,0,1,0-.718.884.884,0,0,1,.166-.313,1.841,1.841,0,0,1,1.455-.442,10.716,10.716,0,0,1,2.228.755A45,45,0,0,0,7.414,42.3c0,.681,0,1.381,0,2.062H6.824l-.387.258-.405.129-.405.129-.331.166L5,45.211l-.35.166-.276.184-.2.221L3.989,46l-.2.276-.129.313v.295l-.147,2.32.9-.9V46.886l.276-.423.184-.295.239-.276.35-.239.368-.184.368-.147.295-.092.387-.092h.626a45.5,45.5,0,0,0,.589,5.211h1.05a40.049,40.049,0,0,1-.571-4.438l3.351-.2-.81.755-.387.46-.221.479v.884l.258.571.221.35.313.239.331.2L12,49.8h.939l.331-.129.35-.184.405-.35.221-.35.2-.368.129-.35v-.957l-.166-.644-.405-.479-.387-.405,2.651-.147.681-.737v-.442l-4.069.258-.313-.35-.331-.405-.184-.276-.166-.239-.11-.313v-.737l.184-.258.239-.2h.737l.276.166.405.239.166.184.2.221.147.239.129.221v.239l1.123-.884-.368-.368-.423-.442-.387-.295-.423-.147H12.643l-.405.147-.46.129-.276.166-.239.2L11,42.025l-.221.258-.129.221v.865l.11.331.2.295.239.313.184.276-2.946.276V42.3a44.191,44.191,0,0,1,2.5-14.73l1.326.46-.184.295-.147.313-.166.239-.184.46-.166.368v1.086l.147.534.2.405.295.368.405.405.442.258.405.166.442.11h.773l.46-.11.534-.2.516-.313.423-.313.331-.295.313-.423.295-.423.147-.479v-.755l-.11-.405-.11-.239,1.142-.552.847-.35.166.221v.571l.755-.442v-.608l-.166-.2-.147-.092-.35-.092h-.368l-.957.516-1.1.608-.258-.387-.295-.35-.516-.295h-.81l-.258.2-.258.405v.608l.092.276.258.2.423.129h.718l.221.276v.9l-.166.46-.313.442-.368.239-.46.166h-.626l-.608-.11-.608-.092-.368-.331L12.68,31l-.11-.368v-1.1l.147-.479.276-.479.331-.516.295-.442v-.331L13.2,27l-1.841-.608c.387-1.013.81-2.025,1.289-3l.276.129,6.7,3.167.939-.313.2-.405-7.291-3.443-.295-.11c.626-1.252,1.326-2.467,2.062-3.683a1.51,1.51,0,0,1,.46-.221l.129-.11h.921l.331.11.313.295.166.313v1.123l-.184.258-.184.221-.313.129-.166.239.442.239h1.989l.626-.129.479-.11.423-.184.313-.221.239-.331.258-.534v-.994l-.092-.644,2.283,1.473.976-.184.239-.368ZM12.311,45.708l.276.166.331.313.258.258.258.313.239.295.184.295v.46l-.074.5-.166.258-.313.184h-.884l-.239-.092-.405-.11-.166-.239-.166-.313-.2-.423v-.387l.166-.405.221-.313.313-.368ZM20.523,19.12l-.129.46-.331.5-.331.295-.387.184-.552.092-.46.092h-.626l.423-.368.239-.35.11-.5v-.81l-.147-.405-.258-.276-.2-.184-.35-.166H16.381l-.681.239c.552-.81,1.123-1.639,1.731-2.43l.331.239,2.5,1.62.129.221.092.387v.516Z" transform="translate(2.953 10.617)" fill="#48c3d1"/>
        <path id="Path_6480" data-name="Path 6480" d="M59.91,23.889a44.744,44.744,0,0,0-4.272-7.862l-.829.589c.313.479.626.957.921,1.436L53.65,19.47,52.1,17.076V16.91l.516.11H53.8l.147-.074.184-.129.2-.2.147-.221.184-.258.11-.35v-.608l-.129-.5-.184-.313-.442-.405-.295-.184h-.792l-.405.166-.423.239-.313.331-.184.368v1.05h-.331l-.387-.092-.626-.221h-1.2l-.516.2-.405.258-.2.239-.2.258-.147.276-.092.258V18.7l.239.35.239.276.239.184.258.147h.276l-.571,2.136.331.46.718-2.541h1.031l.258-.129.239-.239.092-.295v-.258L50.7,18.4l-.221-.221-.276-.11h-.331l-.258.092-.2.147-.147.184v.46H49.01l-.184-.221-.405-.331-.166-.331v-.737l.166-.258.2-.221.276-.184h1.749l.442.092h.276V18.31l1.086,1.584L49.1,22.158l-.11,1.031.184.276,6.794-4.474c.5.865.957,1.731,1.4,2.615l-6.831,3.241-.35.939.2.387,7.494-3.517c.239.534.479,1.068.7,1.6Zm-7.641-8.452.147-.313.221-.258.313-.221.368-.11h.313l.295.147.2.184.184.239v.718l-.129.2L54,16.266H52.674l-.35-.11-.11-.129v-.313Z" transform="translate(39.961 11.593)" fill="#48c3d1"/>
        <path id="Path_6481" data-name="Path 6481" d="M58.075,18.788A46.345,46.345,0,0,0,46.862,9.011L48,7.74l.5-.516.644-.295h.608l.644.221.626.5.442.608.295.7.2.865.147.755.11.884v.571l.331.2v-2.6l-.11-.7-.166-.644-.387-.552-.405-.571L50.876,6.6l-.626-.331-.516-.147H48.666l-.608.184-.589.368-.442.552-1.1,1.381c-.81-.479-1.639-.939-2.467-1.363l-.5.884c.847.423,1.676.884,2.486,1.363L41.43,15.105l.166.976.368.258,4.456-6.334a46.033,46.033,0,0,1,4.161,2.946l-.442.46-.5-.147-.295-.11-.423-.166-.479-.184v1.234h1.068l.368.147h.258l.276.166.276.258.2.331v.939l-.221.313-.295.313-.387.239-.718.2H48l-.626-.239-.239-.129.221-.276.147-.258v-.313l-.11-.258-.129-.368-.35-.184h-.35l-.313.129L46,15.326l-.166.258v.608l.129.368v.295l.2.313.092.368V18l.295,2.688.737.718-.313-1.013-.147-1.381V17.518l.331.166.718.2.773.11h.663l.534-.129.46-.276.258-.276.313-.368.258-.423.129-.331.129-.35V14.664l-.239-.35-.184-.166.424-.571q1.436,1.215,2.817,2.541l.166.2-5.156,5.524v.976l.331.313L55.2,17.223c.718.773,1.436,1.547,2.1,2.357Z" transform="translate(34.855 5.149)" fill="#48c3d1"/>
        <path id="Path_6482" data-name="Path 6482" d="M64.5,27.451l-1.16.755v1.123l-.11.7-.2.5-.442.534-.46.405-.571.239-.479.11h-.737A44.19,44.19,0,0,0,58.494,21.43l-1.013.2a41.391,41.391,0,0,1,1.455,6.187l-2.725.46.387-.46.258-.442.221-.387.147-.5v-.644l-.129-.442-.11-.442-.147-.368-.239-.368-.331-.405-.368-.295-.387-.239-.534-.092h-.424l-.46.11-.5.276-.46.423-.405.571-.184.46-.147.516v1.013l.239.7.295.46.221.239.368.368.46.276L51.46,29l-.46.847v.423L59.046,29c.129.921.221,1.841.276,2.78l-7.365.11-.81.681v.46l8.175-.129v1.952a42.882,42.882,0,0,1-.387,5.763H57.923l.442-3.2v-.479l-.184-.387-.387-.258H56.671l-.423.184-.423.239-.442.387-.331.295-.2.331-.184.423v.663l.221.46.2.405.166.276.147.405-.11.368-.258.258h-.957l-.534-.092-.387-.276-.313-.46-.258-.46-.147-.552.11-.81.276-.516.718-.792.737-.589,1.2-.847h-.368l-.479.221-.718.424-.552.368-.626.405-.5.442-.479.479-.405.718V39.4l.11.534.129.368.295.516.35.405.405.331.442.184.571.129h.589l.626-.166.516-.221.368-.258.35-.46.2-.423V39.051l-.147-.626-.184-.35-.166-.387.184-.368.405-.092,1.123.11L57.132,41.5l1.639.147h.258a7.42,7.42,0,0,1-.239,1.4h1.05a6.428,6.428,0,0,1,.129-.792h.147l.405-.2.313-.166.424-.11.35-.092h.442l.423.11.331.166.276.2.166.2.092.295v.313l-.166.35-.2.184-.405.239-.368.184v.2h.644l.442-.147.442-.276.331-.368V42.4l-.147-.368-.221-.331-.258-.2-.35-.221-.534-.166h-1.16l-.7.295-.589.35a44.322,44.322,0,0,0,.534-6.868c0-.755,0-1.491,0-2.228l.626-.11h.516L62.2,32.4l.46-.166.442-.221.331-.258.387-.313.074-.5.2-.276.129-.258.2-.405v-.663Zm-10.864-.387-.166-.221-.147-.387v-1.1l.2-.479.258-.313.331-.239.534-.129h.46l.35.129.221.35ZM55.6,28.3h-.46L54.683,28l-.423-.35,1.841-2.21.184.571v1.307l-.368.626Z" transform="translate(42.906 18.029)" fill="#48c3d1"/>
        <path id="Path_6483" data-name="Path 6483" d="M63.118,10.194l.387-.939A46.971,46.971,0,0,0,45.091,5.573a27.134,27.134,0,0,0-2.744.092V3.934l.331-.626.423-.423.644-.239h.792l.847.184.7.368.7.534.589.5.663.644.387.405h.387l-.331-.423-.331-.423-.516-.5L47.1,3.4l-.552-.5L46.012,2.5l-.626-.405-.663-.2h-.847l-.7.11-.5.092-.516.313-.313.331-.368.534-.221.663V5.72A46.787,46.787,0,0,0,13.9,17.449l.7.792c.35-.313.7-.626,1.068-.921l2.1,2.633-.755.571.442.571,2.007.258.552-.405-.737-.939,2.173-1.731,2.044,2.633.994.129.35-.258-5.045-6.573c.773-.516,1.547-1.013,2.357-1.491l4,6.573.957.276.387-.221-4.345-7.181c1.031-.571,2.081-1.086,3.167-1.565l-.276.46-.2.387v.718l.221.276.387.184h1.234l.368-.129-.221.46-.147.331v.792l.221.387.239.313.35.239.258.166.368.184.442.147h1.381l.5-.129.442-.166.35-.221.276-.147.331-.368.239-.479-.7-1.694v.405l-.092.423-.147.35-.2.423-.166.258-.239.258-.258.239-.295.184-.313.129h-1.05l-.313-.11L29,14.65l-.184-.295-.147-.405v-.423l.147-.387.239-.387.276-.276.295-.276.424-.276.35-.147-1.326-.626-.258.258-.129.184-.184.2-.258.166-.387.184H27.1l-.129-.184-.11-.258V11.3l.11-.276v-.295l.221-.276.239-.368a46.768,46.768,0,0,1,6.334-2.1,5.947,5.947,0,0,1,.884.184h0l.221.11.295.184.258.239.147.313v.442l-.11.313-.2.239-.184.221-.258.184-.221.11h-.589l-.331-.11h-.295l.147.479.295.368.313.387.368.405.423.405.534.331.423.276.423.147.368.129h.405l.626-.2.313-.2.405-.423.387-.534.552,2.633.829.552h.442L39.089,7.616l-.129-.534c.81-.11,1.639-.184,2.449-.258l.552,7.568.755.663h.442l-.571-8.267h3.185L45.552,10.1h-.939v.7l1.344,1.51h.681V11.133l2.854.166-.2,3.314.663.737h.442l.516-8.415a44.706,44.706,0,0,1,7.015,1.436l-.994,3.167-.5-1.068-.313-.516-.387-.368-.368-.129-.442-.129H54.3l-.405.129-.35.2L53.23,9.9l-.258.295-.184.46-.037.387v.644l.221.479.239.35.276.295.295.239.35.184.552.166h.7l.608-.2.442-.055-.755,2.5.479.865.423.129,1.16-3.848.442-.184.5-.147h.957l.479-.055.276.166.184.239.11.295v.35l-.147.331-.424.221-.368.276-.221.092-.295.11h-.755l.46,1.344.479-.221.7-.221.405-.258L60.8,14.8l.221-.368.147-.258V12.588l-.11-.276-.166-.35-.166-.295-.184-.184-.424-.184H58.883l-.387.11h-.331l.865-2.78c1.4.442,2.744.939,4.088,1.51M56.581,11.98l-.424.2-.331.147-.387.129-.35.11h-.829l-.387-.276-.2-.331v-.847l.166-.276.184-.2.276-.221h1.086l.35.184.331.276.221.258.258.423.276.479ZM20.878,17.5l-2.265,1.712L16.5,16.639c.737-.608,1.491-1.178,2.265-1.731Zm17-10.09.626,3.112v.239l-.221.35-.331.423-.368.35-.442.221-.571.129h-.46l-.387-.147-.46-.313-.405-.258-.516-.405h.994l.442-.295.405-.276.239-.331.166-.387V9.181l-.11-.368-.295-.258-.239-.2-.258-.147L35.5,8.1h-.11l-.755-.276c1.031-.239,2.062-.442,3.112-.608Zm11.674,2.67-2.854-.166.258-3.351a15.16,15.16,0,0,1,2.854.184Z" transform="translate(11.694 1.59)" fill="#48c3d1"/>
        <path id="Path_6484" data-name="Path 6484" d="M10.834,36.211A1.372,1.372,0,1,1,9.471,34.83a1.381,1.381,0,0,1,1.363,1.381" transform="translate(6.806 29.302)" fill="#48c3d1"/>
        <path id="Path_6485" data-name="Path 6485" d="M55.9,36.211a1.381,1.381,0,1,1-1.363-1.381A1.381,1.381,0,0,1,55.9,36.211" transform="translate(44.706 29.302)" fill="#48c3d1"/>
        <path id="Path_6486" data-name="Path 6486" d="M40.77,65.8l1.841,1.473a.277.277,0,0,1-.11.313h0a.184.184,0,0,1-.166,0l-1.841-.829-.994-.5Z" transform="translate(33.231 55.357)" fill="#48c3d1"/>
        <path id="Path_6487" data-name="Path 6487" d="M14.836,62.442h0a1.436,1.436,0,0,0,.276-1.307,3.187,3.187,0,0,0-.184-.442l-.129-.221h.166a1.289,1.289,0,0,0,.368,0,1.418,1.418,0,0,0,.5-.147,1.142,1.142,0,0,0,.405-.387,1.215,1.215,0,0,0,.258-.957,2.173,2.173,0,0,0-.957-1.363,3.425,3.425,0,0,0-.718-.387,1.455,1.455,0,0,0-1.215,0,2.081,2.081,0,0,0-.5.405l.644.5.221-.166h.166a.829.829,0,0,1,.479,0,1.289,1.289,0,0,1,.516.276,1.381,1.381,0,0,1,.313.331.626.626,0,0,1,.11.829.7.7,0,0,1-.608.295,1.841,1.841,0,0,1-1.1-.442l-.2-.147h-.11l-.46.626h.221l.166.129a1.547,1.547,0,0,1,.405.387l.313.405a1.031,1.031,0,0,1-.11,1.086,1.583,1.583,0,0,1-.313.276.5.5,0,0,1-.368,0,2.154,2.154,0,0,1-.368-.11l-.35-.184-.258-.184-.295-.239a1.4,1.4,0,0,1-.442-.737.976.976,0,0,1,0-.35,1.713,1.713,0,0,1,.258-.442l-.663-.479h0v.11a1.6,1.6,0,0,0-.276.5,2.136,2.136,0,0,0,0,.534,2.283,2.283,0,0,0,1.086,1.694l.423.276a2.817,2.817,0,0,0,1.178.405,1.436,1.436,0,0,0,1.307-.626" transform="translate(9.23 48.036)" fill="#48c3d1"/>
        <path id="Path_6488" data-name="Path 6488" d="M34.895,66.255c-.552-.129-1.1-.239-1.639-.387v-.11l-.092-.295v-.276l-.129-.424-.11-.313-.129-.276-.092-.147-.184-.239-.424-.423-.184-.2-.221-.2-.2-.184-.239-.2-.276-.166a.239.239,0,0,0-.129,0h-.35a.239.239,0,0,0-.258.147h0v.2a.663.663,0,0,0,0,.184v.166l.129.11.479.258.276.147.239.184.2.166.184.166a.644.644,0,0,1,.184.221l.184.258.147.258.2.424.239.516h0A53.4,53.4,0,0,1,15.543,58.19l-.479.718.939.608-1.031,1.4-.865-.644-.46.608.865.644-1.6,2.191.718.552,3.13-4.327c1.068.663,2.173,1.27,3.3,1.841h0l.11.129.11.2h0a1.289,1.289,0,0,1,.166,1.252,1.675,1.675,0,0,1-.368.442,1.012,1.012,0,0,1-.46.129,1.639,1.639,0,0,1-.865-.239l-.276-.166-.331-.166-.295-.313-.368.718.552.423v.2a3,3,0,0,0-.239.663,3.9,3.9,0,0,0,0,.626,1.731,1.731,0,0,0,1.252,1.491l.534.239.46.129.331-.773h-.718a1.97,1.97,0,0,1-.681-.5,1.013,1.013,0,0,1-.331-.571,1.455,1.455,0,0,1-.037-1.05v-.092h0a1.639,1.639,0,0,0,.644.2h.387a1.6,1.6,0,0,0,1.4-.957,1.491,1.491,0,0,0,.11-.976l-.092-.35h0l2.117.976-.9,1.712-1.326-.663-.35.7,1.326.663-1.16,2.32.792.424,2.578-4.935a50.73,50.73,0,0,0,5.321,1.841L29.169,66.7h0s-.092-.092-.129-.092h-.276a1.841,1.841,0,0,0-.423-.221l-.368-.11-.534-.129H26.5l-.423.147a1.841,1.841,0,0,0-1.031,1.178,1.97,1.97,0,0,0,.405,2.081l.331.331.552.35.405-.534-.387-.331-.387-.276a1.675,1.675,0,0,1-.313-.7,1.307,1.307,0,0,1,0-.7,1.123,1.123,0,0,1,.718-.755h.589a1.455,1.455,0,0,1,.608.092l.331.11.166.092h.184l.166.11h.166l.11.11h0l-.773,3.277.829.295,1.565-5.1,2.228.589-1.05,5.045.847.184.994-5.064,1.418.313Z" transform="translate(10.861 48.954)" fill="#48c3d1"/>
        <path id="Path_6489" data-name="Path 6489" d="M36.829,64.312v-.718h-.994a56.86,56.86,0,0,1-10.053-.884l-.221.718c1.013.166,2.062.331,3.093.442v1.51H27.291a1.252,1.252,0,0,0-.792,1.234,1.841,1.841,0,0,0,.11.644,1.381,1.381,0,0,0,.331.516,2.523,2.523,0,0,0,.479.313,1.842,1.842,0,0,0,.608.092c.884,0,1.381-.276,1.491-.921v-1.2H31.36v2.872h.921l.147-4.971h2.246v4.971h.865V63.962h1.455m-8.267,2.909-.092.147c0,.129-.258.184-.516.166a.626.626,0,0,1-.552-.258.829.829,0,0,1,0-.516.534.534,0,0,1,0-.295.368.368,0,0,1,.239-.2h.939v1.123Zm2.725-1.731H29.611V63.7c.589,0,1.178.11,1.841.166Z" transform="translate(21.503 52.757)" fill="#48c3d1"/>
        <path id="Path_6490" data-name="Path 6490" d="M63.295,58.4l1.142-.865-.442-.608a54.7,54.7,0,0,1-31.5,11.49v.718l2.8-.2h0a1.289,1.289,0,0,1,.608.921,1.437,1.437,0,0,1,0,.552.81.81,0,0,1-.331.368,1.694,1.694,0,0,1-.847.239H33.576v.792h.7v.221a2.173,2.173,0,0,0,.147.681,2.338,2.338,0,0,0,.295.571,1.841,1.841,0,0,0,1.841.626h.589l.442-.129v-.829l-.313.184h-.368a1.841,1.841,0,0,1-.847,0,1.05,1.05,0,0,1-.571-.331,1.252,1.252,0,0,1-.331-.829v-.184a2.063,2.063,0,0,0,.663-.166l.331-.184a1.547,1.547,0,0,0,.7-1.528,1.362,1.362,0,0,0-.405-.9l-.166-.166,2.136-.295.147,1.841-1.473.11v.792l1.473-.11.387,2.449h.9l-.424-5.266c1.676-.276,3.314-.626,4.935-1.05v1.031l-1.123.184-.46.184a.921.921,0,0,0-.331.184,1.676,1.676,0,0,0-.571,1.657,1.841,1.841,0,0,0,.295.773,1.565,1.565,0,0,0,.608.534,2.338,2.338,0,0,0,1.639.2h.552l.534.976.829-.442-.737-.865.608-.368-.276-.608-.957-.387-.608.35.258.663h-.368a2.89,2.89,0,0,1-.534,0,1.141,1.141,0,0,1-.442-.147.994.994,0,0,1-.571-.755,1.713,1.713,0,0,1,0-.608.9.9,0,0,1,.387-.442l.221-.11.331-.11,1.565-.258-.258-1.841c1.031-.276,2.062-.608,3.093-.939l.552.258.46.405a3.351,3.351,0,0,1,.626,1.031,1.989,1.989,0,0,1,.2,1.252.681.681,0,0,1-.442.479.865.865,0,0,1-.681,0l-.276-.166a.644.644,0,0,1-.147-.276c0-.276,0-.46.129-.571a.35.35,0,0,1,.147,0l.239-.129-.258-.718-.239.129-.313.239-.239.184-.166.2a1.086,1.086,0,0,0,0,1.068,1.842,1.842,0,0,0,.35.534,1.436,1.436,0,0,0,.534.387,2.044,2.044,0,0,0,.626.11,1.841,1.841,0,0,0,1.712-1.381,2.965,2.965,0,0,0-.276-1.583,2.118,2.118,0,0,0-.258-.5l-.35-.5a.976.976,0,0,1-.166-.2l-.276-.239-.46-.276,1.841-.663,1.989,4.9.847-.313-1.841-4.953c1.086-.46,2.173-.957,3.222-1.473l.773,1.289-.534.313-.35.295-.2.221a1.307,1.307,0,0,0,0,1.473,1.436,1.436,0,0,0,.46.479,1.271,1.271,0,0,0,.552.258h.571a1.565,1.565,0,0,0,.552-.239c.755-.442,1.013-.976.773-1.584l-.626-1.031,1.565-.921,1.473,2.449.792-.442-2.559-4.29,2.1-1.27h.147l.313.11.239.147.147.166a.46.46,0,0,1,0,.626.534.534,0,0,1-.2.2l-.516.313-.35.147h-.405l.092.221.129.221a3.886,3.886,0,0,0,.5.663l.626.442a2.375,2.375,0,0,0,2.283-.276,2.283,2.283,0,0,0,.5-.387,3.885,3.885,0,0,0,.424-.46l.2-.313v-.166l.773,1.289.755-.423Zm-6.776,8.4a.663.663,0,0,1-.626,0,.81.81,0,0,1-.35-.387.552.552,0,0,1-.018-.147.331.331,0,0,1,0-.295v-.11l.147-.147.534-.313.368.608h.092v.368c0,.166-.129.295-.331.423m1.712-3.554-1.547.939-.755-1.234,1.639-.865Zm5.782-1.639-.11.258-.147.276a2.5,2.5,0,0,1-.81.7,2.908,2.908,0,0,1-.644.295,2.154,2.154,0,0,1-.571,0h-.295l-.239-.129-.221-.184-.129-.184.405-.184.479-.35a1.842,1.842,0,0,0,.35-.423,1.086,1.086,0,0,0,0-1.178,1.51,1.51,0,0,0-.571-.5l-.276-.11h0l1.418-.976h0l1.455,2.449Z" transform="translate(27.333 47.894)" fill="#48c3d1"/>
      </g>
    </g>
  </g>
</svg>
