<svg xmlns="http://www.w3.org/2000/svg" width="33.76" height="28.984" viewBox="0 0 33.76 28.984">
  <g id="_993c4aeb81cf9548b218de074cfd014d" data-name="993c4aeb81cf9548b218de074cfd014d" transform="translate(-10 -79.325)">
    <path id="Path_6509" data-name="Path 6509" d="M43.76,106.456a1.808,1.808,0,0,1-1.809,1.809c-.214,0-.413.086-.6.017H10v-4.823H36.526a2.038,2.038,0,0,0,1.206-1.206V86.579H43.76v19.877Zm-10.852-5.409a1.207,1.207,0,0,1-1.206,1.206H17.234a1.207,1.207,0,0,1-1.206-1.206V90.2h-2.9L23.673,79.648a1.112,1.112,0,0,1,1.567,0L35.789,90.2h-2.88ZM22.04,91.388H18.423v3.617H22.04Zm0,4.823H18.423v3.617H22.04Zm4.823-4.823H23.246v3.617h3.617Zm0,4.823H23.246v3.617h3.617Z" transform="translate(0 0)" fill="#72b562"/>
  </g>
</svg>
