<svg id="english" xmlns="http://www.w3.org/2000/svg" width="60.5" height="55.891" viewBox="0 0 60.5 55.891">
  <path id="Path_7146" data-name="Path 7146" d="M13.516,284.286a2.894,2.894,0,0,0-2.9-2.886H2.9a2.886,2.886,0,1,0,0,5.772h7.715A2.894,2.894,0,0,0,13.516,284.286Z" transform="translate(0 -239.967)" fill="#fff"/>
  <path id="Path_7147" data-name="Path 7147" d="M2.9,175.886h7.715a2.893,2.893,0,1,0,0-5.786H2.9a2.893,2.893,0,1,0,0,5.786Z" transform="translate(0 -145.055)" fill="#fff"/>
  <path id="Path_7148" data-name="Path 7148" d="M2.9,64.771h7.715a2.886,2.886,0,1,0,0-5.772H2.9a2.886,2.886,0,1,0,0,5.772Z" transform="translate(0 -50.312)" fill="#fff"/>
  <path id="Path_7149" data-name="Path 7149" d="M220.468,103h-.221a14.175,14.175,0,0,1-.648,3.18l-4.3,13.148h10.042l-4.27-13.06A12.589,12.589,0,0,1,220.468,103Z" transform="translate(-183.6 -87.835)" fill="#fff"/>
  <path id="Path_7150" data-name="Path 7150" d="M90.009,0H42.2a2.894,2.894,0,0,0-2.9,2.886v2.9h4.829a5.786,5.786,0,1,1,0,11.573H39.3v4.815h4.829a5.772,5.772,0,1,1,0,11.543H39.3v4.815h4.829a5.786,5.786,0,1,1,0,11.573H39.3v2.886a2.9,2.9,0,0,0,2.9,2.9H90.023c2.209,0,3.99-1.3,3.99-2.9V2.9C94,1.3,92.2,0,90.009,0ZM79.952,46.336l-2.827-8.628H63.432l-2.768,8.628h-8.7l13.8-37.663h9.423L88.7,46.336Z" transform="translate(-33.514)" fill="#fff"/>
</svg>
