<svg xmlns="http://www.w3.org/2000/svg" width="25.71" height="18" viewBox="0 0 25.71 18">
  <g id="Group_1407" data-name="Group 1407" transform="translate(-288 -182)">
    <path id="users-regular" d="M21.857,39.714A3.214,3.214,0,1,0,18.643,36.5,3.213,3.213,0,0,0,21.857,39.714Zm0-4.5A1.286,1.286,0,1,1,20.571,36.5,1.289,1.289,0,0,1,21.857,35.214Zm-18,4.5A3.214,3.214,0,1,0,.643,36.5,3.213,3.213,0,0,0,3.857,39.714Zm0-4.5A1.286,1.286,0,1,1,2.571,36.5,1.289,1.289,0,0,1,3.857,35.214Zm15.927,8.474a4.58,4.58,0,0,0-5.135-1.675,6.126,6.126,0,0,1-3.592,0,4.574,4.574,0,0,0-5.135,1.675,4.6,4.6,0,0,0-.787,2.583v1.8A1.929,1.929,0,0,0,7.063,50H18.635a1.929,1.929,0,0,0,1.929-1.929v-1.8A4.536,4.536,0,0,0,19.784,43.688Zm-1.141,4.383H7.071v-1.8a2.707,2.707,0,0,1,2.628-2.7,8.078,8.078,0,0,0,6.316,0,2.7,2.7,0,0,1,2.628,2.7ZM22.339,41h-.964a3.363,3.363,0,0,0-1.88.575,5.871,5.871,0,0,1,1.382,1.454,1.464,1.464,0,0,1,.494-.1h.964a1.451,1.451,0,0,1,1.446,1.446.964.964,0,1,0,1.929,0A3.374,3.374,0,0,0,22.339,41Zm-9.482,0a4.5,4.5,0,1,0-4.5-4.5A4.5,4.5,0,0,0,12.857,41Zm0-7.071A2.571,2.571,0,1,1,10.286,36.5,2.574,2.574,0,0,1,12.857,33.929ZM6.22,41.575A3.363,3.363,0,0,0,4.339,41H3.375A3.38,3.38,0,0,0,0,44.375a.964.964,0,1,0,1.929,0,1.451,1.451,0,0,1,1.446-1.446h.964a1.425,1.425,0,0,1,.494.1A5.961,5.961,0,0,1,6.22,41.575Z" transform="translate(288 150)" fill="#fff"/>
  </g>
</svg>
