<svg id="Group_2119" data-name="Group 2119" xmlns="http://www.w3.org/2000/svg" width="64.572" height="127.525" viewBox="0 0 64.572 127.525">
  <path id="Path_25" data-name="Path 25" d="M53.65,18.957c0,1.041.336.945,1.2,1.2,3.379,1.041,7.3-.4,7.3-4a2.13,2.13,0,0,0-4.02-.993c-.7.977-.625,2.242-2.322,3.2a6.55,6.55,0,0,1-2.162.577" transform="translate(-42.103 8.429)" fill="#e9769f"/>
  <path id="Path_26" data-name="Path 26" d="M74.3,15.972a3.731,3.731,0,0,0,1.6,3.539c1.6,1.281,6.678,1.505,6.854-.561-3.619-.32-3.523-2.146-4.436-3.683a2.146,2.146,0,0,0-4.084.7" transform="translate(-29.718 8.435)" fill="#e9769f"/>
  <path id="Path_27" data-name="Path 27" d="M57.9,13.356c0,5,.785,7.879,4.292,11.531a13.8,13.8,0,0,0,19.426,0C90.522,15.647,84.453,0,71.7,0A14.029,14.029,0,0,0,59.373,7.831,14.221,14.221,0,0,0,57.9,13.324" transform="translate(-39.547 0)" fill="#e9769f"/>
  <path id="Path_28" data-name="Path 28" d="M46.5,48.609c0,2.034.545,1.746,2.562,2.8,2.61,1.345,3.892,2.274,5.749.753,1.457-1.185,6.71-11.034,7.607-11.627V52.469c0,3.331-4.5,20.5-5.541,24.855-.432,1.778-1.537,4.18.064,4.18h9.817v31.629c0,3.523,5.029,2.979,7.463,2.979,1.6,0,3.539-1.169,3.539-2.466V81.5h2.162v32.03c0,1.249,2.034,2.466,3.539,2.466,2.418,0,7.463.544,7.463-2.979V81.5h9.609c1.6,0,.224-3.075-.288-5.365-.384-1.778-.785-3.2-1.169-4.9-.737-3.379-1.6-6.406-2.354-9.817-.368-1.6-.785-3.107-1.153-4.8a21.012,21.012,0,0,1-.929-5.125V39.577l.561.721a9.813,9.813,0,0,1,.545.913l5.509,8.936a5.781,5.781,0,0,0,1.281,1.6c2.162,1.826,3.427.336,5.781-.721,2.9-1.313,3.491-2.162,1.6-5.493-1.7-2.931-4.116-6.486-5.765-9.417-1.041-1.65-9.4-15.47-10.378-16.223-1.6-1.313-4.02-.913-7.031-.913H70.478c-3.075,0-5.477-.416-7.031,1.089l-8.68,13.981c-.256.448-.4.689-.7,1.137l-5.125,8.28c-.977,1.746-2.5,3.3-2.5,5.141" transform="translate(-46.44 11.383)" fill="#e9769f"/>
</svg>
