<svg xmlns="http://www.w3.org/2000/svg" width="17.132" height="17.128" viewBox="0 0 17.132 17.128">
  <path id="Icon_awesome-instagram" data-name="Icon awesome-instagram" d="M8.562,6.41A4.391,4.391,0,1,0,12.954,10.8,4.384,4.384,0,0,0,8.562,6.41Zm0,7.246A2.855,2.855,0,1,1,11.417,10.8a2.86,2.86,0,0,1-2.855,2.855Zm5.6-7.426a1.024,1.024,0,1,1-1.024-1.024A1.022,1.022,0,0,1,14.158,6.231Zm2.908,1.04a5.069,5.069,0,0,0-1.384-3.589A5.1,5.1,0,0,0,12.094,2.3c-1.414-.08-5.653-.08-7.067,0a5.1,5.1,0,0,0-3.589,1.38A5.085,5.085,0,0,0,.055,7.266c-.08,1.414-.08,5.653,0,7.067a5.069,5.069,0,0,0,1.384,3.589,5.109,5.109,0,0,0,3.589,1.384c1.414.08,5.653.08,7.067,0a5.069,5.069,0,0,0,3.589-1.384,5.1,5.1,0,0,0,1.384-3.589c.08-1.414.08-5.649,0-7.063Zm-1.827,8.58a2.89,2.89,0,0,1-1.628,1.628c-1.127.447-3.8.344-5.049.344s-3.925.1-5.049-.344A2.89,2.89,0,0,1,1.886,15.85c-.447-1.127-.344-3.8-.344-5.049s-.1-3.925.344-5.049A2.89,2.89,0,0,1,3.514,4.125c1.127-.447,3.8-.344,5.049-.344s3.925-.1,5.049.344a2.89,2.89,0,0,1,1.628,1.628c.447,1.127.344,3.8.344,5.049S15.686,14.727,15.239,15.85Z" transform="translate(0.005 -2.238)" fill="#fff"/>
</svg>
