<svg xmlns="http://www.w3.org/2000/svg" width="37.846" height="41.207" viewBox="0 0 37.846 41.207">
  <g id="_1231e0e57825caf87e4f7837acca2a04" data-name="1231e0e57825caf87e4f7837acca2a04" transform="translate(-49.8 -9.762)">
    <path id="Path_6498" data-name="Path 6498" d="M191.2,542.3h26.122v18.82H191.2V542.3Z" transform="translate(-135.456 -510.151)" fill="#989898"/>
    <path id="Path_6499" data-name="Path 6499" d="M49.8,575.422v10.1h4.258v-13.09A4.15,4.15,0,0,0,49.8,575.422Z" transform="translate(0 -539.011)" fill="#989898"/>
    <path id="Path_6500" data-name="Path 6500" d="M848.8,572.434V585.52h4.258v-10.1A4.148,4.148,0,0,0,848.8,572.434Z" transform="translate(-765.412 -539.011)" fill="#989898"/>
    <path id="Path_6501" data-name="Path 6501" d="M266.792,28.74V27.521c0-.244-.567-.975-.567-1.215,0-.114-.181-.74-.362-1.433A7.742,7.742,0,0,1,265.5,22.9c.08-.647-.412-1.7.643-1.946a10.761,10.761,0,0,1,2.194-.408,10.5,10.5,0,0,1,2.026.488s.37.891,2.64.61,3.1.731,2.4-1.379.357-2.838,1-2.8,1.135.324,1.379,1.581a22.235,22.235,0,0,1,.286,4.948c-.16.61-.08,1.824-.727,1.946s-1.421,1.984-1.383,2.392a4.137,4.137,0,0,0,.206.853H281.8V17.453s-.975-7.584-9.492-7.647c0,0-8.58-1.093-10.711,7.663V29.177h5.192Z" transform="translate(-202.896 0)" fill="#989898"/>
  </g>
</svg>
