<svg xmlns="http://www.w3.org/2000/svg" width="9.999" height="20" viewBox="0 0 9.999 20">
  <g id="_2f88464db64f1fef7fff0324da510888" data-name="2f88464db64f1fef7fff0324da510888" transform="translate(-255 -15)">
    <path id="Path_7113" data-name="Path 7113" d="M263.715,10h-7.432A1.38,1.38,0,0,0,255,11.457V28.543A1.38,1.38,0,0,0,256.284,30h7.428A1.379,1.379,0,0,0,265,28.543V11.457A1.38,1.38,0,0,0,263.715,10Zm-5.55.886h3.669c.092,0,.167.157.167.351s-.076.353-.167.353h-3.669c-.092,0-.165-.157-.165-.351S258.073,10.886,258.165,10.886ZM260,28.561a.936.936,0,1,1,.818-.931A.88.88,0,0,1,260,28.561Zm4.036-3.185h-8.073V12.459h8.073Z" transform="translate(0 5)" fill="#5e5e5e"/>
  </g>
</svg>
