<svg xmlns="http://www.w3.org/2000/svg" width="351.036" height="146.713" viewBox="0 0 351.036 146.713">
  <g id="Group_3028" data-name="Group 3028" transform="translate(-1676.46 3492)">
    <g id="Group_3021" data-name="Group 3021" transform="translate(1729.687 -3492)">
      <path id="Path_3125" data-name="Path 3125" d="M534.025,565.766l.021,0C534.023,565.738,534.02,565.746,534.025,565.766Z" transform="translate(-518.199 -516.982)" fill="#1f417e"/>
      <path id="Path_3126" data-name="Path 3126" d="M947.564,602.646q-.152-1.893-.3-3.788v3.8Z" transform="translate(-726.327 -533.659)" fill="#1f417e"/>
      <path id="Path_3127" data-name="Path 3127" d="M955.972,597.424c-.017.241-.036.482-.053.724h.053Q955.972,597.786,955.972,597.424Z" transform="translate(-730.688 -532.936)" fill="#1f417e"/>
      <path id="Path_3128" data-name="Path 3128" d="M799.952,573.222v-.5c-3.212-.724-6.465-1.307-9.612-2.246-1.111-.332-1.965-1.53-2.991-2.378l-1.3,2.036-1.888-2.6-.314.155.486,1.605h-7.013c.3-4.8.531-9.46.9-14.106,1.086-13.865.41-27.69-.91-41.5-.675-7.061-1.058-14.183-2.313-21.144-1.088-6.039-3.218-11.891-4.976-18.142h5.736q.031-.4.061-.807a18.821,18.821,0,0,0-2.384-.347c-2.964-.064-5.577-.55-6.232-4.134-.106-.582-.656-1.083-1-1.621h-.993l1.957,4.74c-5.194,0-10.211.077-15.225-.015-11.9-.22-23.8-.445-35.69-.806-18.742-.569-37.477-1.4-56.221-1.844-16.936-.4-33.883-.693-50.823-.575-15.6.108-31.2.972-46.809,1.186-5,.068-9.9,1.051-14.908,1.226h11.474c-2.012,2.425-4.341,1.407-6.243,1.774-2.072.4-4.247.266-6.38.676h11.212q-3.959,21.011-7.788,41.323c-10.708.565-20.987,1.117-31.269,1.606-.244.012-.506-.42-.527-.507l-10.15,1.378c-.27-1.4-.522-2.691-.772-3.985l-.689.027c-.093,1.564-.186,3.128-.282,4.731l-3.365.616.019.618,2.564.674c0,.124-.006.248-.01.372l-2.495.211-.077.527,2.483,1.15V573.49l-3.052,1.222v8.934c.214.617.472,1.222.636,1.852a4.32,4.32,0,0,0,4.568,3.58c3.63.074,7.256.374,10.886.5,6.581.237,13.164.421,19.858.63.439,6.249,4.6,8.914,9.7,10.7a1.739,1.739,0,0,1,.237.071c2.147,1.138,4.255,2.356,6.448,3.4,3.021,1.437,5.991,3.171,9.185,4.016,8.036,2.128,15.478-1.114,22.74-3.732,6.1-2.2,9.417-7.663,11.3-13.658.714-2.277,1.879-2.792,3.813-2.85,5.613-.168,11.226-.48,16.838-.467,17.429.042,34.858.219,52.287.32,6.431.037,12.862.006,19.383.006,1.435,5.361,5.144,9.649,10.842,10.921,4.737,1.057,9.441,1.919,13.642,4.5a4.565,4.565,0,0,0,1.419.425,35.045,35.045,0,0,0,25.589-3.608c5.688-3.213,10.182-7.276,11.451-14.046l33.051,1.771.795,1.869,4.747-2.931-2.086-.156V571.728ZM775.97,521.913l1.222-.077c0,3.414-.04,6.829.011,10.243.05,3.287.228,6.572.258,9.859,0,.492-.5.988-.764,1.482-.242-.438-.692-.874-.7-1.314C775.956,535.375,775.97,528.644,775.97,521.913Zm-.013,25.119a7.777,7.777,0,0,1,.041-1.723c.092-.379.495-.683.759-1.021.247.342.73.7.706,1.025q-.817,11.44-1.76,22.872c-.038.464-.461.9-.7,1.342l-.932-.287c.6-4.066,1.372-8.116,1.743-12.2C776.11,553.725,775.927,550.369,775.957,547.032Zm-2.121-56.146,1.508,12.273-.6.074q-.747-6.138-1.493-12.275Zm.915,52.437H771.29v-7.076C771.847,538.832,771.075,542.046,774.751,543.324Zm-92.265-71.732.076.263H662.874c0-.087,0-.175,0-.263Zm-61.675-1.5h17.523l0,.2H620.764Zm-7.909.052-53.112,2.118q-.013-.378-.025-.757C577.575,470.781,595.357,469.242,612.9,470.139Zm-93.043,49.95c7.986-1.244,15.954-2.747,24.11-1.564a5.019,5.019,0,0,0,2.563-.734,2.275,2.275,0,0,1,3.229,1.094c3.072-2.648,2.019-6.623,3.346-10.1.222,1.051.393,1.863.564,2.675l.655.049c.188-1.767.276-3.553.583-5.3,1.128-6.415,2.349-12.814,3.493-19.227.637-3.57,1.231-7.149,1.762-10.737.226-1.531.486-2.441,2.452-1.765.811.278,1.979-.734,3-.772,10.4-.392,20.8-.807,31.2-1.013,14.664-.291,29.331-.411,44-.6.743-.01,1.487,0,2.23,0l.013.193-3.268.254c.005.128.011.256.017.383,4.508,0,9.016.019,13.524,0,13.963-.072,27.928-.289,41.889-.191,7.841.055,15.677.644,23.517.947,3.777.145,7.559.2,11.339.271,11.26.218,22.522.376,33.779.689a27.051,27.051,0,0,1,5.289,1.206c-.008.219-.017.438-.025.657l-.848.292c.988,2.362,3.751,4.548,1.951,7.976.165.233.866.774.94,1.391,1.206,10.053,2.333,20.115,3.517,30.515-6.907,0-13.159,0-19.412,0-1.94,0-3.9.175-5.818-.015-3.911-.386-7.793-1.105-11.708-1.41-2.2-.171-4.463.479-6.659.3-6.581-.547-13.068.781-19.632.713-6.682-.069-13.371.658-20.055.623-5.78-.03-11.507.672-17.275.727-6.008.057-12.014.386-18.02.607q-30.086,1.108-60.171,2.221c-16.427.6-32.853,1.226-49.283,1.731-8.413.258-16.833.309-25.25.364a14.932,14.932,0,0,1-3.4-.781l-.076-.786A8.022,8.022,0,0,1,519.859,520.088Zm236.664-1.2c.02-.122.039-.243.059-.365h4.978l.128,2.28Zm1.569,24.461-.862.53c-.47-.488-1.341-.969-1.35-1.465-.12-6.647-.12-13.3-.149-19.945,0-.776,0-1.553,0-2.329l.8-.035Zm.466-22.19.26-.039,1.314,20c1.216-2.677,1.153-8.23-.085-11.215l-.733-9.036,2.2.836c-.527.868-1.157,1.452-1.218,2.091-.195,2.027-.177,4.073-.242,6.113q.483-2.708.964-5.432l.477-.07q.5,8.6,1,17.2c.79-6.425.082-12.858-.364-19.29l.8-.04q.582,10.266,1.162,20.531l.6.03q.345-3.453.689-6.905l.265-.019v4.572l.542.008.257-5.555.483.016v8.59h-8.367Zm5.045,1.709.787-.019v15.315l-.066-.022Q763.965,530.51,763.6,522.873Zm1.653-2.622-.351-1.813,3.525.236a9.677,9.677,0,0,1,.225,1.324c.026,1.224.009,2.449.009,3.673l-.269.046-.663-3.733Zm2.8,21.723c.176-3.273.049-6.563.446-9.859l.441,9.9.5.014.6-2.439v3.868C768.822,543.7,767.953,543.917,768.058,541.974ZM755.23,519.431v21.612l-.05.013q-.372-10.772-.745-21.543Zm-4.443,16.595c-.159-5.814-.258-11.629-.392-17.964.407.68.948,1.163.946,1.644-.022,7.351-.113,14.7-.189,22.052C751.02,539.847,750.84,537.938,750.788,536.026Zm1.3-1.73c.089-3.116-.231-6.243-.355-9.366-.035-.88-.006-1.762-.006-2.644l.811,0V542.74l1,.013V524.315l.711,0v19.47l-2.579.132-.488-1.794c0-.041-.006-.081-.009-.122C751.5,539.446,752.016,536.877,752.091,534.3Zm-5.958,9.4V524.482l-.222-.005v9.777l-.294.01q-.456-7.007-.912-14.014l-1.08.015v2.6l.848,0v20.927h-3.9c.324-7.212.644-14.366.965-21.519l.414-.019q.5,9.624.991,19.248h.616v-9.267c-.981-3.852-.143-7.9-1.785-11.58l-.718.035-.791,18.834c-.958-6.07.588-12.378-1.512-18.322l-.721.012q-.163,2.593-.326,5.187l.524.054.224-3.327.648,0c.108,6.539.246,13.079.264,19.619,0,.48-.86.962-1.319,1.443l-.67-.449q.091-1.722.183-3.444l-.983,2.1c-.051-.385-.146-1.113-.241-1.841l-.325.03v3.325h-15.86c.338-3.143.671-6.246,1-9.349l-1.347,6.041-.5.009v-21.96l2.632-.143c.382,4.772.759,9.489,1.136,14.194V518.667c1.121-.514,1.568.035,1.542,1.513a80.05,80.05,0,0,0,.332,9.9v-8.115l.741,0V539.44l1.163.073c.169-2.267.354-4.534.519-6.8l-.689,0q-.38-6.9-.759-13.795l.8-.465a5.555,5.555,0,0,1,.669,1.745c.055,3.929.035,7.859.032,11.788q.093-1.313.172-2.627a70.669,70.669,0,0,1,1.036-10.382c.314,6.337.628,12.674.975,19.674v-20l.672-.035c.653,6.218-.09,12.511.6,18.739V518.915l.811-.053q.52,7.763,1.041,15.526l.451-.013c-.247-5.215-.493-10.429-.743-15.722,1.386-.645,2.115-.393,2.076,1.332a41.453,41.453,0,0,0,.336,7.068V519.77h.823v19.09l.578-.015V518.488h12.648v13.391h.366V520.908l.737-.009c.131,7.3.289,14.59.328,21.886,0,.451-.928.907-1.424,1.361l-.59-.457v-3.027C747.4,543.626,747.4,543.626,746.132,543.7Zm-36.571-26.384,15.193-.74.023.74Zm-5.067,20.715c-.268-3.31-.555-6.618-.794-9.93-.218-3.028-.379-6.06-.575-9.257l2.35-.164C705.14,525.284,704.817,531.657,704.494,538.026ZM517.8,524.572c5.216-.2,10.13-.378,15.044-.569q36.267-1.409,72.533-2.813,16.84-.635,33.687-1.113,22.168-.655,44.339-1.211c1.387-.036,2.78.129,4.108.2.257,2.225.5,4.321.741,6.418v-6.4c1.347-.324,2.354-.589,2.228,1.234-.425,6.157-.8,12.318-1.2,18.477l-.6,0c0-3.523.033-7.047-.022-10.569a18.614,18.614,0,0,0-.465-2.813q-.005,8.389,0,16.79l.711.063c1.787-6.962,1.587-14.19,2.045-21.33l.667,0q.583,7.38,1.165,14.76l.838-.087-1.667-16.8h9.864c-.239,5.457-.471,10.773-.7,16.09l.425.02q.365-7.033.731-14.067l.316,0c.343,4.59.642,9.184,1.058,13.768a24.266,24.266,0,0,0,.839,3.621l-.005.116c-.117.795-.253,1.562-.39,2.329l.853.073q.5-10.834,1.01-21.669l.66.036,1.267,21.327.406-.014c-.369-7.161-.739-14.322-1.116-21.65h5.875v14.877c.183-2.267.384-4.533.543-6.8.181-2.577.323-5.156.482-7.735l.769.023V535.4l.588,0V518.971c1.975-.548,3.053.094,3.077,2.38.077,7.419.029,14.84.029,22.595l-5.887.351c.161-3.622.318-7.178.476-10.734q-.3,1.887-.6,3.766l-.4-.005c0-1.864.02-3.729-.005-5.593-.028-2.047,0-4.1-.179-6.137-.165-1.874-.573-3.727-.874-5.588l-.616.024-.405.994-.043-.042v.559l.042-.471a7.577,7.577,0,0,1,1.021,2.471q.376,8.153.491,16.316a32.1,32.1,0,0,1-.537,4.457h-4.344l1.9-.759h-7.923l.247-4.913-.415-.093-.863,4.543-2.3.139c.186-1.851.356-3.543.526-5.235l-.384-.069q-.417,2.371-.833,4.741l-.366-.007v-3.927l-.3-.014a2.146,2.146,0,0,0-.156.561c.015,4.424.852,4.219-4.426,4.344-8.984.212-17.964.569-26.947.819-6.894.192-13.795.213-20.685.494-6.067.248-12.12.834-18.187,1.12-8.963.422-17.934.671-26.9,1.067-8.393.371-16.781.871-25.173,1.253-4.947.225-9.9.289-14.847.517-1.707.078-2.493-.589-2.445-2.254.1-3.572.226-7.144.342-10.716a5.816,5.816,0,0,0-.721,1.948c-.079,3.6-.037,7.209-.037,11.058l-37.978,1.5Zm86.883,23.383-14.348.685-.037-.448,14.35-.684Zm-27.38.756q.01.261.02.522l-59.516,2.5q-.039-.328-.077-.655ZM515.932,520.7c.264,17.4.528,34.808.795,52.413h-8.04a15.813,15.813,0,0,1-.482-2.577c-.253-9.892-.5-19.784-.669-29.678-.087-5.205-.059-10.414.04-15.62a22.044,22.044,0,0,1,.864-4.027l-1.129-.511Zm-.926,56.1h-7.073l-.02-.383h7.079Zm-3.418,10.928c.006-.141.012-.282.019-.423l9.748.5.019.357Zm23.092-1.043c-9.49-.308-18.978-.688-28.466-1.083-.478-.02-1.286-.383-1.353-.708-.539-2.61-.937-5.249-1.377-7.88l.98-.716c1.306.544,3.224.74,3.779,1.712a2.294,2.294,0,0,0,3.077,1.117c2.572-.724,5.06-1.742,7.6-2.588a9.6,9.6,0,0,1,3.038-.725c6.352.1,12.7.338,19.053.464,1.678.033,3.36-.17,5.139-.27L544.5,586.7C541.38,586.7,538.026,586.793,534.679,586.684Zm9.8,10.527c3.449-.571,3.449-.571,5.849,3.49Zm2.151-12.484.907-.207,1.752,8.413-.632.2Zm42.683,13.9a19.29,19.29,0,0,1-12.64,6.528,6.1,6.1,0,0,1-1.221.034,11.722,11.722,0,0,1-1.322-.28c.136-.939.258-1.784.38-2.629l-.465-.372-3.92,3.764-.37-.257.8-3.431-.417-.281-3.633,4.064-.372-.143,1.071-4.3-.362-.24-2.791,3.733-.4-.115,1.261-4.533-.358-.192-2.62,3.373-.344-.15q.576-1.937,1.152-3.874l-.451-.253-3.25,4.548-.542-.434,2.276-6.05-.513-.287-3.972,5c-.38-2.448-.677-4.361-1.011-6.5l-2.253,1.116,2.089-5.82-.253-.152-2.654,3.921-.336-.107c.37-1.3.741-2.6,1.17-4.1l-2.137.55,2.461-6.362-.405-.23L550.1,588.21l-.466-.171,2.157-6.443-3.272-.248c.5-1.216.914-2.432,1.495-3.561a13.485,13.485,0,0,0,1.554-5.969c.073-1.941,1.891-4.246,3.575-5.592a32.331,32.331,0,0,1,7.991-4.363c1.919-.784,3.787-2.159,6.353-.764,1.388.755,3.661-.326,5.447-.039a6.318,6.318,0,0,0,5.051-1.024l-1.319,1.49,1.146,1.2c.979-.333,1.96-.669,3.62-1.237l-2.677,3.019,3.879,1.05-.94,1.037,2.081-.227.928,1.817.757-.335-2.243-4.795-2.139.3,1.224-2.017c6.607,4.715,9.307,11.423,10.133,19.037C595.161,587.094,594.007,593.377,589.311,598.631Zm5.193-4.713a30.62,30.62,0,0,0-3.457-27.508C598.282,573.516,600.021,585.28,594.5,593.919Zm3.209-28.552-.672-.133-1.18,3.26c-.508-2.881-3.3-4.076-5.508-5.86-12.981-10.5-31.95-6.944-40.891,7.081a6.74,6.74,0,0,1-6.271,3.469c-7.853.085-15.707.015-23.562-.005-.143,0-.285-.131-.565-.269q-.707-10.087-1.432-20.409c8.006-.359,15.907-.713,23.807-1.07,11.546-.521,23.091-1.069,34.638-1.56,12.432-.529,24.87-.937,37.3-1.523,11.26-.531,22.508-1.311,33.769-1.834,10.607-.493,21.22-.93,31.835-1.144,13.505-.273,27.016-.29,40.524-.433,4.289-.046,8.6-.418,12.86-.119,3.177.223,6.29-.076,9.431-.128,3.555-.058,7.13-.4,10.658-.134,3.26.25,6.463-.136,9.693-.128,3.8.009,7.608-.026,11.412-.034.407,0,.814.047,1.777.108-.541,8.359-1.066,16.491-1.6,24.791-5.955,0-11.74-.206-17.5.087-2.867.146-3.959-1.222-5.119-3.394-5.936-11.114-23.019-16.951-35.454-9.76-4.077,2.358-8.233,4.6-11.079,8.571-1.023,1.425-2.208,2.733-3.145,3.881.048-.378.152-1.192.255-2.006l-.335-.114-1.275,3.093-.342-.052.542-4.316-.307-.127-2.822,5.471-.371-.115v-4.728l-2.5,5.018-.419-.1V566.48l-.484-.15-2.62,4.909-1.69-2.343c-3.99,2.676-8.566,2.3-13.077,2.358q-17.345.206-34.688.431c-12.06.157-24.119.339-36.179.458a2.659,2.659,0,0,1-2.135-1.193c.563-.026,1.526.114,1.62-.109a16.009,16.009,0,0,0,.685-2.869l-.8-.144c-.082.844-.164,1.689-.273,2.816l-1.766-2.924-.509.134.4,3.43-.486.343-2.221-3.116-.64,1.5C598.528,568.3,598.121,566.834,597.713,565.367Zm105.727,5.956-2.2,9.607a21.959,21.959,0,0,1,1.587-9.733Zm-4.892,1.951H612.693l0-.429h85.852C698.544,572.987,698.546,573.131,698.548,573.274Zm-99.34,13.644c.1-1.46,1.92-1.625,6.64-.5Zm6.016-2.6v-6.8l-.14-.023-.249,4.824h-.329v-7.693H700.1c-.2,3.38-.37,6.246-.538,9.089C668.137,584.473,636.723,586.4,605.224,584.318Zm87.3,7.158q.028-.418.056-.836l8.913.639-.061.827Zm1.589.9c2.772.56,5.928-.438,8.666,1.855L693.946,593Zm1.459,2.209c3.937.1,7.9.118,9.79,4.753Zm28.168,7.438,3.525-2.955q.032.267.064.533h6.361l-.016-.451a10.841,10.841,0,0,1-3.319.29c-1.991-.453-3.888-1.134-5.639.525l-.116-.481c-2.774,3.363-3.389,3.607-6.669,2.482l2.709-2.5c-.256.944-.429,1.587-.791,2.922l2.753-2.395c-2.441-.2.493-1.675-.428-2.053l-7.459,2.787.487-2.36-2.126,1.091-.1-1.657-2.179,1.21,1.366-4.223-.469-.361a6.228,6.228,0,0,1-1.47,1.252c-.627.263-1.616.527-2.037.222-.7-.509-1.811-1.221-.273-2.4a6.724,6.724,0,0,0,1.975-3.64l-2.923,2.658c-.159-.664-.291-1.214-.3-1.261l-2.546-.648c-1.742-1.086-2.062-2.421-.753-4.083.477-.606.88-1.268,1.317-1.9l-.649-1.64q-.13-.407-.262-.813l-1.132-1.547,6.622-9.2-.345-.327-2.08,2.885-.744-.493c.866-1.663.076-3.573,1.561-5.275,2.167-2.484,3.76-5.471,5.933-7.949,3.494-3.988,8.391-5.114,13.372-5.112,5.457,0,10.917.653,15.284,4.589a5.356,5.356,0,0,1,.565.48c6.511,7.792,11.181,22.439.8,32.778-4.336,4.319-9.1,7.91-15.42,8.724C726.875,601.9,725.534,601.91,723.743,602.025Zm12.4-2c13.835-8.928,18.2-20.254,11.027-35.111C756.512,578.708,748.664,594.945,736.145,600.02Zm16.23-23.04-1.152-6.092.687-.194,1.583,6Zm32.011,2.4c-.217.065-.205,1.473,0,2.171.16.555.771.98,1.467,1.8a94.677,94.677,0,0,1-31.276-.593v-11.1c2.062,0,4.325-.008,6.587,0,3.883.017,7.792-.222,11.643.145,3.636.346,7.266-.128,10.891.347,1.432.188,2.291.76,2.173,2.08C785.71,575.98,787.614,578.408,784.385,579.376Z" transform="translate(-502.143 -467.5)" fill="#1f417e"/>
      <path id="Path_3129" data-name="Path 3129" d="M988.534,588.411c.021.083.039.167.062.25v-9.618h-.062Z" transform="translate(-747.114 -523.679)" fill="#1f417e"/>
      <path id="Path_3130" data-name="Path 3130" d="M611.729,605.032l0,.161c.019-.044.039-.089.057-.133Z" transform="translate(-557.334 -536.768)" fill="#1f417e"/>
      <path id="Path_3131" data-name="Path 3131" d="M1010.012,722.413c-.06-.37-.133-.738-.251-1.384l-3.238,2.082c.4-1.438.727-2.615,1.178-4.24l-2.722,1.162,1.1-2.166-7.057,6.69c3.66,1.082,4.846-2.82,7.688-4.423l-1.687,4.724.518.291,3.6-3.065c.254.815.448,1.436.574,1.842l10.179.981c0-.147.01-.294.015-.441l-9.812-1.475C1010.088,722.957,1010.055,722.684,1010.012,722.413Z" transform="translate(-752.395 -593.598)" fill="#1f417e"/>
      <path id="Path_3132" data-name="Path 3132" d="M705.309,729.05c-.552.5-1.177.928-1.718,1.349l-1.382-2.98-.848.74c.267.191.661.323.78.581,1.257,2.724,1.273,2.763,3.622.815a4.564,4.564,0,0,1,4.33-.8c1.912.4,3.975.093,5.972.093-1.941-.38-3.95-.323-5.783-.863A4.711,4.711,0,0,0,705.309,729.05Z" transform="translate(-602.479 -598.409)" fill="#1f417e"/>
      <path id="Path_3133" data-name="Path 3133" d="M548.592,589.575a2.88,2.88,0,0,0-2.2-1.547c-.617-.03-1.386.976-1.9,1.661a3.9,3.9,0,0,0-.642,1.852c-.435,3.839-1.189,7.7-1.083,11.526.077,2.792.889,5.821,4.3,6.9,3.058-3.056,3.578-6.939,3.381-10.792A49.022,49.022,0,0,0,548.592,589.575Zm-1.5,14.089c-.206.411-.4.83-.625,1.23-.35.617-.725,1.221-1.088,1.831-.4-.637-1.042-1.236-1.147-1.918-.172-1.124-1.254-2.705,1.113-3.327l-.811,1.928.471.408,3.069-3.328.489.239Q547.823,602.2,547.087,603.665Z" transform="translate(-522.597 -528.204)" fill="#1f417e"/>
      <path id="Path_3134" data-name="Path 3134" d="M848.181,578.11l.791-.022q.4,8.6.8,17.2l.445-.03q-.405-9.5-.811-18.993l-1.295-.053-1.146,8.359.448.07Z" transform="translate(-675.811 -522.251)" fill="#1f417e"/>
      <path id="Path_3135" data-name="Path 3135" d="M858.93,585.464c.158,3.779.04,7.569.04,11.355l.3-.035V576.639l-.881-.063-.335.935-.047-.037-.028.415c.016-.082.034-.165.05-.247C858.351,580.248,858.82,582.848,858.93,585.464Z" transform="translate(-681.362 -522.436)" fill="#1f417e"/>
      <path id="Path_3136" data-name="Path 3136" d="M865.225,579.734l.461-.01c.347,3.32.694,6.64,1.063,10.158.1-.2.142-.241.138-.28-.372-3.885.252-7.9-1.2-11.644l-.675.01q-.448,4.551-.9,9.1l.347.033Q864.843,583.418,865.225,579.734Z" transform="translate(-684.451 -523.132)" fill="#1f417e"/>
      <path id="Path_3137" data-name="Path 3137" d="M616.955,602.209c0,2.036-.012,3.429,0,4.823.022,2.048.038,4.1.13,6.143.012.272.423.564.708.76.076.053.452-.175.543-.35.076-.145-.03-.419-.117-.609-.253-.554-.761-1.091-.77-1.64-.066-4.186-.036-8.372-.036-12.559l-.224-.066-1.4,4.75.43.174Z" transform="translate(-559.384 -533.585)" fill="#1f417e"/>
      <path id="Path_3138" data-name="Path 3138" d="M596.931,613.294l.319.084.935-2.444c-.111,6.137.031,6.993,1.15,7.569V607.516l-.964-.112Q597.651,610.349,596.931,613.294Z" transform="translate(-549.883 -537.963)" fill="#1f417e"/>
      <path id="Path_3139" data-name="Path 3139" d="M856.1,579.22a36.8,36.8,0,0,0-.653,3.644c-.444,4.683-.81,9.373-1.206,14.061l.662.05Q855.5,588.1,856.1,579.22Z" transform="translate(-679.475 -523.768)" fill="#1f417e"/>
      <path id="Path_3140" data-name="Path 3140" d="M841.421,576.379l1.2,16.085C842.471,587.084,843.2,581.642,841.421,576.379Z" transform="translate(-673.021 -522.337)" fill="#1f417e"/>
      <path id="Path_3141" data-name="Path 3141" d="M625.525,605c-.009-2.289.207-4.578.325-6.867-1.773,4.616-.921,9.153.062,13.537C625.773,609.451,625.534,607.228,625.525,605Z" transform="translate(-563.929 -533.295)" fill="#1f417e"/>
      <path id="Path_3142" data-name="Path 3142" d="M636.18,597.5l-.432,0v14.827l.432-.107Z" transform="translate(-569.433 -532.972)" fill="#1f417e"/>
      <path id="Path_3143" data-name="Path 3143" d="M816.947,596.856l.05-.043q-.061.68-.121,1.359l.782.094q.973-6.007,1.947-12.014l-.316-.051q-1.155,5.254-2.308,10.508-.035-.209-.071-.419.02.281.04.56Z" transform="translate(-660.658 -527.284)" fill="#1f417e"/>
      <path id="Path_3144" data-name="Path 3144" d="M919.714,589.753V576.378q-.588,6.667-1.179,13.33Z" transform="translate(-711.859 -522.336)" fill="#1f417e"/>
      <path id="Path_3145" data-name="Path 3145" d="M611.708,604.962a.611.611,0,0,0,.065.039l-.065-.085Z" transform="translate(-557.326 -536.71)" fill="#1f417e"/>
      <path id="Path_3146" data-name="Path 3146" d="M607.944,597.644l-2.226,9.131.549.132,1.534-6.834.89,1.18c-.012-1.176-.013-2.341-.013-3.507Z" transform="translate(-554.309 -533.047)" fill="#1f417e"/>
      <path id="Path_3147" data-name="Path 3147" d="M583.532,613.146l1.44-.472v7.217l.258-.034v-9.191l-.532-.054Z" transform="translate(-543.135 -539.578)" fill="#1f417e"/>
      <path id="Path_3148" data-name="Path 3148" d="M583.523,615.724l0-.005-.007,0Z" transform="translate(-543.128 -542.15)" fill="#1f417e"/>
      <path id="Path_3149" data-name="Path 3149" d="M830.032,581.32l.4.028q.366,2.443.731,4.886l.512-.091q-.434-2.934-.868-5.868l-1.05-.112q-.5,3.287-1.009,6.574l.469.081Z" transform="translate(-666.636 -524.242)" fill="#1f417e"/>
      <path id="Path_3150" data-name="Path 3150" d="M653.052,599.614c-1.38,5.384-1.222,9.829,0,11.107Z" transform="translate(-577.657 -534.039)" fill="#1f417e"/>
      <path id="Path_3151" data-name="Path 3151" d="M815.335,594.964q-.4-5.7-.8-11.4l-.78.077c.256,2.123.482,4.251.778,6.368C814.762,591.668,815.058,593.315,815.335,594.964Z" transform="translate(-659.085 -525.957)" fill="#1f417e"/>
      <path id="Path_3152" data-name="Path 3152" d="M900.316,590.07l-.637-10.971-.523.013q.329,5.492.658,10.984Z" transform="translate(-702.099 -523.707)" fill="#1f417e"/>
      <path id="Path_3153" data-name="Path 3153" d="M896.725,581.809l-.373.026v10.451l.373,0Z" transform="translate(-700.687 -525.072)" fill="#1f417e"/>
      <path id="Path_3154" data-name="Path 3154" d="M892.31,590.365q-.318-5.338-.636-10.676l-.52.028q.324,5.338.65,10.675Z" transform="translate(-698.068 -524.004)" fill="#1f417e"/>
      <path id="Path_3155" data-name="Path 3155" d="M579.622,621.2l-.334-2.058-.416.063q.135,1.7.271,3.4l.679.027c.881-2.193,2.1-4.305,1.359-6.889l-1.172,5.538Z" transform="translate(-540.788 -542.164)" fill="#1f417e"/>
      <path id="Path_3156" data-name="Path 3156" d="M583.523,615.725l0,0,0,.011Z" transform="translate(-543.128 -542.152)" fill="#1f417e"/>
      <path id="Path_3157" data-name="Path 3157" d="M638.794,525.329c1.172-13.563,2.28-26.372,3.443-39.835a22.672,22.672,0,0,0-4.369-.728c-4.759.009-9.519.2-14.275.4a27.385,27.385,0,0,0-4.515.629c-.253.054-.441.861-.481,1.336-.034.41.345.877.264,1.259-.491,2.3-1.121,4.565-1.593,6.866-.741,3.6-1.47,7.213-2.065,10.843-.812,4.962-1.513,9.943-2.225,14.921-.273,1.912-.446,3.839-.607,5.254a15.765,15.765,0,0,1,3.412-.911C623.369,525.3,630.958,525.329,638.794,525.329Zm-18.885-26.278c3.96-4.332,9.039-6.938,13.651-10.232,1.169-.834,3.238-.483,4.893-.489.282,0,.867,1.005.783,1.444a2.817,2.817,0,0,1-1.137,1.841c-3.081,1.561-6.433,2.667-9.322,4.508-3.253,2.072-6.109,4.765-9.15,7.172-.681.539-1.414,1.013-2.506,1.79A10.212,10.212,0,0,1,619.909,499.051Zm14.185-4.132-7.547,5.147-.357-.519,7.531-5.169Zm.245,5.334-18.078,11.575-.406-.644A81.3,81.3,0,0,1,634.339,500.254Zm-15.154,16.639a9.763,9.763,0,0,0,3.6-3.018l-7.584,4.745-.339-.392,3.4-2.84-2.785,1.122-.3-.4a12.981,12.981,0,0,1,1.674-1.431c5.476-3.3,10.98-6.544,16.455-9.842a7.135,7.135,0,0,0,1.252-1.269,11.535,11.535,0,0,0-2.939.849c-5.259,3.209-10.457,6.519-15.7,9.811.879-2.694,18.826-13.74,22.562-13.455l-2.489,1.741,2.09.955c.311.52.893,1.043.887,1.559-.037,3.3-.146,6.594-.381,9.881a2.815,2.815,0,0,1-1.225,1.643c-1.8,1.3-3.676,2.493-5.523,3.727L636.909,515c-.184,0-.279-.03-.334,0-1.8,1.161-3.627,2.281-5.371,3.52a11.153,11.153,0,0,0-1.653,1.819,5.168,5.168,0,0,1-5.287,3.057,100.752,100.752,0,0,0-10.165.447C613.8,520.739,615.139,518.907,619.185,516.893Z" transform="translate(-557.659 -476.196)" fill="#1f417e"/>
      <path id="Path_3158" data-name="Path 3158" d="M825.944,520.4a24.968,24.968,0,0,1,2.93-.1,48.347,48.347,0,0,0,7.109-.3c3.016-.379,4.523-2.019,4.752-5.085.234-3.138,1.236-6.121,1.351-9.318.212-5.925,1.052-11.825,1.475-17.747.225-3.152-1.18-4.442-4.309-4.456q-4.8-.023-9.608-.092c-3.5-.054-5.059,1.066-5.716,4.536-.774,4.089-1.145,8.264-2.082,12.311-1.241,5.361.954,11.407-3.128,16.326l2.184-1.333C821.1,518.443,821.794,520.893,825.944,520.4Zm3.92-3.686-3.824,3-.52-.674c1.306-1.225,2.6-2.464,3.944-3.647.091-.08.547.254.833.4,2.392-2.341,4.763-4.705,7.19-7.011a25.374,25.374,0,0,1,2.429-1.828l.434.534Zm10.406-11.762a2.805,2.805,0,0,1-1.672,1.924c-4.09.942-6.472,4.312-9.663,6.512a4.246,4.246,0,0,1-2.072.983l8.041-7.792-.3-.367-4.239,2.957,7.894-7.169-.983-1.029-7.743,7.309-.374,1.354h0l-5.72,5.581c-1.025-2.529,1.869-2.971,2.614-4.583l-2.346,1.044-.359-.387,12.8-11.9-.157-.254-3.835,2.657-.432-.54,9.236-8.006.56.276C841.128,497.343,840.811,501.166,840.271,504.956Zm-10.193-2.728c-.275.3-.564.594-.822.91-1.709,2.093-3.41,4.191-5.072,6.237-.515-2.6-.5-2.579,1.5-4.3,1.263-1.088,2.476-2.234,3.709-3.356l-.015.02Zm-4.042-5.125c3.764-3.322,7.24-6.974,10.8-10.52a7.558,7.558,0,0,0,.972-1.643l-.559-.477h4.2c.091,1.814.133,3.644.291,5.465a3.527,3.527,0,0,1-1.787,3.471c-3.234,2.274-6.368,4.691-9.518,7.083a6.513,6.513,0,0,0-1.01,1.191L823.81,504.8C823.9,502.282,823.37,499.454,826.035,497.1Zm-2.976-.911.524.057-.995,15.417-.846-.082Q822.4,503.889,823.059,496.192Z" transform="translate(-661.587 -475.459)" fill="#1f417e"/>
      <path id="Path_3159" data-name="Path 3159" d="M727.751,521.569c5.448,0,10.619.067,15.787-.024,3.38-.059,3.364-.162,3.448-3.548.139-5.611.108-11.235.5-16.829.415-5.925,2.361-11.8.014-18.065-1.268,0-2.813-.118-4.334.024-3.28.307-6.561,1.122-9.817,1.013-2.585-.087-3.073,1.713-3.857,3.119a39.148,39.148,0,0,0-2.207,5.852l1.6-.272.356.543-2.394,1.709.306.313,2.45-.691-2.705,2.552.276.286,2.415-.88c-.415,3.648-.836,6.907-1.146,10.176-.275,2.906-.13,5.929-2.805,8.076l2.111-.718Zm11.06-5.3-.6-.627,6-4.767.55.652C743.719,514.2,740.509,514.359,738.811,516.27Zm-.026-2.5-.567-.6,6.115-4.754.525.638C743.572,511.515,740.615,511.973,738.785,513.775Zm7.048,6.767-.395-.026v-7.7l.395.07Zm.7-35.8.486,2.875-3.076-.63,1.123-1.558-4.811,1.627-.188-.726Zm-3.95,4.358-11.964,7.929C730.623,495.295,737.966,490.3,742.579,489.105Zm-3.728-.542.324.528-8.322,5.232-.361-.586Zm-7.13,27.355.149-.8.892-.3L744.586,504.7a2.438,2.438,0,0,0-.721.2c-2.954,2.084-5.867,4.229-8.866,6.247a10.089,10.089,0,0,1-2.637.863l.95-1.425-3.557.99c-.158-3.169-.924-6.52.876-9.7.006-.724-.264-1.908.06-2.1,4.455-2.677,8.993-5.219,13.51-7.794q.031-.878.063-1.757l-7.172,3.988-.375-.708,8.528-4.245c.486.247,1.407.522,1.393.735-.258,3.885-.6,7.766-1.012,11.639-.039.37-.609.685-.932,1.026,1.079,2.556.6,4.347-1.49,5.73-2.664,1.759-5.339,3.5-7.961,5.321a14.188,14.188,0,0,0-1.851,1.852l-3.22,4.335,4.835-2.842.12.184-2.887,2.722.433.6,3.984-2.271c-1.676,2.6-4.078,3.458-6.456,2.51-1.278-.51-1.314-1.845-.114-2.882.838-.725,1.631-1.5,2.444-2.255Z" transform="translate(-614.707 -475.335)" fill="#1f417e"/>
      <path id="Path_3160" data-name="Path 3160" d="M964.987,489.557c-1.354,10.736-4.379,21.228-3.44,31.65a17.993,17.993,0,0,0,3.962,1.355c2.577.212,5.212-.142,7.764.19,3.946.514,4.76.172,5.991-3.612.079-.245.365-.422.644-.729.156.87.281,1.563.487,2.714l.417-1.541.342.076-.244,3.518.773.019c2.225-11.8,1.9-23.755,1.866-35.642a47.891,47.891,0,0,0-18.62-.265l1.826,2.068-.3.448Zm5.683,31.463,4.17-3.692.363.279-2.079,2.661.248.341,2.869-2.321C975.052,520.358,973.94,522.865,970.67,521.02Zm-.475-23.362a19.263,19.263,0,0,0,3.224-2.491c1.655-1.287,3.322-2.561,5.07-3.908l-1.223-.41c.4-.633.66-1.416,1.2-1.776a3.137,3.137,0,0,1,2.175-.513,1.922,1.922,0,0,1,.984,1.567c-.34,4.838-1.173,9.671-1.13,14.5.05,5.643-2.654,9.453-6.748,12.707a2.442,2.442,0,0,1-1.548.72l6.148-8.092-.665-.527-6.7,8.336c-.449,1.142-.662,3.027-1.4,3.261-1.263.4-2.854-.231-4.307-.429a3.808,3.808,0,0,1,.364-1.427,10.52,10.52,0,0,1,1.608-1.413l-.527-.982-1.673,1.487c-.093-1.77-.179-3.423-.244-4.661l4.789-2c.012.225.03.543.047.86l8.553-9.277-.563-.539c-1.775,1.858-3.448,3.829-5.352,5.543-1.921,1.73-4.071,3.205-6.121,4.792l-.939-.338c-.072-2.664-.151-5.327-.215-7.991C964.913,500.976,967.158,499.093,970.195,497.658Z" transform="translate(-733.433 -477.074)" fill="#1f417e"/>
      <path id="Path_3161" data-name="Path 3161" d="M692.923,525.2c3.24-.006,5.051-1.912,4.924-5.111-.033-.822-.006-1.65.037-2.472.193-3.745.856-7.536.478-11.22-.382-3.722,1.267-7.207.535-10.9a73.44,73.44,0,0,1-.748-7.325c-5.983,0-11.367.019-16.751-.02a20.852,20.852,0,0,1-3.009-.529c-.416,12.155-.841,24.564-1.287,37.583C682.8,525.2,687.86,525.206,692.923,525.2Zm-13.266-30,2.675-1.188.155.243-2.034,1.852.208.313,8.881-5.664.382.587-10.268,6.906Zm-.987,10.3c.018-.678.762-1.421,1.326-1.977a16.254,16.254,0,0,1,2.134-1.546l9.906-5.381-1.512-.267-8.928,5.148-1.907.761c-.062-.894-.116-1.68-.134-1.939,2.248-1.193,4.215-2.214,6.16-3.273,3.569-1.944,7.125-3.911,10.687-5.868l.4.505q-.179.469-.358.937c.392.45,1.116.895,1.123,1.351.079,5.359.051,10.719.051,15.952l-14.684,8.436-.205-.3,5.29-3.865-.26-.385-6.369,3.936-.97.056-1.811.651C678.609,514.2,678.551,509.846,678.67,505.5Zm.841,13.96v1.433l3.066-1.407.23.226L678.36,524.6C677.887,522.3,677.366,520.7,679.511,519.456Zm14.155-4.282-11.149,6.65c4.866-3.7,8.728-8.845,14.992-10.476.448,2.619-.881,3.967-3.093,5.022-2.412,1.151-4.656,2.655-6.973,4l-.343-.445,6.832-4.292Z" transform="translate(-590.261 -477.631)" fill="#1f417e"/>
      <path id="Path_3162" data-name="Path 3162" d="M890.711,519.107c.592-4.842,1.373-9.8,1.764-14.8.443-5.672.558-11.371.771-17.06.064-1.71-.648-2.919-2.555-2.942a87.987,87.987,0,0,0-8.842.044c-2.728.243-4.973,2.994-5.28,5.653-.459,3.979-1.176,7.933-1.486,11.921-.506,6.511-2.634,13-.71,19.358Zm.674-32.137.76.011q-.21,3.917-.42,7.833l-.34,0Zm-7.222,28.224-.547-.488,5.509-6.2.634.568Zm4.819-7.444a16.933,16.933,0,0,1-4.77,3.484l4.864-5.082C889.065,506.7,889.264,507.469,888.982,507.75Zm-9.032,6.852-2.442.145,6.5-7.146-.446-.474-5.084,4.465.194-1.517-2.52,3.243-.536-.2,1.149-3.416a33.038,33.038,0,0,1-.326-4.553c.122-2.052.534-4.087.714-5.362,2.252-2.08,4.135-3.624,5.781-5.389,1.937-2.076,3.616-4.392,5.542-6.48.345-.374,1.341-.147,2.161-.206,0,2.786.1,5.421-.061,8.04a4.823,4.823,0,0,1-1.286,2.214c-.848,1.087-1.8,2.1-2.7,3.136l3.449-2.712.656.13q-.809,3.8-1.617,7.608a.165.165,0,0,1,0,.017l-8.9,8.487-2.457,3.9.2.192,4.875-4.491c-1.921,2.567-2.575,6.847-7.856,5.478Z" transform="translate(-689.218 -475.919)" fill="#1f417e"/>
      <path id="Path_3163" data-name="Path 3163" d="M930.328,522.211c3.625-.069,4.052-.291,4.5-3.818,1.252-9.885,2.294-19.8,3.434-29.7.162-1.406-.3-2.308-1.811-2.284-4.334.07-8.67.135-13,.367-.556.03-1.045,1.052-1.589,1.59-.362.359-.766.675-1.547,1.355-1.576,10.055-1.4,20.69-2.325,31.406l-1.249.232.069.868C921.318,522.232,925.824,522.3,930.328,522.211Zm-1.62-6.4-.225-.211,4.86-5.084.135.135Zm-4.279-1.131-2.774,1.666c-.841-2.636,2.074-2.849,2.8-4.405l9.284-8.692-.326-.34-9.069,7.484.385-1.287-3.631,3.806c-.5-3.5,2.471-4.123,4.361-5.632l-.147,1.2,8.457-8.7-.352-.33-7.224,6.295-3.64,2.537c-.019-.415-.033-.72-.046-1.025l-1.752,1.28a4.57,4.57,0,0,1,2.387-4.95c.715-.447,1.067-1.478,1.584-2.243l-3.452,2.56c-.558-4.657.367-6.523,4.8-10.285,1.99-1.688,3.759-3.639,5.773-5.295a9.844,9.844,0,0,1,2.911-1.113,23.414,23.414,0,0,1,.627,2.569,11.354,11.354,0,0,1-.11,2.09l-1.58-2.548-.48.243.174,1.32c1.549,1.2,1.527,2.527.136,3.766-2.2,1.961-4.483,3.83-6.731,5.739l1.547-.069,5.886-5.341.619.207c-.307,4.213-.563,8.43-.972,12.634a3.739,3.739,0,0,1-1.25,1.975c-2.48,2.384-5.026,4.7-7.71,7.189v-1.333c-1.107,1.2-2.157,2.469-3.346,3.586a2.871,2.871,0,0,1-2.086.672Z" transform="translate(-710.957 -477.026)" fill="#1f417e"/>
      <path id="Path_3164" data-name="Path 3164" d="M777.356,501.409c-.39,6.564-.77,12.977-1.138,19.162h17.75a36.986,36.986,0,0,0,1.456-5.557c.564-5.826,1.027-11.665,1.345-17.509.228-4.181.19-8.378.213-12.568.01-1.8-1.054-2.421-2.766-2.283-4.109.331-8.225.585-12.332.94a2.366,2.366,0,0,0-1.683.773c-1.452,2.658-2.989,5.251-2.979,8.509.008,2.808,1.06,5.839-1.119,8.388-.064.074.041.292.067.442Zm10.631,15.6c1.471-3.233,4.463-5.2,6.8-7.712C794.47,513.545,789.7,513.953,787.987,517.012Zm-6.344-17.661c-.8.557-1.525,1.23-2.283,1.851l-.575-.447,3.7-4.786-.516-.04-.633-.409,2.24-1.613.9-.418c1.069-1.26,2.1-2.553,3.221-3.766.653-.709,1.445-1.29,2.465-2.182h-3.039c2.829-1.519,3.921-4.918,7.6-3.738.074.5.167,1.119.259,1.74.261.584.758,1.174.746,1.752-.143,6.5-.33,12.994-.617,19.486a3.391,3.391,0,0,1-1.215,1.966c-2.129,1.931-4.343,3.769-6.525,5.642a3.3,3.3,0,0,1,.682.148c-.035,1.828-3.815,4.842-6.018,4.806l5.076-4.727-1.078.231,7.306-8.305-.317-.356-7.5,6.934.987-.268-2.12,2.912c-.883.853-1.748,1.727-2.656,2.552-.5.455-1.073.828-1.614,1.239l-1.061-1.6,3.927-3.644q.321-1.059.641-2.117l-4.592,4.145c-.174-1.6-1.046-3.584,1.133-5.013l-1.883.391c.209-2.786.276-5.457.688-8.074.125-.792,1.17-1.467,1.851-2.139,1.722-1.7,3.477-3.362,5.218-5.04C784.573,497.423,783.084,498.352,781.643,499.351Z" transform="translate(-640.114 -475.123)" fill="#1f417e"/>
      <path id="Path_3165" data-name="Path 3165" d="M1011.238,520.563c4.341.092,8.681.207,13.022.2a1.955,1.955,0,0,0,1.523-1.038,20.094,20.094,0,0,0,.9-5.9c-.407-5.254-1.156-10.483-1.8-15.718-.238-1.947-.551-3.884-.893-6.263l-.665,1.081c-.226-1.218-.222-3.368-.718-3.49a21.653,21.653,0,0,0-7.152-.688c-2.144.209-.774,2.263-1.032,3.475a15.722,15.722,0,0,0-.132,1.725c-.754,7.709-1.494,15.419-2.3,23.123a24.947,24.947,0,0,1-.88,3.427C1010.972,520.4,1011.1,520.56,1011.238,520.563Zm3.861-15.811a9.106,9.106,0,0,1,.939-2.358c-.068.628-.135,1.257-.189,1.755l4.659-4.911-4.465,2.817c1.074-1.5,2.214-2.955,3.2-4.508.889-1.4,1.612-2.9,2.408-4.355l1.055.146a75.691,75.691,0,0,1,1.736,7.989c.532,4.751.769,9.537,1.064,14.312.12,1.943-.542,2.867-2.866,2.859a66.02,66.02,0,0,0-8.819,1.058C1014.234,514.639,1014.615,509.691,1015.1,504.752Z" transform="translate(-758.457 -478.165)" fill="#1f417e"/>
      <path id="Path_3166" data-name="Path 3166" d="M939.188,670.438a12.273,12.273,0,0,0-6.022,11.2c.041,5.384,3.111,8.387,8.487,8.374,7.169-.017,12.071-5.894,11.063-13.261C951.766,669.807,945.194,666.712,939.188,670.438Zm3.536,18.635c-2.42.332-3.747-.821-4.661-3.3a8.253,8.253,0,0,0-1.294-1.69l.71-1.91-1.375.388c.154-1.016.271-1.946.439-2.866a12.8,12.8,0,0,1,6.714-9.047c2.6-1.478,6.347.2,7.794,3.277A10.842,10.842,0,0,1,942.725,689.074Z" transform="translate(-719.228 -568.908)" fill="#1f417e"/>
      <path id="Path_3167" data-name="Path 3167" d="M639.819,682.408c.329-2.077-.354-3.087-2.42-3.18.239-.98.458-1.871.765-3.129l-1.2.872-1.179-2.558-2.1,1.669c.141-.628.207-.922.336-1.5-3.182.5-6.194.928-7.78,4.115-.2.4-.786.586-1.152.917-3.885,3.516-4.031,10.557-.312,14.61,2.779,3.028,8.189,2.736,12.077-.653,2.072-1.807,3.615-3.828,3.175-6.838A14.69,14.69,0,0,1,639.819,682.408Zm-9.444,11.818c-.764-.1-1.366-1.256-2.092-1.868-.214-.181-.6-.163-1.115-.286.017-.256.054-.812.093-1.415l-1.576.436c.228-1.04.4-1.814.641-2.93l-1.224.863c0-1.9-.133-3.611.029-5.291a5.546,5.546,0,0,1,4.93-5.307c3.242-.542,5.013.211,6.349,3.279a16.425,16.425,0,0,1,1.43,5.9C637.949,691.17,633.886,694.7,630.376,694.226Z" transform="translate(-562.549 -571.712)" fill="#1f417e"/>
      <path id="Path_3168" data-name="Path 3168" d="M715.465,688.424c.455,3.243,6.084,5.1,10.552,3.5A11.144,11.144,0,0,1,715.465,688.424Z" transform="translate(-609.583 -578.769)" fill="#1f417e"/>
      <path id="Path_3169" data-name="Path 3169" d="M995.609,572.5l-.687.024,1.142,14.821.521-.044Q996.1,579.9,995.609,572.5Z" transform="translate(-750.332 -520.385)" fill="#1f417e"/>
      <path id="Path_3170" data-name="Path 3170" d="M943.532,577.71v11.564q.471-5.771.952-11.528Z" transform="translate(-724.449 -523.007)" fill="#1f417e"/>
      <path id="Path_3171" data-name="Path 3171" d="M943.464,601.008c-.011.145-.024.289-.036.434l.006.009q-.019.174-.038.349l.067-.3Z" transform="translate(-724.381 -534.741)" fill="#1f417e"/>
      <path id="Path_3172" data-name="Path 3172" d="M976.565,590.4v10.652q.3-5.323.6-10.636Z" transform="translate(-741.086 -529.399)" fill="#1f417e"/>
      <path id="Path_3173" data-name="Path 3173" d="M976.507,611.861q-.027.483-.055.966l.007.007-.009.171.057-.122Z" transform="translate(-741.028 -540.208)" fill="#1f417e"/>
      <path id="Path_3174" data-name="Path 3174" d="M934.932,574.8l-.332.05q-.4,6.346-.8,12.693a47.174,47.174,0,0,0,1.115-8.3C935.008,577.766,934.932,576.279,934.932,574.8Z" transform="translate(-719.548 -521.54)" fill="#1f417e"/>
      <path id="Path_3175" data-name="Path 3175" d="M685.091,534.967c4.139-2.893,8.335-5.7,12.512-8.543l-.232-.38-16.728,10.193,1.561.893.97-.057A12.656,12.656,0,0,1,685.091,534.967Z" transform="translate(-592.045 -496.986)" fill="#1f417e"/>
      <path id="Path_3176" data-name="Path 3176" d="M788.521,508.572l-.589.42.516.04A.831.831,0,0,0,788.521,508.572Z" transform="translate(-646.081 -488.186)" fill="#1f417e"/>
      <path id="Path_3177" data-name="Path 3177" d="M1031.495,506.993l-1.395,1.47,1.77-1.117Z" transform="translate(-768.049 -487.391)" fill="#1f417e"/>
      <path id="Path_3178" data-name="Path 3178" d="M978.877,534.995c.076.316.145.6.214.892l7.9-10-.571-.488-9.341,10.7Z" transform="translate(-741.344 -496.662)" fill="#1f417e"/>
      <path id="Path_3179" data-name="Path 3179" d="M887.993,523.971l-.276,1.508,5.46-6.012Z" transform="translate(-696.337 -493.674)" fill="#1f417e"/>
      <path id="Path_3180" data-name="Path 3180" d="M941.49,526.734l-.452-.451-8.981,8.573.878.509Z" transform="translate(-718.67 -497.106)" fill="#1f417e"/>
      <path id="Path_3181" data-name="Path 3181" d="M799.69,513.639l-.387-.4-6.527,6.45.12.131Z" transform="translate(-648.521 -490.535)" fill="#1f417e"/>
      <path id="Path_3182" data-name="Path 3182" d="M950.815,683.408c-2.48-.064-4.461,2.38-4.44,5.482.012,1.733,1.673,3.072,3.782,3.05s3.527-1.945,3.549-4.786C953.725,684.641,952.813,683.46,950.815,683.408Zm1.763,5.455c-.569,1.263-1.19,3-2.61,2.234-.275-1.955-.542-3.4-.651-4.847-.043-.57.087-1.445.458-1.682a2.135,2.135,0,0,1,1.875-.028C953.431,685.59,953.278,687.309,952.577,688.863Z" transform="translate(-725.881 -576.242)" fill="#1f417e"/>
      <path id="Path_3183" data-name="Path 3183" d="M636.689,690.571c-1.639-.057-3.24,1.793-3.2,3.7.058,3.183.808,4.215,3.038,4.183,2.394-.034,4.205-1.437,4.207-3.26C640.73,693.085,638.592,690.637,636.689,690.571Zm.957,6.6-2.429-5c1.732-1,2.846-.409,3.6.794C639.714,694.392,639.64,695.795,637.646,697.176Z" transform="translate(-568.293 -579.849)" fill="#1f417e"/>
    </g>
    <path id="Union_1" data-name="Union 1" d="M20.279.25A.588.588,0,0,0,20.6.932c.3.2.6.4.9.588.328.208.663.406.988.619.081.054.263.175.373.148s.128-.192.169-.284A1.955,1.955,0,0,0,21.9.6a6.7,6.7,0,0,0-.99-.409,3.167,3.167,0,0,1-.36-.166A.184.184,0,0,0,20.47,0C20.362,0,20.312.133,20.279.25ZM15.164,1.708a.7.7,0,0,0,.148.859,1.317,1.317,0,0,0,.466.183c.194.058.388.114.579.179.37.126.686.352,1.048.485.157.058.321.095.476.157a2.125,2.125,0,0,1,.439.308,1.227,1.227,0,0,0,.444.19c.2.045.216.094.324.258a3.137,3.137,0,0,0,.726.627,6.667,6.667,0,0,1,.79.76,4.184,4.184,0,0,1,.614.929,7.6,7.6,0,0,1,.558,1.048,1.692,1.692,0,0,1,.069.485c0,.143-.036.339.148.379.315.069.412-.556.43-.764a1.714,1.714,0,0,0-.088-.557c-.046-.2-.071-.408-.111-.611a4.227,4.227,0,0,0-.466-1.149,6.3,6.3,0,0,0-.607-1.1c-.253-.3-.567-.581-.847-.86-.23-.229-.518-.609-.852-.682-.208-.046-.265.01-.4-.177a.778.778,0,0,0-.409-.287,3,3,0,0,1-.546-.2,3.537,3.537,0,0,0-.641-.3,12.061,12.061,0,0,0-1.338-.281l-.01.052a4.453,4.453,0,0,0-.571-.078A.45.45,0,0,0,15.164,1.708ZM10.829,3.3c-.764.242-1.507.545-2.275.777a6.5,6.5,0,0,0-1.907.9,9.306,9.306,0,0,0-.887.71,9.128,9.128,0,0,1-.833.736A7.133,7.133,0,0,0,4.1,7.1c-.248.234-.527.431-.773.664a11.015,11.015,0,0,0-1.436,1.59,6.772,6.772,0,0,1-.633.852,5.634,5.634,0,0,0-.675.714A4.144,4.144,0,0,0,.007,12.94a4.676,4.676,0,0,0,.085,1.067,2.185,2.185,0,0,0,.325.944,6.158,6.158,0,0,0,.6.808,3.3,3.3,0,0,0,.793.487.637.637,0,0,0,.753-.214c.256-.287.545-.541.807-.821.537-.573,1.084-1.138,1.616-1.715q.2-.22.4-.443c.1-.115.237-.338.4-.369.15-.028.26.118.365.2.128.1.27.181.4.281.238.185.341.471.562.678s.424.452.648.67.506.431.731.677.461.493.7.733a5.878,5.878,0,0,1,.669.76c.093.133.166.278.267.405s.236.255.334.4a8.825,8.825,0,0,1,.586.988c.156.313.343.607.493.923.334.7.455,1.475.763,2.183.059.136.131.212.27.123a.965.965,0,0,1,.446-.2c.38-.052.763-.092,1.145-.14.762-.1,1.523-.154,2.288-.211a10.927,10.927,0,0,1-.459,2.3,11.452,11.452,0,0,0-.543,2.156.484.484,0,0,0,.2.486,5.1,5.1,0,0,0,1,.449c.741.314,1.484.621,2.235.91s1.488.651,2.26.866a6.441,6.441,0,0,0,1.133.251.865.865,0,0,0,.847-.328c.057-.071.087-.185.154-.241.125-.1.324-.154.462-.255a8.669,8.669,0,0,0,.761-.682,7.932,7.932,0,0,0,1.342-1.722,10.217,10.217,0,0,0,1.278-4.466,13.106,13.106,0,0,0,.027-2.431,3.058,3.058,0,0,1-.059-.532c.009-.108,0-.093.114-.107.047-.006.231,0,.258-.034.047-.053-.036-.387-.07-.453a.881.881,0,0,0-.372-.312,6.3,6.3,0,0,0-2.093-.62c-.778-.134-1.544-.273-2.328-.367-.2-.024-.4-.037-.6-.068a.313.313,0,0,1-.287-.244c-.151-.37-.283-.748-.43-1.119-.3-.754-.666-1.469-1.026-2.2a26.033,26.033,0,0,0-2.145-4.059c-.45-.607-.974-1.175-1.468-1.747a7.16,7.16,0,0,0-1.765-1.48c-.653-.394-1.29-.828-1.954-1.2a5.979,5.979,0,0,0-1.031-.446,2.63,2.63,0,0,0-.809-.2A.878.878,0,0,0,10.829,3.3Zm1.987,17.281a1.662,1.662,0,0,1-.148-.542c-.06-.237-.122-.474-.176-.712a5.632,5.632,0,0,0-.348-1.145,19.951,19.951,0,0,0-1.267-2.125,10.979,10.979,0,0,0-.7-.9,5.809,5.809,0,0,0-.778-.884c-.625-.533-1.233-1.125-1.9-1.609a8.744,8.744,0,0,0-1.044-.589c.047-.172.171-.255.3-.378l.53-.5q.48-.454.964-.9a14.307,14.307,0,0,0,1.828-1.8c.231-.307.459-.536.228-.9a2.53,2.53,0,0,1-.375-1.2,2.2,2.2,0,0,1,.082-1.12.844.844,0,0,1,.728-.583,4.932,4.932,0,0,1,2.317.756,5.728,5.728,0,0,1,.976.651c.326.259.676.484.993.753s.6.551.882.842c.149.154.268.453.5.495a.412.412,0,0,0,.141,0,.2.2,0,0,1,.211.059,4.884,4.884,0,0,1,.428.468,8.281,8.281,0,0,1,.66,1.092,24.134,24.134,0,0,1,1.174,2.337c.342.788.826,1.5,1.108,2.319.138.4.358.747.529,1.13s.3.8.445,1.2a9.673,9.673,0,0,1,.436,1.285,6.074,6.074,0,0,1,.12,1.3c0,.1.024.224-.044.266a.919.919,0,0,1-.291.037c-.176.022-.352.033-.528.051-.086.009-.185.042-.26-.019-.058-.046-.034-.107-.07-.157a.254.254,0,0,0-.23-.071H20.2a12.357,12.357,0,0,0-1.318.018c-.452.045-.9.14-1.344.226-.85.164-1.712.277-2.568.409a7.96,7.96,0,0,0-1.2.245,2.951,2.951,0,0,1-.775.284A.212.212,0,0,1,12.816,20.577ZM1.8,15.346a2.976,2.976,0,0,1-.791-.9,3.01,3.01,0,0,1-.261-1.309,4.3,4.3,0,0,1,1.29-2.494A15.727,15.727,0,0,1,4.051,8.477c.424-.368.859-.723,1.276-1.1.389-.35.755-.721,1.159-1.053A4.721,4.721,0,0,1,7.664,5.5c.53-.217,1.04-.475,1.56-.715a1.9,1.9,0,0,1-.126.661,3.339,3.339,0,0,0-.079.73,3.645,3.645,0,0,0,.329,1.448c.073.147.261.3.167.476s-.341.306-.472.437a14.024,14.024,0,0,1-1.181.96c-.784.626-1.528,1.3-2.257,1.992s-1.356,1.459-2.024,2.2c-.351.387-.7.773-1.05,1.165-.135.153-.354.542-.59.542A.231.231,0,0,1,1.8,15.346Zm19.926,5.17c.554-.317.567-1.143.614-1.692a7.444,7.444,0,0,0-.26-2.177,6.089,6.089,0,0,0,1.491.564,14.8,14.8,0,0,0,1.687.229,8.4,8.4,0,0,1,.935.121.4.4,0,0,1,.332.318,5.38,5.38,0,0,1-.114,1.778c-.081.66-.085,1.336-.186,1.992a7.077,7.077,0,0,1-.217.821,5.149,5.149,0,0,1-.294.84,10.921,10.921,0,0,1-1.812,2.809c-.19.2-.4.377-.6.576a2.313,2.313,0,0,1-.459.456c-.075.043-.207.047-.265.1s-.049.163-.142.2-.208-.03-.281-.055c-.17-.058-.339-.119-.51-.177-1.217-.415-2.448-.794-3.669-1.2l-.964-.32c-.136-.045-.272-.09-.411-.125a1.361,1.361,0,0,1-.393-.1c-.161-.107-.048-.31,0-.459.1-.309.207-.615.307-.924a10.341,10.341,0,0,0,.453-1.878,5.022,5.022,0,0,0,.033-.878c0-.085-.032-.2.026-.28.079-.1.292-.09.411-.107.717-.105,1.433-.193,2.155-.263.366-.036.731-.075,1.1-.095l.557-.029c.037,0,.078,0,.12,0h.052A.625.625,0,0,0,21.73,20.516Z" transform="translate(1767.284 -3463.425) rotate(180)" fill="#1f417e"/>
    <path id="Union_5" data-name="Union 5" d="M.067,11.736C.014,11.65.055,11.169,0,11.158a3.548,3.548,0,0,1,.147-.733c.1-.252.206-.5.312-.752a7.483,7.483,0,0,1,.767-1.428A26.051,26.051,0,0,1,3.277,5.564c.361-.389.653-.825,1-1.224A12.678,12.678,0,0,1,5.443,3.275c.368-.332.7-.7,1.075-1.03s.762-.6,1.126-.927A3.279,3.279,0,0,1,8.184.9,6.315,6.315,0,0,0,8.827.552c.269-.195.756-.715,1.118-.5a.693.693,0,0,1,.3.529.94.94,0,0,1-.377.641c-.394.4-.817.773-1.227,1.155C6.958,3.939,5.394,5.619,3.871,7.34c-.408.46-.811.927-1.2,1.4s-.707.981-1.051,1.484-.694,1-1.072,1.468a.4.4,0,0,1-.284.166A.222.222,0,0,1,.067,11.736Zm.371-7.81a6.072,6.072,0,0,1,.837-.979A23.241,23.241,0,0,1,3.506,1.166c.37-.277.736-.588,1.12-.842C4.787.218,4.9.3,4.991.452c.142.232.015.331-.149.5-.654.675-1.414,1.21-2.106,1.843C1.907,3.553,1.1,4.337.277,5.1-.006,4.682.185,4.3.438,3.927Z" transform="translate(1729.687 -3355.528) rotate(90)" fill="#1f417e"/>
    <path id="Union_6" data-name="Union 6" d="M17.8,24.107c-.108-.185.062-.453-.155-.586s-.616,0-.834.02a10.976,10.976,0,0,1-1.311.025c-.307-.007-.614-.013-.924,0a4.4,4.4,0,0,1-.609-.007c-.215-.022-.4-.122-.6-.159a1.01,1.01,0,0,0-.415.047,2.351,2.351,0,0,1-.575,0c-.9-.049-1.77-.2-2.659-.3-.316-.038-.617-.043-.74-.386a1.775,1.775,0,0,1,.02-1.1,4.023,4.023,0,0,1,.7-.985,3.391,3.391,0,0,0,.455-1.105,33.56,33.56,0,0,0-4.417.963c-.389.082-.779.163-1.169.243-.267.055-.588.172-.681-.17a1.7,1.7,0,0,1-.043-.827,10.575,10.575,0,0,0,.371-1.036,12.613,12.613,0,0,0-.082-4.379A15.643,15.643,0,0,0,2.785,10.08,14.639,14.639,0,0,0,1.691,8.269,2.8,2.8,0,0,0,.467,7.106c-.252-.1-.421.034-.46-.3a1.014,1.014,0,0,1,.286-.841A11.73,11.73,0,0,1,2.073,4.6a31.336,31.336,0,0,1,3.89-2.226c.666-.333,1.355-.614,2.021-.945.3-.151.607-.306.924-.43S9.587.811,9.916.679A13.5,13.5,0,0,1,12.179.035a.88.88,0,0,1,.93.252,2.194,2.194,0,0,1,.216.383A1.238,1.238,0,0,0,13.709,1a11.231,11.231,0,0,1,2.719,3.66,15.675,15.675,0,0,1,4.606-.7,6.148,6.148,0,0,1,2.179.284c.53.161,1.244.412,1.259,1.087.007.29-.246.469-.231.747a4,4,0,0,0,.1.408c.033.2.02.419.044.626.095.809.184,1.608.235,2.422a22.042,22.042,0,0,1-.008,2.472A17.3,17.3,0,0,1,24.4,14.4c-.144.755-.241,1.52-.394,2.273a14.64,14.64,0,0,1-.688,2.215A17.536,17.536,0,0,1,22.35,20.9a9.685,9.685,0,0,1-1.144,1.823A5.328,5.328,0,0,1,19.6,23.978a2.21,2.21,0,0,1-.936.234c-.122.007-.312.044-.486.044A.41.41,0,0,1,17.8,24.107Zm-.044-13.473a13.64,13.64,0,0,1-.2,5.224,2.177,2.177,0,0,1-.431.831,2.811,2.811,0,0,1-.993.573c-.8.35-1.616.659-2.424.987a21.961,21.961,0,0,1-2.41.83c-.147.04-.287.067-.353.221a2.453,2.453,0,0,0-.048.677c-.012.2-.023.41-.033.614a1.739,1.739,0,0,0-.018.344c.032.2.027.145.24.169.414.047.829.076,1.24.143a10.8,10.8,0,0,0,1.215.221c.884.041,1.772,0,2.657.047s1.784.132,2.675.2a3.339,3.339,0,0,0,.615.038c.186-.024.246-.1.378-.241a4.866,4.866,0,0,0,.705-.941,22.027,22.027,0,0,0,1.2-2.176c.337-.79.649-1.594.91-2.413a18.794,18.794,0,0,0,.773-5.234c.026-1.011-.01-2.022-.046-3.033-.019-.528-.011-1.062-.045-1.59-.027-.414-.275-.5-.66-.52-1.99-.092-3.987-.125-5.978-.125A19,19,0,0,1,17.754,10.634Zm-5.344-9.1a3.212,3.212,0,0,0-.642.238q-.385.143-.769.289c-.837.318-1.66.656-2.466,1.048-.383.186-.765.384-1.164.534-.376.141-.758.249-1.124.417-.809.372-1.6.789-2.4,1.18-.377.184-.756.366-1.128.562-.178.094-.7.271-.713.519-.012.189.331.479.433.6a10.516,10.516,0,0,1,.815,1.065,15.6,15.6,0,0,1,2.021,5.317,16.221,16.221,0,0,1,.252,3.115,12.189,12.189,0,0,1-.009,1.44c-.056.5-.14,1-.211,1.505q2.628-.857,5.263-1.692c1.689-.534,3.351-1.188,5.016-1.795.3-.111.778-.2.966-.5a3.042,3.042,0,0,0,.14-1.249c.04-.912-.053-1.809-.059-2.719a15.944,15.944,0,0,0-.322-2.637,16.894,16.894,0,0,0-.557-2.543A10.13,10.13,0,0,0,13.2,2.033c-.21-.19-.44-.5-.74-.5A.44.44,0,0,0,12.411,1.537ZM29.445,12.264a.9.9,0,0,1-.03-.937,9.335,9.335,0,0,0,.405-1.179A13.148,13.148,0,0,0,29.98,5.37,6.543,6.543,0,0,0,29.523,3a1.775,1.775,0,0,1-.209-1.012c.038-.32.223-.49.493-.265a3.8,3.8,0,0,1,1.05,2.165,16.386,16.386,0,0,1,.407,2.756,18.6,18.6,0,0,1-.082,2.382,18.428,18.428,0,0,1-.595,2.226c-.08.278-.53,1.149-.911,1.149A.287.287,0,0,1,29.445,12.264Z" transform="translate(1676.46 -3460.098)" fill="#1f417e"/>
    <path id="Union_7" data-name="Union 7" d="M7.785,38.318c-.544-.1-1.093-.185-1.63-.321a8.658,8.658,0,0,1-2.7-1.269A9.044,9.044,0,0,1,1.3,34.664a9.383,9.383,0,0,1-.781-1.242A5.152,5.152,0,0,1,0,31.82a1.439,1.439,0,0,1,.925.568,14,14,0,0,0,1.167,1.174,10.524,10.524,0,0,0,2.65,1.64,11.531,11.531,0,0,0,3.3.936c.446.056.889.147,1.336.19a3.724,3.724,0,0,0,1.661-.278c.768-.25,1.451,1.177.824,1.6a3.942,3.942,0,0,1-1.058.568,10.434,10.434,0,0,1-1.485.223,2.728,2.728,0,0,1-.371.025A6.186,6.186,0,0,1,7.785,38.318ZM13.7,28.863A11.683,11.683,0,0,1,9.78,27.777C7.287,26.541,5.494,24.3,3.891,22.088A18.8,18.8,0,0,1,1.8,18.37,11.024,11.024,0,0,1,.714,14.323c-.009-.68,0-1.1.652-1.422a8.677,8.677,0,0,0,1.556-1.084c.3-.248.952-.932,1.358-.844.748.162-.251,1.138-.47,1.4a11.423,11.423,0,0,1-1.5,1.474c-.573.481-.459.911-.228,1.569a16.694,16.694,0,0,0,1.761,3.608c.372.57.792,1.1,1.217,1.626s.8,1.144,1.249,1.682a12.172,12.172,0,0,0,3.247,2.684c.569.321,1.195.508,1.758.848a1.439,1.439,0,0,0,.726.217,4.2,4.2,0,0,1,.935.312,15.3,15.3,0,0,0,1.929.332,4.658,4.658,0,0,0,.92.195,1.328,1.328,0,0,0,.785-.473,31.053,31.053,0,0,0,2.97-3.346c.947-1.187,1.89-2.378,2.793-3.6a2.179,2.179,0,0,0,.444-.77c.035-.206.042-.077-.043-.252a1.449,1.449,0,0,0-.15-.2l-.348-.464c-.429-.011-.541.493-.7.8a15.224,15.224,0,0,1-.91,1.52c-.636.948-1.332,1.853-1.944,2.817-.162.255-.448.8-.8.838a.824.824,0,0,1-.435-.152,2.943,2.943,0,0,0-.814-.327,12.035,12.035,0,0,1-2.736-.66c-3.838-1.674-5.791-6.159-6.883-9.937a26.064,26.064,0,0,1-.775-3.66,12.536,12.536,0,0,1,.171-3.643c.018-.115.036-.23.054-.345.031-.2.091-.268-.044-.389-.16-.143-.37-.138-.524-.323-.4-.487.061-.885.473-1.134A18.63,18.63,0,0,1,9.879,1.916c1.152-.408,2.27-.906,3.441-1.259A9.852,9.852,0,0,1,15.1.185a1.268,1.268,0,0,1,.35.032,1.184,1.184,0,0,0,.364.03.266.266,0,0,1,.073,0,.194.194,0,0,0,.108-.008c.127-.055.119-.227.3-.241.342-.028.748.723.909.935A17.04,17.04,0,0,1,18.22,2.5c.623,1.049,1.21,2.121,1.859,3.155.714,1.139,1.507,2.231,2.3,3.317a5.271,5.271,0,0,0,1.138,1.441c.424.264.941.312,1.359.6.5.34.264.733.068,1.212-.257.629-.533,1.25-.825,1.864-.517,1.088-1.2,2.141-1.66,3.259a.815.815,0,0,1,.3,0,1.227,1.227,0,0,0,.175.011c.281-.029.51-.254.8-.24a1.118,1.118,0,0,1,.863,1.242,6.768,6.768,0,0,1-.779,1.894c-.371.679-.832,1.31-1.257,1.955a24.935,24.935,0,0,1-2.36,3.414c-.442.477-.892.937-1.322,1.425-.4.457-1,.767-1.225,1.337-.1.241-.139.438-.4.522a2.737,2.737,0,0,1-.822.067c-.1,0-.2,0-.292,0q-.232.006-.465.006A17.532,17.532,0,0,1,13.7,28.863ZM15.274,1.747a13.382,13.382,0,0,1-1.479.688c-1.006.417-2,.841-3.047,1.16q-.763.234-1.541.41a3.564,3.564,0,0,0-1.363.381c-.38.287-.377.773-.43,1.207-.074.6-.143,1.2-.214,1.8.24.014.124.379.113.588s-.025.442-.025.663a6.544,6.544,0,0,0,.234,1.468c.222.96.467,1.916.773,2.854a20.362,20.362,0,0,0,2.3,4.871,10.087,10.087,0,0,0,3.732,3.375,5.588,5.588,0,0,0,2.433.678c.651.023.674-.632.911-1.13a23.739,23.739,0,0,1,1.492-2.45c.53-.835,1.046-1.678,1.587-2.5s1.139-1.588,1.742-2.363c.191-.246.509-.577.475-.922s-.427-.614-.667-.83c-2.961-2.674-4.282-6.537-6.09-9.984-.1-.2-.21-.269-.324-.269C15.71,1.439,15.512,1.612,15.274,1.747Z" transform="translate(1692.657 -3418.054)" fill="#1f417e"/>
  </g>
</svg>
