<svg id="da5b432e5cba45d154eabe3d69345386" xmlns="http://www.w3.org/2000/svg" width="31.589" height="19.177" viewBox="0 0 31.589 19.177">
  <g id="Group_1591" data-name="Group 1591" transform="translate(0 0)">
    <path id="Path_107" data-name="Path 107" d="M317.051-284.124c-.1.235-1.993,4.542-4.22,9.581l-4.041,9.159,1.925.02c1.055.007,1.937-.007,1.962-.034s1.919-4.328,4.22-9.548,4.2-9.514,4.207-9.547a18.989,18.989,0,0,0-1.925-.047h-1.95Z" transform="translate(-299.159 284.54)" fill="#fff"/>
    <path id="Path_108" data-name="Path 108" d="M13.517-158.218v1.912H10v2.818h3.517v3.824h2.592v-3.824h3.517v-2.818H16.108v-3.824H13.517Z" transform="translate(-10 164.491)" fill="#fff"/>
    <path id="Path_109" data-name="Path 109" d="M691.4-130.044v1.376h9.625v-2.751H691.4v1.376Z" transform="translate(-669.436 136.788)" fill="#fff"/>
    <path id="Path_110" data-name="Path 110" d="M691.4,32.646v1.376h9.625V31.27H691.4v1.376Z" transform="translate(-669.436 -20.2)" fill="#fff"/>
  </g>
</svg>
