<svg xmlns="http://www.w3.org/2000/svg" width="51.48" height="28.962" viewBox="0 0 51.48 28.962">
  <g id="_155f6acfac7e1e2b9939a3e4d4860bef" data-name="155f6acfac7e1e2b9939a3e4d4860bef" transform="translate(-10 -224.4)">
    <path id="Path_6497" data-name="Path 6497" d="M61.478,252.08h0a1.265,1.265,0,0,1-1.261,1.277H50.782a1.59,1.59,0,0,0,1.235-1.55V251.8h.005s0-5.789-4.2-7.9a7.4,7.4,0,0,0-2.805-.94l.021-2.506s-.982-.756-1.282-3.126c-.615.179-.82-.725-.856-1.3-.032-.552-.357-2.29.394-2.133a15.853,15.853,0,0,1-.215-2.763,4.974,4.974,0,0,1,4.917-4.124c3.373.152,4.7,2.18,4.891,4.124a15.44,15.44,0,0,1-.221,2.758c.751-.158.426,1.576.389,2.133-.037.578-.242,1.481-.856,1.3-.3,2.364-1.287,3.115-1.287,3.115l.021,2.506s.62.357,3.241,1.45,1.8.278,3.93,1.345c3.383,1.692,3.383,6.336,3.378,6.336Zm-18.991-8.568c2.879,1.2,1.975.3,4.318,1.481,3.709,1.854,3.709,6.961,3.709,6.961h-.005v.005a1.4,1.4,0,0,1-1.392,1.4H22.209a1.4,1.4,0,0,1-1.387-1.4v-.005h0s0-5.106,3.7-6.961c2.343-1.177,1.445-.221,4.318-1.424a31.643,31.643,0,0,0,3.562-1.623l.026-2.763s-1.077-.83-1.413-3.436c-.672.194-.9-.8-.935-1.429-.037-.615-.389-2.522.436-2.348a17.155,17.155,0,0,1-.231-3.031,5.456,5.456,0,0,1,5.4-4.539c3.7.163,5.175,2.4,5.379,4.534a17,17,0,0,1-.247,3.031c.825-.168.468,1.739.426,2.348-.037.63-.263,1.623-.935,1.429-.336,2.6-1.413,3.43-1.413,3.43l.026,2.753C38.925,241.92,39.6,242.309,42.487,243.512Zm-14.615-6.183c-.3,2.369-1.3,3.126-1.3,3.126l.026,2.511a7.665,7.665,0,0,0-2.826.94c-4.239,2.107-4.239,7.9-4.239,7.9h0v.005a1.593,1.593,0,0,0,1.245,1.55h-9.5A1.275,1.275,0,0,1,10,252.08v-.005h0s0-4.649,3.4-6.336c2.154-1.066,1.324-.252,3.966-1.345s3.262-1.45,3.262-1.45l.026-2.506s-.988-.751-1.3-3.121c-.62.179-.825-.725-.856-1.3-.037-.557-.362-2.29.389-2.138a14.955,14.955,0,0,1-.221-2.758c.189-1.949,1.534-3.977,4.933-4.124a5,5,0,0,1,4.954,4.124,15.406,15.406,0,0,1-.215,2.763c.756-.158.431,1.581.394,2.138C28.7,236.6,28.492,237.507,27.872,237.329Z" fill="#989898"/>
  </g>
</svg>
