<svg id="_0624ae2e27987448b9cb671c55e1f0fa" data-name="0624ae2e27987448b9cb671c55e1f0fa" xmlns="http://www.w3.org/2000/svg" width="45.617" height="48.33" viewBox="0 0 45.617 48.33">
  <path id="Path_6434" data-name="Path 6434" d="M37.5,91.774v0Z" transform="translate(-37.5 -87.671)" fill="#2a6aa9"/>
  <path id="Path_6435" data-name="Path 6435" d="M110.1,178.36l15.056,5.484v-31.1L110.1,146.6Z" transform="translate(-106.52 -139.863)" fill="#2a6aa9"/>
  <path id="Path_6436" data-name="Path 6436" d="M110.1,178.36l15.056,5.484v-31.1L110.1,146.6Z" transform="translate(-106.52 -139.863)" fill="#2a6aa9"/>
  <path id="Path_6437" data-name="Path 6437" d="M110.1,178.36l15.056,5.484v-31.1L110.1,146.6Z" transform="translate(-106.52 -139.863)" fill="#2a6aa9"/>
  <path id="Path_6438" data-name="Path 6438" d="M436.676,986.8l-.276-.1A1.666,1.666,0,0,0,436.676,986.8Z" transform="translate(-416.728 -938.533)" fill="#2a6aa9"/>
  <path id="Path_6439" data-name="Path 6439" d="M110.1,178.36l15.056,5.484v-31.1L110.1,146.6Z" transform="translate(-106.52 -139.863)" fill="#2a6aa9"/>
  <path id="Path_6440" data-name="Path 6440" d="M140.761,11.726h0l15.125,6.031h0a.87.87,0,0,0,.375.084.893.893,0,0,0,.281-1.741h0l-15.081-6.021a.92.92,0,0,0-.37-.079.9.9,0,0,0-.33,1.726Z" transform="translate(-135.134 -10)" fill="#2a6aa9"/>
  <path id="Path_6441" data-name="Path 6441" d="M37.6,818Z" transform="translate(-37.595 -778.153)" fill="#2a6aa9"/>
  <path id="Path_6442" data-name="Path 6442" d="M58.5,63.988,40.1,56.487h0a1.8,1.8,0,0,0-2.6,1.544v.148a.958.958,0,0,0,.01.118h0V93.854a1.8,1.8,0,0,0,1.144,1.568v0l18.523,6.751.276.1a1.89,1.89,0,0,0,.473.064,1.8,1.8,0,0,0,1.8-1.8V65.65A1.726,1.726,0,0,0,58.5,63.988ZM41.08,91.842v-.079h0V62.08a.989.989,0,0,1,1.366-.769h0l13.029,5.311v0a.983.983,0,0,1,.661.843v.207h0v29a.992.992,0,0,1-.986.907.905.905,0,0,1-.232-.03L41.687,92.73A.985.985,0,0,1,41.08,91.842Z" transform="translate(-37.5 -54.017)" fill="#2a6aa9"/>
  <path id="Path_6443" data-name="Path 6443" d="M532.488,11.726h0l-15.12,6.026h0a.869.869,0,0,1-.375.084.893.893,0,0,1-.281-1.741h0l15.076-6.017a.92.92,0,0,1,.37-.079.9.9,0,0,1,.33,1.726Z" transform="translate(-492.497 -10)" fill="#2a6aa9"/>
  <path id="Path_6444" data-name="Path 6444" d="M962.4,818Z" transform="translate(-916.788 -778.153)" fill="#2a6aa9"/>
  <path id="Path_6445" data-name="Path 6445" d="M512,65.845v34.9a1.8,1.8,0,0,0,1.8,1.8,1.86,1.86,0,0,0,.473-.064l.276-.1,18.523-6.751v0a1.807,1.807,0,0,0,1.144-1.568V58.5h0a.955.955,0,0,0,.01-.118v-.148a1.8,1.8,0,0,0-2.6-1.544h0l-18.395,7.5A1.706,1.706,0,0,0,512,65.845ZM530.025,92.92l-13.231,4.823a.905.905,0,0,1-.232.03.993.993,0,0,1-.986-.907v-29h0V67.66a1,1,0,0,1,.661-.843v0L529.27,61.5h0a.989.989,0,0,1,1.366.769V91.948h0v.079A.983.983,0,0,1,530.025,92.92Z" transform="translate(-488.6 -54.207)" fill="#2a6aa9"/>
</svg>
