<svg xmlns="http://www.w3.org/2000/svg" width="97" height="102.651" viewBox="0 0 97 102.651">
  <g id="d3b9d9cfc8e7f5b9a26cd45c246e7077" transform="translate(-36.992 -10.006)">
    <g id="Group_2117" data-name="Group 2117" transform="translate(36.992 10.006)">
      <path id="Path_6913" data-name="Path 6913" d="M97.725,410.157a3.26,3.26,0,1,0,3.938-5.2l-28.91-21.913a3.268,3.268,0,0,0-3.928-.01L38.3,405.842a3.263,3.263,0,0,0,1.959,5.876,3.227,3.227,0,0,0,1.948-.649l28.564-21.337Z" transform="translate(-36.992 -343.382)" fill="#75a9d9"/>
      <path id="Path_6914" data-name="Path 6914" d="M738.014,400.364,735.794,351.5H733.28l-1.917,48.864-.063,18.016h6.8Z" transform="translate(-658.573 -315.73)" fill="#75a9d9"/>
      <path id="Path_6915" data-name="Path 6915" d="M806.1,318.857l-12.894-14.4a1.9,1.9,0,0,0-2.629-.01l-1.466,1.571a1.9,1.9,0,0,0,.178,2.619l15.23,11.91c.723.681,1.236,1.152,1.917.43l.168-.178C807.269,320.072,806.819,319.527,806.1,318.857Z" transform="translate(-709.927 -273.136)" fill="#75a9d9"/>
      <path id="Path_6916" data-name="Path 6916" d="M513.1,274.116l-.524-2.084a2.018,2.018,0,0,0-2.42-1.236l-18.687,6.557c-.964.241-2.095.534-1.854,1.5l.063.23c.241.964,1.4.754,2.367.513l19.535-3.237A2.036,2.036,0,0,0,513.1,274.116Z" transform="translate(-442.179 -243.426)" fill="#75a9d9"/>
      <path id="Path_6917" data-name="Path 6917" d="M748.164,32.086l1.99-19.692c.178-.974.314-2.147-.66-2.325l-.23-.042c-.974-.189-1.194.974-1.372,1.948l-5.363,19.064a2.019,2.019,0,0,0,1.383,2.336l2.116.4A2.042,2.042,0,0,0,748.164,32.086Z" transform="translate(-668.598 -10.006)" fill="#75a9d9"/>
      <circle id="Ellipse_39" data-name="Ellipse 39" cx="2.702" cy="2.702" r="2.702" transform="translate(73.114 25.997)" fill="#75a9d9"/>
      <path id="Path_6918" data-name="Path 6918" d="M140.361,520.356h13.051V538.3h8.16V507.42L136.82,489.1,111,507.42v30.89h29.361Zm-9.794,3.268H117.526V512.207h13.051v11.417Z" transform="translate(-103.248 -438.917)" fill="#75a9d9"/>
    </g>
  </g>
</svg>
