<svg xmlns="http://www.w3.org/2000/svg" width="98.672" height="65.64" viewBox="0 0 98.672 65.64">
  <g id="Layer_x0020_1" transform="matrix(0.985, 0.174, -0.174, 0.985, 8.757, 0.067)">
    <path id="Path_7157" data-name="Path 7157" d="M71.286,50.347.023,50.488l-.013-9.3v-8.98L9.654,16.817l9.7,15.354V35.99L20.907,33.7l1.558,2.274,1.558-2.286,1.558,2.274,1.558-2.286L28.7,35.951l1.558-2.286.536.766-.013-7.536-7.038.013,4.42-7.587H25.557l3.372-5.684h-2.2L31.816,3.072,36.925,13.61h-2.2l3.385,5.671H35.508l4.445,7.575-7.038.013.013,7.447.473-.69L34.958,35.9l1.558-2.286,1.558,2.274L39.633,33.6l1.558,2.274,1.558-2.286,1.558,2.274,1.558-2.286,1.558,2.274-.013-8.443L59.3,8.424l11.943,18.93v1.609l4.126-7.089-3.525.013,4.56-7.69H73.432L80.3-.07l6.91,14.242H84.239l4.573,7.677-3.525.013,6,10.244-9.516.013L81.8,50.232H78.938l-.026-18.113-7.664.013V38.4l.013,11.828Zm-55.4-13.693-5.671.013v2.005l5.671-.013Zm-2.2,2.708v4.254H15.9l-.013-4.254Zm-3.462.013v4.254h2.21V39.375h-2.2Zm-1.111-2.7-5.671.013V38.7l5.671-.013Zm-2.2,2.708.013,4.254h2.2V39.387h-2.2ZM3.459,39.4v4.254h2.2L5.643,39.4h-2.2Zm63.727-5.595-7.14.013v2.529l7.14-.013Zm-2.772,3.411.013,5.365,2.772-.013L67.186,37.2H64.414Zm-4.369.013.013,5.365H62.83l-.013-5.365-2.772.013Zm-1.405-3.4-7.14.013V36.36l7.14-.013Zm-2.772,3.411.013,5.365h2.772l-.013-5.365-2.772.013Zm-4.369.013.013,5.365h2.772l-.013-5.365Zm7.8-18.292a3.174,3.174,0,1,1-.013,0ZM9.628,25.17A2.561,2.561,0,1,0,12.2,27.725,2.568,2.568,0,0,0,9.628,25.17Z" fill="#75a9d9"/>
  </g>
</svg>
