<svg xmlns="http://www.w3.org/2000/svg" width="87.571" height="75" viewBox="0 0 87.571 75">
  <g id="_2c122acb93a7d68f5c536e26787d82a0" data-name="2c122acb93a7d68f5c536e26787d82a0" transform="translate(-10 -80.335)">
    <g id="Group_1557" data-name="Group 1557" transform="translate(10 80.335)">
      <path id="Path_33" data-name="Path 33" d="M632.572-430.463a6.962,6.962,0,0,0-4.972,6.431,6.7,6.7,0,0,0,6.5,6.5,6.09,6.09,0,0,0,4.813-1.938,5.884,5.884,0,0,0,1.87-5.108,5.865,5.865,0,0,0-1.938-4.173A6.741,6.741,0,0,0,632.572-430.463Z" transform="translate(-572.412 430.665)" fill="#fff"/>
      <path id="Path_34" data-name="Path 34" d="M206.948-424.949a5.069,5.069,0,0,0-3.923,2.189,9.578,9.578,0,0,0-2.759,5.837,29.391,29.391,0,0,1-.661,3.581c-.548,1.938-.594,3.078-.16,3.854l.3.547.889-.8a7.034,7.034,0,0,1,3.193-2.007,3.569,3.569,0,0,1,1.55.776c2.029,1.55,3.238,1.55,5.45,0a4.152,4.152,0,0,1,1.483-.776,8.027,8.027,0,0,1,3.078,2.029c.707.685.889.752,1.072.479.547-.843.525-1.961-.091-4.309a22.286,22.286,0,0,1-.593-3.284,5.125,5.125,0,0,0-.365-1.71,35.027,35.027,0,0,0-3.375-5.245C211.053-424.9,209.456-425.268,206.948-424.949Zm.639,6.431a9.761,9.761,0,0,0,4.264,1.072,5.467,5.467,0,0,1,.958.045c0,.046-.16.616-.319,1.277a8.071,8.071,0,0,1-2.3,3.877,2.851,2.851,0,0,1-2.759.867c-1.574-.319-3.672-3.169-3.809-5.245-.046-.8,0-.867.844-1.164a4.388,4.388,0,0,0,1.459-.889C206.514-419.271,206.583-419.271,207.586-418.518Z" transform="translate(-182.25 425.561)" fill="#fff"/>
      <path id="Path_35" data-name="Path 35" d="M560.921-264.476c-6,1.368-10.012,7.252-10.491,15.439l-.16,2.486h2.987c2.646,0,2.987-.045,3.078-.41.068-.206.3-1.779.5-3.49.41-3.284.57-3.785,1.025-3.512.228.137.274,1,.16,3.809l-.137,3.6h11.836v-.524c0-.273-.115-1.779-.229-3.306a10.055,10.055,0,0,1,.023-3.261c.57-1.095.867-.251,1.459,4.127.206,1.551.388,2.874.434,2.9.045.045,1.368.137,2.987.228l2.919.137-.114-3.17a15.52,15.52,0,0,0-.707-4.994A14.687,14.687,0,0,0,567.281-264,12.5,12.5,0,0,0,560.921-264.476Z" transform="translate(-501.993 279.524)" fill="#fff"/>
      <path id="Path_36" data-name="Path 36" d="M157.372-260.467a22.192,22.192,0,0,0-4.151,4.242c-1.459,2.189-2.508,5.406-4.036,12.178-.091.365.16.41,2.6.41,2.007,0,2.783-.091,3.011-.319a11.933,11.933,0,0,0,.73-3.466c.433-3.261.661-4.082,1.095-3.831.182.114.205,1.277.114,3.763l-.114,3.626,2.645.023c3.421.045,9.031-.046,9.122-.137a31.087,31.087,0,0,0-.16-3.307,26.365,26.365,0,0,1-.091-3.558.5.5,0,0,1,.844-.137c.046.091.342,1.8.616,3.763l.5,3.581h5.816l-.319-1.437c-1.231-5.4-3.421-10.536-5.656-13.25a12.358,12.358,0,0,0-2.029-1.824l-1.231-.844-1.186.8c-1.6,1.094-2.805,1.391-3.991,1.049a7.327,7.327,0,0,1-2.759-1.6C158.535-261.082,158.124-261.013,157.372-260.467Z" transform="translate(-136.733 276.152)" fill="#fff"/>
      <path id="Path_37" data-name="Path 37" d="M26.305-49.884l-5.473.137-.069,1.984c-.069,1.847-.091,1.984-.57,2.053a.51.51,0,0,0-.5.525c0,.639.752.685,6.408.228l4.789-.365,1.368.525,1.346.525-11.788.068L10-44.16v2.942l.98.137a10.631,10.631,0,0,0,1.642.069l.684-.069.069,16.009.046,16.032h3.192V-40.968l.525-.114c.273-.046,1.893-.068,3.581-.046l3.078.046.069.844.069.867H19.578v22.122h2.965l.046-9.533.069-9.51h4.561l.114,7.982c.114,7.914.114,7.982.639,8.734a3.3,3.3,0,0,0,2.942,1.414,3.434,3.434,0,0,0,3.033-1.642c.433-.707.456-1.163.456-8.552v-7.8l.776-.137a4.3,4.3,0,0,1,1.3-.068l.548.068.114,7.982c.114,7.206.16,8.073.525,8.62a3.609,3.609,0,0,0,6.112-.3c.388-.73.433-1.437.433-8.6v-7.823h3.875V-17.48H51.05V-39.6H46.694l.069-.73.069-.752,7.138-.046,7.116-.022v1.778H56.069V-17.25h3.193v-9.578c0-10.81-.228-9.715,1.893-9.442l1.049.16.068,6.865.069,6.865.616,1.026a4.314,4.314,0,0,0,7.48-.046c.57-.98.57-1,.638-7.822.046-4.971.137-6.887.342-7a4.467,4.467,0,0,1,1.459-.182h1.186l.069,7c.069,7,.069,7.024.638,8a4.328,4.328,0,0,0,7.526,0c.57-.98.57-1,.638-8l.069-7h1.574v18.928h3.192l-.046-11.014-.07-10.992-1.756-.069-1.779-.069v-.661c0-.639.046-.661,1.437-.776a31.726,31.726,0,0,1,3.4-.069l2.007.046V-9.27h.752a14.241,14.241,0,0,1,1.6.137l.844.16V-24.96c0-14.345.046-15.964.365-16.1a8.287,8.287,0,0,1,1.71-.137h1.347v-2.965l-11.79-.046-11.813-.068,1.368-.525,1.368-.548L82-44.869a52.121,52.121,0,0,0,5.633.342.592.592,0,0,0-.091-1.117c-.41-.137-.456-.342-.456-1.779a6.367,6.367,0,0,0-.206-1.961c-.16-.251-1.734-.342-8.027-.433-8.438-.137-21.642-.069-21.916.114a5.845,5.845,0,0,0-.182,2.029c0,1.734-.046,1.916-.433,1.916-.5,0-.821.661-.5.98.159.16,1.71.137,4.743-.091,6.02-.433,7.047-.41,8.165.206l.912.479H53.786c-13.934,0-15.781-.022-15.279-.319,1.368-.8,2.12-.821,7.5-.342a54.979,54.979,0,0,0,5.61.319c.5-.206.342-.844-.3-1.117-.456-.206-.5-.365-.5-2.075v-1.846l-3.968-.16c-2.189-.091-5.747-.16-7.936-.16-2.166,0-4.652-.023-5.542-.046C32.509-49.976,29.316-49.952,26.305-49.884Z" transform="translate(-10 83.973)" fill="#fff"/>
    </g>
  </g>
</svg>
