<svg xmlns="http://www.w3.org/2000/svg" width="77.391" height="58.217" viewBox="0 0 77.391 58.217">
  <g id="fc32e74db624eb16eecc4e3b0a763aea" transform="translate(-10 -131.4)">
    <path id="Path_38" data-name="Path 38" d="M395.5,131.4v26.147l2.985-1.248.016-21.906h40.946v27H418.528l-7.865,2.993h31.785V131.4Z" transform="translate(-355.057)" fill="#fff"/>
    <path id="Path_39" data-name="Path 39" d="M472.01,242.578a15.44,15.44,0,0,1,.442,1.848c.324,1.658.663,3.372,1.919,4.185a2.615,2.615,0,0,0,2.069.332c2.219-.513,2.9-3.206,3.554-5.82a12.955,12.955,0,0,1,1.121-3.333c.5.308,1.327,2.5,1.611,3.254.821,2.172,1.666,4.422,3.419,4.983a2.679,2.679,0,0,0,2.338,0c1.39-.695,1.793-2.432,2.18-4.1.055-.237.126-.537.205-.845.032.142.055.276.079.4.355,1.911.884,4.8,3.7,5.623a6.134,6.134,0,0,0,2.78.095c.34-.047.687-.095.719-.095a3.084,3.084,0,0,1,.885.505,4.115,4.115,0,0,0,2.48.932,4.227,4.227,0,0,0,.434-.024l-.348-3.1c-.174.024-.261,0-.774-.363a6,6,0,0,0-1.9-.963,5.531,5.531,0,0,0-1.919.032,3.341,3.341,0,0,1-1.453.008c-.924-.269-1.208-1.445-1.532-3.2-.292-1.587-.734-3.988-3.04-4.035-2.282-.055-2.906,2.488-3.333,4.335a14.708,14.708,0,0,1-.5,1.808,11.549,11.549,0,0,1-1.485-3.1c-.916-2.424-1.951-5.173-4.462-5.307-2.724-.15-3.514,2.977-4.209,5.725a18.44,18.44,0,0,1-1.027,3.277,17.071,17.071,0,0,1-.434-1.824c-.371-1.9-.884-4.517-3.254-4.517-2.851,0-4.422,3.838-5.812,7.226-.284.687-.537,1.311-.766,1.8l2.811,1.335c.253-.529.529-1.216.845-1.958C469.846,246.463,471.133,243.32,472.01,242.578Z" transform="translate(-419.713 -96.924)" fill="#fff"/>
    <path id="Path_40" data-name="Path 40" d="M50,168.138A12.738,12.738,0,1,0,62.738,155.4,12.736,12.736,0,0,0,50,168.138Z" transform="translate(-36.841 -22.105)" fill="#fff"/>
    <path id="Path_41" data-name="Path 41" d="M59.483,415.2l-20.777,6.878H30.532l-4.857,5.631-4.7-5.631-10.266,1.556L10,446.883h4.375l.205,4.122H37.553L38.7,428.688l22.751-7.534Z" transform="translate(0 -261.388)" fill="#fff"/>
  </g>
</svg>
