<svg xmlns="http://www.w3.org/2000/svg" width="84.39" height="84.464" viewBox="0 0 84.39 84.464">
  <path id="virus-01" d="M80.861,53.726a9.262,9.262,0,0,0-1.383.492,4.357,4.357,0,0,1-3.594-.007c-2.121-.909-4.174-1.961-6.267-2.928a.725.725,0,0,1-.451-1,25.172,25.172,0,0,0,1-5.419c.043-.629.2-.691.727-.328s.89.888,1.416,1.243a2.159,2.159,0,0,0,3.212-.649,4.814,4.814,0,0,0,.069-4.818,2.158,2.158,0,0,0-3.623-.56,10.1,10.1,0,0,1-1.034.939c-.506.345-.6.314-.668-.3a30.868,30.868,0,0,0-1.234-6.367c-.163-.483.046-.747.458-.94,2.15-1.012,4.258-2.113,6.444-3.049a4.26,4.26,0,0,1,3.207-.106c.591.21,1.178.433,1.781.621A2.759,2.759,0,0,0,84.437,27.9v-.862a6.286,6.286,0,0,0-1.849-4.322c-1.861-2.031-4.42-1.292-5.168.947a8.9,8.9,0,0,1-.608,1.261A3.812,3.812,0,0,1,74.8,26.778c-2.289.923-4.623,1.723-6.957,2.522a.689.689,0,0,1-.971-.375,24.549,24.549,0,0,0-3.57-5.151c-.3-.338-.235-.51.178-.625a8.188,8.188,0,0,1,1.8-.191,2.152,2.152,0,0,0,2.1-2.784,4.893,4.893,0,0,0-3.484-3.414,2.109,2.109,0,0,0-2.775,2.071,8,8,0,0,1-.094,1.53c-.174.775-.256.821-.863.336A28.868,28.868,0,0,0,55.3,17.432c-.388-.2-.388-.448-.268-.8.787-2.314,1.572-4.623,2.462-6.907a4.214,4.214,0,0,1,2.242-2.382c.444-.206.9-.374,1.339-.6a2.884,2.884,0,0,0,.841-4.77A6.271,6.271,0,0,0,57.8,0h-.28a2.781,2.781,0,0,1-1.4,0H55.7c-1.911.85-2.463,2.226-1.681,4.195.078.195.15.392.235.584a4.433,4.433,0,0,1,0,3.725c-.939,2.156-1.984,4.263-2.98,6.393a.713.713,0,0,1-1.035.439,28.272,28.272,0,0,0-5.6-1.11c-.621-.07-.686-.191-.349-.709.307-.474.775-.8,1.121-1.247a2.29,2.29,0,0,0-.958-3.685,5.055,5.055,0,0,0-4.077.048,2.275,2.275,0,0,0-.775,3.836,8.256,8.256,0,0,1,.885.981c.37.56.289.738-.371.759a25.132,25.132,0,0,0-5.7.971c-.955.258-1,.28-1.4-.594q-1.24-2.662-2.533-5.291a5.328,5.328,0,0,1-.186-4.9,5.389,5.389,0,0,0,.22-.588A2.7,2.7,0,0,0,28.441,0h-.28A1.821,1.821,0,0,1,27.04,0H26.2a2.232,2.232,0,0,1-.6.157A5.692,5.692,0,0,0,22,2.831,2.816,2.816,0,0,0,23.26,6.754c.354.177.721.328,1.089.476a4.532,4.532,0,0,1,2.645,2.716c.818,2.132,1.559,4.291,2.328,6.444a.7.7,0,0,1-.4,1.009,26.338,26.338,0,0,0-5.2,3.5c-.446.381-.56.332-.723-.262a8.491,8.491,0,0,1-.111-1.6,2.181,2.181,0,0,0-2.391-2.1,5.273,5.273,0,0,0-3.766,3.488,2.138,2.138,0,0,0,2.242,2.82,7.9,7.9,0,0,1,1.386.154c.573.106.618.2.241.647a25.868,25.868,0,0,0-3.33,4.9.573.573,0,0,1-.8.335c-2.183-.815-4.427-1.463-6.571-2.382A4.174,4.174,0,0,1,8,25.3c-.408-.633-.63-1.351-.989-2a2.773,2.773,0,0,0-4.2-1.07A4.279,4.279,0,0,0,1.7,23.284,7.188,7.188,0,0,0,.3,28.146,2.833,2.833,0,0,0,3.778,30.66c.436-.164.887-.291,1.311-.482a4.57,4.57,0,0,1,3.923.027q2.889,1.3,5.741,2.718a.694.694,0,0,1,.409,1,24.907,24.907,0,0,0-1.061,4.7c-.062.44-.076.881-.13,1.32-.064.52-.191.573-.615.28a8.065,8.065,0,0,1-1.017-.853,2.122,2.122,0,0,0-3.608.654,4.932,4.932,0,0,0,.078,4.452,2.107,2.107,0,0,0,3.287.8c.38-.28.678-.639,1.03-.944.172-.15.352-.381.6-.3s.231.391.242.609a25.085,25.085,0,0,0,1.1,5.894.661.661,0,0,1-.451.923c-.993.406-1.94.911-2.9,1.38-1.069.52-2.143,1.027-3.239,1.485a4.354,4.354,0,0,1-3.271.087,12.042,12.042,0,0,0-2.058-.665A2.616,2.616,0,0,0,.061,56.255c-.011.42-.018.831,0,1.248a5.98,5.98,0,0,0,2.59,4.728,2.69,2.69,0,0,0,4.078-1.04c.256-.5.453-1.023.689-1.53a4.241,4.241,0,0,1,2.328-2.2c2.138-.869,4.343-1.556,6.5-2.369a.58.58,0,0,1,.841.343c.262.546.545,1.08.86,1.6a34.189,34.189,0,0,0,2.708,3.729c.373.461.317.583-.28.681-.42.069-.841.02-1.261.048a2.241,2.241,0,0,0-1.985,3.256A5.255,5.255,0,0,0,20.2,67.639,2.219,2.219,0,0,0,23.21,66a8.544,8.544,0,0,0,.106-1.669c.01-.182-.029-.409.16-.507.21-.108.331.112.468.22A30.116,30.116,0,0,0,28.821,67.3c.474.241.468.546.325.981-.607,1.813-1.311,3.591-1.893,5.409A5.783,5.783,0,0,1,23.6,77.44c-2.419.964-2.749,3.571-.731,5.238a7.079,7.079,0,0,0,5.044,1.7,2.774,2.774,0,0,0,2.719-3.539,11.105,11.105,0,0,0-.544-1.512,4.5,4.5,0,0,1,.049-3.537c.88-2.057,1.925-4.038,2.827-6.083a.554.554,0,0,1,.773-.367A26.626,26.626,0,0,0,39.9,70.524c.467.041.42.247.216.542a10.786,10.786,0,0,1-.958,1.111A2.25,2.25,0,0,0,40,76.017a5.035,5.035,0,0,0,3.888,0,2.292,2.292,0,0,0,.888-3.933,8.72,8.72,0,0,1-.85-.926c-.3-.447-.226-.588.318-.635a27.442,27.442,0,0,0,6.031-1.133c.818-.262.888-.251,1.238.518.85,1.866,1.8,3.683,2.638,5.556a4.884,4.884,0,0,1,.15,4.063,10.489,10.489,0,0,0-.485,1.309,2.8,2.8,0,0,0,1.556,3.374,3.683,3.683,0,0,0,1.849.238,6.352,6.352,0,0,0,4.976-2.583,2.778,2.778,0,0,0-1.1-4.333c-.335-.161-.678-.311-1.026-.446a4.458,4.458,0,0,1-2.644-2.711c-.8-2.066-1.533-4.152-2.254-6.246a.67.67,0,0,1,.368-.954,28.464,28.464,0,0,0,4.992-3.456c.42-.363.525-.172.622.237a6.922,6.922,0,0,1,.1,1.391,2.189,2.189,0,0,0,3.17,2.141,4.865,4.865,0,0,0,3.057-3.4,2.115,2.115,0,0,0-2.054-2.74,8.87,8.87,0,0,1-1.4-.066c-.727-.147-.778-.248-.314-.806a25.814,25.814,0,0,0,3.348-5.065.635.635,0,0,1,.909-.35c2.242.778,4.5,1.527,6.711,2.405a4.154,4.154,0,0,1,2.009,1.667c.37.576.583,1.217.892,1.821a2.918,2.918,0,0,0,5.056.64,6.754,6.754,0,0,0,1.739-5.412A2.7,2.7,0,0,0,80.861,53.726ZM21.643,36.634a1.3,1.3,0,0,1-1.18-1.131A1.336,1.336,0,0,1,21.7,34.383a1.263,1.263,0,0,1,1.153,1.157,1.122,1.122,0,0,1-1.21,1.1ZM25.83,57.188a1.381,1.381,0,0,1-1.307-1.07,1.71,1.71,0,0,1,1.227-1.311,1.352,1.352,0,0,1,1.161,1.229,1.2,1.2,0,0,1-1.082,1.159Zm.409-10.367A2.334,2.334,0,0,1,24.1,44.545a2.208,2.208,0,0,1,2.142-2.2,2.527,2.527,0,0,1,2.335,2.232,2.749,2.749,0,0,1-2.337,2.249ZM46,22.645a1.315,1.315,0,0,1,1.181,1.2,1.33,1.33,0,0,1-1.191,1.189,1.531,1.531,0,0,1-1.2-1.282A1.4,1.4,0,0,1,46,22.645ZM32.616,31.315a3.01,3.01,0,0,1-2.906-2.906,3.206,3.206,0,0,1,3-2.942,3.114,3.114,0,0,1,2.861,2.942,2.932,2.932,0,0,1-2.95,2.906Zm3.532,30.174a2.821,2.821,0,0,1-2.812-2.8,2.8,2.8,0,0,1,5.6-.034A2.844,2.844,0,0,1,36.148,61.489ZM42.172,47.4a5.256,5.256,0,1,1,5.276-5.268A5.369,5.369,0,0,1,42.172,47.4ZM48.5,64.044a1.615,1.615,0,1,1,.088-3.228,1.559,1.559,0,0,1,1.531,1.578,1.689,1.689,0,0,1-1.617,1.65Zm7.64-37.508a.854.854,0,0,1,.824-.814c.311-.014.859.569.841.856-.16.451-.46.814-.912.811a.731.731,0,0,1-.75-.853ZM56.872,54.4a2.312,2.312,0,0,1-2.145-2.124A2.473,2.473,0,0,1,56.793,50.2a2.111,2.111,0,0,1,2.134,2.139A2.038,2.038,0,0,1,56.875,54.4Zm1.037-16.08A2.53,2.53,0,0,1,55.7,35.979a2.4,2.4,0,0,1,2.356-2.286,2.671,2.671,0,0,1,2.267,2.316,2.63,2.63,0,0,1-2.408,2.309Z" transform="translate(-0.05)" fill="#d6e5f4"/>
</svg>
