<svg xmlns="http://www.w3.org/2000/svg" width="72" height="71.75" viewBox="0 0 72 71.75">
  <g id="Group_30" data-name="Group 30" transform="translate(-1157.001 -2312)">
    <path id="Union_1" data-name="Union 1" d="M25.059,38H4a4,4,0,0,1-4-4V4A4,4,0,0,1,4,0H37a4,4,0,0,1,4,4V34a4,4,0,0,1-4,4H32.584v5.75Zm1.369-17.025h0v9.1h3.117V10.707h2.942V8H22.505v2.707h3.922v7.427l-.172.067-.417.113-.917.228H23.186l-.841-.292-.42-.159-.445-.243-.406-.162-.337-.186-.028-.014-.665-.319c-.036-.022-.077-.043-.122-.065.07-.059.144-.125.226-.2a4.493,4.493,0,0,0,.452-.5,4.2,4.2,0,0,0,.362-.554,5.106,5.106,0,0,0,.257-.553,5.4,5.4,0,0,0,.2-.586,5.183,5.183,0,0,0,.161-1.325,5.62,5.62,0,0,0-.382-2,6,6,0,0,0-.446-.918,4.858,4.858,0,0,0-.578-.769l-.01-.01a6.859,6.859,0,0,0-.851-.737,5.405,5.405,0,0,0-.894-.527A5.068,5.068,0,0,0,16.321,8a6.94,6.94,0,0,0-1.182.11,10.412,10.412,0,0,0-1.3.323l-.024.008a9.071,9.071,0,0,0-1.182.543,11.78,11.78,0,0,0-1.187.747l-.028.021-1.371,1.121-.016.016a4.962,4.962,0,0,0-.393.424,1.05,1.05,0,0,0-.1.17,1.116,1.116,0,0,0-.075.181l-.113.341,2.243,1.784L12.719,12.6l.644-.6c.146-.121.281-.228.412-.327s.25-.184.353-.251.211-.129.337-.2.246-.127.392-.193a2.977,2.977,0,0,1,1.939-.262,2.621,2.621,0,0,1,.558.18,2.924,2.924,0,0,1,.472.264,1.608,1.608,0,0,1,.307.272,1.474,1.474,0,0,1,.2.321,1.9,1.9,0,0,1,.136.415l0,.017.013.038a3.45,3.45,0,0,1,.135,1.064,2.5,2.5,0,0,1-.1.7,2.8,2.8,0,0,1-.3.672,3.5,3.5,0,0,1-.474.617,3.636,3.636,0,0,1-.613.506,5.719,5.719,0,0,1-.73.407,5.269,5.269,0,0,1-.757.281,8.179,8.179,0,0,1-1.623.146h-.794L14.42,19.3l.69-.114.252-.1a2,2,0,0,1,.672-.127h.695a4.265,4.265,0,0,1,.708.063,5.468,5.468,0,0,1,.743.187,6.508,6.508,0,0,1,.654.321,4.59,4.59,0,0,1,.545.363,3.024,3.024,0,0,1,.444.519,1.965,1.965,0,0,1,.253.532l.011.039.017.036a2.722,2.722,0,0,1,.2.642,4.151,4.151,0,0,1,.072.806,3,3,0,0,1-.059.608,2.954,2.954,0,0,1-.182.57,5.714,5.714,0,0,1-.283.56,4.656,4.656,0,0,1-.3.457,3.961,3.961,0,0,1-.481.469,2.164,2.164,0,0,1-.439.282,2.244,2.244,0,0,1-.443.148,2.342,2.342,0,0,1-.486.049,3.176,3.176,0,0,1-1.054-.194,5.592,5.592,0,0,1-1.177-.6A12.457,12.457,0,0,1,12.9,22.132l-1.014-1.487-1.518-2.686L8,19.518v.275a2.325,2.325,0,0,0,.192.823,7.528,7.528,0,0,0,.491.981l.021.031c.274.4.582.825.917,1.257s.734.927,1.158,1.429l.005.006a18.026,18.026,0,0,0,1.692,1.7,10.886,10.886,0,0,0,1.665,1.21,9.913,9.913,0,0,0,.906.467,6.072,6.072,0,0,0,.85.311,6.437,6.437,0,0,0,1.731.225c.214,0,.431-.007.644-.023s.4-.038.566-.067c.138-.023.293-.055.49-.1.155-.034.311-.072.479-.118l.026-.008a6.218,6.218,0,0,0,.984-.421,4.675,4.675,0,0,0,.815-.561,4.846,4.846,0,0,0,.845-.878,3.833,3.833,0,0,0,.537-1.013,5.491,5.491,0,0,0,.331-1.153,7.681,7.681,0,0,0,.111-1.339V21.6l-.2-.771.77.293h1.743l.653-.152Z" transform="translate(1188 2312)" fill="#fff"/>
    <path id="Subtraction_2" data-name="Subtraction 2" d="M8.417,43.75V38H4a4,4,0,0,1-4-4V4A4,4,0,0,1,4,0H28V6a7.009,7.009,0,0,0,7,7h6V34a4,4,0,0,1-4,4H15.942L8.418,43.749ZM22.441,26.381a.655.655,0,0,0-.655.654v1.309a.656.656,0,0,0,.655.655h5.238a.655.655,0,0,0,.654-.655V27.035a.655.655,0,0,0-.654-.654H26.72L21.371,11.554a1.31,1.31,0,0,0-1.24-.887H18.2a1.31,1.31,0,0,0-1.24.887L11.613,26.381h-.958a.655.655,0,0,0-.655.654v1.309a.656.656,0,0,0,.655.655h5.238a.655.655,0,0,0,.654-.655V27.035a.655.655,0,0,0-.654-.654h-.8l.954-2.619h6.243l.953,2.619ZM21.1,20.488H17.237l1.93-5.3,1.929,5.3Z" transform="translate(1157 2340)" fill="#fff"/>
  </g>
</svg>
