<svg version="1.2" xmlns="http://www.w3.org/2000/svg" viewBox="0 0 21 16" width="21" height="16">
	<title>speed-24px-svg</title>
	<style>
		.s0 { fill: none } 
		.s1 { fill: #ffb142 } 
	</style>
	<path id="Path_6335" class="s0" d="m-78-4h24v24h-24z"/>
	<path id="Path_6336" fill-rule="evenodd" class="s1" d="m19.1 4.6q0.8 1.1 1.2 2.4 0.4 1.4 0.4 2.7 0 1.4-0.3 2.8-0.3 1.3-1 2.5-0.2 0.2-0.3 0.4-0.2 0.2-0.5 0.3-0.2 0.2-0.4 0.2-0.3 0.1-0.6 0.1h-13.8q-0.3 0-0.5-0.1-0.3 0-0.5-0.2-0.2-0.1-0.4-0.3-0.2-0.2-0.3-0.4c-1.1-1.9-1.6-4.2-1.2-6.4 0.3-2.2 1.3-4.3 3-5.8 1.6-1.6 3.7-2.5 5.9-2.7 2.2-0.2 4.5 0.3 6.3 1.5l-1.8 1.2c-1.5-0.7-3.3-1-5-0.7-1.7 0.3-3.2 1.2-4.4 2.4-1.2 1.3-1.9 2.9-2.1 4.6-0.2 1.7 0.1 3.4 1 4.9h13.8q0.5-0.9 0.8-1.8 0.3-1 0.3-2 0-1-0.2-1.9-0.2-1-0.6-1.9l1.2-1.8zm-10.2 6.2q-0.2-0.4-0.2-0.8 0-0.4 0.2-0.8 0.1-0.3 0.4-0.6l8.5-5.7-5.7 8.5q-0.3 0.3-0.6 0.5-0.4 0.1-0.8 0.1-0.4 0-0.8-0.1-0.3-0.2-0.6-0.5-0.3-0.3-0.4-0.6z"/>
</svg>