<svg
  xmlns="http://www.w3.org/2000/svg"
  width="10.871"
  height="30"
  viewBox="0 0 10.871 30"
>
  <g
    id="cd5d56fe4fabe62a64fbcca303547d07"
    transform="translate(-322.441 -9.998)"
  >
    <g
      id="Group_3383"
      data-name="Group 3383"
      transform="translate(322.441 9.998)"
    >
      <path
        id="Path_7341"
        data-name="Path 7341"
        d="M381.45-501.949a3.764,3.764,0,0,0-2.62,1.248c-.885,1.43,1.758,2.778,4.613,2.35,2.632-.4,3.541-1.987,1.735-3.036A6.727,6.727,0,0,0,381.45-501.949Z"
        transform="translate(-376.935 502.002)"
        fill="#fff"
      />
      <path
        id="Path_7342"
        data-name="Path 7342"
        d="M324.212-309.511c-1.489,7.456-1.794,9.068-1.77,9.331.065.633.147.727,2.9,3.482l2.567,2.561,2.562-2.561a36.915,36.915,0,0,0,2.69-2.831,1.689,1.689,0,0,0,.152-.733c.023-.428-.117-1.2-1.735-9.232-.967-4.818-1.776-8.822-1.794-8.9l-.029-.129h-3.734Z"
        transform="translate(-322.441 324.137)"
        fill="#fff"
      />
    </g>
  </g>
</svg>
