<svg xmlns="http://www.w3.org/2000/svg" width="206.882" height="150" viewBox="0 0 206.882 150">
  <g id="undraw_brainstorming_re_1lmw" transform="translate(0 0)">
    <path id="Path_7271" data-name="Path 7271" d="M387.343,582.122a20.83,20.83,0,0,1-2.551,7.124c-.109.209-.221.417-.336.623h-20.08c-.411-.19-.816-.4-1.212-.623a17.239,17.239,0,0,1-1.523-.975c-5.922-4.265-8.2-12.329-7.171-19.553.638-4.492,2.607-9.074,6.445-11.492a9.677,9.677,0,0,1,6.959-1.218c.059.009.122.025.184.037a7.178,7.178,0,0,1,4.81,3.38c1.828,3.249.741,7.274-.159,10.89s-1.383,7.947,1.221,10.613a6.638,6.638,0,0,1,7.716-8.629c.19.041.374.087.558.143a6.053,6.053,0,0,1,1.271.53C386.543,574.686,387.785,578.636,387.343,582.122Z" transform="translate(-345.891 -439.869)" fill="#f2f2f2"/>
    <path id="Path_7272" data-name="Path 7272" d="M387.48,589.544q.743.341,1.511.623h-1.427c-.433-.193-.86-.4-1.28-.623a17.677,17.677,0,0,1-5.383-4.289,14.348,14.348,0,0,1-2.218-3.626,16.441,16.441,0,0,1-1.137-4.641,32.964,32.964,0,0,1,.654-9.841,40.947,40.947,0,0,1,3.208-9.626c.174-.368.358-.732.545-1.093a.208.208,0,0,1,.143-.122.232.232,0,0,1,.184.037.289.289,0,0,1,.115.383,40.4,40.4,0,0,0-3.4,9.28,35.622,35.622,0,0,0-1.012,9.657,15.372,15.372,0,0,0,2.713,8.451,17.07,17.07,0,0,0,6.383,5.24C387.208,589.42,387.342,589.482,387.48,589.544Z" transform="translate(-360.114 -440.168)" fill="#fff"/>
    <path id="Path_7273" data-name="Path 7273" d="M420.521,615.364c.137.212.283.421.442.623H420.3c-.146-.2-.284-.411-.417-.623a15.341,15.341,0,0,1-2.115-5.352,14.934,14.934,0,0,1,1.29-9.292,15.273,15.273,0,0,1,1.389-2.3c.19.041.374.087.558.143a14.674,14.674,0,0,0-2.738,6.28,14.451,14.451,0,0,0,1.274,8.822,13.77,13.77,0,0,0,.981,1.7Z" transform="translate(-384.692 -465.987)" fill="#fff"/>
    <path id="Path_7274" data-name="Path 7274" d="M762.1,279.323h-65.4a.387.387,0,0,1,0-.774h65.4a.387.387,0,0,1,0,.774Z" transform="translate(-555.608 -269.893)" fill="#3f3d56"/>
    <path id="Path_7275" data-name="Path 7275" d="M773.925,259.275H751.869a1.548,1.548,0,0,1,0-3.1h22.057a1.548,1.548,0,0,1,0,3.1Z" transform="translate(-588.713 -256.179)" fill="#ccc"/>
    <path id="Path_7276" data-name="Path 7276" d="M751.115,419.4a1.672,1.672,0,0,1-.312-1.434,39.6,39.6,0,0,0,0-18.39,1.672,1.672,0,0,1,.313-1.434,1.644,1.644,0,0,1,1.3-.629h15.429a1.665,1.665,0,0,1,1.64,1.4,64.81,64.81,0,0,1,0,19.725,1.665,1.665,0,0,1-1.639,1.4H752.413a1.644,1.644,0,0,1-1.3-.629Z" transform="translate(-588.979 -342.823)" fill="#e6e6e6"/>
    <path id="Path_7277" data-name="Path 7277" d="M804.921,352.033a64.811,64.811,0,0,1,0-19.725,1.665,1.665,0,0,1,1.639-1.4H821.99a1.643,1.643,0,0,1,1.3.629,1.671,1.671,0,0,1,.312,1.434,39.6,39.6,0,0,0,0,18.39,1.671,1.671,0,0,1-.312,1.434,1.643,1.643,0,0,1-1.3.629H806.56A1.665,1.665,0,0,1,804.921,352.033Z" transform="translate(-621.722 -301.994)" fill="#2a6aa9"/>
    <path id="Path_7278" data-name="Path 7278" d="M715.475,335.142a1.7,1.7,0,0,1-.318-1.457,40.245,40.245,0,0,0,0-18.692,1.7,1.7,0,0,1,.318-1.457,1.671,1.671,0,0,1,1.32-.639h15.682a1.692,1.692,0,0,1,1.667,1.418,65.87,65.87,0,0,1,0,20.049,1.692,1.692,0,0,1-1.666,1.418H716.795a1.671,1.671,0,0,1-1.32-.639Z" transform="translate(-567.126 -290.949)" fill="#2a6aa9"/>
    <path id="Path_7279" data-name="Path 7279" d="M737.245,330.258h-8.261a1.162,1.162,0,0,1-1.161-1.161V328.6a1.162,1.162,0,0,1,1.161-1.161h8.261a1.162,1.162,0,0,1,1.161,1.161v.493A1.162,1.162,0,0,1,737.245,330.258Z" transform="translate(-574.92 -299.867)" fill="#fff"/>
    <path id="Path_7280" data-name="Path 7280" d="M737.245,342.8h-8.261a1.162,1.162,0,0,1-1.161-1.161v-.493a1.162,1.162,0,0,1,1.161-1.161h8.261a1.162,1.162,0,0,1,1.161,1.161v.493A1.162,1.162,0,0,1,737.245,342.8Z" transform="translate(-574.92 -307.559)" fill="#fff"/>
    <path id="Path_7281" data-name="Path 7281" d="M772.047,412.542h-8.1a1.162,1.162,0,0,1-1.161-1.161v-.454a1.162,1.162,0,0,1,1.161-1.161h8.1a1.162,1.162,0,0,1,1.161,1.161v.454a1.162,1.162,0,0,1-1.161,1.161Z" transform="translate(-596.356 -350.335)" fill="#fff"/>
    <path id="Path_7282" data-name="Path 7282" d="M772.047,427.355h-8.1a1.162,1.162,0,0,1-1.161-1.161v-.454a1.162,1.162,0,0,1,1.161-1.161h8.1a1.162,1.162,0,0,1,1.161,1.161v.454a1.162,1.162,0,0,1-1.161,1.161Z" transform="translate(-596.356 -359.416)" fill="#fff"/>
    <path id="Path_7283" data-name="Path 7283" d="M772.047,442.169h-8.1a1.162,1.162,0,0,1-1.161-1.161v-.454a1.162,1.162,0,0,1,1.161-1.161h8.1a1.162,1.162,0,0,1,1.161,1.161v.454a1.162,1.162,0,0,1-1.161,1.161Z" transform="translate(-596.356 -368.498)" fill="#fff"/>
    <path id="Path_7284" data-name="Path 7284" d="M824.018,352.427h-8.1a1.162,1.162,0,0,1-1.161-1.161v-.454a1.162,1.162,0,0,1,1.161-1.161h8.1a1.162,1.162,0,0,1,1.161,1.161v.454A1.162,1.162,0,0,1,824.018,352.427Z" transform="translate(-628.217 -313.482)" fill="#fff"/>
    <path id="Path_7285" data-name="Path 7285" d="M474.415,535.444v.774a4.841,4.841,0,0,0,4.837,4.837h34.826a4.839,4.839,0,0,0,4.837-4.837v-.774a4.8,4.8,0,0,0-1.122-3.1,4.976,4.976,0,0,0-.816-.774s-19.146-.433-19.146-.967H479.252A4.844,4.844,0,0,0,474.415,535.444Z" transform="translate(-419.57 -424.416)" fill="#ccc"/>
    <rect id="Rectangle_1846" data-name="Rectangle 1846" width="5.03" height="32.504" transform="translate(74.86 116.447)" fill="#ccc"/>
    <path id="Path_7286" data-name="Path 7286" d="M522.191,632.964c0,.544-7.623.21-17.026.21s-17.026.333-17.026-.21,7.623-4.854,17.026-4.854S522.191,632.421,522.191,632.964Z" transform="translate(-427.983 -484.19)" fill="#ccc"/>
    <path id="Path_7287" data-name="Path 7287" d="M526.179,474.03a4.157,4.157,0,0,0-1.473-6.2L514.044,431.5l-8.119,3.976,13.033,34.46a4.179,4.179,0,0,0,7.221,4.094Z" transform="translate(-438.887 -363.658)" fill="#a0616a"/>
    <path id="Path_7288" data-name="Path 7288" d="M513.027,423.481l-9.087,2.46a1.864,1.864,0,0,1-2.338-1.581l-1.1-9.321a5.176,5.176,0,1,1,10-2.676l3.743,8.573a1.864,1.864,0,0,1-1.221,2.544Z" transform="translate(-435.455 -349.573)" fill="#2a6aa9"/>
    <path id="Path_7289" data-name="Path 7289" d="M231.723,355.136h4.744l2.257-12.3h-7Z" transform="translate(-142.056 -210.172)" fill="#a0616a"/>
    <path id="Path_7290" data-name="Path 7290" d="M561.276,626.8h9.343a5.954,5.954,0,0,1,5.954,5.954v.193h-15.3Z" transform="translate(-472.82 -483.389)" fill="#2f2e41"/>
    <path id="Path_7291" data-name="Path 7291" d="M527.852,542.783q-.083,0-.167-.008l-6.565-.478a1.741,1.741,0,0,1-1.474-2.333l8.786-19.74a1.354,1.354,0,0,0-.076-1.083,1.335,1.335,0,0,0-.856-.681c-4.132-1.08-14.732-3.956-23.909-7.32-3.931-1.442-6.408-3.525-7.359-6.192a8.74,8.74,0,0,1,.681-6.858l.062-.105,8.635.785,9.361.8,20.514,11a7.772,7.772,0,0,1,3.412,9.977l-9.458,21.208A1.74,1.74,0,0,1,527.852,542.783Z" transform="translate(-432.679 -404.417)" fill="#2f2e41"/>
    <circle id="Ellipse_53" data-name="Ellipse 53" cx="9.504" cy="9.504" r="9.504" transform="translate(64.93 36.29)" fill="#a0616a"/>
    <path id="Path_7292" data-name="Path 7292" d="M224.723,354.136h4.744l2.257-12.3h-7Z" transform="translate(-137.765 -209.559)" fill="#a0616a"/>
    <path id="Path_7293" data-name="Path 7293" d="M554.276,625.8h9.343a5.954,5.954,0,0,1,5.954,5.954v.193h-15.3Z" transform="translate(-468.528 -482.776)" fill="#2f2e41"/>
    <path id="Path_7294" data-name="Path 7294" d="M520.852,545.783q-.083,0-.167-.008l-6.565-.478a1.741,1.741,0,0,1-1.474-2.333l8.786-19.74a1.354,1.354,0,0,0-.076-1.083,1.335,1.335,0,0,0-.856-.681c-4.132-1.08-14.732-3.956-23.909-7.32-3.931-1.442-6.408-3.525-7.359-6.192a8.739,8.739,0,0,1,.681-6.857l.062-.105,8.635.785,9.361.8,20.514,11a7.772,7.772,0,0,1,3.412,9.977l-9.458,21.208A1.74,1.74,0,0,1,520.852,545.783Z" transform="translate(-428.388 -406.256)" fill="#2f2e41"/>
    <path id="Path_7295" data-name="Path 7295" d="M507.784,407.494l-10.061-3.483s-6.316,4.852-3.282,16.89a29.8,29.8,0,0,1-1.316,18.7,19.264,19.264,0,0,1-1.013,2.14s11.222,13.543,21.669,3.483l-4.063-19.541S516.1,412.717,507.784,407.494Z" transform="translate(-430.419 -346.807)" fill="#2a6aa9"/>
    <path id="Path_7296" data-name="Path 7296" d="M504.007,360c-1.353-2.025-2.42-4.832-.931-6.759,1.47-1.9,4.37-1.621,6.621-2.463a7.5,7.5,0,0,0,4.387-8.155,9.676,9.676,0,0,0-6.371-7.153,13.794,13.794,0,0,0-9.8.534,14.969,14.969,0,0,0-8.434,8.543,11.509,11.509,0,0,0,2.2,11.543c3.043,3.2,7.819,4.057,12.237,4.005" transform="translate(-428.394 -304.379)" fill="#2f2e41"/>
    <path id="Path_7297" data-name="Path 7297" d="M435.6,347.082c-1.7,1.388-4.3.771-6.135-.447s-3.314-2.952-5.294-3.907c-3.49-1.683-7.71-.564-11.106,1.3s-6.408,4.44-10,5.9-8.166,1.535-10.883-1.227a9.957,9.957,0,0,0,14.592,11.752c3.931-2.395,6.1-7.415,10.512-8.737,2.44-.731,5.06-.142,7.526.5s5.037,1.327,7.526.784,4.816-2.78,4.5-5.307Z" transform="translate(-368.824 -308.732)" fill="#2f2e41"/>
    <path id="Path_7298" data-name="Path 7298" d="M584,551.253a64.815,64.815,0,0,1,0-19.725,1.665,1.665,0,0,1,1.64-1.4h15.429a1.643,1.643,0,0,1,1.3.629,1.671,1.671,0,0,1,.312,1.433,39.6,39.6,0,0,0,0,18.39,1.671,1.671,0,0,1-.312,1.434,1.643,1.643,0,0,1-1.3.629H585.638a1.665,1.665,0,0,1-1.64-1.4Z" transform="translate(-486.287 -424.125)" fill="#ff6584"/>
    <path id="Path_7299" data-name="Path 7299" d="M602.367,550.412h-8.1a1.162,1.162,0,0,1-1.161-1.161V548.8a1.162,1.162,0,0,1,1.161-1.161h8.1a1.162,1.162,0,0,1,1.161,1.161v.453A1.162,1.162,0,0,1,602.367,550.412Z" transform="translate(-492.335 -434.856)" fill="#fff"/>
    <path id="Path_7300" data-name="Path 7300" d="M602.367,562.757h-8.1a1.162,1.162,0,0,1-1.161-1.161v-.454a1.162,1.162,0,0,1,1.161-1.161h8.1a1.162,1.162,0,0,1,1.161,1.161v.454A1.162,1.162,0,0,1,602.367,562.757Z" transform="translate(-492.335 -442.424)" fill="#fff"/>
    <path id="Path_7301" data-name="Path 7301" d="M549.349,476.47a4.157,4.157,0,0,0-2.976-5.637l-19.4-32.513L520.1,444.2l21.229,30.111a4.179,4.179,0,0,0,8.014,2.161Z" transform="translate(-447.58 -367.84)" fill="#a0616a"/>
    <path id="Path_7302" data-name="Path 7302" d="M524.2,431.715l-8.184,4.652a1.864,1.864,0,0,1-2.659-.947l-3.392-8.751a5.176,5.176,0,1,1,9.015-5.09l5.767,7.366a1.864,1.864,0,0,1-.547,2.769Z" transform="translate(-440.953 -355.963)" fill="#2a6aa9"/>
    <path id="Path_7303" data-name="Path 7303" d="M480.883,641.208a.386.386,0,0,1-.387.387H333.066a.387.387,0,1,1,0-.774H480.5a.386.386,0,0,1,.387.387Z" transform="translate(-332.679 -491.982)" fill="#3f3d56"/>
  </g>
</svg>
