<svg version="1.2" xmlns="http://www.w3.org/2000/svg" viewBox="0 0 24 24" width="24" height="24">
	<title>baseline-file_copy-24px-svg</title>
	<style>
		.s0 { fill: none } 
		.s1 { fill: #bdc581 } 
	</style>
	<path id="Path_934" class="s0" d="m0 0h24v24h-24z"/>
	<path id="Path_935" fill-rule="evenodd" class="s1" d="m16 3h-12v14h-2v-14q0-0.4 0.2-0.8 0.1-0.3 0.4-0.6 0.3-0.3 0.6-0.4 0.4-0.2 0.8-0.2h12zm-1 2l6 6v10q0 0.4-0.2 0.8-0.1 0.3-0.4 0.6-0.3 0.3-0.6 0.4-0.4 0.2-0.8 0.2h-11q-0.4 0-0.8-0.2-0.3-0.1-0.6-0.4-0.3-0.3-0.4-0.6-0.2-0.4-0.2-0.8v-14q0-0.4 0.2-0.8 0.1-0.3 0.4-0.6 0.3-0.3 0.6-0.4 0.4-0.2 0.8-0.2zm-1 7h5.5l-5.5-5.5z"/>
</svg>