<svg id="undraw_professor_-8-lrt_1_" data-name="undraw_professor_-8-lrt (1)" xmlns="http://www.w3.org/2000/svg" width="193.035" height="150" viewBox="0 0 193.035 150">
  <path id="Path_7304" data-name="Path 7304" d="M166.722,64.911,135.978,81.563a7.821,7.821,0,1,1-13.747,7.446l-10.483,5.678,27.153,50.13,54.974-29.777Z" transform="translate(-110.323 -64.911)" fill="#f2f2f2"/>
  <circle id="Ellipse_54" data-name="Ellipse 54" cx="6.347" cy="6.347" r="6.347" transform="translate(12.078 14.233)" fill="#2a6aa9"/>
  <path id="Path_7305" data-name="Path 7305" d="M717.288,449.719l33.24-10.843a7.821,7.821,0,1,1,14.864-4.848l11.334-3.7-17.68-54.2-59.438,19.388Z" transform="translate(-583.691 -315.517)" fill="#f2f2f2"/>
  <circle id="Ellipse_55" data-name="Ellipse 55" cx="6.347" cy="6.347" r="6.347" transform="translate(168.31 114.452)" fill="#2a6aa9"/>
  <rect id="Rectangle_1847" data-name="Rectangle 1847" width="153.471" height="69.724" transform="translate(22.495 29.736)" fill="#3f3d56"/>
  <rect id="Rectangle_1848" data-name="Rectangle 1848" width="148.407" height="63.297" transform="translate(25.027 32.267)" fill="#fff"/>
  <rect id="Rectangle_1849" data-name="Rectangle 1849" width="14.412" height="4.869" transform="translate(143.928 92.546)" fill="#3f3d56"/>
  <rect id="Rectangle_1850" data-name="Rectangle 1850" width="10.517" height="1.363" transform="translate(132.632 96.246)" fill="#2a6aa9"/>
  <path id="Path_7306" data-name="Path 7306" d="M190.5,263.716h56.675L255.962,268l14,6.821,9.154-17.139h25.9" transform="translate(-153.398 -207.493)" fill="none" stroke="#3f3d56" stroke-width="2"/>
  <path id="Path_7307" data-name="Path 7307" d="M304.925,288.678l4.2,9.933h10.322" transform="translate(-245.538 -232.455)" fill="none" stroke="#3f3d56" stroke-width="2"/>
  <path id="Path_7308" data-name="Path 7308" d="M385.807,256.468l14.352-7.79h10.128" transform="translate(-310.667 -200.245)" fill="none" stroke="#3f3d56" stroke-width="2"/>
  <circle id="Ellipse_56" data-name="Ellipse 56" cx="1.753" cy="1.753" r="1.753" transform="translate(57.552 54.47)" fill="#2a6aa9"/>
  <circle id="Ellipse_57" data-name="Ellipse 57" cx="1.753" cy="1.753" r="1.753" transform="translate(73.911 54.47)" fill="#2a6aa9"/>
  <path id="Path_7309" data-name="Path 7309" d="M526.5,310.678l1.169,17.334H537.8" transform="translate(-423.959 -250.17)" fill="none" stroke="#3f3d56" stroke-width="2"/>
  <path id="Path_7310" data-name="Path 7310" d="M580.631,257.3,569.5,248.678h10.517" transform="translate(-458.584 -200.245)" fill="none" stroke="#3f3d56" stroke-width="2"/>
  <path id="Path_7311" data-name="Path 7311" d="M721.051,257.678l10.8,8.569h10.128" transform="translate(-580.619 -207.493)" fill="none" stroke="#3f3d56" stroke-width="2"/>
  <circle id="Ellipse_58" data-name="Ellipse 58" cx="1.753" cy="1.753" r="1.753" transform="translate(100.788 58.755)" fill="#2a6aa9"/>
  <circle id="Ellipse_59" data-name="Ellipse 59" cx="1.753" cy="1.753" r="1.753" transform="translate(138.572 48.433)" fill="#2a6aa9"/>
  <circle id="Ellipse_60" data-name="Ellipse 60" cx="1.753" cy="1.753" r="1.753" transform="translate(120.264 55.249)" fill="#2a6aa9"/>
  <line id="Line_73" data-name="Line 73" x2="10.128" transform="translate(63.784 67.714)" fill="none" stroke="#3f3d56" stroke-width="2"/>
  <path id="Path_7312" data-name="Path 7312" d="M615.93,322.589Z" transform="translate(-516.31 -272.404)" fill="none" stroke="#3f3d56" stroke-width="2"/>
  <path id="Path_7313" data-name="Path 7313" d="M727.93,321.589Z" transform="translate(-606.497 -271.598)" fill="none" stroke="#3f3d56" stroke-width="2"/>
  <path id="Path_7314" data-name="Path 7314" d="M727.93,329.589Z" transform="translate(-606.497 -278.04)" fill="none" stroke="#3f3d56" stroke-width="2"/>
  <path id="Path_7315" data-name="Path 7315" d="M932.93,374.589Z" transform="translate(-771.571 -314.276)" fill="none" stroke="#3f3d56" stroke-width="2"/>
  <path id="Path_7316" data-name="Path 7316" d="M913.93,382.589Z" transform="translate(-756.272 -320.718)" fill="none" stroke="#3f3d56" stroke-width="2"/>
  <path id="Path_7317" data-name="Path 7317" d="M688.93,472.589Z" transform="translate(-575.093 -393.19)" fill="none" stroke="#3f3d56" stroke-width="2"/>
  <circle id="Ellipse_61" data-name="Ellipse 61" cx="2.874" cy="2.874" r="2.874" transform="translate(154.793 11.836)" fill="none" stroke="#3f3d56" stroke-width="2"/>
  <ellipse id="Ellipse_62" data-name="Ellipse 62" cx="29.604" cy="5.453" rx="29.604" ry="5.453" transform="translate(0 139.093)" fill="#f2f2f2"/>
  <path id="Path_7318" data-name="Path 7318" d="M234.553,493.658l-5.281,2.665.342.681,5.281-2.664Z" transform="translate(-184.619 -397.513)" fill="#2a6aa9"/>
  <path id="Path_7319" data-name="Path 7319" d="M340.228,532.141l-.237,1.424s.356,9.846-2.254,6.762-.83-7.237-.83-7.237l.712-1.186Z" transform="translate(-291.152 -440.952)" fill="#fbbebe"/>
  <path id="Path_7320" data-name="Path 7320" d="M275.456,299.221a45.541,45.541,0,0,1-.712,5.22c-.237.237,3.559,4.745,3.559,4.745l3.322-3.084s-.237-4.508.475-5.457S275.456,299.221,275.456,299.221Z" transform="translate(-241.565 -253.587)" fill="#fbbebe"/>
  <path id="Path_7321" data-name="Path 7321" d="M275.456,299.221a45.541,45.541,0,0,1-.712,5.22c-.237.237,3.559,4.745,3.559,4.745l3.322-3.084s-.237-4.508.475-5.457S275.456,299.221,275.456,299.221Z" transform="translate(-241.565 -253.587)" opacity="0.1"/>
  <path id="Path_7322" data-name="Path 7322" d="M112.262,697.951v4.271l-1.661.237-2.373-.712.712-4.508Z" transform="translate(-87.15 -561.445)" fill="#3f3d56"/>
  <path id="Path_7323" data-name="Path 7323" d="M192.064,769.817s-.712-1.9-1.9-1.661-1.424,1.661-1.424,1.661-.949,3.559-2.373,4.745-2.847,4.271,0,4.745,5.22-.712,5.22-.949a2.88,2.88,0,0,1,1.9-1.9c1.186-.237,2.135-.475,2.135-1.424a3.744,3.744,0,0,0-.712-1.9s-.237-4.5-.712-3.911a4.72,4.72,0,0,0-.712,1.539Z" transform="translate(-169.088 -631.176)" fill="#2f2e41"/>
  <path id="Path_7324" data-name="Path 7324" d="M177.4,688.949l-.949,3.559,2.373.475,1.186-1.186.237-3.084Z" transform="translate(-142.085 -554.578)" fill="#3f3d56"/>
  <path id="Path_7325" data-name="Path 7325" d="M275.705,760.868a3.863,3.863,0,0,1,1.424-.712h.712s0-1.661,1.186-1.661.949,1.186.949,1.186,2.61,4.034,3.322,4.745,4.508,2.847,1.424,3.8-5.22.949-6.643-.712a6.991,6.991,0,0,0-2.373-.712c-.949,0-2.135-.474-2.135-1.186a7.17,7.17,0,0,1,.712-2.135s.475-4.271.712-3.8S275.705,760.868,275.705,760.868Z" transform="translate(-240.628 -623.413)" fill="#2f2e41"/>
  <path id="Path_7326" data-name="Path 7326" d="M210.431,474.647v7.83s-2.61,15.185-2.61,20.167-4.033,28.709-2.135,29.183,6.406,1.186,6.643.475,1.9-23.252,2.135-23.489,5.22-18.981,5.22-18.981l.949.237.475,21.354s-2.373,19.218-1.186,19.218,6.169-.237,6.169-1.661,2.61-27.76,2.61-27.76,3.084-20.879,1.9-23.015a7.792,7.792,0,0,1-1.186-3.322Z" transform="translate(-185.556 -394.847)" fill="#2f2e41"/>
  <circle id="Ellipse_63" data-name="Ellipse 63" cx="4.745" cy="4.745" r="4.745" transform="translate(33.06 39.821)" fill="#fbbebe"/>
  <path id="Path_7327" data-name="Path 7327" d="M226.356,321.545s-2.966-2.491-3.2-3.44a11.886,11.886,0,0,0-1.542,1.779c0,.237-6.643.949-8.3,2.847a23.169,23.169,0,0,0-3.084,5.932l4.033,7.592s.237,4.271.237,4.745-1.186,8.067-.712,8.3,5.22,2.61,9.253,2.135,8.067-1.186,9.253-1.186,2.135.475,2.135,0-.712-1.424-.712-1.9-.237-1.661-.237-2.373-.475-1.9-.475-2.847,5.22-13.761,5.22-13.761a7.554,7.554,0,0,0-4.033-5.932c-3.8-1.9-4.271-2.61-4.271-2.61s-.074-1.424-.274-1.424-.912,2.135-2.81,2.373Z" transform="translate(-189.618 -268.793)" fill="#d0cde1"/>
  <path id="Path_7328" data-name="Path 7328" d="M122.847,425.035l1.661,2.61,4.271-.949-3.084-3.559Z" transform="translate(-98.921 -340.727)" fill="#fbbebe"/>
  <path id="Path_7329" data-name="Path 7329" d="M325.083,366.224l1.424,1.9s2.847,13.761,2.373,18.744-.949,8.779-.949,8.779.949,3.559.237,3.559-4.983.237-4.983-.475.475-5.22.475-5.22l-1.186-10.44-2.61-3.559Z" transform="translate(-277.906 -307.54)" fill="#d0cde1"/>
  <path id="Path_7330" data-name="Path 7330" d="M266,252.5a4.111,4.111,0,0,1,.939-.076c.366-.062.693-.333,1.063-.3a2.041,2.041,0,0,1,.506.164.66.66,0,0,0,.518.019.295.295,0,0,0,.113-.442,1.465,1.465,0,0,0,.843-.363.629.629,0,0,1,.161-.121.525.525,0,0,1,.413.064l.543.25a.687.687,0,0,1,.31.222c.065.1.077.236.169.313.117.1.291.05.443.06a.567.567,0,0,1,.512.553c0,.159-.06.355.066.452.073.057.177.048.262.082.222.09.223.4.19.636s-.017.55.212.623c.161.051.325-.058.492-.083a1.212,1.212,0,0,1,.709.241.658.658,0,0,0,.716.037.675.675,0,0,0,.119-.664,3.659,3.659,0,0,0-.348-.952.6.6,0,0,1-.1-.3.536.536,0,0,1,.249-.362,1.65,1.65,0,0,0,.679-.774,3.307,3.307,0,0,0,0-.767,4.514,4.514,0,0,0,.073-.931c-.106-.557-.725-.825-1.125-1.226-.55-.552-.728-1.434-1.376-1.864a7.152,7.152,0,0,0-1.788-.5c-.649-.217-1.171-.714-1.812-.956a2.525,2.525,0,0,0-2.146.188,2.148,2.148,0,0,1-.631.322,2.268,2.268,0,0,1-.574-.007,2.217,2.217,0,0,0-1.1.226.612.612,0,0,0-.307.269c-.115.255.052.653-.2.774-.117.057-.255,0-.386.005a.738.738,0,0,0-.568.448,2.149,2.149,0,0,1-.4.641c-.309.271-.871.316-.952.719a3.919,3.919,0,0,0,.029.511c-.023.357-.406.629-.386.986.023.412.547.614.687,1a1.456,1.456,0,0,1-.13.915.793.793,0,0,0,.124.874c.1.075.224.106.323.178.258.188.255.566.226.884a.416.416,0,0,0,.094.379.35.35,0,0,0,.287.034,1.17,1.17,0,0,0,.741-.557c.083-.137.1-.258.251-.331.1-.049.227-.005.331-.07C265.565,253.628,265.395,252.757,266,252.5Z" transform="translate(-231.421 -210.236)" fill="#2f2e41"/>
  <path id="Path_7331" data-name="Path 7331" d="M197.961,368.661l-.712.712s-4.271,12.812-2.847,15.659,4.271,9.965,5.22,9.728a16.72,16.72,0,0,0,4.271-2.61c0-.237-4.033-6.881-4.033-6.881s-.475-1.424-.237-1.661.237,0,0-.475-.237,0,.237-.475.475-.475.475-.712,1.424-6.169,1.424-6.169Z" transform="translate(-176.645 -309.503)" fill="#d0cde1"/>
  <path id="Path_7332" data-name="Path 7332" d="M128.329,440.026l5.22-1.661.712,1.661-5.694,1.186Z" transform="translate(-103.336 -352.989)" fill="#2f2e41"/>
  <path id="Path_7333" data-name="Path 7333" d="M128.329,440.026l5.22-1.661.712,1.661-5.694,1.186Z" transform="translate(-103.336 -352.989)" opacity="0.1"/>
  <path id="Path_7334" data-name="Path 7334" d="M164.876,262.939l4.033,3.322.475-.712Z" transform="translate(-132.765 -211.729)" opacity="0.1"/>
  <path id="Path_7335" data-name="Path 7335" d="M194.525,267.812l-2.847,1.661.237.712Z" transform="translate(-154.347 -215.653)" opacity="0.1"/>
</svg>
