<svg xmlns="http://www.w3.org/2000/svg" width="31.051" height="30.42" viewBox="0 0 31.051 30.42">
  <g id="_3ab58ac7f8dbc97557145ef30f1a486a" data-name="3ab58ac7f8dbc97557145ef30f1a486a" transform="translate(-10 -20)">
    <g id="Group_2079" data-name="Group 2079" transform="translate(10 20)">
      <g id="Group_2078" data-name="Group 2078">
        <path id="Path_6510" data-name="Path 6510" d="M40.772,29.151a.667.667,0,0,0-.6-.076l-8.318,3.109c.254-.463.485-.916.681-1.35a7.514,7.514,0,0,0,.678-3.15,7.684,7.684,0,0,0-15.369,0,7.931,7.931,0,0,0,.092,1.188l-7.5,2.617a.652.652,0,0,0-.437.618V48.557a.652.652,0,0,0,.868.615l8.879-3.1,10.634,4.3a.655.655,0,0,0,.244.048.631.631,0,0,0,.228-.041l9.772-3.641a.651.651,0,0,0,.425-.612V29.687A.634.634,0,0,0,40.772,29.151Zm-10.283.738A34.287,34.287,0,0,1,25.755,36.9a.3.3,0,0,1-.456,0,34.38,34.38,0,0,1-4.734-7.006,5.284,5.284,0,0,1-.475-2.218,5.438,5.438,0,1,1,10.875,0A5.333,5.333,0,0,1,30.489,29.89Z" transform="translate(-10 -20)" fill="#75a9d9"/>
        <path id="Path_6511" data-name="Path 6511" d="M413.723,172.9a2.823,2.823,0,1,0,2.823,2.823A2.828,2.828,0,0,0,413.723,172.9Z" transform="translate(-398.196 -168.055)" fill="#75a9d9"/>
      </g>
    </g>
  </g>
</svg>
