<svg xmlns="http://www.w3.org/2000/svg" width="55.698" height="55.709" viewBox="0 0 55.698 55.709">
  <path id="Icon_awesome-globe" data-name="Icon awesome-globe" d="M37.795,17.635C36.166,7.6,32.325.562,27.855.562S19.543,7.6,17.915,17.635ZM17.072,28.417a70.4,70.4,0,0,0,.371,7.188H38.255a70.4,70.4,0,0,0,.371-7.188,70.4,70.4,0,0,0-.371-7.188H17.443A70.4,70.4,0,0,0,17.072,28.417ZM53.542,17.635A27.914,27.914,0,0,0,35.8,1.731c2.741,3.8,4.627,9.513,5.616,15.9ZM19.9,1.731a27.9,27.9,0,0,0-17.735,15.9H14.3c.977-6.391,2.864-12.108,5.6-15.9Zm34.841,19.5H41.861c.236,2.359.371,4.773.371,7.188s-.135,4.83-.371,7.188H54.732a27.615,27.615,0,0,0,.966-7.188A28.1,28.1,0,0,0,54.743,21.229ZM13.478,28.417c0-2.415.135-4.83.371-7.188H.966a27.23,27.23,0,0,0,0,14.377H13.837C13.613,33.247,13.478,30.832,13.478,28.417ZM17.915,39.2c1.629,10.03,5.47,17.072,9.94,17.072s8.311-7.042,9.94-17.072ZM35.807,55.1A27.94,27.94,0,0,0,53.553,39.2H41.423C40.434,45.59,38.547,51.307,35.807,55.1ZM2.168,39.2A27.914,27.914,0,0,0,19.914,55.1c-2.741-3.8-4.627-9.513-5.616-15.9H2.168Z" transform="translate(0 -0.563)" fill="#fff"/>
</svg>
