<svg id="Group_2852" data-name="Group 2852" xmlns="http://www.w3.org/2000/svg" width="50" height="62.623" viewBox="0 0 50 62.623">
  <g id="science" transform="translate(0)">
    <path id="Path_7151" data-name="Path 7151" d="M19.542,9.593A3.587,3.587,0,1,0,16,6.021,3.587,3.587,0,0,0,19.542,9.593Z" transform="translate(9.271 0.92)" fill="#fff"/>
    <path id="Path_7152" data-name="Path 7152" d="M24.118,5.659a2.843,2.843,0,0,0,2.9-2.768A2.872,2.872,0,0,0,21.29,2.8,2.843,2.843,0,0,0,24.118,5.659Z" transform="translate(12.274 -0.176)" fill="#fff"/>
    <path id="Path_7153" data-name="Path 7153" d="M48.73,46.717,33.644,22.281a1.488,1.488,0,0,1-.313-.794v-6.97c0-.365.11-.445.454-.445H37.4c.36,0,.5,0,.486-.46V9.182c0-.365,0-.492-.454-.492q-12.376.048-24.908.016c-.329,0-.47,0-.454.445v4.478c0,.413.157.46.5.46H16.13c.407,0,.517.1.517.508V21.2a1.94,1.94,0,0,1-.313,1.1q-7.6,12.289-15.2,24.642a7.759,7.759,0,0,0-.826,6.167,7.643,7.643,0,0,0,3.959,4.757c.721.349,1.488.476,2.225.778H43.466l.141-.1a7.566,7.566,0,0,0,5.767-4.488,7.742,7.742,0,0,0-.644-7.341ZM13.106,37.873a1.1,1.1,0,0,1,.251-.6q4.12-6.716,8.287-13.417a2.149,2.149,0,0,0,.313-1.159c0-2.683,0-5.351,0-8.034,0-.445.094-.6.564-.587H27.5c.47,0,.564.143.564.587v8.1a1.925,1.925,0,0,0,.282,1.048q4.167,6.684,8.287,13.417a1.213,1.213,0,0,1,.313.651Z" transform="translate(-0.011 3.982)" fill="#fff"/>
  </g>
</svg>
