<svg xmlns="http://www.w3.org/2000/svg" width="60" height="71.829" viewBox="0 0 60 71.829">
  <g id="SS" transform="translate(-0.05 -0.05)">
    <path id="Path_7154" data-name="Path 7154" d="M47.665,40.322h.146V35.7H43.631c-1.407-8.59-6.606-15.5-13.477-17.915V15.672H26.7V13.844h-.965V7.216H32v-5.7l-.146-.179H25.593V.05H24.365V13.7H23.254v1.648H19.833v1.9C12.962,19.662,7.763,26.573,6.356,35.163H2.175L2,35.7v4.586h.146Z" transform="translate(5.037 0)" fill="#fff"/>
    <path id="Path_7155" data-name="Path 7155" d="M59.9,48.754H57.3V43.988H53.906V12.1H6.041V43.558H2.954v4.694H.05v4.694l.153.179H59.9l.153-.179V48.9ZM18.542,43.737H13.713V17.331h4.829Zm13.846,0H27.559V17.331h4.829Zm13.816,0H41.375V17.331H46.2Z" transform="translate(0 18.754)" fill="#fff"/>
  </g>
</svg>
