<svg xmlns="http://www.w3.org/2000/svg" width="196.609" height="150" viewBox="0 0 196.609 150">
  <g id="undraw_building_re_xfcm" transform="translate(0 0)">
    <circle id="Ellipse_44" data-name="Ellipse 44" cx="12.458" cy="12.458" r="12.458" transform="translate(15.626 63.654)" fill="#ff6584"/>
    <path id="Path_7186" data-name="Path 7186" d="M363.439,401.664h-.013a1.657,1.657,0,0,1-1.655-1.655V302.873a1.656,1.656,0,0,1,1.655-1.655h81.758a1.656,1.656,0,0,1,1.655,1.655V378.4a1.656,1.656,0,0,1-1.642,1.655Z" transform="translate(-309.841 -255.181)" fill="#f2f2f2"/>
    <path id="Path_7187" data-name="Path 7187" d="M523.731,132.467H485.772v-22a1.754,1.754,0,0,1,1.752-1.752h34.455a1.754,1.754,0,0,1,1.752,1.752Zm-37.57-.389h37.18V110.47a1.364,1.364,0,0,0-1.363-1.363H487.524a1.364,1.364,0,0,0-1.363,1.363Z" transform="translate(-409.703 -100.153)" fill="#3f3d56"/>
    <path id="Path_7188" data-name="Path 7188" d="M439.829,87h16.352a1.557,1.557,0,0,1,1.557,1.557v23.36H438.272V88.557A1.557,1.557,0,0,1,439.829,87Z" transform="translate(-352.957 -70.065)" fill="#e6e6e6"/>
    <path id="Path_7189" data-name="Path 7189" d="M524.753,73.672h-7.981V65.691a.974.974,0,0,1,.973-.973h6.035a.974.974,0,0,1,.973.973Zm-7.592-.389h7.2V65.691a.585.585,0,0,0-.584-.584h-6.035a.585.585,0,0,0-.584.584Z" transform="translate(-434.669 -64.718)" fill="#3f3d56"/>
    <path id="Path_7190" data-name="Path 7190" d="M837.978,480.139c-.078,0-.153,0-.231,0a19.762,19.762,0,0,1-13.022-5.09q-.2-.181-.393-.366l-.06-.057V437.316l.019-.039c.129-.273.26-.542.39-.812,4.049-8.22,8.771-12.747,13.3-12.747,6.527,0,11.589,8.953,14.025,14.29,3.388,7.421,5.754,16.617,5.754,22.363A19.773,19.773,0,0,1,838.2,480.137C838.131,480.139,838.054,480.139,837.978,480.139Zm-13.317-5.682c.108.1.217.2.326.3a19.375,19.375,0,0,0,12.768,4.989c.079,0,.153,0,.229,0s.143,0,.214,0a19.448,19.448,0,0,0,19.171-19.377c0-5.7-2.352-14.825-5.719-22.2-2.4-5.252-7.362-14.062-13.671-14.062-4.37,0-8.968,4.449-12.948,12.529-.123.254-.247.509-.369.767Z" transform="translate(-682.31 -353.834)" fill="#3f3d56"/>
    <path id="Path_7191" data-name="Path 7191" d="M893.75,643.8a.224.224,0,0,1-.224-.224V597.86a.224.224,0,0,1,.448,0v45.72A.224.224,0,0,1,893.75,643.8Z" transform="translate(-738.083 -493.897)" fill="#ccc"/>
    <path id="Path_7192" data-name="Path 7192" d="M296.75,643.8a.224.224,0,0,1-.224-.224V597.86a.224.224,0,0,1,.448,0v45.72A.224.224,0,0,1,296.75,643.8Z" transform="translate(-257.297 -493.897)" fill="#ccc"/>
    <path id="Path_7193" data-name="Path 7193" d="M847.151,587.075a.223.223,0,0,1-.169-.077l-11.264-12.99a.224.224,0,0,1,.339-.294L847.32,586.7a.224.224,0,0,1-.169.371Z" transform="translate(-691.483 -474.57)" fill="#ccc"/>
    <path id="Path_7194" data-name="Path 7194" d="M893.75,652.848a.224.224,0,0,1-.158-.382l6.4-6.4a.224.224,0,0,1,.317.317l-6.4,6.4A.223.223,0,0,1,893.75,652.848Z" transform="translate(-738.083 -532.846)" fill="#ccc"/>
    <path id="Path_7195" data-name="Path 7195" d="M931.86,799.845H915.119v-.195a8.371,8.371,0,1,1,16.742,0Zm-16.35-.389h15.959a7.982,7.982,0,0,0-15.959,0Z" transform="translate(-755.473 -649.845)" fill="#3f3d56"/>
    <path id="Path_7196" data-name="Path 7196" d="M946.236,809.875a.221.221,0,0,0-.221.221v2.347l-2.287-1.963a.221.221,0,0,0-.288.335l2.575,2.21V814.4a.221.221,0,1,0,.442,0V810.1a.221.221,0,0,0-.221-.221Z" transform="translate(-778.219 -664.821)" fill="#3f3d56"/>
    <path id="Path_7197" data-name="Path 7197" d="M210.861,799.845H194.119v-.195a8.371,8.371,0,0,1,16.742,0Zm-16.35-.389h15.959a7.982,7.982,0,0,0-15.959,0Z" transform="translate(-174.824 -649.845)" fill="#3f3d56"/>
    <path id="Path_7198" data-name="Path 7198" d="M225.236,809.875a.221.221,0,0,0-.221.221v2.347l-2.287-1.963a.221.221,0,1,0-.288.335l2.575,2.21V814.4a.221.221,0,1,0,.442,0V810.1a.221.221,0,0,0-.221-.221Z" transform="translate(-197.57 -664.821)" fill="#3f3d56"/>
    <path id="Path_7199" data-name="Path 7199" d="M216.844,480.139c-.078,0-.153,0-.231,0a19.774,19.774,0,0,1-19.551-19.766c0-5.746,2.366-14.942,5.755-22.363,2.437-5.337,7.5-14.29,14.027-14.29,2.689,0,5.4,1.533,8.048,4.555.131.149.263.3.393.46l.045.054v49.442l-.11.053c-.131.064-.264.123-.4.181a19.584,19.584,0,0,1-7.753,1.675C217,480.139,216.919,480.139,216.844,480.139Zm0-56.032c-6.31,0-11.275,8.811-13.673,14.062-3.367,7.376-5.719,16.505-5.719,22.2a19.45,19.45,0,0,0,19.169,19.377c.079,0,.152,0,.229,0s.143,0,.214,0a19.2,19.2,0,0,0,7.6-1.642c.092-.04.183-.08.273-.122V428.928c-.113-.135-.227-.268-.341-.4C222.025,425.6,219.416,424.108,216.844,424.108Z" transform="translate(-177.194 -353.835)" fill="#3f3d56"/>
    <path id="Path_7200" data-name="Path 7200" d="M251.151,587.075a.224.224,0,0,1-.169-.077l-11.264-12.99a.224.224,0,0,1,.338-.294L251.32,586.7a.224.224,0,0,1-.169.371Z" transform="translate(-211.502 -474.57)" fill="#ccc"/>
    <path id="Path_7201" data-name="Path 7201" d="M297.75,652.848a.224.224,0,0,1-.158-.382l6.4-6.4a.224.224,0,1,1,.317.317l-6.4,6.4A.223.223,0,0,1,297.75,652.848Z" transform="translate(-258.102 -532.846)" fill="#ccc"/>
    <path id="Path_7202" data-name="Path 7202" d="M349.764,230.665l.144.284a.861.861,0,0,1,.1.4v7.689h6.813v-7.689a.861.861,0,0,1,.1-.4l.144-.284Zm6.665.681v7.3h-6.035v-7.3a1.223,1.223,0,0,0-.035-.292h6.1a1.222,1.222,0,0,0-.035.292Zm1.9-.681.144.284a.861.861,0,0,1,.1.4v7.689h6.813v-7.689a.861.861,0,0,1,.1-.4l.144-.284Zm6.665.681v7.3h-6.035v-7.3a1.221,1.221,0,0,0-.035-.292h6.1a1.224,1.224,0,0,0-.035.292Zm1.9-.681.144.284a.861.861,0,0,1,.1.4v7.689h6.813v-7.689a.861.861,0,0,1,.1-.4l.144-.284Zm6.665.681v7.3h-6.035v-7.3a1.223,1.223,0,0,0-.035-.292h6.1a1.221,1.221,0,0,0-.035.292Zm1.9-.681.144.284a.861.861,0,0,1,.1.4v7.689h6.813v-7.689a.861.861,0,0,1,.1-.4l.144-.284Zm6.665.681v7.3H376.09v-7.3a1.223,1.223,0,0,0-.035-.292h6.1a1.221,1.221,0,0,0-.035.292Zm1.9-.681.144.284a.861.861,0,0,1,.1.4v7.689h6.813v-7.689a.861.861,0,0,1,.1-.4l.144-.284Zm6.665.681v7.3h-6.035v-7.3a1.221,1.221,0,0,0-.035-.292h6.1a1.227,1.227,0,0,0-.035.292Zm1.9-.681.144.284a.861.861,0,0,1,.1.4v7.689h6.813v-7.689a.861.861,0,0,1,.1-.4l.144-.284Zm6.665.681v7.3H393.22v-7.3a1.223,1.223,0,0,0-.035-.292h6.1a1.224,1.224,0,0,0-.035.292Zm1.9-.681.144.284a.861.861,0,0,1,.1.4v7.689h6.813v-7.689a.862.862,0,0,1,.1-.4l.144-.284Zm6.665.681v7.3h-6.035v-7.3a1.218,1.218,0,0,0-.035-.292h6.1a1.221,1.221,0,0,0-.035.292Zm1.9-.681.144.284a.861.861,0,0,1,.1.4v7.689h6.813v-7.689a.861.861,0,0,1,.1-.4l.144-.284Zm6.665.681v7.3H410.35v-7.3a1.224,1.224,0,0,0-.035-.292h6.1a1.222,1.222,0,0,0-.035.292Zm1.9-.681.144.284a.861.861,0,0,1,.1.4v7.689h6.813v-7.689a.861.861,0,0,1,.1-.4l.144-.284Zm6.665.681v7.3h-6.035v-7.3a1.223,1.223,0,0,0-.035-.292h6.1a1.221,1.221,0,0,0-.035.292Zm-6.665-.681.144.284a.861.861,0,0,1,.1.4v7.689h6.813v-7.689a.861.861,0,0,1,.1-.4l.144-.284Zm6.665.681v7.3h-6.035v-7.3a1.223,1.223,0,0,0-.035-.292h6.1a1.221,1.221,0,0,0-.035.292Zm-15.23-.681.144.284a.861.861,0,0,1,.1.4v7.689h6.813v-7.689a.861.861,0,0,1,.1-.4l.144-.284Zm6.665.681v7.3H410.35v-7.3a1.224,1.224,0,0,0-.035-.292h6.1a1.222,1.222,0,0,0-.035.292Zm-15.23-.681.144.284a.861.861,0,0,1,.1.4v7.689h6.813v-7.689a.861.861,0,0,1,.1-.4l.144-.284Zm6.665.681v7.3h-6.035v-7.3a1.223,1.223,0,0,0-.035-.292h6.1a1.224,1.224,0,0,0-.035.292Zm-15.23-.681.144.284a.861.861,0,0,1,.1.4v7.689h6.813v-7.689a.861.861,0,0,1,.1-.4l.144-.284Zm6.665.681v7.3H393.22v-7.3a1.223,1.223,0,0,0-.035-.292h6.1a1.221,1.221,0,0,0-.035.292Zm-15.23-.681.144.284a.861.861,0,0,1,.1.4v7.689h6.813v-7.689a.861.861,0,0,1,.1-.4l.144-.284Zm6.665.681v7.3h-6.035v-7.3a1.221,1.221,0,0,0-.035-.292h6.1a1.222,1.222,0,0,0-.035.292Zm-15.23-.681.144.284a.861.861,0,0,1,.1.4v7.689h6.813v-7.689a.861.861,0,0,1,.1-.4l.144-.284Zm6.665.681v7.3H376.09v-7.3a1.223,1.223,0,0,0-.035-.292h6.1a1.224,1.224,0,0,0-.035.292Zm-15.23-.681.144.284a.86.86,0,0,1,.1.4v7.689h6.813v-7.689a.861.861,0,0,1,.1-.4l.144-.284Zm6.665.681v7.3h-6.035v-7.3a1.223,1.223,0,0,0-.035-.292h6.1a1.221,1.221,0,0,0-.035.292Zm-15.23-.681.144.284a.861.861,0,0,1,.1.4v7.689h6.813v-7.689a.861.861,0,0,1,.1-.4l.144-.284Zm6.665.681v7.3h-6.035v-7.3a1.219,1.219,0,0,0-.035-.292h6.1a1.222,1.222,0,0,0-.035.292Zm-15.23-.681.144.284a.861.861,0,0,1,.1.4v7.689h6.813v-7.689a.861.861,0,0,1,.1-.4l.144-.284Zm6.665.681v7.3h-6.035v-7.3a1.223,1.223,0,0,0-.035-.292h6.1a1.224,1.224,0,0,0-.035.292Zm61.856-.681.144.284a.861.861,0,0,1,.1.4v7.689h6.813v-7.689a.861.861,0,0,1,.1-.4l.144-.284Zm6.665.681v7.3h-6.035v-7.3a1.223,1.223,0,0,0-.035-.292h6.1a1.224,1.224,0,0,0-.035.292Zm-15.23-.681.144.284a.861.861,0,0,1,.1.4v7.689h6.813v-7.689a.861.861,0,0,1,.1-.4l.144-.284Zm6.665.681v7.3H410.35v-7.3a1.223,1.223,0,0,0-.035-.292h6.1a1.221,1.221,0,0,0-.035.292Zm-15.23-.681.144.284a.861.861,0,0,1,.1.4v7.689h6.813v-7.689a.862.862,0,0,1,.1-.4l.144-.284Zm6.665.681v7.3h-6.035v-7.3a1.221,1.221,0,0,0-.035-.292h6.1a1.221,1.221,0,0,0-.035.292Zm-15.23-.681.144.284a.861.861,0,0,1,.1.4v7.689h6.813v-7.689a.861.861,0,0,1,.1-.4l.144-.284Zm6.665.681v7.3H393.22v-7.3a1.223,1.223,0,0,0-.035-.292h6.1a1.224,1.224,0,0,0-.035.292Zm-15.23-.681.144.284a.861.861,0,0,1,.1.4v7.689h6.813v-7.689a.861.861,0,0,1,.1-.4l.144-.284Zm6.665.681v7.3h-6.035v-7.3a1.223,1.223,0,0,0-.035-.292h6.1a1.221,1.221,0,0,0-.035.292Zm-15.23-.681.144.284a.861.861,0,0,1,.1.4v7.689h6.813v-7.689a.862.862,0,0,1,.1-.4l.144-.284Zm6.665.681v7.3H376.09v-7.3a1.221,1.221,0,0,0-.035-.292h6.1a1.222,1.222,0,0,0-.035.292Zm-15.23-.681.144.284a.861.861,0,0,1,.1.4v7.689h6.813v-7.689a.862.862,0,0,1,.1-.4l.144-.284Zm6.665.681v7.3h-6.035v-7.3a1.223,1.223,0,0,0-.035-.292h6.1a1.224,1.224,0,0,0-.035.292Zm-15.23-.681.144.284a.861.861,0,0,1,.1.4v7.689h6.813v-7.689a.861.861,0,0,1,.1-.4l.144-.284Zm6.665.681v7.3h-6.035v-7.3a1.223,1.223,0,0,0-.035-.292h6.1a1.221,1.221,0,0,0-.035.292Zm-15.23-.681.144.284a.861.861,0,0,1,.1.4v7.689h6.813v-7.689a.861.861,0,0,1,.1-.4l.144-.284Zm6.665.681v7.3h-6.035v-7.3a1.224,1.224,0,0,0-.035-.292h6.1a1.222,1.222,0,0,0-.035.292Zm61.856-.681.144.284a.861.861,0,0,1,.1.4v7.689h6.813v-7.689a.861.861,0,0,1,.1-.4l.144-.284Zm6.665.681v7.3h-6.035v-7.3a1.224,1.224,0,0,0-.035-.292h6.1a1.221,1.221,0,0,0-.035.292Zm-15.23-.681.144.284a.861.861,0,0,1,.1.4v7.689h6.813v-7.689a.861.861,0,0,1,.1-.4l.144-.284Zm6.665.681v7.3H410.35v-7.3a1.223,1.223,0,0,0-.035-.292h6.1a1.224,1.224,0,0,0-.035.292Zm-15.23-.681.144.284a.862.862,0,0,1,.1.4v7.689h6.813v-7.689a.862.862,0,0,1,.1-.4l.144-.284Zm6.665.681v7.3h-6.035v-7.3a1.219,1.219,0,0,0-.035-.292h6.1a1.221,1.221,0,0,0-.035.292Zm-15.23-.681.144.284a.861.861,0,0,1,.1.4v7.689h6.813v-7.689a.861.861,0,0,1,.1-.4l.144-.284Zm6.665.681v7.3H393.22v-7.3a1.224,1.224,0,0,0-.035-.292h6.1a1.222,1.222,0,0,0-.035.292Zm-15.23-.681.144.284a.861.861,0,0,1,.1.4v7.689h6.813v-7.689a.861.861,0,0,1,.1-.4l.144-.284Zm6.665.681v7.3h-6.035v-7.3a1.223,1.223,0,0,0-.035-.292h6.1a1.224,1.224,0,0,0-.035.292Zm-15.23-.681.144.284a.862.862,0,0,1,.1.4v7.689h6.813v-7.689a.862.862,0,0,1,.1-.4l.144-.284Zm6.665.681v7.3H376.09v-7.3a1.219,1.219,0,0,0-.035-.292h6.1a1.221,1.221,0,0,0-.035.292Zm-15.23-.681.144.284a.861.861,0,0,1,.1.4v7.689h6.813v-7.689a.861.861,0,0,1,.1-.4l.144-.284Zm6.665.681v7.3h-6.035v-7.3a1.224,1.224,0,0,0-.035-.292h6.1a1.221,1.221,0,0,0-.035.292Zm-15.23-.681.144.284a.861.861,0,0,1,.1.4v7.689h6.813v-7.689a.861.861,0,0,1,.1-.4l.144-.284Zm6.665.681v7.3h-6.035v-7.3a1.221,1.221,0,0,0-.035-.292h6.1a1.224,1.224,0,0,0-.035.292Zm-15.23-.681.144.284a.861.861,0,0,1,.1.4v7.689h6.813v-7.689a.861.861,0,0,1,.1-.4l.144-.284Zm6.665.681v7.3h-6.035v-7.3a1.223,1.223,0,0,0-.035-.292h6.1a1.221,1.221,0,0,0-.035.292Zm61.856-.681.144.284a.862.862,0,0,1,.1.4v7.689h6.813v-7.689a.861.861,0,0,1,.1-.4l.144-.284Zm6.665.681v7.3h-6.035v-7.3a1.221,1.221,0,0,0-.035-.292h6.1a1.222,1.222,0,0,0-.035.292Zm-15.23-.681.144.284a.861.861,0,0,1,.1.4v7.689h6.813v-7.689a.861.861,0,0,1,.1-.4l.144-.284Zm6.665.681v7.3H410.35v-7.3a1.224,1.224,0,0,0-.035-.292h6.1a1.224,1.224,0,0,0-.035.292Zm-15.23-.681.144.284a.861.861,0,0,1,.1.4v7.689h6.813v-7.689a.861.861,0,0,1,.1-.4l.144-.284Zm6.665.681v7.3h-6.035v-7.3a1.219,1.219,0,0,0-.035-.292h6.1a1.221,1.221,0,0,0-.035.292Zm-15.23-.681.144.284a.861.861,0,0,1,.1.4v7.689h6.813v-7.689a.861.861,0,0,1,.1-.4l.144-.284Zm6.665.681v7.3H393.22v-7.3a1.221,1.221,0,0,0-.035-.292h6.1a1.222,1.222,0,0,0-.035.292Zm-15.23-.681.144.284a.861.861,0,0,1,.1.4v7.689h6.813v-7.689a.861.861,0,0,1,.1-.4l.144-.284Zm6.665.681v7.3h-6.035v-7.3a1.224,1.224,0,0,0-.035-.292h6.1a1.224,1.224,0,0,0-.035.292Zm-15.23-.681.144.284a.861.861,0,0,1,.1.4v7.689h6.813v-7.689a.861.861,0,0,1,.1-.4l.144-.284Zm6.665.681v7.3H376.09v-7.3a1.219,1.219,0,0,0-.035-.292h6.1a1.221,1.221,0,0,0-.035.292Zm-15.23-.681.144.284a.861.861,0,0,1,.1.4v7.689h6.813v-7.689a.861.861,0,0,1,.1-.4l.144-.284Zm6.665.681v7.3h-6.035v-7.3a1.223,1.223,0,0,0-.035-.292h6.1a1.222,1.222,0,0,0-.035.292Zm-15.23-.681.144.284a.861.861,0,0,1,.1.4v7.689h6.813v-7.689a.861.861,0,0,1,.1-.4l.144-.284Zm6.665.681v7.3H358.96v-7.3a1.224,1.224,0,0,0-.035-.292h6.1a1.224,1.224,0,0,0-.035.292Zm-15.23-.681.144.284a.861.861,0,0,1,.1.4v7.689h6.813v-7.689a.861.861,0,0,1,.1-.4l.144-.284Zm6.665.681v7.3h-6.035v-7.3a1.221,1.221,0,0,0-.035-.292h6.1a1.221,1.221,0,0,0-.035.292Zm61.856-.681.144.284a.861.861,0,0,1,.1.4v7.689h6.813v-7.689a.862.862,0,0,1,.1-.4l.144-.284Zm6.665.681v7.3h-6.035v-7.3a1.219,1.219,0,0,0-.035-.292h6.1a1.222,1.222,0,0,0-.035.292Zm-15.086-.4a.861.861,0,0,1,.1.4v7.689h6.813v-7.689a.862.862,0,0,1,.1-.4l.144-.284h-7.3Zm6.556.105a1.224,1.224,0,0,0-.035.292v7.3H410.35v-7.3a1.221,1.221,0,0,0-.035-.292Zm-15.121-.105a.861.861,0,0,1,.1.4v7.689h6.813v-7.689a.861.861,0,0,1,.1-.4l.144-.284h-7.3Zm6.556.105a1.222,1.222,0,0,0-.035.292v7.3h-6.035v-7.3a1.224,1.224,0,0,0-.035-.292Zm-15.121-.105a.861.861,0,0,1,.1.4v7.689h6.813v-7.689a.861.861,0,0,1,.1-.4l.144-.284h-7.3Zm6.556.105a1.222,1.222,0,0,0-.035.292v7.3H393.22v-7.3a1.219,1.219,0,0,0-.035-.292Zm-15.121-.105a.861.861,0,0,1,.1.4v7.689h6.813v-7.689a.861.861,0,0,1,.1-.4l.144-.284h-7.3Zm6.556.105a1.224,1.224,0,0,0-.035.292v7.3h-6.035v-7.3a1.221,1.221,0,0,0-.035-.292Zm-15.121-.105a.861.861,0,0,1,.1.4v7.689h6.813v-7.689a.861.861,0,0,1,.1-.4l.144-.284h-7.3Zm6.556.105a1.222,1.222,0,0,0-.035.292v7.3H376.09v-7.3a1.224,1.224,0,0,0-.035-.292Zm-15.121-.105a.861.861,0,0,1,.1.4v7.689h6.813v-7.689a.861.861,0,0,1,.1-.4l.144-.284h-7.3Zm6.556.105a1.222,1.222,0,0,0-.035.292v7.3h-6.035v-7.3a1.218,1.218,0,0,0-.035-.292Zm-15.121-.105a.861.861,0,0,1,.1.4v7.689h6.813v-7.689a.861.861,0,0,1,.1-.4l.144-.284h-7.3Zm6.556.105a1.222,1.222,0,0,0-.035.292v7.3H358.96v-7.3a1.223,1.223,0,0,0-.035-.292Zm-15.121-.105a.861.861,0,0,1,.1.4v7.689h6.813v-7.689a.861.861,0,0,1,.1-.4l.144-.284h-7.3Zm6.556.105a1.222,1.222,0,0,0-.035.292v7.3h-6.035v-7.3a1.223,1.223,0,0,0-.035-.292Zm61.965-.105a.861.861,0,0,1,.1.4v7.689h6.813v-7.689a.861.861,0,0,1,.1-.4l.144-.284h-7.3Zm6.556.105a1.224,1.224,0,0,0-.035.292v7.3h-6.035v-7.3a1.224,1.224,0,0,0-.035-.292Zm-15.121-.105a.861.861,0,0,1,.1.4v7.689h6.813v-7.689a.861.861,0,0,1,.1-.4l.144-.284h-7.3Zm6.556.105a1.222,1.222,0,0,0-.035.292v7.3H410.35v-7.3a1.218,1.218,0,0,0-.035-.292Zm-15.121-.105a.861.861,0,0,1,.1.4v7.689h6.813v-7.689a.861.861,0,0,1,.1-.4l.144-.284h-7.3Zm6.556.105a1.218,1.218,0,0,0-.035.292v7.3h-6.035v-7.3a1.223,1.223,0,0,0-.035-.292Zm-15.121-.105a.861.861,0,0,1,.1.4v7.689h6.813v-7.689a.861.861,0,0,1,.1-.4l.144-.284h-7.3Zm6.556.105a1.224,1.224,0,0,0-.035.292v7.3H393.22v-7.3a1.224,1.224,0,0,0-.035-.292Zm-15.121-.105a.861.861,0,0,1,.1.4v7.689h6.813v-7.689a.861.861,0,0,1,.1-.4l.144-.284h-7.3Zm6.556.105a1.222,1.222,0,0,0-.035.292v7.3h-6.035v-7.3a1.218,1.218,0,0,0-.035-.292Zm-15.121-.105a.861.861,0,0,1,.1.4v7.689h6.813v-7.689a.861.861,0,0,1,.1-.4l.144-.284h-7.3Zm6.556.105a1.218,1.218,0,0,0-.035.292v7.3H376.09v-7.3a1.223,1.223,0,0,0-.035-.292Zm-15.121-.105a.861.861,0,0,1,.1.4v7.689h6.813v-7.689a.861.861,0,0,1,.1-.4l.144-.284h-7.3Zm6.556.105a1.222,1.222,0,0,0-.035.292v7.3h-6.035v-7.3a1.223,1.223,0,0,0-.035-.292Zm-15.121-.105a.861.861,0,0,1,.1.4v7.689h6.813v-7.689a.861.861,0,0,1,.1-.4l.144-.284h-7.3Zm6.556.105a1.222,1.222,0,0,0-.035.292v7.3H358.96v-7.3a1.219,1.219,0,0,0-.035-.292Zm-15.121-.105a.861.861,0,0,1,.1.4v7.689h6.813v-7.689a.861.861,0,0,1,.1-.4l.144-.284h-7.3Zm6.556.105a1.222,1.222,0,0,0-.035.292v7.3h-6.035v-7.3a1.223,1.223,0,0,0-.035-.292Zm76.662,9.149h-2.32a2.147,2.147,0,0,0-2.06-1.557h-1.265v-7.3a1.218,1.218,0,0,0-.088-.457,1.166,1.166,0,0,0-.594-2.17H348.545a1.166,1.166,0,0,0-.594,2.17,1.217,1.217,0,0,0-.088.457v7.3H346.6a2.147,2.147,0,0,0-2.06,1.557h-2.515a1.755,1.755,0,0,0-1.752,1.752V344.737a1.756,1.756,0,0,0,1.752,1.752h91.1a1.755,1.755,0,0,0,1.752-1.752V241.955A1.755,1.755,0,0,0,433.126,240.2Zm1.363,104.534a1.364,1.364,0,0,1-.89,1.277,1.308,1.308,0,0,1-.473.086h-91.1a1.309,1.309,0,0,1-.473-.086,1.364,1.364,0,0,1-.89-1.277V241.955a1.364,1.364,0,0,1,1.363-1.363h2.827l.031-.156a1.758,1.758,0,0,1,1.717-1.4h1.655v-7.689a.875.875,0,0,1,.125-.45l.121-.2-.22-.082a.777.777,0,0,1,.267-1.507H426.8a.777.777,0,0,1,.267,1.507l-.22.082.121.2a.874.874,0,0,1,.125.45v7.689h1.655a1.758,1.758,0,0,1,1.717,1.4l.031.156h2.632a1.364,1.364,0,0,1,1.363,1.363ZM349.764,230.665l.144.284a.861.861,0,0,1,.1.4v7.689h6.813v-7.689a.861.861,0,0,1,.1-.4l.144-.284Zm6.665.681v7.3h-6.035v-7.3a1.221,1.221,0,0,0-.035-.292h6.1A1.223,1.223,0,0,0,356.429,231.346Zm1.9-.681.144.284a.861.861,0,0,1,.1.4v7.689h6.813v-7.689a.861.861,0,0,1,.1-.4l.144-.284Zm6.665.681v7.3H358.96v-7.3a1.223,1.223,0,0,0-.035-.292h6.1a1.223,1.223,0,0,0-.035.292Zm1.9-.681.144.284a.861.861,0,0,1,.1.4v7.689h6.813v-7.689a.862.862,0,0,1,.1-.4l.144-.284Zm6.665.681v7.3h-6.035v-7.3a1.219,1.219,0,0,0-.035-.292h6.1A1.223,1.223,0,0,0,373.559,231.346Zm1.9-.681.144.284a.86.86,0,0,1,.1.4v7.689h6.813v-7.689a.861.861,0,0,1,.1-.4l.144-.284Zm6.665.681v7.3H376.09v-7.3a1.224,1.224,0,0,0-.035-.292h6.1A1.223,1.223,0,0,0,382.124,231.346Zm1.9-.681.144.284a.862.862,0,0,1,.1.4v7.689h6.813v-7.689a.861.861,0,0,1,.1-.4l.144-.284Zm6.665.681v7.3h-6.035v-7.3a1.219,1.219,0,0,0-.035-.292h6.1A1.223,1.223,0,0,0,390.69,231.346Zm1.9-.681.144.284a.861.861,0,0,1,.1.4v7.689h6.813v-7.689a.861.861,0,0,1,.1-.4l.144-.284Zm6.665.681v7.3H393.22v-7.3a1.223,1.223,0,0,0-.035-.292h6.1a1.222,1.222,0,0,0-.035.292Zm1.9-.681.144.284a.861.861,0,0,1,.1.4v7.689h6.813v-7.689a.861.861,0,0,1,.1-.4l.144-.284Zm6.665.681v7.3h-6.035v-7.3a1.219,1.219,0,0,0-.035-.292h6.1a1.221,1.221,0,0,0-.035.292Zm1.9-.681.144.284a.861.861,0,0,1,.1.4v7.689h6.813v-7.689a.862.862,0,0,1,.1-.4l.144-.284Zm6.665.681v7.3h-6.035v-7.3a1.224,1.224,0,0,0-.035-.292h6.1a1.221,1.221,0,0,0-.035.292Zm1.9-.681.144.284a.86.86,0,0,1,.1.4v7.689h6.813v-7.689a.861.861,0,0,1,.1-.4l.144-.284Zm6.665.681v7.3h-6.035v-7.3a1.224,1.224,0,0,0-.035-.292h6.1a1.221,1.221,0,0,0-.035.292Zm-75.186-.681.144.284a.861.861,0,0,1,.1.4v7.689h6.813v-7.689a.861.861,0,0,1,.1-.4l.144-.284Zm6.665.681v7.3h-6.035v-7.3a1.223,1.223,0,0,0-.035-.292h6.1a1.221,1.221,0,0,0-.035.292Zm1.9-.681.144.284a.861.861,0,0,1,.1.4v7.689h6.813v-7.689a.861.861,0,0,1,.1-.4l.144-.284Zm6.665.681v7.3H358.96v-7.3a1.223,1.223,0,0,0-.035-.292h6.1A1.224,1.224,0,0,0,364.994,231.346Zm1.9-.681.144.284a.861.861,0,0,1,.1.4v7.689h6.813v-7.689a.861.861,0,0,1,.1-.4l.144-.284Zm6.665.681v7.3h-6.035v-7.3a1.223,1.223,0,0,0-.035-.292h6.1a1.221,1.221,0,0,0-.035.292Zm1.9-.681.144.284a.861.861,0,0,1,.1.4v7.689h6.813v-7.689a.861.861,0,0,1,.1-.4l.144-.284Zm6.665.681v7.3H376.09v-7.3a1.219,1.219,0,0,0-.035-.292h6.1a1.221,1.221,0,0,0-.035.292Zm1.9-.681.144.284a.861.861,0,0,1,.1.4v7.689h6.813v-7.689a.862.862,0,0,1,.1-.4l.144-.284Zm6.665.681v7.3h-6.035v-7.3a1.224,1.224,0,0,0-.035-.292h6.1a1.221,1.221,0,0,0-.035.292Zm1.9-.681.144.284a.861.861,0,0,1,.1.4v7.689h6.813v-7.689a.861.861,0,0,1,.1-.4l.144-.284Zm6.665.681v7.3H393.22v-7.3a1.224,1.224,0,0,0-.035-.292h6.1a1.221,1.221,0,0,0-.035.292Zm1.9-.681.144.284a.861.861,0,0,1,.1.4v7.689h6.813v-7.689a.861.861,0,0,1,.1-.4l.144-.284Zm6.665.681v7.3h-6.035v-7.3a1.221,1.221,0,0,0-.035-.292h6.1a1.222,1.222,0,0,0-.035.292Zm1.9-.681.144.284a.861.861,0,0,1,.1.4v7.689h6.813v-7.689a.861.861,0,0,1,.1-.4l.144-.284Zm6.665.681v7.3H410.35v-7.3a1.223,1.223,0,0,0-.035-.292h6.1a1.224,1.224,0,0,0-.035.292Zm1.9-.681.144.284a.861.861,0,0,1,.1.4v7.689h6.813v-7.689a.862.862,0,0,1,.1-.4l.144-.284Zm6.665.681v7.3h-6.035v-7.3a1.219,1.219,0,0,0-.035-.292h6.1a1.222,1.222,0,0,0-.035.292Zm-75.186-.681.144.284a.861.861,0,0,1,.1.4v7.689h6.813v-7.689a.861.861,0,0,1,.1-.4l.144-.284Zm6.665.681v7.3h-6.035v-7.3a1.223,1.223,0,0,0-.035-.292h6.1a1.224,1.224,0,0,0-.035.292Zm1.9-.681.144.284a.861.861,0,0,1,.1.4v7.689h6.813v-7.689a.861.861,0,0,1,.1-.4l.144-.284Zm6.665.681v7.3H358.96v-7.3a1.219,1.219,0,0,0-.035-.292h6.1a1.223,1.223,0,0,0-.035.292Zm1.9-.681.144.284a.861.861,0,0,1,.1.4v7.689h6.813v-7.689a.861.861,0,0,1,.1-.4l.144-.284Zm6.665.681v7.3h-6.035v-7.3a1.223,1.223,0,0,0-.035-.292h6.1a1.222,1.222,0,0,0-.035.292Zm1.9-.681.144.284a.861.861,0,0,1,.1.4v7.689h6.813v-7.689a.861.861,0,0,1,.1-.4l.144-.284Zm6.665.681v7.3H376.09v-7.3a1.221,1.221,0,0,0-.035-.292h6.1a1.222,1.222,0,0,0-.035.292Zm1.9-.681.144.284a.861.861,0,0,1,.1.4v7.689h6.813v-7.689a.861.861,0,0,1,.1-.4l.144-.284Zm6.665.681v7.3h-6.035v-7.3a1.219,1.219,0,0,0-.035-.292h6.1a1.224,1.224,0,0,0-.035.292Zm1.9-.681.144.284a.861.861,0,0,1,.1.4v7.689h6.813v-7.689a.861.861,0,0,1,.1-.4l.144-.284Zm6.665.681v7.3H393.22v-7.3a1.219,1.219,0,0,0-.035-.292h6.1a1.222,1.222,0,0,0-.035.292Zm1.9-.681.144.284a.861.861,0,0,1,.1.4v7.689h6.813v-7.689a.861.861,0,0,1,.1-.4l.144-.284Zm6.665.681v7.3h-6.035v-7.3a1.224,1.224,0,0,0-.035-.292h6.1a1.224,1.224,0,0,0-.035.292Zm1.9-.681.144.284a.86.86,0,0,1,.1.4v7.689h6.813v-7.689a.861.861,0,0,1,.1-.4l.144-.284Zm6.665.681v7.3H410.35v-7.3a1.224,1.224,0,0,0-.035-.292h6.1a1.224,1.224,0,0,0-.035.292Zm1.9-.681.144.284a.862.862,0,0,1,.1.4v7.689h6.813v-7.689a.861.861,0,0,1,.1-.4l.144-.284Zm6.665.681v7.3h-6.035v-7.3a1.221,1.221,0,0,0-.035-.292h6.1a1.222,1.222,0,0,0-.035.292Zm-75.186-.681.144.284a.861.861,0,0,1,.1.4v7.689h6.813v-7.689a.861.861,0,0,1,.1-.4l.144-.284Zm6.665.681v7.3h-6.035v-7.3a1.223,1.223,0,0,0-.035-.292h6.1a1.221,1.221,0,0,0-.035.292Zm1.9-.681.144.284a.861.861,0,0,1,.1.4v7.689h6.813v-7.689a.861.861,0,0,1,.1-.4l.144-.284Zm6.665.681v7.3H358.96v-7.3a1.223,1.223,0,0,0-.035-.292h6.1a1.224,1.224,0,0,0-.035.292Zm1.9-.681.144.284a.861.861,0,0,1,.1.4v7.689h6.813v-7.689a.861.861,0,0,1,.1-.4l.144-.284Zm6.665.681v7.3h-6.035v-7.3a1.219,1.219,0,0,0-.035-.292h6.1a1.219,1.219,0,0,0-.035.292Zm1.9-.681.144.284a.861.861,0,0,1,.1.4v7.689h6.813v-7.689a.861.861,0,0,1,.1-.4l.144-.284Zm6.665.681v7.3H376.09v-7.3a1.224,1.224,0,0,0-.035-.292h6.1a1.224,1.224,0,0,0-.035.292Zm1.9-.681.144.284a.86.86,0,0,1,.1.4v7.689h6.813v-7.689a.861.861,0,0,1,.1-.4l.144-.284Zm6.665.681v7.3h-6.035v-7.3a1.224,1.224,0,0,0-.035-.292h6.1a1.222,1.222,0,0,0-.035.292Zm1.9-.681.144.284a.861.861,0,0,1,.1.4v7.689h6.813v-7.689a.861.861,0,0,1,.1-.4l.144-.284Zm6.665.681v7.3H393.22v-7.3a1.221,1.221,0,0,0-.035-.292h6.1a1.222,1.222,0,0,0-.035.292Zm1.9-.681.144.284a.861.861,0,0,1,.1.4v7.689h6.813v-7.689a.861.861,0,0,1,.1-.4l.144-.284Zm6.665.681v7.3h-6.035v-7.3a1.223,1.223,0,0,0-.035-.292h6.1a1.221,1.221,0,0,0-.035.292Zm1.9-.681.144.284a.861.861,0,0,1,.1.4v7.689h6.813v-7.689a.861.861,0,0,1,.1-.4l.144-.284Zm6.665.681v7.3H410.35v-7.3a1.219,1.219,0,0,0-.035-.292h6.1a1.224,1.224,0,0,0-.035.292Zm1.9-.681.144.284a.861.861,0,0,1,.1.4v7.689h6.813v-7.689a.861.861,0,0,1,.1-.4l.144-.284Zm6.665.681v7.3h-6.035v-7.3a1.224,1.224,0,0,0-.035-.292h6.1a1.221,1.221,0,0,0-.035.292Z" transform="translate(-292.527 -196.794)" fill="#3f3d56"/>
    <path id="Path_7203" data-name="Path 7203" d="M443.818,372.646H429.463a1.142,1.142,0,0,1-1.14-1.14v-7.647a1.142,1.142,0,0,1,1.14-1.14h14.355a1.142,1.142,0,0,1,1.14,1.14v7.647A1.142,1.142,0,0,1,443.818,372.646Z" transform="translate(-363.437 -304.709)" fill="#2a6aa9"/>
    <path id="Path_7204" data-name="Path 7204" d="M556.037,372.646H541.682a1.142,1.142,0,0,1-1.14-1.14v-7.647a1.142,1.142,0,0,1,1.14-1.14h14.355a1.142,1.142,0,0,1,1.14,1.14v7.647A1.142,1.142,0,0,1,556.037,372.646Z" transform="translate(-453.812 -304.709)" fill="#2a6aa9"/>
    <path id="Path_7205" data-name="Path 7205" d="M668.257,372.646H653.9a1.142,1.142,0,0,1-1.14-1.14v-7.647a1.142,1.142,0,0,1,1.14-1.14h14.355a1.142,1.142,0,0,1,1.14,1.14v7.647A1.142,1.142,0,0,1,668.257,372.646Z" transform="translate(-544.187 -304.709)" fill="#2a6aa9"/>
    <path id="Path_7206" data-name="Path 7206" d="M443.818,503.646H429.463a1.142,1.142,0,0,1-1.14-1.14v-7.647a1.142,1.142,0,0,1,1.14-1.14h14.355a1.142,1.142,0,0,1,1.14,1.14v7.647A1.142,1.142,0,0,1,443.818,503.646Z" transform="translate(-363.437 -410.208)" fill="#2a6aa9"/>
    <path id="Path_7207" data-name="Path 7207" d="M556.037,503.646H541.682a1.142,1.142,0,0,1-1.14-1.14v-7.647a1.142,1.142,0,0,1,1.14-1.14h14.355a1.142,1.142,0,0,1,1.14,1.14v7.647A1.142,1.142,0,0,1,556.037,503.646Z" transform="translate(-453.812 -410.208)" fill="#2a6aa9"/>
    <path id="Path_7208" data-name="Path 7208" d="M668.257,503.646H653.9a1.142,1.142,0,0,1-1.14-1.14v-7.647a1.142,1.142,0,0,1,1.14-1.14h14.355a1.142,1.142,0,0,1,1.14,1.14v7.647A1.142,1.142,0,0,1,668.257,503.646Z" transform="translate(-544.187 -410.208)" fill="#2a6aa9"/>
    <path id="Path_7209" data-name="Path 7209" d="M443.818,634.646H429.463a1.142,1.142,0,0,1-1.14-1.14v-7.647a1.142,1.142,0,0,1,1.14-1.14h14.355a1.142,1.142,0,0,1,1.14,1.14v7.647A1.142,1.142,0,0,1,443.818,634.646Z" transform="translate(-363.437 -515.707)" fill="#2a6aa9"/>
    <path id="Path_7210" data-name="Path 7210" d="M556.037,634.646H541.682a1.142,1.142,0,0,1-1.14-1.14v-7.647a1.142,1.142,0,0,1,1.14-1.14h14.355a1.141,1.141,0,0,1,1.14,1.14v7.647A1.142,1.142,0,0,1,556.037,634.646Z" transform="translate(-453.812 -515.707)" fill="#2a6aa9"/>
    <path id="Path_7211" data-name="Path 7211" d="M668.257,634.646H653.9a1.141,1.141,0,0,1-1.14-1.14v-7.647a1.142,1.142,0,0,1,1.14-1.14h14.355a1.142,1.142,0,0,1,1.14,1.14v7.647A1.142,1.142,0,0,1,668.257,634.646Z" transform="translate(-544.187 -515.707)" fill="#2a6aa9"/>
    <path id="Path_7212" data-name="Path 7212" d="M420.917,369.568H404.287a1.517,1.517,0,0,1-1.516-1.516v-8.859a1.517,1.517,0,0,1,1.516-1.516h16.63a1.517,1.517,0,0,1,1.516,1.516v8.859A1.517,1.517,0,0,1,420.917,369.568Zm-16.63-11.5a1.128,1.128,0,0,0-1.126,1.126v8.859a1.128,1.128,0,0,0,1.126,1.126h16.63a1.128,1.128,0,0,0,1.126-1.126v-8.859a1.128,1.128,0,0,0-1.126-1.126Z" transform="translate(-342.86 -300.649)" fill="#3f3d56"/>
    <path id="Path_7213" data-name="Path 7213" d="M550.917,369.568H534.287a1.517,1.517,0,0,1-1.516-1.516v-8.859a1.517,1.517,0,0,1,1.516-1.516h16.63a1.517,1.517,0,0,1,1.516,1.516v8.859A1.518,1.518,0,0,1,550.917,369.568Zm-16.629-11.5a1.128,1.128,0,0,0-1.126,1.126v8.859a1.128,1.128,0,0,0,1.126,1.126h16.63a1.128,1.128,0,0,0,1.126-1.126v-8.859a1.128,1.128,0,0,0-1.126-1.126Z" transform="translate(-447.554 -300.649)" fill="#3f3d56"/>
    <path id="Path_7214" data-name="Path 7214" d="M680.917,369.568H664.287a1.517,1.517,0,0,1-1.516-1.516v-8.859a1.517,1.517,0,0,1,1.516-1.516h16.629a1.518,1.518,0,0,1,1.516,1.516v8.859A1.517,1.517,0,0,1,680.917,369.568Zm-16.629-11.5a1.128,1.128,0,0,0-1.126,1.126v8.859a1.128,1.128,0,0,0,1.126,1.126h16.63a1.128,1.128,0,0,0,1.126-1.126v-8.859a1.128,1.128,0,0,0-1.126-1.126Z" transform="translate(-552.248 -300.649)" fill="#3f3d56"/>
    <path id="Path_7215" data-name="Path 7215" d="M420.917,500.568H404.287a1.517,1.517,0,0,1-1.516-1.516v-8.859a1.517,1.517,0,0,1,1.516-1.516h16.63a1.517,1.517,0,0,1,1.516,1.516v8.859A1.517,1.517,0,0,1,420.917,500.568Zm-16.63-11.5a1.128,1.128,0,0,0-1.126,1.126v8.859a1.128,1.128,0,0,0,1.126,1.126h16.63a1.128,1.128,0,0,0,1.126-1.126v-8.859a1.128,1.128,0,0,0-1.126-1.126Z" transform="translate(-342.86 -406.149)" fill="#3f3d56"/>
    <path id="Path_7216" data-name="Path 7216" d="M550.917,500.568H534.287a1.517,1.517,0,0,1-1.516-1.516v-8.859a1.517,1.517,0,0,1,1.516-1.516h16.63a1.517,1.517,0,0,1,1.516,1.516v8.859A1.518,1.518,0,0,1,550.917,500.568Zm-16.629-11.5a1.128,1.128,0,0,0-1.126,1.126v8.859a1.128,1.128,0,0,0,1.126,1.126h16.63a1.128,1.128,0,0,0,1.126-1.126v-8.859a1.128,1.128,0,0,0-1.126-1.126Z" transform="translate(-447.554 -406.149)" fill="#3f3d56"/>
    <path id="Path_7217" data-name="Path 7217" d="M680.917,500.568H664.287a1.517,1.517,0,0,1-1.516-1.516v-8.859a1.517,1.517,0,0,1,1.516-1.516h16.629a1.518,1.518,0,0,1,1.516,1.516v8.859A1.518,1.518,0,0,1,680.917,500.568Zm-16.629-11.5a1.128,1.128,0,0,0-1.126,1.126v8.859a1.128,1.128,0,0,0,1.126,1.126h16.63a1.128,1.128,0,0,0,1.126-1.126v-8.859a1.128,1.128,0,0,0-1.126-1.126Z" transform="translate(-552.248 -406.149)" fill="#3f3d56"/>
    <path id="Path_7218" data-name="Path 7218" d="M420.917,631.568H404.287a1.517,1.517,0,0,1-1.516-1.516v-8.859a1.517,1.517,0,0,1,1.516-1.516h16.63a1.517,1.517,0,0,1,1.516,1.516v8.859A1.517,1.517,0,0,1,420.917,631.568Zm-16.63-11.5a1.128,1.128,0,0,0-1.126,1.126v8.859a1.128,1.128,0,0,0,1.126,1.126h16.63a1.128,1.128,0,0,0,1.126-1.126v-8.859a1.128,1.128,0,0,0-1.126-1.126Z" transform="translate(-342.86 -511.648)" fill="#3f3d56"/>
    <path id="Path_7219" data-name="Path 7219" d="M550.917,631.568H534.287a1.517,1.517,0,0,1-1.516-1.516v-8.859a1.517,1.517,0,0,1,1.516-1.516h16.63a1.518,1.518,0,0,1,1.516,1.516v8.859A1.518,1.518,0,0,1,550.917,631.568Zm-16.629-11.5a1.128,1.128,0,0,0-1.126,1.126v8.859a1.128,1.128,0,0,0,1.126,1.126h16.63a1.128,1.128,0,0,0,1.126-1.126v-8.859a1.128,1.128,0,0,0-1.126-1.126Z" transform="translate(-447.554 -511.648)" fill="#3f3d56"/>
    <path id="Path_7220" data-name="Path 7220" d="M680.917,631.568H664.287a1.517,1.517,0,0,1-1.516-1.516v-8.859a1.518,1.518,0,0,1,1.516-1.516h16.629a1.518,1.518,0,0,1,1.516,1.516v8.859A1.518,1.518,0,0,1,680.917,631.568Zm-16.629-11.5a1.128,1.128,0,0,0-1.126,1.126v8.859a1.128,1.128,0,0,0,1.126,1.126h16.63a1.128,1.128,0,0,0,1.126-1.126v-8.859a1.128,1.128,0,0,0-1.126-1.126Z" transform="translate(-552.248 -511.648)" fill="#3f3d56"/>
    <path id="Path_7221" data-name="Path 7221" d="M291.415,833.607H95.195a.195.195,0,0,1,0-.389h196.22a.195.195,0,1,1,0,.389Z" transform="translate(-95 -683.62)" fill="#3f3d56"/>
    <path id="Path_7222" data-name="Path 7222" d="M593.1,731.414a1.675,1.675,0,0,0-1.655-1.7h-8.176v20.148h9.83Z" transform="translate(-488.224 -600.268)" fill="#3f3d56"/>
    <path id="Path_7223" data-name="Path 7223" d="M541.992,749.268h-10.22v-18.2a1.851,1.851,0,0,1,1.849-1.849h8.371Zm-9.831-.389H541.6V729.607h-7.981a1.462,1.462,0,0,0-1.46,1.46Z" transform="translate(-446.749 -599.865)" fill="#3f3d56"/>
    <circle id="Ellipse_45" data-name="Ellipse 45" cx="0.584" cy="0.584" r="0.584" transform="translate(85.704 139.573)" fill="#3f3d56"/>
  </g>
</svg>
