<svg id="_3b961db1736dbd3455fa822ed7583dde" data-name="3b961db1736dbd3455fa822ed7583dde" xmlns="http://www.w3.org/2000/svg" width="33.893" height="23.474" viewBox="0 0 33.893 23.474">
  <path id="Path_112" data-name="Path 112" d="M35.566,160.523a9.443,9.443,0,0,1,3.053.277,14.057,14.057,0,0,1,2.663.961,8.33,8.33,0,0,1,1.888,1.221c.481.432.723.8.723,1.093s-.187.474-.553.536-.833.118-1.387.166a16.7,16.7,0,0,0-1.833.277,4.479,4.479,0,0,0-1.888.906,10.378,10.378,0,0,0-1.127.982c-.356.356-.716.7-1.072,1.037a12.668,12.668,0,0,1-1.11.923,4.458,4.458,0,0,1-1.238.647c-.221.073-.495.149-.813.221a3.094,3.094,0,0,1-1.017.055,3.176,3.176,0,0,1-1.11-.353,3.239,3.239,0,0,1-1.093-1,4.608,4.608,0,0,0-.574,1.055,12.215,12.215,0,0,0-.425,1.314c-.124.47-.228.954-.315,1.463s-.156.982-.2,1.425c-.048.37-.086.833-.111,1.387s-.031,1.1-.017,1.646.045,1.041.093,1.5a3.182,3.182,0,0,0,.221.982,1.2,1.2,0,0,1,.183.553.481.481,0,0,1-.183.353,1.083,1.083,0,0,1-.7.166,1.335,1.335,0,0,1-.8-.166.467.467,0,0,1-.2-.353.763.763,0,0,1,.149-.519,2.555,2.555,0,0,0,.242-.868,7.657,7.657,0,0,0,.038-1.072c-.014-.384-.031-.771-.055-1.165s-.038-.778-.038-1.148a17.408,17.408,0,0,0-1.148-2,14.6,14.6,0,0,0-1.221-1.553,3.638,3.638,0,0,1-.944,1.331,3.162,3.162,0,0,1-1.093.612,3.318,3.318,0,0,1-1.055.149,5.013,5.013,0,0,1-.868-.093,4.043,4.043,0,0,1-1.259-.425c-.394-.211-.788-.443-1.183-.7s-.8-.536-1.2-.833a10.646,10.646,0,0,0-1.238-.778,4.214,4.214,0,0,0-1.978-.591,12.673,12.673,0,0,0-1.85.055,9.436,9.436,0,0,1-1.369.073c-.36-.014-.546-.176-.546-.494a2.147,2.147,0,0,1,.612-1.221,8.385,8.385,0,0,1,1.629-1.463,12.279,12.279,0,0,1,2.386-1.293,9.92,9.92,0,0,1,2.887-.723,10.163,10.163,0,0,1,3.866.242,5.717,5.717,0,0,1,2.4,1.314,3.722,3.722,0,0,1,1.093,1.961,4.823,4.823,0,0,1-.073,2.22,15.735,15.735,0,0,1,2.331,2.739,13.662,13.662,0,0,1,.923-3.662c.2-.418.384-.778.553-1.072s.384-.616.629-.961a4.856,4.856,0,0,1-.612-2.293,3.917,3.917,0,0,1,.7-2.293,5.689,5.689,0,0,1,2.237-1.833,10.316,10.316,0,0,1,4-.913ZM24.541,170.7a10.138,10.138,0,0,0-4.364-2.293,9.952,9.952,0,0,0-4.734.111c-.048,0-.062.007-.038.017a.238.238,0,0,0,.111.017,18.958,18.958,0,0,1,2.182-.093,9.008,9.008,0,0,1,2.237.332,10.627,10.627,0,0,1,2.237.923,10.363,10.363,0,0,1,2.182,1.646Zm13.576-7.03a.3.3,0,0,0,.111-.017c.024-.01,0-.017-.073-.017a8.8,8.8,0,0,0-4.883.833,11.419,11.419,0,0,0-3.849,3.2l.37.629a12.835,12.835,0,0,1,2.054-2.258A10,10,0,0,1,34,164.627a9.1,9.1,0,0,1,2.127-.723,13.853,13.853,0,0,1,2-.239ZM18.8,182.571c-.2-.173-.135-.377.183-.612a6.667,6.667,0,0,1,1.407-.723c.616-.246,1.314-.5,2.089-.757s1.522-.488,2.237-.685a.92.92,0,0,1,.757.017,2.457,2.457,0,0,1,.519.425,3.347,3.347,0,0,0,.591.5,1.809,1.809,0,0,0,1.017.242,1.781,1.781,0,0,0,1.017-.242,5.246,5.246,0,0,0,.612-.481,3.816,3.816,0,0,1,.519-.408.967.967,0,0,1,.74-.055c.716.2,1.466.432,2.258.7s1.5.536,2.127.8a7.034,7.034,0,0,1,1.425.74c.322.235.356.411.111.536a8.957,8.957,0,0,1-2.386.8,26.989,26.989,0,0,1-3.254.463q-1.758.15-3.624.149t-3.534-.166a21.627,21.627,0,0,1-2.96-.481,4.826,4.826,0,0,1-1.85-.754Z" transform="translate(-10 -160.498)" fill="#fff"/>
</svg>
