<svg xmlns="http://www.w3.org/2000/svg" width="18.671" height="12" viewBox="0 0 18.671 12">
  <g id="eye" transform="translate(-0.1)">
    <path id="Path_3" data-name="Path 3" d="M18,6.8a3.1,3.1,0,1,0,3.1,3.1A3.1,3.1,0,0,0,18,6.8ZM18,12a2.056,2.056,0,1,1,2.056-2.056A2.059,2.059,0,0,1,18,12Z" transform="translate(-8.59 -3.947)" fill="#5e5e5e"/>
    <path id="Path_4" data-name="Path 4" d="M18.771,5.832c0-.042-.042-.084-.042-.126A10.727,10.727,0,0,0,9.415,0,10.713,10.713,0,0,0,.142,5.706c0,.042-.042.084-.042.168v.252c0,.042.042.084.042.126A11.706,11.706,0,0,0,2.2,8.937l.042.042.378.378a14.266,14.266,0,0,0,1.259.965l.042.042.378.252.126.084c.126.084.252.126.378.21l.042.042a6.655,6.655,0,0,0,.755.336c.084.042.168.042.21.084a.778.778,0,0,0,.294.084.987.987,0,0,0,.336.084h.042c.084.042.126.042.21.084l.5.126.168.042a2.106,2.106,0,0,0,.5.084l.21.042c.168,0,.294.042.462.042h.21c.21,0,.42.042.629.042h0A3.176,3.176,0,0,0,10,11.958h.21c.168,0,.294-.042.462-.042l.168-.042c.168-.042.336-.042.5-.084l.168-.042.5-.126c.084,0,.126-.042.21-.084h.042a.987.987,0,0,1,.336-.084.778.778,0,0,1,.294-.084c.084-.042.168-.042.252-.126a3.719,3.719,0,0,0,.713-.336l.042-.042a3.9,3.9,0,0,1,.42-.21l.084-.042.378-.252.042-.042a9.119,9.119,0,0,0,1.259-.965l.378-.378.042-.042a13.017,13.017,0,0,0,2.056-2.685.154.154,0,0,0,.042-.126V5.958C18.771,5.916,18.771,5.874,18.771,5.832Zm-1.217.21A10.864,10.864,0,0,1,16.212,7.8a10.208,10.208,0,0,1-1.427,1.259l-.042.042a2.327,2.327,0,0,0-.336.252l-.084.042a9.013,9.013,0,0,1-1.091.587l-.168.084a2.045,2.045,0,0,1-.294.126c-.084.042-.168.042-.252.084a.6.6,0,0,1-.252.084.778.778,0,0,1-.294.084.709.709,0,0,0-.21.084l-.5.126-.168.042c-.126.042-.252.042-.378.084a.378.378,0,0,0-.21.042c-.126,0-.252.042-.378.042H8.7c-.126,0-.252-.042-.378-.042a.378.378,0,0,1-.21-.042,1.225,1.225,0,0,1-.378-.084l-.168-.042-.5-.126a1.077,1.077,0,0,1-.21-.084c-.084-.042-.21-.042-.294-.084s-.168-.042-.252-.084-.168-.042-.252-.084a2.046,2.046,0,0,0-.294-.126L5.6,9.986c-.378-.168-.713-.378-1.091-.587l-.042-.042A2.327,2.327,0,0,1,4.128,9.1l-.042-.042A13.32,13.32,0,0,1,2.659,7.8,10.864,10.864,0,0,1,1.317,6.042l-.042-.084.126-.21A.878.878,0,0,1,1.569,5.5c.084-.126.126-.21.21-.336a.915.915,0,0,1,.168-.21c.084-.084.168-.21.252-.294.042-.084.126-.126.168-.21.042-.042.126-.168.21-.252.042-.084.126-.126.168-.21L3,3.734c.084-.042.126-.126.21-.168A1.825,1.825,0,0,0,3.5,3.315a.915.915,0,0,1,.21-.168A1.275,1.275,0,0,1,4,2.937s.168-.126.21-.168c.084-.084.21-.126.294-.21l.042-.042a.218.218,0,0,0,.168-.084,2.491,2.491,0,0,1,.336-.168,1.346,1.346,0,0,0,.21-.126c.126-.042.21-.126.336-.168L5.68,1.93c.042-.042.126-.042.168-.084a2.891,2.891,0,0,1,.336-.126.845.845,0,0,1,.252-.084.778.778,0,0,1,.294-.084l.126-.042c.042,0,.126-.042.168-.042.084-.042.21-.042.294-.084l.126-.042c.042,0,.126-.042.168-.042A.622.622,0,0,1,7.9,1.259l.126-.042a.154.154,0,0,0,.126-.042c.126,0,.252-.042.42-.042h.21c.21,0,.42-.042.629-.042a3.176,3.176,0,0,1,.629.042,1.817,1.817,0,0,1,.21.042c.126,0,.252.042.42.042a.154.154,0,0,1,.126.042h.126c.126,0,.21.042.336.042.042,0,.126.042.168.042l.126.042c.084.042.21.042.294.084a2.674,2.674,0,0,1,.294.084.778.778,0,0,0,.294.084,1.749,1.749,0,0,1,.252.084c.084.042.21.084.294.126.042.042.126.042.168.084l.084.042a1.256,1.256,0,0,1,.336.168,1.346,1.346,0,0,0,.21.126,1.824,1.824,0,0,1,.294.168l.252.126c.084.084.21.126.294.21a1.148,1.148,0,0,1,.21.168,1.275,1.275,0,0,0,.294.21c.084.042.126.126.21.168a1.825,1.825,0,0,0,.294.252c.084.042.126.126.21.168l.252.252c.042.084.126.126.168.21a1.825,1.825,0,0,1,.252.294c.042.084.126.126.168.21.084.084.168.21.252.294a.915.915,0,0,0,.168.21.914.914,0,0,1,.21.336.878.878,0,0,0,.168.252L17.6,6Z" transform="translate(0 0)" fill="#5e5e5e"/>
  </g>
</svg>
