<svg xmlns="http://www.w3.org/2000/svg" width="23.426" height="23.431" viewBox="0 0 23.426 23.431">
  <path id="Icon_awesome-globe" data-name="Icon awesome-globe" d="M15.9,7.743c-.685-4.218-2.3-7.18-4.181-7.18s-3.5,2.962-4.181,7.18ZM7.18,12.278A29.609,29.609,0,0,0,7.336,15.3H16.09a29.609,29.609,0,0,0,.156-3.023,29.609,29.609,0,0,0-.156-3.023H7.336A29.609,29.609,0,0,0,7.18,12.278ZM22.519,7.743a11.74,11.74,0,0,0-7.464-6.689,15.944,15.944,0,0,1,2.362,6.689ZM8.371,1.054A11.732,11.732,0,0,0,.912,7.743h5.1A15.879,15.879,0,0,1,8.371,1.054Zm14.654,8.2H17.606c.1.992.156,2.008.156,3.023s-.057,2.031-.156,3.023H23.02a11.614,11.614,0,0,0,.406-3.023A11.817,11.817,0,0,0,23.024,9.255ZM5.669,12.278c0-1.016.057-2.031.156-3.023H.406a11.453,11.453,0,0,0,0,6.047H5.82C5.725,14.309,5.669,13.293,5.669,12.278Zm1.866,4.535c.685,4.218,2.3,7.18,4.181,7.18s3.5-2.962,4.181-7.18ZM15.06,23.5a11.751,11.751,0,0,0,7.464-6.689h-5.1A15.944,15.944,0,0,1,15.06,23.5ZM.912,16.813A11.74,11.74,0,0,0,8.376,23.5a15.944,15.944,0,0,1-2.362-6.689H.912Z" transform="translate(0 -0.563)" fill="#fff"/>
</svg>
