<svg version="1.2" xmlns="http://www.w3.org/2000/svg" viewBox="0 0 475 355" width="401" height="300"><style>tspan{white-space:pre}.s0{fill:#050038}.s1{fill:#8a7c46}.s2{fill:#272743}.s3{fill:#101010}.s4{fill:#aaaaaa}.s5{fill:#afa36b}.s6{fill:#5f8bcf;stroke:#050038;stroke-width:3}.s7{fill:#de5656;stroke:#050038;stroke-width:3}.s8{fill:#050038;stroke:#050038}.s9{fill:#ad6359}.s10{fill:#e59c66}.s11{fill:#efc2bc}.s12{fill:#ffffff}.s13{fill:#dbdbdb}.s14{fill:#e3985f}.s15{fill:#6894d9}.s16{fill:#e0955c}.s17{fill:#e49a62}.s18{fill:#e59c66;stroke:#050038;stroke-width:3}.s19{fill:#263238}.s20{fill:#252020}.s21{fill:#0d0049}.s22{fill:#9d8f56}.s23{fill:#f7941c}.t24{font-size: 15px;fill: #050038;font-weight: bold;font-family: "Palatino"}</style><path class="s0" d="m59.3 354.5l59.3-0.1l118.6-0.2l118.6 0.2l59.3 0.1l59.3 0.2l-59.3 0.3l-59.3 0.1l-118.6 0.2l-118.6-0.2l-59.3-0.1l-59.3-0.3z" /><path class="s0" d="m52.4 28.2q-0.4-2.5-0.6-5q-0.2-2.5-0.3-5q-0.1-2.5-0.1-5q0.3 1.2 0.5 2.4q0.2 1.3 0.4 2.5q0.2 1.3 0.3 2.5q0.2 1.3 0.3 2.5q0.1 1.3 0.2 2.5q0.1 1.3 0.1 2.6q0.1 1.2 0.1 2.5q0 1.2 0 2.5q-0.5-2.5-0.9-5z" /><path class="s0" d="m60.9 29.6q1-2.3 2-4.6q1.1-2.3 2.2-4.5q1.2-2.3 2.5-4.4q-0.4 1.2-0.8 2.3q-0.4 1.2-0.9 2.4q-0.5 1.2-1 2.3q-0.5 1.2-1 2.3q-0.5 1.2-1.1 2.3q-0.5 1.1-1.1 2.3q-0.6 1.1-1.2 2.2q-0.6 1.1-1.3 2.1q0.8-2.3 1.7-4.7z" /><path class="s0" d="m67.6 35.1q2-1.6 4-3.1q2.1-1.4 4.2-2.8q2.2-1.3 4.4-2.5q-1 0.8-1.9 1.6q-1 0.8-2 1.6q-1 0.8-2 1.6q-1 0.7-2 1.4q-1 0.8-2.1 1.5q-1 0.7-2.1 1.4q-1.1 0.6-2.1 1.3q-1.1 0.6-2.2 1.2q1.8-1.7 3.8-3.2z" /><path class="s0" d="m68.2 43.5q1.2-0.2 2.5-0.4q1.2-0.2 2.5-0.3q1.2-0.2 2.5-0.3q1.2-0.1 2.5-0.2q1.3-0.1 2.5-0.1q1.3-0.1 2.5-0.1q1.3 0 2.6 0q-2.5 0.6-5 0.9q-2.5 0.4-5 0.6q-2.5 0.3-5 0.4q-2.6 0.1-5.1 0q1.3-0.2 2.5-0.5z" /><path class="s0" d="m42.5 53q-0.9 0.8-1.9 1.6q-1 0.8-2 1.5q-1 0.8-2.1 1.5q-1 0.7-2 1.5q-1.1 0.7-2.1 1.3q-1.1 0.7-2.2 1.3q-1.1 0.7-2.2 1.3q0.9-0.9 1.9-1.7q1-0.8 2-1.6q0.9-0.8 2-1.5q1-0.8 2-1.5q1-0.7 2.1-1.4q1-0.7 2.1-1.4q1-0.7 2.1-1.3q1.1-0.7 2.2-1.3q-0.9 0.9-1.9 1.7z" /><path class="s0" d="m40 46.1q-1.3 0.2-2.5 0.4q-1.2 0.2-2.5 0.4q-1.2 0.1-2.5 0.2q-1.3 0.1-2.5 0.2q-1.3 0.1-2.5 0.2q-1.3 0-2.6 0q-1.2 0-2.5 0q2.5-0.5 5-0.9q2.5-0.3 5-0.6q2.5-0.2 5-0.3q2.5-0.1 5.1-0.1q-1.3 0.3-2.5 0.5z" /><path class="s0" d="m41.2 38.9q-1.2-0.4-2.3-0.9q-1.2-0.5-2.4-1q-1.1-0.4-2.3-1q-1.1-0.5-2.3-1.1q-1.1-0.5-2.2-1.1q-1.1-0.6-2.2-1.2q-1.1-0.6-2.2-1.3q1.2 0.4 2.4 0.8q1.2 0.5 2.4 0.9q1.1 0.5 2.3 1q1.2 0.5 2.3 1q1.2 0.5 2.3 1.1q1.1 0.5 2.2 1.1q1.1 0.6 2.2 1.2q1.1 0.7 2.2 1.3q-1.2-0.4-2.4-0.8z" /><path class="s0" d="m45.9 33.2q-0.8-0.9-1.6-1.9q-0.8-1-1.5-2q-0.8-1-1.5-2.1q-0.7-1-1.4-2q-0.7-1.1-1.4-2.1q-0.7-1.1-1.3-2.2q-0.7-1.1-1.3-2.2q0.9 1 1.7 1.9q0.8 1 1.6 2q0.8 1 1.5 2q0.8 1 1.5 2q0.7 1 1.4 2.1q0.7 1 1.4 2.1q0.7 1.1 1.3 2.1q0.7 1.1 1.3 2.2q-0.9-0.9-1.7-1.9z" /><path class="s1" d="m272.9 136.1c0.4-2.2 12.2-14.2 17.1-16.4c11.3-5.2 74.9-3.8 78.6-0.2c14.7 14.3 38.4 82.9 38.4 82.9c0 0 8.4 1.6 13 5.7c6.8 6.2 26.3 42.2 23 48.8c-4.1 8.3-30 27.8-36.1 30.7q0 0-0.1 0.1q-0.1 0-0.2 0q-0.1 0.1-0.2 0.1q0 0-0.1 0.1c-4.9 1.4-107.5-3.2-108.7-4.8c-1.2-1.6-24.9-143.8-24.7-147z" /><path class="s2" d="m272.3 136.2c14.5-1.1 75.3-1.5 76.6-0.7c1.3 0.9 47.5 125.5 57.3 152.1q-0.1 0-0.2 0.1q0 0-0.1 0q-0.1 0.1-0.2 0.1q-0.1 0-0.2 0.1c-4.9 1.4-107.4-3.2-108.6-4.8c-1.2-1.6-24.9-143.8-24.6-146.9z" /><path class="s3" d="m329.3 124.3c-0.7-0.5 0.7-12.1 0.1-13c-0.6-0.9-17.6 0.2-18.1 0.8c-0.4 0.6-0.4 12.2-0.9 13c-0.6 0.9-4.6 0.5-5.4 0c-0.7-0.6 0-14.5 1.4-17.1c1.5-2.7 25.9-4.2 28-1.1c1.8 2.8 1.2 16.7 0.1 17.6c-0.9 1-4.6 0.3-5.2-0.2z" /><path class="s4" d="m396.5 193l-7.5 3.5l-4.1-8.7l7.5-3.5z" /><path class="s4" d="m402.2 198.9l-12.3 5.8l-4.6-9.9l12.2-5.8z" /><path class="s4" d="m394.4 198.2c8.9-4.2 17.8 0 22 9l21.2 45.2l-29.2 13.7c0 0-17-36.3-21.2-45.2c-4.2-8.9-1.7-18.6 7.2-22.7z" /><path class="s1" d="m394.4 198.2c8.9-4.2 17.8 0 22 9l21.2 45.2l-29.2 13.7c0 0-17-36.3-21.2-45.2c-4.2-8.9-1.7-18.6 7.2-22.7z" /><path class="s0" d="m397.4 200.3q0-0.2 0.1-0.5q0-0.2 0.2-0.4q0.2-0.2 0.4-0.3q0.2-0.1 0.5-0.1q0.2 0 0.5 0.1q0.2 0.1 0.4 0.2q0.2 0.2 0.3 0.4c0.1 0.3 0.2 0.7 0 1c-0.1 0.3-0.3 0.6-0.6 0.7c-0.3 0.1-0.6 0.2-1 0.1c-0.3-0.1-0.5-0.4-0.7-0.7q-0.1-0.2-0.1-0.5z" /><path class="s0" d="m387.7 217.4q0-0.3 0.1-0.5q0.1-0.3 0.2-0.4q0.2-0.2 0.4-0.3c0.5-0.3 1-0.2 1.4 0.1c0.4 0.4 0.5 0.9 0.4 1.4c-0.2 0.5-0.6 0.8-1.2 0.8c-0.5 0.1-0.9-0.2-1.2-0.7q-0.1-0.2-0.1-0.4z" /><path class="s0" d="m401.2 212.7q0-0.1-0.1-0.3q0-0.1 0.1-0.2q0-0.1 0-0.2c0.2-0.6 0.8-0.9 1.4-0.9c0.6 0.1 1 0.6 1.1 1.2c0 0.6-0.4 1.2-1 1.3c-0.6 0.1-1.2-0.1-1.4-0.7q-0.1-0.1-0.1-0.2z" /><path class="s0" d="m405.1 223.8q0-0.2 0.1-0.5q0-0.2 0.2-0.4q0.2-0.2 0.4-0.3c0.5-0.2 1-0.1 1.4 0.2c0.4 0.4 0.5 0.9 0.3 1.4c-0.1 0.5-0.6 0.8-1.1 0.8c-0.5 0.1-1-0.2-1.2-0.7q-0.1-0.2-0.1-0.5z" /><path class="s0" d="m422.2 229.7q0-0.3 0-0.5q0.1-0.2 0.3-0.4q0.2-0.2 0.4-0.3c0.4-0.2 1-0.1 1.4 0.2c0.3 0.3 0.5 0.9 0.3 1.4c-0.2 0.4-0.6 0.8-1.1 0.8c-0.5 0-1-0.3-1.2-0.7q-0.1-0.3-0.1-0.5z" /><path class="s0" d="m418.6 219q0-0.2 0-0.4q0.1-0.3 0.3-0.5q0.2-0.1 0.4-0.2c0.4-0.3 1-0.2 1.4 0.2c0.3 0.3 0.5 0.8 0.3 1.3c-0.2 0.5-0.6 0.8-1.1 0.8c-0.5 0.1-1-0.2-1.2-0.7q-0.1-0.2-0.1-0.5z" /><path class="s0" d="m413.3 208.5q0-0.3 0-0.5q0.1-0.2 0.3-0.4q0.1-0.2 0.4-0.3c0.4-0.3 1-0.2 1.4 0.2c0.3 0.3 0.5 0.8 0.3 1.3c-0.2 0.5-0.6 0.8-1.1 0.9c-0.5 0-1-0.3-1.2-0.8q-0.1-0.2-0.1-0.4z" /><path class="s0" d="m405.3 204.2q0-0.2 0.1-0.4q0.1-0.3 0.2-0.5q0.2-0.1 0.4-0.3c0.5-0.2 1-0.1 1.4 0.3c0.4 0.3 0.5 0.8 0.3 1.3c-0.1 0.5-0.6 0.8-1.1 0.8c-0.5 0.1-1-0.2-1.2-0.7q-0.1-0.2-0.1-0.5z" /><path class="s0" d="m409.5 216.3q-0.1-0.1-0.1-0.3q0-0.1 0-0.2q0.1-0.1 0.1-0.2c0.2-0.6 0.8-0.9 1.4-0.9c0.5 0.1 1 0.6 1 1.2c0.1 0.6-0.3 1.1-0.9 1.3c-0.6 0.1-1.2-0.1-1.5-0.7q0-0.1 0-0.2z" /><path class="s0" d="m392.6 209q-0.1-0.3 0-0.5q0.1-0.2 0.3-0.4q0.1-0.2 0.4-0.3c0.4-0.2 1-0.1 1.3 0.2c0.4 0.3 0.6 0.9 0.4 1.4c-0.2 0.4-0.6 0.8-1.1 0.8c-0.5 0-1-0.3-1.2-0.7q-0.1-0.3-0.1-0.5z" /><path class="s0" d="m396.4 220.9q-0.1-0.1-0.1-0.2q0-0.2 0.1-0.3q0-0.1 0-0.2c0.2-0.6 0.8-0.9 1.4-0.8c0.6 0.1 1 0.6 1 1.2c0.1 0.6-0.3 1.1-0.9 1.2c-0.6 0.2-1.2-0.1-1.4-0.7q-0.1-0.1-0.1-0.2z" /><path class="s0" d="m413.8 227.1q0-0.1 0-0.2q0-0.2 0-0.3q0-0.1 0-0.2c0.2-0.6 0.8-0.9 1.4-0.8c0.6 0.1 1 0.5 1 1.1c0.1 0.6-0.3 1.1-0.9 1.3c-0.6 0.1-1.2-0.1-1.4-0.7q-0.1-0.1-0.1-0.2z" /><path class="s0" d="m405.8 241.9q-0.1-0.2-0.1-0.3q0-0.1 0-0.2q0.1-0.2 0.1-0.3c0.2-0.5 0.8-0.9 1.4-0.8c0.6 0.1 1 0.6 1 1.2c0.1 0.6-0.3 1.1-0.9 1.3c-0.6 0.1-1.2-0.2-1.5-0.7q0-0.1 0-0.2z" /><path class="s0" d="m409.9 250.3q0-0.1 0-0.2q0-0.1 0-0.3q0-0.1 0.1-0.2c0.2-0.6 0.8-0.9 1.3-0.8c0.6 0.1 1.1 0.6 1.1 1.2c0 0.6-0.4 1.1-0.9 1.2c-0.6 0.2-1.2-0.1-1.5-0.6q0-0.2-0.1-0.3z" /><path class="s0" d="m417.4 236.6q0-0.1 0-0.2q0-0.1 0-0.2q0-0.2 0.1-0.3c0.2-0.5 0.7-0.9 1.3-0.8c0.6 0.1 1.1 0.6 1.1 1.2c0 0.6-0.4 1.1-1 1.3c-0.5 0.1-1.1-0.2-1.4-0.7q-0.1-0.1-0.1-0.3z" /><path class="s0" d="m429.2 247.1q-0.1-0.2 0-0.5q0.1-0.2 0.3-0.4q0.1-0.2 0.4-0.3c0.4-0.2 1-0.1 1.4 0.2c0.3 0.4 0.5 0.9 0.3 1.4c-0.2 0.5-0.6 0.8-1.1 0.8c-0.5 0-1-0.2-1.2-0.7q-0.1-0.2-0.1-0.5z" /><path class="s0" d="m409.1 234.3q0-0.1 0-0.3q0-0.1 0-0.2q0-0.1 0.1-0.3c0.2-0.5 0.7-0.9 1.3-0.8c0.6 0.1 1.1 0.6 1.1 1.2c0 0.6-0.4 1.1-0.9 1.3c-0.6 0.1-1.2-0.2-1.5-0.7q0-0.1-0.1-0.2z" /><path class="s0" d="m413.3 243.6q0-0.1 0-0.3q0-0.1 0-0.2q0-0.1 0.1-0.3c0.2-0.5 0.7-0.9 1.3-0.8c0.6 0.1 1.1 0.6 1.1 1.2c0 0.6-0.4 1.1-1 1.3c-0.5 0.1-1.1-0.2-1.4-0.7q0-0.1-0.1-0.2z" /><path class="s0" d="m417.6 252.8q0-0.1 0-0.3q0-0.1 0-0.2q0-0.1 0.1-0.2c0.2-0.6 0.7-0.9 1.3-0.9c0.6 0.1 1.1 0.6 1.1 1.2c0 0.6-0.4 1.2-0.9 1.3c-0.6 0.1-1.2-0.1-1.5-0.7q0-0.1-0.1-0.2z" /><path class="s0" d="m413.8 259.5q0-0.2 0.1-0.5q0.1-0.2 0.2-0.4q0.2-0.2 0.4-0.3c0.5-0.2 1-0.1 1.4 0.2c0.4 0.4 0.5 0.9 0.4 1.4c-0.2 0.5-0.7 0.8-1.2 0.8c-0.5 0-0.9-0.3-1.2-0.7q-0.1-0.2-0.1-0.5z" /><path class="s0" d="m425.2 238.4q0-0.3 0.1-0.5q0.1-0.2 0.3-0.4q0.1-0.2 0.4-0.3c0.4-0.2 1-0.2 1.3 0.2c0.4 0.3 0.6 0.9 0.4 1.3c-0.2 0.5-0.6 0.9-1.1 0.9c-0.5 0-1-0.3-1.2-0.7q-0.1-0.3-0.2-0.5z" /><path class="s0" d="m421.5 245.2q0-0.3 0-0.5q0.1-0.3 0.3-0.4q0.1-0.2 0.4-0.3c0.4-0.3 1-0.2 1.3 0.1c0.4 0.4 0.6 0.9 0.4 1.4c-0.2 0.5-0.6 0.8-1.1 0.8c-0.5 0.1-1-0.2-1.2-0.7q-0.1-0.2-0.1-0.4z" /><path class="s0" d="m406.4 257.8q0-0.3 0.1-0.5q0.1-0.2 0.2-0.4q0.2-0.2 0.4-0.3c0.5-0.2 1-0.1 1.4 0.2c0.4 0.3 0.5 0.9 0.3 1.4c-0.1 0.4-0.6 0.8-1.1 0.8c-0.5 0-1-0.3-1.2-0.7q-0.1-0.3-0.1-0.5z" /><path class="s0" d="m425.4 254.4q0-0.1 0-0.2q0-0.1 0-0.3q0-0.1 0.1-0.2c0.2-0.6 0.8-0.9 1.3-0.8c0.6 0.1 1.1 0.6 1.1 1.2c0 0.6-0.4 1.1-0.9 1.2c-0.6 0.2-1.2-0.1-1.5-0.6q0-0.1-0.1-0.3z" /><path class="s0" d="m397.8 240q0-0.1-0.1-0.3q0-0.1 0.1-0.2q0-0.1 0-0.2c0.2-0.6 0.8-0.9 1.4-0.8c0.6 0 1 0.5 1 1.1c0.1 0.6-0.3 1.2-0.9 1.3c-0.6 0.1-1.2-0.1-1.4-0.7q-0.1-0.1-0.1-0.2z" /><path class="s0" d="m402 248.9q-0.1-0.1-0.1-0.2q0-0.2 0-0.3q0.1-0.1 0.1-0.2c0.2-0.6 0.8-0.9 1.4-0.8c0.6 0.1 1 0.6 1 1.1c0.1 0.6-0.3 1.2-0.9 1.3c-0.6 0.2-1.2-0.1-1.5-0.7q0-0.1 0-0.2z" /><path class="s0" d="m401.2 232.7q-0.1-0.2-0.1-0.3q0-0.1 0-0.2q0-0.2 0.1-0.3c0.2-0.5 0.8-0.9 1.4-0.8c0.5 0.1 1 0.6 1 1.2c0 0.6-0.4 1.1-0.9 1.3c-0.6 0.1-1.2-0.2-1.5-0.7q0-0.1 0-0.2z" /><path class="s0" d="m392.3 229.9q0-0.1 0-0.3q0-0.1 0-0.2q0-0.1 0.1-0.2c0.2-0.6 0.8-1 1.3-0.9c0.6 0.1 1.1 0.6 1.1 1.2c0 0.6-0.4 1.1-0.9 1.3c-0.6 0.1-1.2-0.2-1.5-0.7q0-0.1-0.1-0.2z" /><path class="s5" d="m441 253.1c-2.5 12.1-29.3 25.1-31.1 25c-1.9 0-19.7-44.1-19.7-44.1c0 0 21.7-7.2 31.5-19.8c0 0 20.1 35.1 19.3 38.9z" /><path class="s6" d="m238.7 319.4q0.3-1.2 0.5-2.3c1.9-8.9 3.6-16.6 4.9-22.7l3.3-15.2h108q0 0 0 0.1q0 0 0 0q0 0 0 0.1q0 0 0 0c-0.3 1-1.8 6.4-4.1 14.8c-3.7 13.5-9.5 34.8-15.8 59h-103.9c2.6-12.2 5-23.6 7.1-33.8z" /><path class="s7" d="m336.4 294.3q0.3-0.9 0.6-1.8q0-0.2 0.1-0.3q0.2-0.1 0.3 0q0.2 0 0.3 0.2q0 0.1 0 0.3l-0.4 1.6q-7.7 29.5-15.6 58.9h-1.9c5.4-19.7 10.9-39.3 16.6-58.9z" /><path class="s6" d="m261.8 294.5q-0.6-1.8-1.2-3.7q-0.5-1.9-1-3.8q-0.4-1.9-0.8-3.8q-0.4-1.9-0.7-3.8h125.6q0.9 1.8 1.7 3.6q0.7 1.8 1.5 3.6q0.7 1.8 1.4 3.6q0.7 1.9 1.3 3.8c4.7 13.7 10.1 35.7 7.5 59.2h-101.3c-0.4-2.1-0.6-3.4-0.6-3.8q0 0 0 0q0 0 0 0q0-0.1 0-0.1q0 0 0 0" /><path class="s8" d="m295.2 349.4q0 0 0.1 0q0-0.1 0-0.1q0.1 0 0.1 0.1q0.1 0 0.1 0q0 0 0 0.1q0 0 0 0q0 0 0 0q0 0 0 0c0.3 0.9 0.6 2.2 1 3.7h-1.1q-0.1-0.5-0.1-0.9q-0.1-0.5-0.1-1q0-0.4 0-0.9q-0.1-0.5 0-0.9c0-0.1 0-0.1 0-0.1z" /><path class="s8" d="m373.9 285.4q0-0.1 0.1-0.2q0.2 0 0.3 0q0.2 0.1 0.2 0.2q2.4 4.2 4.3 8.7q2.4 5.3 4.1 10.8q1.7 5.6 2.8 11.2q1.1 5.7 1.6 11.5q0.5 5.8 0.4 11.6q0 1.8-0.1 3.5q-0.1 1.8-0.3 3.5q-0.1 1.8-0.3 3.5q-0.3 1.8-0.5 3.5h-1.8q0.4-2.4 0.7-4.8q0.7-6.9 0.6-13.8q-0.2-7-1.1-13.8q-1-6.9-2.8-13.6q-1.8-6.7-4.4-13.1c-1.2-2.9-2.4-5.6-3.8-8.4q-0.1-0.1 0-0.3z" /><path class="s8" d="m296.2 331q-0.3 0.7-0.8 1.3q-0.4 0.6-1 1.1q-0.6 0.4-1.3 0.7q-0.7 0.3-1.4 0.5c0.2 0.8 0.3 1.6 0.4 2.5c0.3 1.2 0.5 2.4 0.8 3.6c0.2 1.3 0.4 2.5 0.6 3.8q0.1 0.4 0.1 0.9q0.1 0.4 0.1 0.9q0.1 0.5 0.1 0.9q0 0.5 0 1q0 0-0.1 0.1q0 0-0.1 0q0 0.1-0.1 0q0 0-0.1 0q-0.2-0.5-0.4-0.9q-0.2-0.4-0.4-0.9q-0.1-0.4-0.3-0.9q-0.1-0.4-0.2-0.9q-0.1-0.5-0.2-0.9q-0.2-0.5-0.3-1q-0.1-0.4-0.1-0.9q-0.1-0.5-0.2-0.9q-0.3-2-0.4-3.9c-0.1-0.8-0.2-1.6-0.2-2.5q-0.2 0-0.3 0q-0.1 0-0.3 0q-0.1 0-0.2 0q-0.2 0-0.3-0.1c-3-0.6-5-3-6.2-5.7q-0.5-1.3-0.9-2.5q-0.3-1.3-0.7-2.6q-0.3-1.2-0.5-2.5q-0.2-1.3-0.4-2.6c-0.5-3.9-0.8-7.7-1.1-11.5q-0.1-1.6-0.1-3.1q-0.1-1.5-0.1-3q0-1.5 0-3q0-1.5 0.1-3c0.1-4.1 0.7-8.1 0.9-12.1c0-0.3 0.4-0.3 0.4 0c-0.2 4 0.2 19.8 0.6 23.7c0.7 6.6 1.4 13.5 3.4 19.8c0.8 2.5 3.3 5.9 6.4 5.6c3.4-0.3 3.9-5.3 4.1-7.9q0.1-1.2 0.1-2.5q0-1.3 0-2.6q0-1.2 0-2.5q-0.1-1.3-0.1-2.6q-0.2-5.3-0.3-10.6c-0.2-7.2-0.4-14.3-0.3-21.4q0-0.1 0.1-0.2q0.1-0.1 0.2-0.1q0.1 0 0.2 0.1q0.1 0.1 0.1 0.2c0.8 9.1 1.2 18.4 1.6 27.6c0.2 3.9 0.5 7.8 0.6 11.7c0.1 3.3 0 6.8-1.5 9.8z" /><path class="s9" d="m299.6 144.6c-13.1 16.5-64.5 74.7-93.1 80.2c-19.2 3.6-81-27.8-94.5-39.2c-5.6-4.7 25.4-50.8 32.9-48.9c8.2 2 52.7 31.6 58.5 31.2c5.7-0.3 51.3-25.9 78.9-37.3c16.5-6.8 24.6 4.8 17.3 14z" /><path class="s10" d="m129 196.6c-11.9-4.6-48-29.9-53.9-36.4c-6-6.6-21.9-26.7-17.3-31.8c4.5-5.1 9.6 0.4 9.6 0.4c0 0-6-10.4-0.2-14.3c4.5-3.1 12.1 4.3 12.1 4.3c0 0-6-11.7 0.2-14.8c5.6-2.9 11.8 7.2 11.8 7.2c0 0-4-10.4 1.9-12.1c7.2-2 14.1 15.8 21.3 22.6c1.6 1.5 49.6 25 49.6 25z" /><path class="s11" d="m91.5 110.6c6.6 12.9 9.7 18 20.9 26.2c0.2 0.2 0 0.5-0.2 0.4c-11.7-7.1-15.8-12.9-21.3-26.4c-0.3-0.6 0.3-0.8 0.6-0.2z" /><path class="s11" d="m79.5 118.8c6.5 13.2 11.5 18.2 22.6 27.6q0 0.1 0 0.1q0 0.1 0 0.2q-0.1 0-0.1 0q-0.1 0.1-0.2 0c-11.6-8.3-18-13.8-22.8-27.8c-0.2-0.6 0.1-0.7 0.5-0.1z" /><path class="s11" d="m68 129.3c7.2 12.3 12.3 18.3 24.2 26.1q0.1 0.1 0.2 0.2q0 0.1-0.1 0.2q0 0.1-0.1 0.1q-0.1 0-0.2 0c-13-6.8-19.3-14.3-24.3-26.4c-0.4-0.8-0.2-1 0.3-0.2z" /><path class="s12" d="m53.2 43.6q45.5 13.8 92.9 27.7c-12.4 40.6-15.1 81.2-33.2 121.9c-30.2-9.2-61.2-18.5-92.8-27.7c12.4-40.6 15-81.3 33.1-121.9z" /><path fill-rule="evenodd" class="s0" d="m34.3 104.6c4.4-20.3 9.5-40.7 18.5-61.1q0.1-0.2 0.2-0.4l0.4 0.1q45.5 13.8 92.9 27.5l0.5 0.2l-0.2 0.5c-12.4 40.6-15.1 81.3-33.3 121.9l-0.2 0.3l-0.3-0.1q-22.8-7-45.9-14q-23.2-6.9-46.8-14c6.1-20.3 9.7-40.5 14.2-60.9zm32.8 74.6q23.1 6.8 45.6 13.5c17.8-40.3 20.5-80.7 32.7-121.1c-31.3-9.2-62.1-18.3-92.1-27.5c-8.9 20.1-14 40.2-18.5 60.4c-4.5 20.4-8.4 40.7-14.7 61q23.8 6.8 47 13.7zm-13.6-135.5l-0.5 0.3q0.1 0 0.3 0.1q0.1-0.2 0.2-0.4zm92.4 28.1l-0.4-0.7q-0.1 0.2-0.1 0.5q0.2 0.1 0.5 0.2zm-33.3 121.3l0.4-0.3q-0.1 0-0.3-0.1q0 0.2-0.1 0.4z" /><path class="s13" d="m128.6 100q-27-7.7-53.6-15.3c0.3-1.1 0.5-2.1 0.8-3.2q26.6 7.7 53.5 15.4q-0.4 1.6-0.7 3.1z" /><path class="s13" d="m126.8 107.9q-27-7.6-53.8-15.3l0.8-3.2q26.7 7.7 53.7 15.4q-0.3 1.6-0.7 3.1z" /><path class="s13" d="m124.6 115.5q-27-7.7-53.8-15.4l0.8-3.1q26.7 7.7 53.7 15.4q-0.3 1.6-0.7 3.1z" /><path class="s13" d="m123.4 123.7q-39.6-11.2-79.1-22.5q0.4-1.5 0.7-3.1q39.6 11.3 79.1 22.5z" /><path class="s13" d="m121.7 131.6q-39.5-11.2-79-22.5c0.2-1 0.4-2 0.6-3.1l79.1 22.5c-0.2 1.1-0.4 2.1-0.7 3.1z" /><path class="s13" d="m119.9 139.5q-39.4-11.2-79-22.5c0.3-1 0.5-2 0.7-3.1c26.3 7.5 52.8 15 79.1 22.5q-0.4 1.6-0.8 3.1z" /><path class="s13" d="m118.6 145.1q-0.1 0.4-0.2 0.8q-0.1 0.4-0.2 0.8q-0.1 0.4-0.2 0.7c-26.1-7.4-52.4-14.9-78.8-22.4q0.3-1.6 0.7-3.2q39.6 11.3 78.9 22.5q-0.1 0.4-0.2 0.8z" /><path class="s13" d="m116 155.4q-39-11.3-78.5-22.5q0.4-1.6 0.7-3.2q39.6 11.3 78.7 22.5z" /><path class="s13" d="m113.8 163.3q-38.7-11.3-78-22.5l0.7-3.2q39.4 11.3 78.2 22.5c-0.3 1.1-0.6 2.1-0.9 3.2z" /><path class="s13" d="m111.3 171.2c-25.5-7.6-51.4-15-77.5-22.5c0.3-1.1 0.6-2.1 0.8-3.2q39.3 11.3 77.7 22.5c-0.3 1.1-0.6 2.1-1 3.2z" /><path class="s13" d="m108.6 179.1q-37.9-11.3-76.8-22.5q0.4-1.6 0.8-3.2q39.1 11.3 77.1 22.5q-0.5 1.6-1.1 3.2z" /><path class="s14" d="m144.2 174.9c-3.3 0.7-16.6-6.7-18.4-9c-8.5-10.6 3.9-30.3 3.9-30.3c-9.3-10.7-14.9-30.6-7.2-31.1c6.8-0.4 19.4 18.4 24.6 24.4c5.3 5.9 16.9 17.9 16.9 17.9z" /><path class="s14" d="m130.2 137c-5 7.5-8.6 18.9-4.9 27.1q0 0.1 0 0.2q-0.1 0.1-0.1 0.1q-0.1 0-0.2 0q0 0-0.1-0.1c-5.1-8.3-1.1-21.5 3.8-28c1-1.2 2.9-1.2 1.5 0.7z" /><path class="s6" d="m176.1 149.4c7.7 3.9 23.9 16.2 26.4 16.2c2.5 0.1 72.2-32.8 78.2-35.5c5.9-2.7 37.1-8.2 16 19.8c-21.2 28-70.1 70.2-87.3 75.9c-17.1 5.8-60.4-9.8-70.9-14.4q-2.2-0.9-4-2.4q-1.8-1.5-3.1-3.5q-1.3-2-1.9-4.3q-0.7-2.2-0.6-4.6l35.1-49.8c0 0 4.4-1.2 12.1 2.6z" /><path class="s15" d="m300.1 145q-1.4 2.2-3.4 4.8c-21 27.7-69.7 69.4-86.8 75.1c-6 2-15.1 1.4-24.9-0.4z" /><path class="s0" d="m142.3 206.7q0.8-1.6 1.7-3.2q0.9-1.7 1.8-3.3q0.9-1.5 1.9-3.1q1-1.6 2-3.1q4-6.5 8.2-12.9c5.5-8.5 11.1-17.1 17.4-25.1q0 0 0.1 0q0.1-0.1 0.1 0q0.1 0 0.1 0.1q0 0 0 0.1c-4.9 8.8-10.6 17.2-16.1 25.6c-2.7 4.2-5.4 8.3-8.2 12.5c-2.8 4.2-5.5 8.6-8.7 12.6c-0.1 0.1-0.4 0-0.3-0.2z" /><path class="s6" d="m394.8 301.2c-0.1 0.1-150-6.9-150.9-7.8c-0.5-0.4-2.4-8.9-0.1-20.8c6.9-35.5 27.5-108.1 45.7-138.8c4.5-7.7 25-19 39.9-4.5c30.2 29.5 53.8 104.4 63.1 145.5c4.6 20.1 3 25.5 2.3 26.4z" /><path class="s6" d="m345.1 132.9c49 20.7 87 38.8 81.4 57.6c-2.2 7.4-14.9 27.3-31.3 27.3c-12.9 0-35.9-20.7-62.1-56.9c-13.5-18.7-18.8-41.1 12-28z" /><path class="s14" d="m384.7 81.7c0.1-9 65.8-1 64.8 7.3c-5.2 43.7-19.1 108.6-40.5 117.4c-23.3 9.6-24.5-73.7-24.3-124.7z" /><path class="s14" d="m457.8 55c-0.4 13.9-12.3 48.8-17.8 54.5c-5.5 5.7-47.2-14.3-49.5-22c-2.3-7.6-4.3-53.4 4.9-64.2c9.2-10.9 62.8 17.3 62.4 31.7z" /><path class="s10" d="m410.8 0.1c4.8 1.2 6.6 7.6 6.6 7.6c0 0 4.9-3 8.8-0.6c4.9 3 4 9.2 4 9.2c0 0 5.5-2.6 8.2-0.7c5.3 3.7 3 11.9 3.8 11.4q1.2-0.6 2.5-0.8q1.3-0.2 2.6 0q1.3 0.2 2.4 0.9q1.1 0.6 2 1.6c8.1 9 6.1 27.4 6.1 27.4c-0.4-0.3-11.3-5.3-11.3-5.3c-6.9 5.6-8.5 30.9-18.9 27c-6-2.2-5.6-12.1-5.6-12.9c-0.3 0.7-4.9 11.7-12.1 7c-6.8-4.5-2.4-17-2.2-17.7c-0.4 0.7-6.7 10.6-12.8 5.6c-6.3-5.1-1.2-18.5-1.2-18.5c0 0-5.5 8-9.1 1.5c-7.8-13.8 16.4-45.1 26.2-42.7z" /><path class="s0" d="m394.1 42c-0.2 0.5-0.8 0.1-0.7-0.4c3.6-13 12.6-25.4 23-33.7c0.2-0.1 0.3 0 0.2 0.1c-9.6 10.6-16.2 21.3-22.5 34z" /><path class="s0" d="m407.7 54.8c-0.1 0.7-0.6 0.1-0.5-0.4c2.4-15.6 12.1-29.8 22.9-38.5c0.1-0.1 0.3 0.1 0.2 0.2c-8.7 9.4-20.2 28.5-22.6 38.7z" /><path class="s0" d="m421.7 65.9q0-2.6 0.3-5.1q0.3-2.6 0.9-5.1q0.7-2.5 1.6-4.9q1-2.4 2.2-4.7c3.5-6.5 8.7-14.6 14.8-19c0.2-0.1 0.4 0.1 0.3 0.2c-9.4 11.6-16.7 24-19.5 38.7c-0.1 0.3-0.6 0.2-0.6-0.1z" /><path class="s0" d="m393.7 41.2q-0.3 1-0.5 2.1q-0.2 1-0.4 2q-0.2 1-0.3 2q-0.2 1.1-0.3 2.1q-0.1 1-0.1 2q0 1 0.1 2q0.2 1 0.4 2q0.3 0.9 0.7 1.8q0.2 0.5 0.5 0.8q0.2 0.4 0.6 0.7q0.3 0.3 0.7 0.6q0.4 0.2 0.8 0.4q0.4 0.2 0.9 0.3q0.4 0.1 0.9 0.1q0.4 0.1 0.9 0.1q0.5 0 0.9-0.1q0.9-0.2 1.8-0.6q0.8-0.4 1.6-0.9q0.7-0.6 1.3-1.3q0.6-0.7 1.1-1.5l3.2-5.1l-1.2 5.9q-0.2 1-0.4 2q-0.1 1-0.1 2q-0.1 1 0 2q0 1 0.1 2c0.3 2.6 1.4 5.1 3.4 6.5q0.7 0.5 1.5 0.8q0.8 0.2 1.7 0.2q0.8 0 1.7-0.3q0.8-0.3 1.4-0.9q0.8-0.6 1.4-1.4q0.6-0.7 1.2-1.5q0.5-0.8 1-1.7q0.4-0.8 0.7-1.8l2.6-6.6l-0.2 7.1q-0.1 0.8-0.1 1.5q0.1 0.7 0.1 1.5q0.1 0.7 0.2 1.5q0.1 0.7 0.3 1.4q0.1 0.7 0.3 1.4q0.3 0.6 0.6 1.2q0.3 0.6 0.7 1.2q0.4 0.6 0.9 1.1q0.4 0.4 1 0.7q0.6 0.3 1.2 0.4q0.6 0.2 1.2 0.1q0.7 0 1.3-0.2q0.6-0.4 1.2-0.8q0.6-0.4 1.1-0.9q0.5-0.5 0.9-1.1q0.5-0.5 0.8-1.2q0.8-1.3 1.5-2.7q0.8-1.4 1.4-2.8q0.7-1.4 1.3-2.8q0.7-1.4 1.2-2.9c0.9-1.9 1.7-3.8 2.6-5.7q0.3-0.8 0.7-1.5q0.4-0.7 0.8-1.3q0.5-0.7 1-1.3q0.5-0.6 1.1-1.1q-0.5 0.6-0.9 1.2q-0.5 0.7-0.9 1.4q-0.4 0.6-0.7 1.3q-0.3 0.8-0.6 1.5c-0.7 1.9-1.4 3.9-2.1 5.9q-0.5 1.5-1 3q-0.6 1.5-1.2 3q-0.6 1.5-1.3 2.9q-0.7 1.4-1.4 2.8q-0.4 0.8-0.9 1.5q-0.5 0.7-1.1 1.3q-0.6 0.7-1.3 1.2q-0.7 0.5-1.4 0.9q-0.9 0.4-1.8 0.5q-0.9 0.1-1.9 0q-0.9-0.2-1.8-0.6q-0.8-0.4-1.5-1.1q-0.6-0.6-1.1-1.3q-0.6-0.7-1-1.5q-0.4-0.7-0.7-1.6q-0.3-0.8-0.5-1.6q-0.2-0.9-0.3-1.7q-0.1-0.8-0.2-1.6q-0.1-0.8-0.1-1.7q-0.1-0.8-0.1-1.6l2.4 0.4q-0.4 1.1-0.9 2.1q-0.5 1.1-1.1 2q-0.7 1-1.4 1.9q-0.8 0.8-1.6 1.6q-0.5 0.4-1.1 0.7q-0.5 0.3-1.1 0.6q-0.6 0.2-1.2 0.3q-0.6 0.1-1.3 0.1q-0.6 0-1.2-0.1q-0.6-0.1-1.2-0.3q-0.6-0.2-1.2-0.5q-0.5-0.3-1-0.6c-2.8-2-4-5.3-4.3-8.2q-0.1-1.1-0.1-2.2q0-1.1 0-2.2q0.1-1.1 0.2-2.2q0.2-1.1 0.5-2.2l1.9 0.8q-0.6 1-1.4 1.9q-0.8 0.8-1.7 1.4q-1 0.7-2.1 1.1q-1 0.4-2.2 0.6q-0.5 0-1.1 0q-0.6 0-1.2-0.1q-0.5-0.1-1.1-0.3q-0.5-0.2-1.1-0.4q-0.5-0.2-1-0.6q-0.4-0.3-0.8-0.7q-0.5-0.5-0.8-1q-0.3-0.4-0.5-1c-1.2-2.8-1-5.7-0.6-8.5q0.2-1 0.4-2q0.2-1 0.5-2q0.2-1 0.6-2q0.3-1 0.7-2z" /><path class="s16" d="m389.2 90.5c0 0-33.9-62.1-2.2-62.9c7.7-0.2 38.2 12.2 36 18.4c-2.9 8-16.5 5.5-24.9 2.6c0 0 10.1 17.7-0.2 28.3q-1.4 1.5-2.7 3.1q-1.2 1.6-2.3 3.3q-1.1 1.7-2.1 3.5q-0.9 1.8-1.6 3.7z" /><path class="s0" d="m384.8 27.6q1.1-0.1 2.2 0q1.2 0 2.3 0.1q1.1 0.2 2.2 0.4q1.2 0.2 2.2 0.4q1.1 0.3 2.2 0.6q1.1 0.3 2.2 0.6q1.1 0.3 2.2 0.7q1 0.4 2.1 0.8q2.1 0.7 4.2 1.6q2.1 0.9 4.2 1.8q2.1 1 4.1 2q2 1.1 4 2.2q0.5 0.3 1 0.6q0.5 0.4 1 0.7q0.5 0.4 0.9 0.8q0.4 0.4 0.9 0.9q0.2 0.2 0.4 0.5q0.2 0.3 0.4 0.6q0.2 0.3 0.3 0.6q0.2 0.3 0.3 0.6q0 0.2 0.1 0.4q0 0.2 0.1 0.3q0 0.2 0 0.4q0 0.2 0 0.4q0 0.2 0 0.4q0 0.2-0.1 0.4q0 0.1-0.1 0.3q0 0.2-0.1 0.4q-0.2 0.6-0.6 1.2q-0.3 0.6-0.7 1.1q-0.5 0.5-1 0.9q-0.5 0.4-1.1 0.8q-0.6 0.3-1.2 0.5q-0.5 0.2-1.1 0.4q-0.6 0.2-1.2 0.4q-0.6 0.1-1.2 0.2q-1.2 0.1-2.4 0.2q-1.1 0-2.3-0.1q-1.2 0-2.4-0.2q-1.1-0.1-2.3-0.4q-1.1-0.2-2.2-0.5q-1.1-0.3-2.2-0.6q-1.1-0.3-2.2-0.6q-1.1-0.4-2.1-0.8l1.2-1.5q0.4 0.8 0.8 1.6q0.3 0.7 0.7 1.5q0.3 0.9 0.6 1.7q0.3 0.8 0.5 1.6q0.3 0.9 0.5 1.7q0.2 0.8 0.4 1.7q0.1 0.8 0.2 1.7q0.2 0.8 0.3 1.7q0 0.8 0 1.7q0.1 0.9 0 1.7q-0.1 0.9-0.2 1.7q-0.1 0.9-0.3 1.7q-0.1 0.9-0.4 1.7q-0.2 0.8-0.6 1.6q-0.3 0.8-0.7 1.5q-0.4 0.8-0.9 1.5q0.4-0.8 0.7-1.5q0.3-0.8 0.5-1.6q0.3-0.8 0.4-1.6q0.2-0.9 0.3-1.7q0.1-0.8 0.1-1.6q0.1-0.9 0.1-1.7q-0.1-0.8-0.1-1.6q-0.1-0.9-0.3-1.7q-0.1-0.8-0.3-1.6q-0.1-0.8-0.3-1.6q-0.2-0.8-0.5-1.6q-0.2-0.8-0.5-1.5q-0.3-0.8-0.6-1.6q-0.3-0.7-0.7-1.5q-0.3-0.7-0.7-1.4q-0.4-0.7-0.8-1.4l-1.4-2.4l2.6 0.8q1.1 0.4 2.1 0.7q1.1 0.3 2.2 0.5q1 0.3 2.1 0.5q1.1 0.3 2.2 0.5q1 0.2 2.1 0.3q1.1 0.1 2.1 0.2q1.1 0 2.2 0q1-0.1 2.1-0.2c2.7-0.4 5.4-1.7 6.2-3.8c0.8-1.9-1.7-4-4.1-5.5q-0.9-0.6-1.9-1.2q-0.9-0.5-1.9-1.1q-0.9-0.5-1.9-1q-1-0.5-2-1c-2.6-1.4-5.3-2.7-8-3.9c-5.6-2.2-11.1-4.5-17.1-5z" /><path class="s6" d="m382.1 94.3l68.3 14.9c0 0 4.5 13 0.6 26.4c-7.6 25.6-30.1 80.3-48.2 79.1c-19.7-1.4-24.5-69.9-24.1-103.4c0.1-11.4 3.4-17 3.4-17z" /><path class="s0" d="m383.1 112.3c2.3 0.2 39.4 7.6 62.9 14.8q0.1 0 0.1 0.1q0 0 0 0q0 0.1-0.1 0.1q0 0 0 0c-4.8-0.7-29.2-5.1-63-14.6c-0.2-0.1-0.2-0.5 0.1-0.4z" /><path class="s17" d="m317.4 126.6c-0.8 2.4-13.8 16.8-24.7 15.2c-3.5-0.5-1.5-20-1.5-20l-0.2-1.5l-2.6-20.6l28.8-14.6c0 0 0.5 40.5 0.2 41.5z" /><path class="s18" d="m311.4 21.1c19.1 5.7 35.9 24.2 20.9 66.2c-14.9 41.9-44 36-52.5 34c-9.3-2.3-34-13.5-23.5-56.7c10.5-43.3 35.9-49.2 55.1-43.5z" /><path class="s19" d="m267.8 65.5q-0.4-0.3-0.5-0.8q-0.2-0.5-0.1-1q0.1-0.4 0.5-0.8q0.4-0.3 0.8-0.6q0.5-0.3 1-0.4q0.5-0.2 1-0.3q0.5-0.1 1.1-0.1q0.5-0.1 1 0q0.5 0.1 1 0.3q0.5 0.2 0.9 0.5q0.4 0.3 0.7 0.8q0.2 0.2 0.2 0.5q0 0.2 0 0.5q0 0.2-0.2 0.5q-0.1 0.2-0.3 0.4q-0.3 0.2-0.7 0.3q-0.4 0.2-0.8 0.3q-0.4 0.1-0.8 0.1q-0.4 0-0.8 0q-0.4 0-0.8 0.1q-0.3 0-0.7 0q-0.4 0-0.8 0q-0.4 0-0.8 0q-0.5 0-0.9-0.3z" /><path class="s19" d="m299.5 72.4q-0.4-0.1-0.7-0.2q-0.4-0.2-0.7-0.3q-0.4-0.1-0.7-0.3q-0.4-0.1-0.8-0.3q-0.3-0.1-0.7-0.3q-0.4-0.1-0.7-0.3q-0.4-0.2-0.7-0.5q-0.3-0.3-0.6-0.6q-0.1-0.2-0.1-0.5q-0.1-0.3 0-0.5q0-0.3 0.2-0.5q0.1-0.2 0.3-0.4q0.4-0.3 0.9-0.5q0.5-0.1 1-0.2q0.6 0 1.1 0.1q0.5 0.1 1 0.3q0.5 0.2 0.9 0.5q0.5 0.2 0.9 0.5q0.4 0.4 0.8 0.8q0.3 0.4 0.6 0.9q0.2 0.4 0.1 0.9q0 0.5-0.4 0.9q-0.3 0.3-0.7 0.5q-0.5 0.1-1 0z" /><path class="s0" d="m286.6 102.2q0 0 0.1 0q0 0.1 0.1 0.1q0 0.1 0 0.1q-0.2 0.5-0.4 0.9q-0.3 0.4-0.6 0.8q-0.4 0.3-0.8 0.5q-0.4 0.2-0.9 0.3q-0.5 0-1.1-0.2q-0.5-0.1-1-0.4q-0.5-0.2-0.9-0.6q-0.4-0.4-0.7-0.9q0 0 0-0.1q0 0 0.1 0q0 0 0 0q0.1-0.1 0.1 0q0.4 0.2 0.7 0.4q0.4 0.1 0.8 0.3q0.4 0.1 0.8 0.2q0.4 0.1 0.9 0.2c1.1 0 1.9-0.9 2.7-1.5q0-0.1 0.1-0.1z" /><path class="s12" d="m278.1 95.4q1.3 0.1 2.5 0q1.3-0.2 2.5-0.5q1.3-0.3 2.4-0.9q0.1 0.4 0.2 0.8q0 0.4 0.1 0.8q0 0.4 0 0.8q0 0.4 0 0.8c-0.1 2-0.8 4.1-3.3 4.1q-0.4-0.1-0.9-0.1q-0.4-0.1-0.8-0.2q-0.4-0.2-0.8-0.4q-0.4-0.2-0.7-0.4q-0.6-0.5-1.2-1.1q-0.5-0.6-1-1.2q-0.5-0.7-0.9-1.4q-0.3-0.7-0.6-1.4q1.2 0.3 2.5 0.3z" /><path class="s13" d="m279.9 98.4q-0.3 0-0.6 0q-0.3 0.1-0.6 0.1q-0.3 0-0.6-0.1q-0.3 0-0.6 0q-0.2-0.3-0.4-0.5q1.4 0.2 2.8 0.5z" /><path class="s13" d="m283.3 97.9q0.4-0.1 0.8-0.3q0.4-0.2 0.9-0.3q0.4-0.2 0.8-0.4v0.3q0 0 0 0.1q0 0 0 0q0 0.1 0 0.1q0 0 0 0q-0.2 0.1-0.4 0.2q-0.2 0.1-0.4 0.2q-0.2 0-0.3 0.1q-0.2 0-0.4 0.1q-0.3 0-0.5 0.1q-0.2 0-0.5 0q-0.2 0.1-0.4 0.1q-0.3 0-0.5 0q0.4-0.1 0.9-0.3z" /><path class="s0" d="m270.7 89.3q0.7-2.3 1.5-4.5q0.8-2.3 1.6-4.5q0.9-2.2 1.8-4.4q1-2.2 2-4.3c0.1-0.3 0.6-0.1 0.5 0.2c-1.4 5.2-4.2 13.2-5 16c1 0 3.5-0.3 5-0.3c0.4 0-2.3 6.9-2.2 7.5q1.2 0.3 2.4 0.3q1.2 0.1 2.4-0.1q1.3-0.1 2.4-0.4q1.2-0.4 2.3-0.9c0.3-0.1 0.5 0.2 0.3 0.4q-1 0.9-2.3 1.6q-1.2 0.6-2.6 0.9q-1.3 0.3-2.7 0.2q-1.4-0.1-2.7-0.6h-0.1c-0.7-0.2-1.2-0.3-1.2-0.5c0.4-2.1 1.7-6.5 1.7-6.5c-0.9 0.2-5.3 0.4-5.1-0.1z" /><path class="s0" d="m297.1 81.5q-0.1 0.5-0.2 1q-0.1 0.5-0.2 1q-0.2 0.5-0.4 0.9q0-0.5 0-1q0-0.4-0.1-0.9q0-0.5 0-1q-0.1-0.5-0.2-0.9q0-0.4-0.2-0.8q-0.1-0.3-0.3-0.6q-0.3-0.3-0.6-0.5q-0.3-0.2-0.7-0.3c-0.9-0.2-1.8 0.7-2.3 1.8q-0.1 0.2-0.2 0.4q-0.1 0.2-0.1 0.4q-0.1 0.2-0.2 0.5q-0.1 0.2-0.1 0.4q-0.1 0.2-0.2 0.5q0 0.2-0.1 0.5q0 0.2 0 0.5q-0.1 0.2-0.1 0.5q-0.1-0.4-0.2-0.7q0-0.3-0.1-0.7q0-0.3 0-0.7q0-0.3 0.1-0.7q0-0.1 0-0.3q0-0.2 0.1-0.3q0-0.2 0-0.4q0.1-0.1 0.1-0.3q0.1-0.3 0.2-0.5q0.1-0.3 0.3-0.5q0.1-0.3 0.3-0.5q0.1-0.2 0.3-0.4q0.3-0.3 0.5-0.5q0.3-0.1 0.6-0.2q0.3-0.2 0.6-0.2q0.3 0 0.7 0q0.3 0.1 0.6 0.2q0.3 0.1 0.5 0.2q0.3 0.2 0.5 0.4q0.3 0.2 0.5 0.5q0.1 0.2 0.2 0.5q0.1 0.3 0.2 0.6q0.1 0.2 0.1 0.5q0.1 0.3 0.1 0.6q0 0.5 0 1z" /><path class="s0" d="m263.9 72.8q0.1-0.3 0.2-0.6q0.2-0.2 0.4-0.4q0.2-0.2 0.4-0.4q0.2-0.2 0.4-0.4q0.3-0.2 0.6-0.3q0.3-0.1 0.6-0.2q0.3 0 0.6 0q0.3 0 0.6 0.1q0.3 0.1 0.6 0.2q0.3 0.2 0.5 0.4q0.3 0.2 0.5 0.5q0.1 0.2 0.3 0.6q0.1 0.2 0.1 0.5q0.1 0.3 0.1 0.5q0.1 0.3 0.1 0.6q0 0.3-0.1 0.6q0 0.1 0 0.3q0 0.2-0.1 0.3q0 0.2 0 0.3q-0.1 0.2-0.1 0.4q-0.1 0.3-0.2 0.6q-0.2 0.4-0.3 0.7q-0.2 0.3-0.4 0.6q-0.2 0.3-0.4 0.5q0.1-0.2 0.2-0.5q0-0.2 0.1-0.4q0-0.3 0.1-0.5q0-0.3 0-0.5q0-0.3 0-0.5q0.1-0.2 0.1-0.5q0-0.2-0.1-0.4q0-0.2 0-0.5c0-1.2-0.5-2.3-1.4-2.5q-0.4-0.1-0.8 0q-0.3 0.1-0.7 0.3q-0.3 0.2-0.6 0.4q-0.3 0.3-0.5 0.7q-0.2 0.4-0.4 0.8q-0.3 0.4-0.5 0.9q-0.2 0.4-0.4 0.8q-0.2 0.5-0.3 0.9q0-0.5 0-1q0-0.5 0.1-1q0.1-0.5 0.3-1q0.2-0.5 0.4-0.9z" /><path class="s20" d="m336.6 91.1c-13.2 0.2-19.2-15.9-15.4-28.4c0 0-35.3 2.6-35.3-25.6q-2 2.7-4.6 4.9q-2.7 2.2-5.7 3.6q-3.1 1.5-6.4 2.2q-3.4 0.7-6.8 0.5l-4.5 10.2c-3.6-1.3-6.8-11.7 2.5-19.2c0 0 1.4-14 12.3-21.8q2.2-1.7 4.7-2.7q2.6-1 5.4-1.2q2.7-0.2 5.5 0.4q2.7 0.5 5.1 1.9q2.4-1.6 5-2.6q2.6-1 5.3-1.5q2.8-0.5 5.6-0.5q2.8 0 5.5 0.6c12.9 2.4 17.5 14.5 17.5 14.5c0 0 17.2 4.3 19.4 16.8q0.5 2.7 0.5 5.4q0 2.7-0.6 5.3q-0.6 2.7-1.8 5.2q-1.1 2.4-2.7 4.6c-1.1 1.4 4 5.1 1.2 15.5c-1.8 6.6-7.7 11.9-11.7 11.9z" /><path class="s21" d="m286.8 34.6q-0.1 0.9-0.2 1.7q-0.2 0.9-0.2 1.8q-0.1 0.8-0.1 1.7q0 0.8 0 1.7q0 0.8 0.1 1.7q0.1 0.8 0.2 1.7q0.1 0.8 0.2 1.7q0.2 0.8 0.4 1.6q0.4 1.6 1.1 3.1q0.7 1.6 1.7 2.9q0.9 1.4 2.1 2.5q1.2 1.2 2.6 2.1c3.7 2.6 8.3 3.3 12.7 4c2.3 0.1 4.6 0.3 6.9 0.2c2.3 0 4.6-0.2 6.9-0.3c-2.3 0.4-4.6 0.8-6.9 1.1q-0.8 0.1-1.7 0.2q-0.9 0-1.8 0.1q-0.8 0-1.7 0q-0.9 0-1.7 0c-4.7-0.5-9.5-1.1-13.6-3.9q-1.5-1-2.8-2.3q-1.2-1.3-2.2-2.8q-1-1.5-1.7-3.2q-0.7-1.6-1.1-3.4q-0.3-1.7-0.5-3.5q-0.1-1.7 0-3.5q0.1-1.7 0.5-3.5q0.3-1.7 0.8-3.4z" /><path class="s21" d="m332.3 26.4q1.7 0.1 3.3 0.4q1.6 0.2 3.2 0.7q1.6 0.5 3.2 1.1q1.5 0.6 3 1.4q1.6 0.7 2.9 1.7q1.4 1 2.6 2.3q1.2 1.2 2.1 2.7q1 1.4 1.7 3q0.3 0.8 0.5 1.6q0.2 0.8 0.4 1.6q0.1 0.9 0.2 1.7q0.1 0.9 0.1 1.7q0.1 0.9 0.1 1.7q0 0.9-0.1 1.7q-0.1 0.9-0.3 1.7q-0.2 0.8-0.4 1.7q-0.4 1.6-1.2 3.1q-0.7 1.5-1.7 2.9q-1 1.3-2.2 2.5q-1.3 1.1-2.7 2q1.3-1 2.3-2.2q1.1-1.3 1.9-2.7q0.8-1.4 1.5-2.9q0.6-1.5 0.9-3q0.4-1.6 0.5-3.2q0.1-1.6 0-3.2q-0.1-1.6-0.4-3.1q-0.4-1.6-0.9-3.1q-0.3-0.7-0.7-1.4q-0.3-0.7-0.7-1.3q-0.4-0.7-0.9-1.3q-0.5-0.7-1-1.2q-0.6-0.6-1.2-1.1q-0.6-0.6-1.2-1.1q-0.6-0.4-1.3-0.9q-0.6-0.4-1.3-0.9q-1.4-0.8-2.9-1.5q-1.5-0.7-3-1.3q-1.6-0.6-3.1-1q-1.6-0.5-3.2-0.8z" /><path class="s21" d="m293.4 15.9q-1.2-0.6-2.5-1q-1.2-0.4-2.5-0.8q-1.3-0.3-2.6-0.5q-1.3-0.2-2.6-0.3q-1.3-0.2-2.5-0.1q-1.3 0-2.6 0.2q-1.3 0.2-2.5 0.6q-1.2 0.3-2.4 0.9q-1.1 0.5-2.2 1.2q-1.1 0.7-2.1 1.6q-0.9 0.8-1.8 1.8q-0.9 0.9-1.6 1.9q-0.7 1.1-1.4 2.3q-0.7 1.1-1.3 2.3q-0.6 1.2-1.1 2.4q-0.5 1.2-0.9 2.4q0.2-1.3 0.5-2.6q0.3-1.3 0.8-2.6q0.5-1.3 1.1-2.5q0.6-1.2 1.3-2.3q0.7-1.2 1.6-2.3q0.8-1.1 1.9-2q1-0.9 2.1-1.7q1.2-0.8 2.4-1.4q1.3-0.6 2.6-0.9q1.4-0.4 2.8-0.6q1.3-0.2 2.7-0.1q1.4 0 2.8 0.2q1.3 0.2 2.6 0.6q1.3 0.3 2.6 0.8q1.3 0.5 2.5 1.1q1.2 0.6 2.3 1.4z" /><path class="s21" d="m267.8 49.8q1.5-0.4 2.9-0.9q1.5-0.5 2.8-1.2q1.4-0.6 2.7-1.4q1.4-0.7 2.6-1.6q0.6-0.4 1.2-0.9q0.6-0.4 1.1-1q0.6-0.5 1.1-1q0.5-0.5 1-1.1q0.5-0.6 0.9-1.2q0.5-0.7 0.9-1.3q0.4-0.7 0.8-1.3q0.4-0.7 0.7-1.4q-0.1 0.8-0.3 1.6q-0.2 0.7-0.5 1.5q-0.3 0.7-0.7 1.4q-0.3 0.7-0.7 1.4q-0.5 0.7-1 1.3q-0.5 0.7-1 1.2q-0.6 0.6-1.2 1.2q-0.6 0.5-1.2 0.9q-0.7 0.5-1.4 0.9q-0.7 0.4-1.4 0.8q-0.7 0.3-1.4 0.6q-0.8 0.3-1.6 0.6q-0.7 0.2-1.5 0.4q-0.8 0.2-1.6 0.3q-0.8 0.1-1.6 0.2q-0.8 0-1.6 0z" /><path fill-rule="evenodd" class="s0" d="m294.7 96.8q-0.5 0-0.9-0.1q-0.5-0.1-1-0.2q-0.5-0.2-0.9-0.3c-2-0.6-3.7-1.7-5.3-3c-1.5-1.3-2.8-3-3.7-4.8c-0.9-1.8-1.5-3.8-1.6-5.8c-0.2-2.1 0.1-4.1 0.7-6c1.9-5.7 6.8-9.8 12.7-10.6c5.8-0.8 11.7 1.9 15 6.8c3.3 4.9 3.5 11.3 0.5 16.4c-3 5.2-8.6 8.2-14.5 7.7q-0.5 0-1-0.1zm-11.3-17.1c-0.9 7 3.8 13.6 10.8 14.9c7 1.4 13.8-2.9 15.6-9.8c1.8-6.8-2.1-13.9-8.8-16.2q-0.4-0.1-0.8-0.2q-0.4-0.1-0.8-0.2q-0.4-0.1-0.9-0.1q-0.4-0.1-0.8-0.1c-7.1-0.5-13.3 4.6-14.3 11.7z" /><path fill-rule="evenodd" class="s0" d="m261.7 90.2q-0.1 0-0.2 0q-0.1 0-0.3-0.1q-0.1 0-0.2 0c-6.3-1.2-10.1-9-8.5-17.4q0.2-1.5 0.7-2.8q0.5-1.4 1.1-2.7q0.7-1.3 1.6-2.4q0.8-1.2 1.9-2.2c1.1-1.2 2.5-2.2 4.1-2.7c1.5-0.5 3.2-0.7 4.9-0.4c1.6 0.4 3.1 1.1 4.4 2.2c1.3 1 2.3 2.4 2.8 4q0.6 1.3 1 2.7q0.4 1.4 0.5 2.8q0.2 1.5 0.1 2.9q-0.1 1.5-0.4 2.9c-1.5 7.9-7.3 13.6-13.2 13.2q-0.1 0-0.3 0zm2.1-28.6q-0.9 0.2-1.7 0.5q-0.8 0.4-1.6 0.9q-0.7 0.5-1.3 1.1q-0.9 0.9-1.7 2q-0.8 1-1.3 2.1q-0.6 1.2-1 2.4q-0.4 1.2-0.7 2.5c-1.3 7.3 1.7 14 6.9 15c5.1 0.9 10.4-4.2 11.8-11.5q0.3-1.3 0.3-2.5q0.1-1.3 0-2.6q-0.2-1.3-0.5-2.5q-0.3-1.2-0.8-2.4q-0.4-0.9-1-1.8q-0.6-0.8-1.3-1.4q-0.8-0.7-1.7-1.1q-0.9-0.5-1.8-0.7q-0.1 0-0.2-0.1q-0.1 0-0.2 0q-0.1 0-0.2 0q-0.1 0-0.2 0q-0.9 0-1.8 0.1z" /><path class="s0" d="m274.9 76.4l-1-1.4c3.7-2.8 7.8 0.3 9.5 2.3l-1.4 1.1c-0.1-0.2-3.7-4.5-7.1-2z" /><path class="s0" d="m338.5 85.6c-2.7-1-20.8-2.8-27.5-3.5l0.1-1.7c1 0.1 24.5 2.3 28 3.5c3.7 1.4 5.9 8.3 6.1 9.1l-1.7 0.5c-0.5-1.9-2.5-7-5-7.9z" /><path class="s14" d="m323.1 89.3c0 0 11.8-12.3 17.5-7.9c5.7 4.3-4.6 23.2-12.3 24.8q-1.5 0.4-3 0.2q-1.6-0.2-2.9-1q-1.3-0.8-2.2-2q-0.9-1.2-1.3-2.7z" /><path class="s0" d="m323 101.2l-0.1 0.1c-0.2 0.5 0.6 0.9 0.9 0.5q0.3-0.5 0.7-1q0.3-0.5 0.7-1q0.4-0.4 0.8-0.9q0.4-0.4 0.8-0.8q0.5-0.5 1.2-0.9q0.6-0.3 1.3-0.4q0.7-0.1 1.4 0q0.8 0.1 1.4 0.4q0.1 0.1 0.1 0.1q0.1-0.1 0.1-0.1q0-0.1 0-0.1q0-0.1 0-0.1c-2.3-2.2-4.5-1.5-6.3 0.2c2.6-4.7 6-9 11.5-10.3q0 0 0 0q0.1-0.1 0.1-0.1q0 0-0.1-0.1q0 0 0 0c-7.1-0.4-13.6 7.9-14.5 14.5z" /><path class="s5" d="m328.9 209.1c5.8 26 64.3 62.4 67.1 65.7c2 2.3 3.6 9.7 2.4 12.3c-3 6.3-84.2-38.9-89.1-80.8c-5-41.9 10.2-80.5 13.3-83c3-2.5 14.6 4.1 12.8 6.3c-4.7 5.7-11.7 56.4-6.5 79.5z" /><path class="s22" d="m272.1 168.2c-12.5 30.8-22.4 69.6-22.4 69.6c0 0 6.3-28.3 7.4-38.8c2.9-26.2 19.7-66.2 21.1-68.7c1.4-2.5 13.9-6.2 11.5-1.6c-0.9 1.6-9.2 18.5-17.6 39.5z" /><path class="s23" d="m53.3 92.8l-3.4-10.1l3.5-0.8l1.9 5.9l14.9-7.3l1.8 3.1z" /><text style="transform: matrix(.956,.292,-0.292,.956,60.262,66.235)" ><tspan x="0" y="0" class="t24">NAS - 2021
</tspan></text><path fill-rule="evenodd" class="s12" d="m76 379.7q-0.9 0-1.8-0.1c-6-0.6-13-4.7-18.3-7.4c-4.4-2.3-11.5-6.5-12.3-12.3c-0.3-1.5 0.1-3.2-0.1-4.8c-0.2-1-0.9-2.2-0.9-3.2c-0.3-3.5 1.4-3.4 3.8-2.2c1.1-5.6 5.1-6 9.7-8q1.7-0.6 3.4-1.2q1.7-0.6 3.4-1.2q1.7-0.5 3.4-0.9q1.8-0.5 3.6-0.8c2-0.5 4.2-1.4 5.9 0.3c0.7 0.8 0.5 2.2 1.2 2.9c0.8 0.9 1.6 0.9 2.7 1.3c5.3 2 10.7 4 15.9 6.4c5.6 2.5 11.2 5.2 16.7 8c3.6 2 9.8 3.3 9.4 8.9c-0.6 6.8-8.1 7.2-12.9 8.1c-2.9 0.6-5.7 1.3-8.6 2.1c-1.5 0.4-5 0.3-6.2 1.5c-5.8 0.3-12.1 2.6-18 2.6zm-3-35.8q-0.3 0-0.5 0q-0.3 0-0.5 0.1q-0.2 0-0.5 0q-0.2 0.1-0.4 0.2c-2.2 0.5-4.4 1.3-6.7 1.9c-2.8 0.7-5.5 1.9-8.4 2.5c-3 0.7-5.5 0.5-8 2.8c5.2 4.1 10.4 8.5 15.9 12.1q3.9 2.5 7.7 5.1c2 1.3 3.9 3.8 6.1 3.7c2.7 0 6.9-2.4 9.4-3.5q1-0.4 2.1-0.8q1-0.4 2-0.7q1.1-0.4 2.1-0.7q1.1-0.3 2.2-0.6c3.9-0.9 11-1.1 14.1-4.1c-10.7-5.2-22.1-9.5-32.2-15.9c-2.2-1.3-2.9-2.1-4.4-2.1zm-16.6 22.3q-1.7-1.3-3.4-2.7q-1.8-1.4-3.4-2.8q-1.7-1.4-3.3-2.9c-1.4 4.8 10.2 10.9 13.7 11q-1.8-1.2-3.6-2.6zm25.7-7.3c-0.1-1.7 1.7-1.5 2.3-0.3zm90-3.1q-0.8 0.2-1.6 0.4q-0.7 0.1-1.6 0.2q-0.8 0-1.6 0c-2.1 0-4.2-0.2-6.6-0.3c-8.3-0.5-16.8-1.2-25.2-2.1c-7.9-0.9-15.7-2.5-23.5-4c-4-0.7-10-0.4-13.7-2.4c-3.7-2.1-4.1-8.1-4.2-12.1c-0.1-7.9 5.9-11.3 11.4-14.6c4-2.4 2.6-4.2 3.3-8.8c0.8-4.4 1.6-9.2 6.2-9.4c-0.5-1.9 0.9-2.9 1.4-4.4c-3.3-0.8-9.1 0.2-11.7-2.8c-1.9-2.2-0.9-9.5-0.1-12.2c2.5-9.3 14.6-6.4 21.3-5.9c7.8 0.7 15.6 0.9 23.3 2.4c6.6 1.3 12.3 4.5 19 3.3q2.2-0.4 4.5-0.5q2.3-0.2 4.6-0.3q2.2 0 4.5 0.2q2.3 0.2 4.5 0.5l1.9 0.1q-0.1 0-0.1 0q-0.1 0.1-0.1 0.1q-0.1 0-0.2 0q0 0.1-0.1 0.1q0.1 0 0.2 0q0.1 0 0.2-0.1q0.1 0 0.2 0q0.1 0 0.2-0.1q0.2 0 0.3-0.1q0.2 0 0.4 0q0.2 0 0.3 0q0.2 0.1 0.4 0.2c1.4 0.8 1.4 3.1 1.4 4.6c-0.1 1.6-0.6 3.3-0.8 4.9q0 0.4-0.1 0.7q0 0.3-0.1 0.7q0 0.3 0 0.7q-0.1 0.3-0.1 0.6c0.3 1.2 0.3 1.1 0.4 0.9c0.1-0.1 0.3-0.2 0.7 0.4c0.8 1.2 2.7 2.7 2 4.7c-0.6 1.8-1 0.8-2.4 0.6c-3.3-0.6-6.7-2.7-10.1-2.2c-3 0.4-5.8 1.9-8.8 2.2c-3.2 0.4-6.3 0.6-9.3 1.2c-6.4 1.4-13.9-1.1-20.1-2c-7.6-1.2-15.2-1.4-22.8-2.7c-0.1 3.8-4.3 4.8 1.4 5c5.1 0.2 10.1 0.6 15.1 1.1c6.7-0.1 14.1 0.3 20.5 2c2.9 0.7 7.9 1.7 10.3 3.9c2.5 2.2 1.8 5.1 1.3 8.2q-0.2 0.6-0.3 1.2q-0.1 0.6-0.1 1.1q-0.1 0.6-0.1 1.2q0 0.6 0.1 1.2c0.3 2.2 0.1 2.2 1.2 2.1q0.1 0 0.3 0q0.1 0 0.2 0q0.2 0 0.3 0q0.1 0 0.3 0c2.6 0.1 6.8-1.8 9.5-2.5c1.7-0.4 3.4-0.9 5.2-1.3c2.3-0.6 2.3-0.2 3-2.3c0.4-1.3-0.1-2.8 0.1-4.2q0-0.5 0.2-1.1q0.1-0.6 0.2-1.2q0.2-0.6 0.4-1.2q0.2-0.5 0.4-1.1c-4 0.7-17.6 4.8-20.5 0.1c3.8-1.8 28.4-10.7 27.8-2.2c-0.3 3.5-5 6.2-5.1 10.4c0 2.3 5.4 5.6 1.4 8.4c2.3 0 5.8 0.5 5.9 3.8c0.1 1.8-1.8 3.4-1.2 5.4c0.3 1.3 2.5 2.3 3.1 3.6c3.9 8.3-9.6 9.9-14 11.2c-4.5 1.2-8.7 2.4-13 4.1q-0.8 0.2-1.6 0.4zm22.9-17.2q-0.4-1.1-0.5-2.2q-0.1-1.1 0.1-2.2q0.1-1 0.5-2.1c-7.2 3.3-14.8 3.9-22.1 6.7c-3 1.1-6 1.2-7.2 4.4c-0.8 2.3-0.6 6.4-0.3 8.8c4.7-1.9 9.2-4.4 14-6.3c5.4-2 11.1-2.9 16.4-5.2q-0.6-0.9-0.9-1.9zm-92.2-6.6q-0.4-0.1-0.7-0.1q-0.4-0.1-0.8 0q-0.4 0-0.8 0q-2.4-0.1-1.5 2.5q-0.1 0.7-0.2 1.3q0 0.7 0 1.3q-0.1 0.7 0 1.3q0 0.7 0.1 1.3q-0.1 0.4 0 0.7q0 0.3 0.1 0.7q0.1 0.3 0.2 0.6q0.2 0.3 0.4 0.6c0.7 0.7 1.9 0.5 3.9 0.7c6.4 0.5 12.6 2 19 2.7c6.4 0.8 12.6 1.2 18.9 1.6c4 0.3 7.9 1.2 11.8 1.8c2.5 0.4 6.7 2.8 9 2.6c-0.6-2.5 0.9-8.2-0.4-9.9c-1.6-2-5.5-1.6-7.6-2c-5.6-0.8-11.1-1.6-16.6-2.5c-11.4-1.8-22.5-4.7-34-5.1q-0.4-0.1-0.8-0.1zm69.3-1.5q-0.2 0-0.3 0q-0.2 0-0.4 0.1q-0.1 0-0.3 0q-0.2 0-0.4 0.1q-1.8-0.9-2.2 1l-0.8 0.6c-3.1 0.9-6.5 0.1-9.6-0.3q-2.5-0.3-5-0.7q-2.5-0.5-5-0.9q-2.4-0.5-4.9-1.1q-2.4-0.5-4.9-1.2c-6.2-1.5-12.7-1.6-19-3.2c-2.6-0.6-5.2-2.1-7.7-1c-1.3 0.5-2.5 1.8-3.8 2.5c-1.1 0.5-3.1 0.8-4 1.8c11.1 0 22.1 2 33.2 3.4l0.7 0.1l-0.7-0.1q2.6 0.4 5.2 0.6c6.6 0.9 12.9 2.4 19.4 3.7c2.9 0.6 4.7-0.4 7.4-1.7c1.1-0.5 7-2.7 6.9-3.4c-1.1 0-2.5-0.3-3.8-0.3zm-48.5-21.7q-1.1-0.1-2.2-0.2q-1.1-0.2-2.3-0.3q-1.1-0.1-2.2-0.1c-3.6 0-4.1 2-4.5 5.6c-0.2 0.9-0.9 4-0.4 5.1l2.8 0.2q-0.1 0-0.2 0q-0.2 0-0.3 0q-0.1 0-0.2 0q-0.2 0-0.3 0q-0.2 0.1-0.4 0.1q-0.2 0-0.5 0q-0.2 0-0.4-0.1q-0.2-0.1-0.4-0.1q0 0 0 0q0 0 0 0q0 0 0 0q0 0 0 0.1c0.5 0.5 2.5 0.4 3.7 0.4q0.5 0 0.7 0c2.2 0.2 4.4 0.4 6.6 0.7q1.4 0.2 2.8 0.3q2.3 0.1 4.5 0.3q2.2 0.3 4.4 0.5q2.3 0.3 4.5 0.6q2.2 0.4 4.4 0.8q0.9 0.2 1.8 0.4c6.2 1.4 13.2 2.7 19.5 2.3c-1-3.8 0-7.7 0.8-11.5c-13.3-2.7-26.6-3.3-40-4.7q-1.1-0.2-2.2-0.4zm59.4-16.2q0.1 0 0.2 0q0.1-0.1 0.2-0.1q0.1 0 0.2 0q0.4 0 0.8 0.1c1.3 0 2.5 0.1 2.9-1.4q0-2 0.2-4.1c-5.4-0.2-11.1-1-16.4 0.3c-2.1 0.6-6.6 1.4-7.5 3.1c-1 1.7-0.6 6-0.7 7.8c4.2-1.3 8.5-2.5 12.8-3.8q0.8-0.3 1.7-0.6q0.9-0.2 1.8-0.5q0.9-0.2 1.8-0.4q0.9-0.2 1.9-0.4q0 0 0.1 0zm-21.3-5.5q-0.1 0-0.3 0.1q-0.1 0-0.2 0q-0.1 0-0.2-0.1q-0.1 0-0.2-0.1c-4.5 0.2-9.2-1.9-13.7-1.9h-0.1q-3.4-0.6-6.7-1.1q-3.3-0.4-6.7-0.8q-3.3-0.3-6.7-0.5q-3.3-0.2-6.7-0.3c-3-0.1-8.6-1.5-11.1 0.9c-1.5 1.5-1.5 3.9-1.6 5.9c-0.1 2.2-0.2 2.9 0.4 3.3h1.2q-0.1 0-0.2 0.1q0 0-0.1 0q0 0.1-0.1 0.1q-0.1 0-0.1 0q0.3 0.1 0.8 0.2q1 0.2 2 0.3q1 0.1 2 0.1q1 0.1 2 0.1q1 0 2-0.1q0.7 0 1.4 0q0.7-0.1 1.4 0q0.7 0 1.4 0q0.7 0 1.4 0.1c4 0.3 8.1 0.3 12.1 0.6c8.5 0.6 16.8 1.9 25.3 3.1q0-0.6 0.1-1.3q0.1-0.7 0.1-1.3q0-0.7 0-1.4q0-0.6 0-1.3q0.9-2-0.5-2l-0.6-0.1q-0.2 0-0.3-0.1q-0.1 0-0.2-0.1q-0.1-0.2-0.1-0.3q0-0.1 0-0.3q-0.4-0.9 0.9-0.9c0.4-0.9 1.7-0.2 1.9-0.9zm-88.9 67.4q-0.3 0.1-0.6 0q-0.3 0-0.5-0.1q-0.3 0-0.5-0.1q-0.3-0.1-0.5-0.3c-2.8-2.1-0.1-3.8 1.8-4.2c2.7-0.5 6.4-0.4 9 0.9c4 2 0.3 2.8-2.4 3c-1.4 0-4.2 0.8-6.3 0.8zm62.6-7.7q0.3-0.1 0.6-0.2q0.3-0.1 0.6-0.1q0.3 0 0.6 0.1q0.3 0.1 0.5 0.2zm-20.2-2.5q-0.1 0-0.2 0q-0.2 0-0.3-0.1q-0.1 0-0.3-0.1q-0.1 0-0.2-0.1l2.3 0.2c-0.4 0-0.8 0.1-1.3 0.1zm-5-1.3q-1.1-0.1-2.3-0.2q1.2 0.1 2.3 0.2zm52.5-60.1q-0.1 0-0.2 0q-0.1 0-0.2 0q-0.1-0.1-0.1-0.1q-0.1 0-0.2-0.1q0.5-2.2-1-2.1q-1-0.1-2-0.3c-3.9-0.8-7.7-1.8-11.5-2.6c-8-1.7-15.8-2.2-23.8-3.1c-4-0.4-8.6-0.1-12.4-1.3c-0.7-0.2-3.6-0.7-2.8-2.5c0.6-1.5 2.7-0.9 3.9-0.9c-0.4-3.8-0.5-7.8 2-10.8c-2.4-0.8-16.8-3.7-10.8-10.2c1.9-1.9 7.4-2.1 9.8-2.6q0.8-0.1 1.6-0.2q0.8 0 1.6-0.1q0.8 0 1.6 0q0.8-0.1 1.6 0q0.7 0 1.3 0h2.3c1 0 2.1 0.1 3.1 0.2q0.5 0.1 0.9 0.1q0.5 0.1 0.9 0.1q0.5 0 0.9 0.1q0.5 0 0.9 0q0.8-0.1 1.5-0.1q0.7-0.1 1.4-0.3q0.7-0.1 1.4-0.2q0.7-0.2 1.4-0.4q0.3-0.1 0.5-0.1q0.3-0.1 0.6-0.1q0.2-0.1 0.5-0.1q0.2 0 0.5-0.1c4.7-0.4 9.5-1.2 14.3-1.6c2.2-0.1 4.4-0.2 6.6-0.2c3.1 0 6.4 0.1 9.5 0.5c3.2 0.3 8 0.1 10.9 1.8c4.4 2.6 0.3 9.2 3.5 12.6c1.8 1.9 6 1.3 8.1 3.6c2 2.4 1.8 3.9 0 6c-2.3 2.8-1.6 1.8-0.7 5.1c1 3.5 0.2 5.7-3.2 5.7c0.6 0.4 4.7 4.2 1.7 4.2q-2.5-0.7-5-1.2q-2.5-0.4-5.1-0.5q-2.6-0.2-5.1 0q-2.6 0.1-5.1 0.6c-1.1 0.2-4 1.2-5.6 1.2zm22.4-9.6h-2.6q0.3-0.2 0.7-0.2q0.3-0.1 0.7-0.1q0.4 0 0.7 0.1q0.4 0 0.7 0.2q0.3 0 0.6 0h2.4q-0.7-0.7-1.1-1.4q-0.5-0.8-0.8-1.6q-0.3-0.9-0.4-1.8q-0.1-0.9 0.1-1.8c-7.2 0.6-19.7-1.8-21 9c-0.4 3.2 0.5 4.5 3.5 2.1c1.9-1.5 1-1.9 3.8-2.2c4.3-0.4 8.4-2.2 12.7-2.3zm-22-7q-0.2 0-0.5 0c-8.1 0.2-16-1.4-24-2c-4.9-0.4-18.4-4.3-21.9 0.2c-0.6 0.8-1.1 4.5-0.4 5.2c0.6 0.6 3 0.6 4.8 0.5c0.8-0.1 1.4-0.1 1.8-0.1c4.1 0.3 8.3 0.4 12.5 1c8.7 1.1 18.3 3.1 26.5 6.6c0.2-2.6 0-5.8 0.8-8.2c0.7-1.9 2.4-3.2 0.4-3.2zm1.9-6.8q-0.4-0.1-0.7-0.1q-0.4 0-0.7 0q-0.4 0-0.7 0c-2.3 0-4.8 0.3-6.9 0.3c-6.5 0.2-13.1-0.2-19.7-0.3q-1.6-0.9-1.8-0.2q0.1 0 0.2-0.1q0.1 0 0.3 0.1q0.1 0 0.2 0q0.1 0 0.2 0.1q0.3 0 0.5 0.1l-1.5 0.1q0 0 0.1 0.1c5.7-0.4 12 1.1 17.9 1.5c3.6 0.3 7.2 0.2 10.7 0.7c3.6 0.5 5.3 1.8 8.7-0.2c-2.3-0.4-4.1-1.6-6.2-2q-0.3-0.1-0.6-0.1zm-14.1-5.2q1.7 0.1 3.3 0.1q1.7 0.1 3.4 0q1.6 0 3.3-0.1q1.7 0 3.3-0.2q2-0.1 3.9-0.2q2-0.1 3.9-0.1q2 0 3.9 0.1q2 0 3.9 0.2v-5.1c-10.5 0-20.9 0.2-31.3 0.2q-2.8 0-5.5 0q-4.2 0.2-8.5 0.4c-5.3 0.3-4.6 1.6-5.1 6.6c7.2-1.2 14.2-1.1 21.5-1.9zm-29.6-4.3q-2 0-3.9 0.1q-2 0.1-3.9 0.3q-2 0.1-3.9 0.4q-2 0.3-3.9 0.6c6.7 1.6 13.4 2.7 20 4.6q0.6-2.9 1.2-5.8q-2.8-0.2-5.6-0.2zm55.7 31.8q0.7 0 1.5 0q0.7 0 1.4 0.1q0.7 0 1.4 0.2l-5.7-0.1q0.7-0.1 1.4-0.2zm-4.9 0.3q0.5-0.2 0.9-0.2q0.4-0.1 0.9-0.1q0.4 0 0.8 0.1q0.5 0 0.9 0.1zm-23-22.1q0.6 0 1.2 0zm-13.2-0.6q-0.1 0-0.1 0q0 0 0 0q0 0 0 0q0 0 0 0h0.1q0 0 0 0zm3.4 72.1l2.3 0.2zm-6.8-0.7l2.2 0.3zm20.1-7l2.3 0.3zm-16.6-30.2l2.3 0.2zm-5.2-10.6l1.2 0.1zm39.5-0.8l-2.3 0.3zm-37.8-5.1l2.3 0.3zm-1.7-1.8h1.7zm-13.2-1.3l1.7 0.1zm9.8-11.3h1.7zm14.3-3.2l2.3 0.2zm16.1 0.1h-1.2zm-18.3-5.1l-2.9 0.2zm10.9-0.6l-2.3 0.2zm1.7-4.9h-2.8zm-19.5-3.3l-1.8 0.3z" /></svg>