<svg xmlns="http://www.w3.org/2000/svg" width="30.792" height="30.792" viewBox="0 0 30.792 30.792">
  <path id="Icon_awesome-pencil-alt" data-name="Icon awesome-pencil-alt" d="M29.945,8.547,27.173,11.32a.722.722,0,0,1-1.022,0L19.475,4.644a.722.722,0,0,1,0-1.022L22.247.849a2.893,2.893,0,0,1,4.084,0l3.615,3.615A2.882,2.882,0,0,1,29.945,8.547ZM17.093,6,1.3,21.8.024,29.1A1.445,1.445,0,0,0,1.7,30.776L9,29.495,24.8,13.7a.722.722,0,0,0,0-1.022L18.121,6a.73.73,0,0,0-1.028,0ZM7.464,20.443a.839.839,0,0,1,0-1.191l9.262-9.262a.842.842,0,0,1,1.191,1.191L8.655,20.443a.839.839,0,0,1-1.191,0ZM5.293,25.5H8.18v2.183l-3.879.68-1.87-1.87.68-3.879H5.293Z" transform="translate(-0.002 -0.005)" fill="#fff"/>
</svg>
