<svg id="Group_3391" data-name="Group 3391" xmlns="http://www.w3.org/2000/svg" width="81.815" height="72.217" viewBox="0 0 81.815 72.217">
  <path id="Path_31" data-name="Path 31" d="M50.309-437.694v5.827l-4.789,4.79-4.789,4.789v5.088H15.189v38.313H12.594v2.595H40.731v2.2H10v2.793H91.815V-374.1H61.084v-2.2H89.22v-2.595H86.625V-417.2H61.084v-5.088l-4.789-4.79-4.789-4.789v-5.487l2.833-1.417,2.853-1.437L53.9-441.865c-1.816-.9-3.353-1.656-3.432-1.656A50.338,50.338,0,0,0,50.309-437.694ZM53.4-421.61a5.153,5.153,0,0,1,2.494,5.328,4.855,4.855,0,0,1-4.989,4.071,4.581,4.581,0,0,1-3.572-1.417,5.127,5.127,0,0,1,2.434-8.581A5.54,5.54,0,0,1,53.4-421.61ZM25.365-404.529v5.088H20.177v-4.949a47.9,47.9,0,0,1,.139-5.088,12.985,12.985,0,0,1,2.594-.139h2.454v5.088Zm7.583,0v5.088H27.959v-10.177h4.989Zm7.782,0v5.088H35.543v-10.177h5.188Zm25.542,0v5.088H61.084v-10.177h5.188v5.088Zm7.583,0v5.088H68.866v-10.177h4.989Zm7.742.04.04,5.048H76.45v-10.2l2.554.06,2.535.06ZM49.91-389.064v7.583H45.7l.06-5.747c.06-6.206.04-6.106,1.3-7.782a5.922,5.922,0,0,1,2.614-1.636C49.85-396.647,49.91-395.011,49.91-389.064Zm3.591-6.924a5.271,5.271,0,0,1,2.474,3.652c.06.518.119,3.172.119,5.886v4.969H51.9v-7.583c0-6.066.06-7.583.26-7.583A5.715,5.715,0,0,1,53.5-395.989Zm-28.136,6.825v5.088H20.177v-10.177h5.188v5.088Zm7.583,0v5.088H27.959v-10.177h4.989Zm7.782,0v5.088H35.543v-10.177h5.188Zm25.542,0v5.088H61.084v-10.177h5.188v5.088Zm7.583,0v5.088H68.866v-10.177h4.989Zm7.782,0v5.088H76.45v-10.177h5.188Z" transform="translate(-10 443.521)" fill="#fff"/>
  <path id="Path_32" data-name="Path 32" d="M459.893-170.95a1.964,1.964,0,0,0-.319,1.3v.978H458.6c-1.058,0-1.616.339-1.616.978,0,.738.639,1.018,2.354,1.018,2.116,0,2.235-.119,2.235-2.295,0-1.756-.24-2.295-1-2.295A1.08,1.08,0,0,0,459.893-170.95Z" transform="translate(-419.664 193.999)" fill="#fff"/>
</svg>
