<svg xmlns="http://www.w3.org/2000/svg" width="26.71" height="17" viewBox="0 0 26.71 17">
  <path id="Icon_material-people-outline" data-name="Icon material-people-outline" d="M20.318,17.214a14.551,14.551,0,0,0-5.463,1.214,14.32,14.32,0,0,0-5.463-1.214c-2.635,0-7.892,1.311-7.892,3.946V24.5H28.21V21.161C28.21,18.526,22.953,17.214,20.318,17.214Zm-4.856,5.464H3.321V21.161c0-.656,3.108-2.125,6.07-2.125s6.07,1.469,6.07,2.125Zm10.927,0H17.283V21.161a2.209,2.209,0,0,0-.631-1.481,11.711,11.711,0,0,1,3.667-.644c2.962,0,6.07,1.469,6.07,2.125ZM9.392,16a4.25,4.25,0,1,0-4.249-4.25A4.254,4.254,0,0,0,9.392,16Zm0-6.679A2.429,2.429,0,1,1,6.963,11.75,2.436,2.436,0,0,1,9.392,9.321ZM20.318,16a4.25,4.25,0,1,0-4.249-4.25A4.254,4.254,0,0,0,20.318,16Zm0-6.679A2.429,2.429,0,1,1,17.89,11.75,2.436,2.436,0,0,1,20.318,9.321Z" transform="translate(-1.5 -7.5)" fill="#fff"/>
</svg>
