<svg version="1.2" baseProfile="tiny-ps" xmlns="http://www.w3.org/2000/svg" viewBox="0 0 58 34" width="58" height="34">
	<title>teacher-svg</title>
	<style>
		tspan { white-space:pre }
		.s0 { fill: #c574bf } 
	</style>
	<g id="ffa53a57c3a7a0465b4052048c434a61">
		<g id="Group_2097">
			<path id="Path_6514" class="s0" d="m40.78 0.01c15.35 0.03 15.47 0.03 15.88 0.35c0.07 0.05 0.14 0.11 0.2 0.17c0.07 0.06 0.13 0.12 0.19 0.18c0.06 0.06 0.12 0.13 0.18 0.19c0.06 0.07 0.11 0.13 0.17 0.2c0.32 0.42 0.32 0.54 0.32 12.38c0 11.84 0 11.97-0.32 12.38c-0.05 0.07-0.11 0.14-0.17 0.2c-0.06 0.07-0.12 0.13-0.18 0.19c-0.06 0.06-0.13 0.12-0.19 0.18c-0.07 0.06-0.13 0.11-0.2 0.17c-0.41 0.32-0.6 0.32-10.48 0.37l-10.05 0.05v-2.47h19.2v-22.12h-29.5v9.83h-2.46v-5.13c-0.02-0.47-0.02-0.93-0.02-1.4c0-0.47 0.01-0.93 0.02-1.4c0.01-0.47 0.04-0.93 0.06-1.39c0.03-0.46 0.07-0.93 0.11-1.39c0.06-0.15 0.13-0.29 0.22-0.43c0.09-0.14 0.19-0.26 0.3-0.38c0.11-0.12 0.23-0.22 0.36-0.32c0.13-0.09 0.27-0.18 0.41-0.24c0.38-0.17 3.27-0.2 15.94-0.17z" />
			<path id="Path_6515" class="s0" d="m12.85 1.03c0.18-0.04 0.37-0.06 0.55-0.08c0.19-0.02 0.37-0.03 0.56-0.03c0.19 0 0.37 0.01 0.56 0.03c0.39 0 0.79 0.04 1.17 0.13c0.39 0.09 0.76 0.21 1.12 0.38c0.36 0.17 0.7 0.37 1.01 0.61c0.31 0.24 0.6 0.51 0.85 0.82c0.27 0.27 0.52 0.56 0.73 0.88c0.21 0.32 0.38 0.66 0.52 1.02c0.13 0.36 0.23 0.73 0.28 1.11c0.05 0.38 0.07 0.76 0.04 1.14c0.02 0.21 0.03 0.43 0.02 0.65c-0.01 0.22-0.04 0.43-0.08 0.64c-0.04 0.21-0.1 0.42-0.17 0.62c-0.07 0.2-0.16 0.4-0.26 0.59c-0.21 0.45-0.47 0.88-0.79 1.27c-0.31 0.39-0.67 0.74-1.07 1.04c-0.4 0.3-0.83 0.55-1.29 0.75c-0.46 0.19-0.94 0.33-1.43 0.41c-0.79 0.12-1.59 0.09-2.37-0.1c-0.78-0.19-1.51-0.52-2.16-0.99c-0.65-0.47-1.2-1.05-1.62-1.73c-0.42-0.68-0.71-1.43-0.85-2.21c-0.11-0.71-0.1-1.44 0.04-2.15c0.14-0.71 0.4-1.39 0.78-2.01c0.38-0.62 0.86-1.17 1.42-1.62c0.57-0.45 1.21-0.8 1.89-1.03c0.18-0.05 0.36-0.1 0.54-0.14z" />
			<path id="Path_6516" class="s0" d="m47.52 9.8c0.09 0.12 0.18 0.25 0.25 0.38c0.08 0.13 0.14 0.27 0.2 0.41c0.06 0.14 0.1 0.29 0.14 0.43c0.04 0.15 0.06 0.3 0.07 0.45c-0.08 0.06-2.43 1.9-5.21 4.09c-2.78 2.19-5.36 4.21-5.72 4.49l-0.65 0.54l-0.4-0.8c-0.23-0.45-0.35-0.86-0.28-0.92c0.06-0.08 2.69-2.14 5.81-4.59c3.14-2.46 5.73-4.47 5.78-4.47z" />
			<path id="Path_6517" class="s0" d="m9.63 14.73l1.69-0.02l1.37 2.23c0.11 0.19 0.22 0.39 0.34 0.58c0.12 0.19 0.24 0.38 0.36 0.56c0.12 0.19 0.25 0.37 0.38 0.55c0.13 0.18 0.26 0.36 0.4 0.54c0.14-0.18 0.27-0.36 0.4-0.54c0.13-0.18 0.26-0.37 0.38-0.55c0.12-0.19 0.24-0.38 0.36-0.57c0.12-0.19 0.23-0.39 0.33-0.58l1.37-2.26l2.38 0.09c0.47-0.01 0.93 0 1.4 0.04c0.46 0.04 0.93 0.11 1.38 0.2c0.46 0.09 0.91 0.22 1.35 0.36c0.44 0.15 0.88 0.32 1.3 0.52c0.43 0.23 0.83 0.5 1.2 0.81c0.37 0.31 0.71 0.67 1 1.05c0.29 0.39 0.54 0.8 0.75 1.24c0.2 0.44 0.36 0.9 0.46 1.38c0.05 0.4 0.12 0.94 0.17 1.21l0.08 0.49l1.64-1.15c2.21-1.54 2.64-1.75 3.53-1.75c0.23-0.01 0.45 0.02 0.67 0.09c0.22 0.06 0.42 0.16 0.61 0.28c0.19 0.12 0.36 0.27 0.5 0.45c0.14 0.17 0.26 0.37 0.35 0.57c0.11 0.15 0.19 0.32 0.25 0.5c0.06 0.18 0.09 0.37 0.09 0.55c0 0.19-0.03 0.38-0.08 0.56c-0.05 0.18-0.14 0.35-0.24 0.51c-0.31 0.55-0.97 1.06-4.5 3.43c-2.27 1.54-4.38 2.89-4.67 3.01c-0.27 0.09-0.55 0.13-0.83 0.13c-0.28-0.01-0.56-0.06-0.83-0.17c-0.26-0.1-0.51-0.26-0.72-0.44c-0.21-0.19-0.39-0.41-0.52-0.67c-0.31-0.56-0.34-0.81-0.34-3.16v-2.55h-2.46v10.75h-13.52v-10.75h-2.44l-0.05 4.82c-0.05 4.61-0.06 4.85-0.37 5.25c-0.17 0.26-0.39 0.48-0.65 0.66c-0.25 0.18-0.54 0.31-0.84 0.38c-0.3 0.07-0.61 0.09-0.92 0.05c-0.31-0.04-0.61-0.14-0.88-0.29c-1.28-0.66-1.26-0.55-1.26-7.16c0-5.44 0.02-5.85 0.31-6.68c0.88-2.49 3.21-4.06 6.53-4.41c0.6-0.06 1.87-0.12 2.8-0.14z" />
		</g>
	</g>
</svg>