<svg xmlns="http://www.w3.org/2000/svg" width="708" height="322.621" viewBox="0 0 708 322.621">
  <g id="Group_2224" data-name="Group 2224" transform="translate(-664 -308.379)">
    <g id="Group_2213" data-name="Group 2213" transform="translate(-266.42 -419.068)">
      <g id="Group_2159" data-name="Group 2159" transform="translate(982.336 783.937)">
        <g id="Group_2158" data-name="Group 2158" transform="translate(0.036 65.827)">
          <g id="Group_2157" data-name="Group 2157" transform="translate(0 15.988)">
            <g id="Group_2155" data-name="Group 2155" transform="translate(69.262)">
              <path id="Path_6927" data-name="Path 6927" d="M1308.158,1203.341a1.615,1.615,0,0,1-.211.015,1.186,1.186,0,0,1-1.193-.844l-13.5-57.779-.005-.005-.98-4.207,4.616-.2,1.507,7.875,10.409,54.351A.709.709,0,0,1,1308.158,1203.341Z" transform="translate(-1292.271 -1140.321)" fill="#84a6f4"/>
            </g>
            <g id="Group_2156" data-name="Group 2156">
              <path id="Path_6928" data-name="Path 6928" d="M1102.052,1140.521l-2.222,9.509-12.261,52.482a1.186,1.186,0,0,1-1.192.844,1.619,1.619,0,0,1-.212-.015.708.708,0,0,1-.645-.795l11.094-57.943.823-4.282Z" transform="translate(-1085.509 -1140.321)" fill="#84a6f4"/>
            </g>
            <path id="Path_6929" data-name="Path 6929" d="M1124.1,1140.521l-2.222,9.509a6.939,6.939,0,0,0-3.217-5.427l.822-4.282Z" transform="translate(-1107.553 -1140.321)" fill="#84a6f4"/>
            <path id="Path_6930" data-name="Path 6930" d="M1298.394,1148.2a7.65,7.65,0,0,0-5.138-3.463l-.005-.005-.98-4.207,4.616-.2Z" transform="translate(-1223.009 -1140.321)" fill="#84a6f4"/>
          </g>
          <path id="Rectangle_1467" data-name="Rectangle 1467" d="M8.3,0H70.516a8.3,8.3,0,0,1,8.3,8.3v0a8.3,8.3,0,0,1-8.3,8.3H8.3A8.3,8.3,0,0,1,0,8.3v0A8.3,8.3,0,0,1,8.3,0Z" transform="translate(1.382)" fill="#84a6f4"/>
        </g>
        <path id="Rectangle_1468" data-name="Rectangle 1468" d="M11.309,0H70.56A11.308,11.308,0,0,1,81.869,11.308v48.48A11.309,11.309,0,0,1,70.56,71.1H11.309A11.309,11.309,0,0,1,0,59.788V11.309A11.309,11.309,0,0,1,11.309,0Z" transform="translate(0)" fill="#84a6f4"/>
      </g>
      <path id="Path_6931" data-name="Path 6931" d="M1170.041,728.726s-8.975-3.4-14.15.887-8.724,26.365-6.95,30.483,6.95,6.572,6.95,6.572a8.526,8.526,0,0,1-.69-4.314s1.479,4.769,5.422,5.68,17.985-.215,20.7-1.367c3.14-1.331,4.929-2.7,5.718-6.572S1190.993,721.924,1170.041,728.726Z" transform="translate(-145.013)"/>
      <path id="Path_6932" data-name="Path 6932" d="M1196.441,902.009c-1.928-10.634-7.557-22.741-7.557-22.741,4.085-16.951-.086-36.014-.086-36.014a48.114,48.114,0,0,0-6.851-1.3c-.287-1.513-1.114-6.064-1.464-9.98-.038-.456-.072-.9-.1-1.334a21.852,21.852,0,0,1-.014-2.96l-2.879.187-11.85.782-.5.034s.072,1.051.091,2.639a37.923,37.923,0,0,1-1.135,10.682c-5.1.523-8.553,1.26-8.553,1.26-3.337.564-2.637,21.13,3.6,37.115,2.872,7.359-5.239,18.75-5.239,21.629S1197.138,905.851,1196.441,902.009Z" transform="translate(-148.396 -66.659)" fill="#ffb27d"/>
      <path id="Path_6933" data-name="Path 6933" d="M1203.635,832.349c-1.113,1.3-3.92,4.083-7.494,4.145-4.654.081-7.763-4.8-7.763-4.8a19.206,19.206,0,0,1,.413-2.672l11.85-.782a39.39,39.39,0,0,1,2.893,2.773C1203.563,831.447,1203.6,831.893,1203.635,832.349Z" transform="translate(-171.547 -67.031)" fill="#ef9e67"/>
      <path id="Rectangle_1469" data-name="Rectangle 1469" d="M7.9,0H15.01a7.9,7.9,0,0,1,7.9,7.9V18.212A11.183,11.183,0,0,1,11.726,29.4h0A11.726,11.726,0,0,1,0,17.669V7.9A7.9,7.9,0,0,1,7.9,0Z" transform="translate(1012.782 737.31)" fill="#ffb27d"/>
      <path id="Path_6934" data-name="Path 6934" d="M1199.75,821.6s.243,1.55,4.049,1.6c0,0,3.2.045,3.225-1.636A10.263,10.263,0,0,0,1199.75,821.6Z" transform="translate(-179.109 -61.176)" fill="#fff"/>
      <path id="Path_6935" data-name="Path 6935" d="M1116.139,1059.909s7.888-18.261,15.112-21.829,35.982-.4,40.3,2.8,9.835,19.03,9.835,19.03Z" transform="translate(-123.506 -205.529)" fill="#22356b"/>
      <path id="Path_6936" data-name="Path 6936" d="M1137.622,1081.937s2.813-10.954,9.073-11.431,14.614,5.315,17.583,3.755,8.638-5.468,13.9-4.473,13.177,12.149,13.177,12.149Z" transform="translate(-137.793 -227.556)" fill="#1b2e59"/>
      <g id="Group_2162" data-name="Group 2162" transform="translate(1005.085 842.474)">
        <path id="Path_6937" data-name="Path 6937" d="M1182.37,1151.006l-7.447.527s-4.179-11.681-8.842-25.323c-.434-1.277-.879-2.568-1.32-3.874-3.859-11.377-7.812-23.461-9.835-30.941-.484-1.793-.847-3.421-1.1-4.9-2.252-12.931,3.547-14.353,4.936-14.693,1.545-.373,10.865-5.323,17.2,11.351,2.137,5.619,5.613,21.249,5.5,36.041C1181.355,1133.43,1182.37,1151.006,1182.37,1151.006Z" transform="translate(-1153.312 -1070.83)" fill="#ffb27d"/>
        <path id="Path_6938" data-name="Path 6938" d="M1205.1,1247.1l-7.465,1.628-1.9.418a277.933,277.933,0,0,0-8.241-30.716,34.42,34.42,0,0,0,15.991-3.1C1205.01,1231.082,1205.1,1247.1,1205.1,1247.1Z" transform="translate(-1176.042 -1166.922)" fill="#e9f3fe"/>
        <path id="Path_6939" data-name="Path 6939" d="M1197.635,1253.018l-1.9.418a277.941,277.941,0,0,0-8.241-30.716,33.062,33.062,0,0,0,9.778-.941S1194.766,1244.621,1197.635,1253.018Z" transform="translate(-1176.042 -1171.214)" fill="#c7dcf2"/>
        <g id="Group_2161" data-name="Group 2161" transform="translate(19.577 78.264)">
          <path id="Path_6940" data-name="Path 6940" d="M1222.9,1312.841c.1.351.186.675.258.964a1.2,1.2,0,0,1-.91,1.469l-8.677,1.862a1.2,1.2,0,0,1-1.42-.895,16.506,16.506,0,0,1-.283-5.459,1.184,1.184,0,0,1,.571-.874c4.015-2.337,6.983-1.965,8.089-1.685a1.133,1.133,0,0,1,.71.517A18.046,18.046,0,0,1,1222.9,1312.841Z" transform="translate(-1211.754 -1306.826)" fill="#22356b"/>
          <g id="Group_2160" data-name="Group 2160" transform="translate(0.144)">
            <path id="Path_6941" data-name="Path 6941" d="M1221.111,1306.171a5.364,5.364,0,0,0-4.407-1.19,5.279,5.279,0,0,0-4.128,2.754l-.391.532c.055-.118,1.223-3.424,4.47-3.763a5.392,5.392,0,0,1,4.87,1.877Z" transform="translate(-1212.184 -1304.467)" fill="#22356b"/>
          </g>
          <path id="Path_6942" data-name="Path 6942" d="M1223.13,1322.423c.1.351.186.675.258.964a1.2,1.2,0,0,1-.91,1.469l-8.677,1.861a1.2,1.2,0,0,1-1.42-.895,15.7,15.7,0,0,1-.28-1.661s1,1.837,6.262.632C1221.54,1324.064,1222.708,1323.081,1223.13,1322.423Z" transform="translate(-1211.984 -1316.408)" fill="#22356b"/>
        </g>
      </g>
      <path id="Path_6943" data-name="Path 6943" d="M1172.935,916.893l-12.025.2c-.921-2.092-2.526-9.066-4.114-13.274.59,2.572,1.171,5.225,1.713,7.835,2.12,10.123,3.728,19.646,3.478,21.685-.571,4.644-18.715,2.552-23.393,1.434s-15.314,1.439-23.82,1.276c-4.893-.091-3.392-13.716-1.238-25.259.513-2.768,1.07-5.421,1.583-7.734-2.749,5.469-4,12.214-4.663,14.037,0,0-11.745-.76-11.75-.789-.4-2.077,4.026-34.948,13.022-41.664a17.029,17.029,0,0,1,12.953-3.5s2.96,5.258,11.495,5.656a16.2,16.2,0,0,0,13.078-5.455s7.13.177,10.008,3.3C1162.1,877.712,1168.5,888.945,1172.935,916.893Z" transform="translate(-111.897 -95.452)" fill="#2b478b"/>
      <path id="Path_6944" data-name="Path 6944" d="M1187.458,1012.362c-.571,4.644-18.716,2.552-23.393,1.434s-15.314,1.439-23.82,1.276c-4.893-.091-3.392-13.716-1.238-25.259,0,0,9.221,16.144,20.716,16.034s24.257-15.17,24.257-15.17C1186.1,1000.8,1187.707,1010.323,1187.458,1012.362Z" transform="translate(-137.368 -174.478)" fill="#233f77"/>
      <path id="Path_6945" data-name="Path 6945" d="M1175.682,861.236s4,7.855,7.9,9.081c0,0-5.54,2.1-13.616-5.815A6.622,6.622,0,0,1,1175.682,861.236Z" transform="translate(-159.3 -88.972)" fill="#fff"/>
      <path id="Path_6946" data-name="Path 6946" d="M1219.505,861.236s-5,7.855-8.9,9.081c0,0,6.542,2.1,14.618-5.815A6.622,6.622,0,0,0,1219.505,861.236Z" transform="translate(-186.33 -88.972)" fill="#fff"/>
      <circle id="Ellipse_45" data-name="Ellipse 45" cx="0.635" cy="0.635" r="0.635" transform="translate(1023.72 780.683)" fill="#35488b"/>
      <path id="Path_6947" data-name="Path 6947" d="M1206.994,934.083a1.211,1.211,0,1,1,1.211,1.211A1.211,1.211,0,0,1,1206.994,934.083Z" transform="translate(-183.927 -136.611)" fill="#1b2e59"/>
      <path id="Path_6948" data-name="Path 6948" d="M1206.994,992.041a1.211,1.211,0,1,1,1.211,1.211A1.211,1.211,0,0,1,1206.994,992.041Z" transform="translate(-183.927 -175.154)" fill="#1b2e59"/>
      <path id="Path_6949" data-name="Path 6949" d="M1290.59,1006.354l1.913,27.409h5.963s4.665-28.687,1.436-29.574S1290.59,1006.354,1290.59,1006.354Z" transform="translate(-239.519 -183.931)" fill="#ffb27d"/>
      <path id="Path_6950" data-name="Path 6950" d="M1298.031,1102.254c.662-.389.467-2.214-.146-2.676a8.043,8.043,0,0,0-6.451-1.455c-3.173.9-1.266,7.427,1.1,7.542C1294.267,1105.749,1296.511,1103.147,1298.031,1102.254Z" transform="translate(-238.97 -246.37)" fill="#ffb27d"/>
      <path id="Path_6951" data-name="Path 6951" d="M1300.96,1087.762l-.044,4.649c-.765-.072-5.08,1.538-6.421-.232-.525-.692.443-2.514.5-4.417C1295.169,1082.057,1300.96,1087.762,1300.96,1087.762Z" transform="translate(-242.014 -237.93)" fill="#ffb27d"/>
      <path id="Path_6952" data-name="Path 6952" d="M1284.149,1001.436s-.752,4.042,1.1,4.633,11.319.887,11.91,0-.231-7.674-1.643-8.175S1285.03,999.25,1284.149,1001.436Z" transform="translate(-235.136 -179.798)" fill="#233f77"/>
      <path id="Path_6953" data-name="Path 6953" d="M1106.943,1006.354l-1.913,27.409h-5.964s-4.665-28.687-1.435-29.574S1106.943,1006.354,1106.943,1006.354Z" transform="translate(-110.441 -183.931)" fill="#ffb27d"/>
      <path id="Path_6954" data-name="Path 6954" d="M1103.015,1102.254c-.662-.389-.467-2.214.146-2.676a8.044,8.044,0,0,1,6.451-1.455c3.172.9,1.266,7.427-1.1,7.542C1106.779,1105.749,1104.535,1103.147,1103.015,1102.254Z" transform="translate(-114.504 -246.37)" fill="#ffb27d"/>
      <path id="Path_6955" data-name="Path 6955" d="M1104.178,1087.762l.044,4.649c.765-.072,5.081,1.538,6.421-.232.524-.692-.444-2.514-.5-4.417C1109.969,1082.057,1104.178,1087.762,1104.178,1087.762Z" transform="translate(-115.552 -237.93)" fill="#ffb27d"/>
      <path id="Path_6956" data-name="Path 6956" d="M1107.614,1001.436s.752,4.042-1.1,4.633-11.318.887-11.91,0,.231-7.674,1.644-8.175S1106.734,999.25,1107.614,1001.436Z" transform="translate(-109.055 -179.798)" fill="#233f77"/>
      <path id="Path_6957" data-name="Path 6957" d="M1185.858,754.927s1.761,6.285,6.315,8.059c0,0-2.1-3.622-1.361-5.4,0,0,2.017,7.1,4.964,9.538,0,0,4.2-14.713-7.776-15.452s-16.781,5.545-16.855,10.055a18.462,18.462,0,0,0,1.722,7.985s1.309-8.355,6.558-10.794S1185.858,754.927,1185.858,754.927Z" transform="translate(-160.085 -16.071)"/>
      <g id="Group_2165" data-name="Group 2165" transform="translate(1017.143 842.969)">
        <path id="Path_6958" data-name="Path 6958" d="M1215.723,1123.338c-4.779,15.725-9.842,30.567-9.842,30.567l-8.525-1.752s1.756-16.2,2.018-31.379c.021-1.2,1.087-24.425,2.035-31.74,2.339-17.975,9.487-16.871,11.058-16.624s12.076-.747,11.528,17.078C1223.816,1095.278,1219.879,1109.645,1215.723,1123.338Z" transform="translate(-1194.66 -1072.308)" fill="#ffb27d"/>
        <path id="Path_6959" data-name="Path 6959" d="M1214.645,1219.556c-2.714,8.928-5.518,17.567-7.436,23.372-1.458,4.419-2.406,7.2-2.406,7.2l-9.068-1.663s.658-13.872,2.561-31.468c1.167.692,3.895,1.587,9.51,2.134C1209.73,1219.318,1211.991,1219.469,1214.645,1219.556Z" transform="translate(-1193.582 -1168.525)" fill="#fff"/>
        <g id="Group_2164" data-name="Group 2164" transform="translate(0 78.435)">
          <path id="Path_6960" data-name="Path 6960" d="M1200.566,1317.343c-.038.362-.078.7-.119.991a1.2,1.2,0,0,1-1.391,1.026l-8.748-1.494a1.2,1.2,0,0,1-.986-1.358,16.476,16.476,0,0,1,1.765-5.174,1.184,1.184,0,0,1,.854-.6c4.6-.679,7.214.768,8.136,1.439a1.135,1.135,0,0,1,.467.744A18.057,18.057,0,0,1,1200.566,1317.343Z" transform="translate(-1189.307 -1309.183)" fill="#35488b"/>
          <g id="Group_2163" data-name="Group 2163" transform="translate(1.866)">
            <path id="Path_6961" data-name="Path 6961" d="M1203.943,1309.841a5.364,5.364,0,0,0-3.65-2.742,5.281,5.281,0,0,0-4.856,1.024l-.561.349c.094-.089,2.406-2.725,5.547-1.834a5.391,5.391,0,0,1,3.825,3.551Z" transform="translate(-1194.877 -1306.454)" fill="#35488b"/>
          </g>
          <path id="Path_6962" data-name="Path 6962" d="M1200.566,1325.889c-.038.363-.078.7-.119.991a1.2,1.2,0,0,1-1.391,1.026l-8.748-1.494a1.2,1.2,0,0,1-.986-1.358,15.8,15.8,0,0,1,.356-1.646s.245,2.076,5.579,2.912C1198.48,1326.823,1199.929,1326.343,1200.566,1325.889Z" transform="translate(-1189.307 -1317.729)" fill="#35488b"/>
        </g>
      </g>
      <g id="Group_2166" data-name="Group 2166" transform="translate(930.42 832.611)">
        <rect id="Rectangle_1470" data-name="Rectangle 1470" width="8.141" height="110.576" transform="translate(10.483 11.273)" fill="#264e6b"/>
        <path id="Rectangle_1471" data-name="Rectangle 1471" d="M5.637,0h179.35a5.636,5.636,0,0,1,5.636,5.636v0a5.636,5.636,0,0,1-5.636,5.636H5.636A5.636,5.636,0,0,1,0,5.637v0A5.637,5.637,0,0,1,5.637,0Z" transform="translate(0)" fill="#557ba1"/>
        <rect id="Rectangle_1472" data-name="Rectangle 1472" width="8.141" height="110.576" transform="translate(175.297 11.273)" fill="#264e6b"/>
        <rect id="Rectangle_1473" data-name="Rectangle 1473" width="173.268" height="42.267" transform="translate(10.17 29.195)" fill="#557ba1"/>
      </g>
      <g id="Group_2170" data-name="Group 2170" transform="translate(1303.045 855.471)">
        <g id="Group_2169" data-name="Group 2169" transform="translate(0 15.175)">
          <g id="Group_2167" data-name="Group 2167" transform="translate(65.738)">
            <path id="Path_6963" data-name="Path 6963" d="M2254.114,1214.744a1.458,1.458,0,0,1-.2.014,1.126,1.126,0,0,1-1.132-.8l-12.811-54.839,0,0-.93-3.993,4.381-.189,1.431,7.474,9.879,51.585A.672.672,0,0,1,2254.114,1214.744Z" transform="translate(-2239.035 -1154.93)" fill="#84a6f4"/>
          </g>
          <g id="Group_2168" data-name="Group 2168">
            <path id="Path_6964" data-name="Path 6964" d="M2058.492,1155.12l-2.109,9.026-11.637,49.812a1.127,1.127,0,0,1-1.132.8,1.469,1.469,0,0,1-.2-.014.672.672,0,0,1-.612-.754l10.529-54.995.781-4.064Z" transform="translate(-2042.792 -1154.93)" fill="#84a6f4"/>
          </g>
          <path id="Path_6965" data-name="Path 6965" d="M2079.415,1155.12l-2.109,9.026a6.587,6.587,0,0,0-3.053-5.151l.781-4.064Z" transform="translate(-2063.714 -1154.93)" fill="#84a6f4"/>
          <path id="Path_6966" data-name="Path 6966" d="M2244.846,1162.4a7.259,7.259,0,0,0-4.877-3.286l0,0-.93-3.993,4.381-.189Z" transform="translate(-2173.297 -1154.93)" fill="#84a6f4"/>
        </g>
        <path id="Rectangle_1474" data-name="Rectangle 1474" d="M7.88,0H66.929a7.879,7.879,0,0,1,7.879,7.879v0a7.879,7.879,0,0,1-7.879,7.879H7.88A7.88,7.88,0,0,1,0,7.88v0A7.88,7.88,0,0,1,7.88,0Z" transform="translate(1.312)" fill="#84a6f4"/>
      </g>
      <rect id="Rectangle_1475" data-name="Rectangle 1475" width="77.704" height="67.48" rx="10.733" transform="translate(1304.913 792.993)" fill="#84a6f4"/>
      <path id="Path_6967" data-name="Path 6967" d="M2106.3,733.2s-11.781-2.513-19.007,2.828-2.356,18.064-5.184,21.363-6.126,4.556-2.827,11.153-3.3,8.4-3.3,13.156,6.849,6.165,7.038,10.407,21.552,8.168,30.662,8.325,19.628-10.806,20.888-12.943,4.552-11.719,0-16.589-.939-11.467-2.667-15.237-8.325-5.969-7.226-9.111S2123.426,729.74,2106.3,733.2Z" transform="translate(-761.822 -3.43)"/>
      <path id="Path_6968" data-name="Path 6968" d="M2152.071,908.309c-1.894-10.444-7.422-22.337-7.422-22.337,4.012-16.651-.084-35.375-.084-35.375a47.221,47.221,0,0,0-6.729-1.274c-.282-1.487-1.094-5.956-1.438-9.8-.038-.448-.071-.886-.1-1.311a21.465,21.465,0,0,1-.014-2.907l-2.828.184-11.64.768-.5.033s.071,1.032.09,2.592a37.241,37.241,0,0,1-1.115,10.492c-5.009.514-8.4,1.237-8.4,1.237-3.278.554-2.59,20.755,3.537,36.456,2.821,7.228-5.146,18.417-5.146,21.245S2152.755,912.082,2152.071,908.309Z" transform="translate(-784.413 -71.726)" fill="#ffb27d"/>
      <path id="Path_6969" data-name="Path 6969" d="M2159.136,839.885c-1.093,1.272-3.85,4.01-7.361,4.071-4.571.08-7.625-4.713-7.625-4.713a18.871,18.871,0,0,1,.406-2.625l11.64-.768a38.6,38.6,0,0,1,2.842,2.723C2159.065,839,2159.1,839.437,2159.136,839.885Z" transform="translate(-807.152 -72.091)" fill="#ef9e67"/>
      <path id="Path_6970" data-name="Path 6970" d="M2143.795,794.638h0a11.552,11.552,0,0,1-11.518-11.518v-9.6a7.781,7.781,0,0,1,7.759-7.758h6.985a7.781,7.781,0,0,1,7.758,7.758v10.13A11.017,11.017,0,0,1,2143.795,794.638Z" transform="translate(-799.256 -25.482)" fill="#ffb27d"/>
      <path id="Path_6971" data-name="Path 6971" d="M2155.32,829.326s.239,1.522,3.977,1.574c0,0,3.139.044,3.168-1.607A10.08,10.08,0,0,0,2155.32,829.326Z" transform="translate(-814.58 -65.141)" fill="#fff"/>
      <path id="Path_6972" data-name="Path 6972" d="M2135.3,748.421s-1,11.9-11.6,14.437-1.354-20.082,5.8-18.354S2135.3,748.421,2135.3,748.421Z" transform="translate(-790.359 -11.28)"/>
      <path id="Path_6973" data-name="Path 6973" d="M2163.9,748.421s1,11.9,11.6,14.437,1.355-20.082-5.8-18.354S2163.9,748.421,2163.9,748.421Z" transform="translate(-820.215 -11.28)"/>
      <path id="Path_6974" data-name="Path 6974" d="M2073.192,1063.406s7.749-17.937,14.844-21.442,35.344-.393,39.585,2.749,9.66,18.693,9.66,18.693Z" transform="translate(-759.963 -208.13)" fill="#22356b"/>
      <path id="Path_6975" data-name="Path 6975" d="M2094.294,1085.043s2.763-10.76,8.912-11.229,14.354,5.22,17.271,3.689,8.485-5.371,13.653-4.394,12.944,11.933,12.944,11.933Z" transform="translate(-773.997 -229.768)" fill="#1b2e59"/>
      <path id="Path_6976" data-name="Path 6976" d="M2127.82,1153.139l-7.333.094s-3.436-11.692-7.234-25.334c-.353-1.277-.716-2.568-1.074-3.873-3.138-11.376-6.329-23.449-7.889-30.9-.372-1.786-.636-3.4-.8-4.868-1.475-12.808,4.293-13.873,5.674-14.128,1.536-.278,10.957-4.6,16.22,12.107,1.777,5.631,3.6,21.155,2.654,35.654C2127.125,1135.846,2127.82,1153.139,2127.82,1153.139Z" transform="translate(-779.953 -230.082)" fill="#ffb27d"/>
      <path id="Path_6977" data-name="Path 6977" d="M2193,1122.393c-3.053,15.853-6.475,30.871-6.475,30.871l-8.507-.836s.052-16-1.252-30.86c-.1-1.179-1.447-23.972-1.272-31.215.438-17.8,7.535-17.454,9.1-17.375s11.72-1.97,13.016,15.5C2198.026,1094.151,2195.656,1108.59,2193,1122.393Z" transform="translate(-827.987 -229.759)" fill="#ffb27d"/>
      <path id="Path_6978" data-name="Path 6978" d="M2195.555,1218.93c-1.734,9-3.586,17.728-4.863,23.6-.971,4.468-1.612,7.276-1.612,7.276l-9.029-.693s-.782-13.619-.73-31c1.211.556,3.968,1.15,9.51,1.107C2190.73,1219.2,2192.954,1219.118,2195.555,1218.93Z" transform="translate(-830.539 -326.296)" fill="#fff"/>
      <g id="Group_2172" data-name="Group 2172" transform="translate(1348.066 920.771)">
        <path id="Path_6979" data-name="Path 6979" d="M2188.262,1314.839c0,.358,0,.688-.014.98a1.18,1.18,0,0,1-1.253,1.145l-8.7-.561a1.174,1.174,0,0,1-1.1-1.225,16.2,16.2,0,0,1,1.193-5.235,1.164,1.164,0,0,1,.773-.674c4.42-1.136,7.125.01,8.1.571a1.113,1.113,0,0,1,.533.678A17.721,17.721,0,0,1,2188.262,1314.839Z" transform="translate(-2177.191 -1307.37)" fill="#35488b"/>
        <g id="Group_2171" data-name="Group 2171" transform="translate(1.265)">
          <path id="Path_6980" data-name="Path 6980" d="M2189.964,1307.4a5.266,5.266,0,0,0-3.847-2.3,5.186,5.186,0,0,0-4.638,1.5l-.512.4c.083-.1,2.071-2.909,5.231-2.361a5.294,5.294,0,0,1,4.1,3.076Z" transform="translate(-2180.967 -1304.564)" fill="#35488b"/>
        </g>
        <path id="Path_6981" data-name="Path 6981" d="M2188.262,1324.266c0,.359,0,.688-.014.98a1.18,1.18,0,0,1-1.253,1.145l-8.7-.561a1.174,1.174,0,0,1-1.1-1.225,15.485,15.485,0,0,1,.179-1.644s.452,2,5.75,2.271C2186.32,1325.393,2187.687,1324.775,2188.262,1324.266Z" transform="translate(-2177.191 -1316.798)" fill="#22356b"/>
      </g>
      <path id="Path_6982" data-name="Path 6982" d="M2145.547,1249.353l-7.413,1.173-1.889.3a272.968,272.968,0,0,0-6.338-30.588,33.8,33.8,0,0,0,15.857-2.135C2146.367,1233.642,2145.547,1249.353,2145.547,1249.353Z" transform="translate(-797.679 -326.296)" fill="#fff"/>
      <g id="Group_2174" data-name="Group 2174" transform="translate(1338.322 920.935)">
        <path id="Path_6983" data-name="Path 6983" d="M2159.045,1313.784c.078.35.144.673.2.96a1.179,1.179,0,0,1-.977,1.389l-8.615,1.333a1.174,1.174,0,0,1-1.341-.958,15.206,15.206,0,0,1-.181-1.645,15.455,15.455,0,0,1,.213-3.725,1.163,1.163,0,0,1,.609-.825c4.07-2.064,6.958-1.531,8.028-1.193a1.115,1.115,0,0,1,.667.547A17.731,17.731,0,0,1,2159.045,1313.784Z" transform="translate(-2148.1 -1307.543)" fill="#35488b"/>
        <g id="Group_2173" data-name="Group 2173" transform="translate(0.282)">
          <path id="Path_6984" data-name="Path 6984" d="M2157.816,1306.948a5.271,5.271,0,0,0-4.254-1.417,5.185,5.185,0,0,0-4.2,2.466l-.414.5c.061-.112,1.394-3.288,4.6-3.436a5.3,5.3,0,0,1,4.669,2.117Z" transform="translate(-2148.943 -1305.052)" fill="#35488b"/>
        </g>
        <path id="Path_6985" data-name="Path 6985" d="M2159.1,1323.682c.078.35.145.673.2.96a1.18,1.18,0,0,1-.976,1.389l-8.615,1.333a1.174,1.174,0,0,1-1.341-.958,15.405,15.405,0,0,1-.181-1.645s.875,1.858,6.1.975C2157.453,1325.2,2158.654,1324.3,2159.1,1323.682Z" transform="translate(-2148.16 -1317.442)" fill="#22356b"/>
      </g>
      <path id="Path_6986" data-name="Path 6986" d="M2127.563,928.843l-10.146-5.071-3.053-1.526c-.9-2.055-3.958-8.482-5.848-12.163.58,2.526,1.15,5.132,1.682,7.7,2.083,9.944,3.661,19.3,3.417,21.3-.561,4.562-18.383,2.507-22.978,1.409s-15.042,1.414-23.4,1.253c-4.807-.09-3.332-13.473-1.216-24.811.5-2.719,1.051-5.325,1.555-7.6-2.7,5.372-5.49,11.046-6.145,12.837l-5.754,3.026-6.527,3.435a.3.3,0,0,1-.028-.085c-.391-2.04,6.287-40.527,15.123-47.124a16.727,16.727,0,0,1,12.723-3.436s2.908,5.165,11.291,5.556a15.917,15.917,0,0,0,12.846-5.358s7,.174,9.831,3.238C2113.723,884.442,2127.281,910.352,2127.563,928.843Z" transform="translate(-743.947 -100.007)" fill="#2b478b"/>
      <path id="Path_6987" data-name="Path 6987" d="M2143.246,1016.7c-.561,4.562-18.383,2.507-22.978,1.409s-15.042,1.414-23.4,1.253c-4.806-.09-3.332-13.473-1.216-24.811,0,0,9.058,15.857,20.349,15.749s23.826-14.9,23.826-14.9C2141.913,1005.346,2143.491,1014.7,2143.246,1016.7Z" transform="translate(-773.579 -177.632)" fill="#233f77"/>
      <path id="Path_6988" data-name="Path 6988" d="M2131.68,868.26s3.929,7.715,7.755,8.92c0,0-5.441,2.058-13.374-5.712A6.5,6.5,0,0,1,2131.68,868.26Z" transform="translate(-795.123 -93.643)" fill="#fff"/>
      <path id="Path_6989" data-name="Path 6989" d="M2174.725,868.26s-4.913,7.715-8.74,8.92c0,0,6.426,2.058,14.359-5.712A6.5,6.5,0,0,0,2174.725,868.26Z" transform="translate(-821.672 -93.643)" fill="#fff"/>
      <path id="Path_6990" data-name="Path 6990" d="M2065.471,1011.827l-2.841,2.479-5.982,5.4c-6.328.89-8.334-4.145-8.334-4.145a15.4,15.4,0,0,1,5.8-5.151,26.425,26.425,0,0,1,4.738-1.988,4.239,4.239,0,0,1,4.251,1.045Z" transform="translate(-743.419 -186.728)" fill="#fff"/>
      <path id="Path_6991" data-name="Path 6991" d="M2247.42,1015.541s-3.657,4.88-13.608,4.183l-1.712-6.318-2.761-2.846,2.6-1.592a5.2,5.2,0,0,1,4.063-.594,29.782,29.782,0,0,1,3.35,1.111C2242.241,1010.645,2245.549,1012.544,2247.42,1015.541Z" transform="translate(-863.804 -186.705)" fill="#fff"/>
      <path id="Path_6992" data-name="Path 6992" d="M2164.349,893.572a.624.624,0,1,1,.624.624A.624.624,0,0,1,2164.349,893.572Z" transform="translate(-820.584 -110.061)" fill="#35488b"/>
      <path id="Path_6993" data-name="Path 6993" d="M2162.435,939.813a1.189,1.189,0,1,1,1.189,1.189A1.189,1.189,0,0,1,2162.435,939.813Z" transform="translate(-819.312 -140.437)" fill="#1b2e59"/>
      <path id="Path_6994" data-name="Path 6994" d="M2162.435,996.742a1.189,1.189,0,1,1,1.189,1.189A1.189,1.189,0,0,1,2162.435,996.742Z" transform="translate(-819.312 -178.295)" fill="#1b2e59"/>
      <g id="Group_2175" data-name="Group 2175" transform="translate(1264.292 833.057)">
        <rect id="Rectangle_1476" data-name="Rectangle 1476" width="7.996" height="108.614" transform="translate(10.296 11.073)" fill="#264e6b"/>
        <rect id="Rectangle_1477" data-name="Rectangle 1477" width="187.241" height="11.073" rx="5.536" transform="translate(0)" fill="#557ba1"/>
        <rect id="Rectangle_1478" data-name="Rectangle 1478" width="7.996" height="108.614" transform="translate(172.186 11.073)" fill="#264e6b"/>
        <rect id="Rectangle_1479" data-name="Rectangle 1479" width="170.193" height="41.517" transform="translate(9.989 28.677)" fill="#557ba1"/>
      </g>
      <path id="Path_6995" data-name="Path 6995" d="M2195.977,1013.106l-20.18,5.752v4.087s25.129.966,26.479-.935c1.03-1.451.476-4.3-.16-5.755A5.476,5.476,0,0,0,2195.977,1013.106Z" transform="translate(-828.198 -189.891)" fill="#ef9e67"/>
      <path id="Path_6996" data-name="Path 6996" d="M2150.3,1030.508s-7.661.349-8.572.723a35.572,35.572,0,0,0-4.27,3.4H2150.3Z" transform="translate(-802.703 -201.541)" fill="#ef9e67"/>
      <path id="Path_6997" data-name="Path 6997" d="M2072,1013.106l20.741,5.752-.561,4.087s-25.957,1.225-26.926-.9c-.655-1.434-.03-4.341.607-5.794A5.476,5.476,0,0,1,2072,1013.106Z" transform="translate(-754.502 -189.891)" fill="#ffb27d"/>
      <path id="Path_6998" data-name="Path 6998" d="M2146.749,1030.508s6.647.349,7.558.723a48.634,48.634,0,0,1,4.723,3.4h-12.841Z" transform="translate(-808.507 -201.541)" fill="#ffb27d"/>
      <g id="Group_2179" data-name="Group 2179" transform="translate(1134.02 930.083)">
        <g id="Group_2178" data-name="Group 2178" transform="translate(0 22.366)">
          <g id="Group_2176" data-name="Group 2176" transform="translate(96.891)">
            <path id="Path_6999" data-name="Path 6999" d="M1849.679,1487.29a2.222,2.222,0,0,1-.3.021,1.66,1.66,0,0,1-1.668-1.181l-18.882-80.826-.007-.007-1.371-5.885,6.457-.28,2.109,11.017,14.561,76.031A.991.991,0,0,1,1849.679,1487.29Z" transform="translate(-1827.455 -1399.131)" fill="#a6c6f4"/>
          </g>
          <g id="Group_2177" data-name="Group 2177">
            <path id="Path_7000" data-name="Path 7000" d="M1561.355,1399.411l-3.108,13.3L1541.1,1486.13a1.66,1.66,0,0,1-1.668,1.181,2.22,2.22,0,0,1-.3-.021.991.991,0,0,1-.9-1.112l15.519-81.057,1.151-5.99Z" transform="translate(-1538.214 -1399.131)" fill="#a6c6f4"/>
          </g>
          <path id="Path_7001" data-name="Path 7001" d="M1592.193,1399.411l-3.107,13.3a9.708,9.708,0,0,0-4.5-7.591l1.151-5.99Z" transform="translate(-1569.052 -1399.131)" fill="#a6c6f4"/>
          <path id="Path_7002" data-name="Path 7002" d="M1836.02,1410.148a10.7,10.7,0,0,0-7.187-4.844l-.007-.007-1.371-5.885,6.457-.28Z" transform="translate(-1730.564 -1399.131)" fill="#a6c6f4"/>
        </g>
        <path id="Rectangle_1480" data-name="Rectangle 1480" d="M11.614,0H98.645a11.614,11.614,0,0,1,11.614,11.614v0A11.614,11.614,0,0,1,98.645,23.227H11.614A11.614,11.614,0,0,1,0,11.614v0A11.614,11.614,0,0,1,11.614,0Z" transform="translate(1.934 0)" fill="#a6c6f4"/>
      </g>
      <path id="Rectangle_1481" data-name="Rectangle 1481" d="M15.82,0H98.706a15.82,15.82,0,0,1,15.82,15.82V83.638A15.819,15.819,0,0,1,98.707,99.457H15.819A15.819,15.819,0,0,1,0,83.638V15.82A15.82,15.82,0,0,1,15.82,0Z" transform="translate(1136.773 837.997)" fill="#a6c6f4"/>
      <path id="Path_7003" data-name="Path 7003" d="M1685.71,831.75s6.019-9.146,7.474-11.486c4.376-7.038,5.095-36.771-23.458-32.462,0,0-9.859-2.666-16.689,2.074-7.236,5.022-14.272,22.012.924,41.875Z" transform="translate(-475.166 -39.64)"/>
      <path id="Path_7004" data-name="Path 7004" d="M1698.477,1038.6c-2.809-15.493-11.01-33.134-11.01-33.134,5.952-24.7-.125-52.474-.125-52.474a70.013,70.013,0,0,0-9.982-1.89c-.418-2.205-1.623-8.835-2.132-14.543-.056-.664-.105-1.314-.147-1.943a31.908,31.908,0,0,1-.021-4.313l-4.194.273-17.266,1.139-.734.049s.1,1.531.133,3.845c.054,4.152-.151,10.8-1.654,15.564-7.43.762-12.462,1.835-12.462,1.835-4.862.822-3.842,30.787,5.247,54.078,4.184,10.722-7.633,27.319-7.633,31.513S1699.492,1044.2,1698.477,1038.6Z" transform="translate(-469.228 -134.903)" fill="#ffb27d"/>
      <path id="Path_7005" data-name="Path 7005" d="M1708.958,937.1c-1.622,1.887-5.711,5.949-10.919,6.039-6.78.119-11.31-6.99-11.31-6.99a27.982,27.982,0,0,1,.6-3.894l17.266-1.139a57.265,57.265,0,0,1,4.215,4.041C1708.853,935.787,1708.9,936.437,1708.958,937.1Z" transform="translate(-502.959 -135.444)" fill="#ef9e67"/>
      <path id="Path_7006" data-name="Path 7006" d="M1686.2,869.983h0a17.135,17.135,0,0,1-17.085-17.085V838.661a11.542,11.542,0,0,1,11.508-11.508h10.362a11.542,11.542,0,0,1,11.509,11.508v15.028A16.342,16.342,0,0,1,1686.2,869.983Z" transform="translate(-491.246 -66.306)" fill="#ffb27d"/>
      <path id="Path_7007" data-name="Path 7007" d="M1673.607,801.427s-1.486,17.651-17.214,21.415-2.01-29.789,8.607-27.226S1673.607,801.427,1673.607,801.427Z" transform="translate(-478.049 -45.241)"/>
      <path id="Path_7008" data-name="Path 7008" d="M1716.018,801.427s1.486,17.651,17.214,21.415,2.01-29.789-8.607-27.226S1716.018,801.427,1716.018,801.427Z" transform="translate(-522.336 -45.241)"/>
      <path id="Path_7009" data-name="Path 7009" d="M1581.472,1268.668s11.494-26.608,22.02-31.806,52.427-.583,58.719,4.078,14.33,27.728,14.33,27.728Z" transform="translate(-432.961 -337.243)" fill="#22356b"/>
      <path id="Path_7010" data-name="Path 7010" d="M1612.773,1300.764s4.1-15.961,13.22-16.656,21.293,7.743,25.62,5.471,12.586-7.967,20.253-6.517,19.2,17.7,19.2,17.7Z" transform="translate(-453.777 -369.338)" fill="#1b2e59"/>
      <path id="Path_7011" data-name="Path 7011" d="M1662.5,1406.527l-10.877.137s-5.1-17-10.73-36.826c-.524-1.856-1.062-3.733-1.593-5.63-4.656-16.536-9.389-34.086-11.7-44.916-.552-2.6-.943-4.946-1.188-7.076-2.188-18.618,6.368-20.167,8.416-20.537,2.279-.4,16.253-6.693,24.061,17.6,2.635,8.186,5.342,30.751,3.935,51.827C1661.474,1381.389,1662.5,1406.527,1662.5,1406.527Z" transform="translate(-462.612 -374.543)" fill="#ffb27d"/>
      <path id="Path_7012" data-name="Path 7012" d="M1758.973,1361.833c-4.53,23.043-9.6,44.874-9.6,44.874l-12.621-1.215s-2.562-70.955-3.744-90.232c-1.583-25.834,11.178-25.373,13.491-25.257s17.385-2.863,19.308,22.53C1766.425,1320.781,1762.908,1341.769,1758.973,1361.833Z" transform="translate(-533.642 -374.074)" fill="#ffb27d"/>
      <path id="Path_7013" data-name="Path 7013" d="M1762.982,1499.368c-2.573,13.351-5.32,26.3-7.214,35-1.44,6.627-2.39,10.793-2.39,10.793l-13.394-1.027s-1.16-20.2-1.084-45.989c1.8.824,5.886,1.7,14.107,1.642C1755.823,1499.773,1759.123,1499.648,1762.982,1499.368Z" transform="translate(-537.651 -512.528)" fill="#fff"/>
      <g id="Group_2181" data-name="Group 2181" transform="translate(1200.188 1028.579)">
        <path id="Path_7014" data-name="Path 7014" d="M1752.164,1641.636c0,.531-.007,1.021-.021,1.454a1.75,1.75,0,0,1-1.859,1.7l-12.9-.832a1.742,1.742,0,0,1-1.636-1.818,24.021,24.021,0,0,1,1.768-7.767,1.726,1.726,0,0,1,1.146-1c6.557-1.685,10.569.014,12.01.846a1.653,1.653,0,0,1,.789,1.007A26.29,26.29,0,0,1,1752.164,1641.636Z" transform="translate(-1735.741 -1630.558)" fill="#35488b"/>
        <g id="Group_2180" data-name="Group 2180" transform="translate(1.876 0)">
          <path id="Path_7015" data-name="Path 7015" d="M1754.689,1630.6c-.013-.027-1.41-2.673-5.708-3.417a7.694,7.694,0,0,0-6.88,2.224l-.759.59c.124-.143,3.072-4.316,7.759-3.5a7.855,7.855,0,0,1,6.083,4.563Z" transform="translate(-1741.342 -1626.395)" fill="#35488b"/>
        </g>
        <path id="Path_7016" data-name="Path 7016" d="M1752.164,1655.62c0,.531-.007,1.021-.021,1.454a1.75,1.75,0,0,1-1.859,1.7l-12.9-.832a1.742,1.742,0,0,1-1.636-1.818,22.821,22.821,0,0,1,.266-2.44s.671,2.971,8.528,3.369C1749.283,1657.291,1751.311,1656.375,1752.164,1655.62Z" transform="translate(-1735.741 -1644.542)" fill="#35488b"/>
      </g>
      <path id="Path_7017" data-name="Path 7017" d="M1688.8,1544.5l-11,1.741-2.8.447a404.922,404.922,0,0,0-9.4-45.374,50.15,50.15,0,0,0,23.522-3.166C1690.017,1521.192,1688.8,1544.5,1688.8,1544.5Z" transform="translate(-488.907 -512.528)" fill="#fff"/>
      <g id="Group_2183" data-name="Group 2183" transform="translate(1185.733 1028.821)">
        <path id="Path_7018" data-name="Path 7018" d="M1708.825,1640.071c.115.519.214,1,.294,1.424a1.751,1.751,0,0,1-1.448,2.061l-12.779,1.977a1.742,1.742,0,0,1-1.99-1.421,24.037,24.037,0,0,1,.048-7.965,1.727,1.727,0,0,1,.9-1.223c6.038-3.062,10.323-2.271,11.909-1.77a1.648,1.648,0,0,1,.989.812A26.285,26.285,0,0,1,1708.825,1640.071Z" transform="translate(-1692.589 -1630.814)" fill="#35488b"/>
        <g id="Group_2182" data-name="Group 2182" transform="translate(0.419 0)">
          <path id="Path_7019" data-name="Path 7019" d="M1707,1629.931c-.019-.023-1.955-2.305-6.311-2.1a7.694,7.694,0,0,0-6.236,3.659l-.614.74c.089-.166,2.067-4.877,6.818-5.1a7.856,7.856,0,0,1,6.926,3.14Z" transform="translate(-1693.839 -1627.119)" fill="#35488b"/>
        </g>
        <path id="Path_7020" data-name="Path 7020" d="M1708.913,1654.754c.115.519.214,1,.294,1.424a1.751,1.751,0,0,1-1.448,2.06l-12.779,1.977a1.742,1.742,0,0,1-1.99-1.421,22.845,22.845,0,0,1-.268-2.439s1.3,2.755,9.055,1.446C1706.462,1657.008,1708.244,1655.676,1708.913,1654.754Z" transform="translate(-1692.677 -1645.497)" fill="#35488b"/>
      </g>
      <path id="Path_7021" data-name="Path 7021" d="M1662.124,1069.06l-15.05-7.521-4.53-2.265c-1.342-3.048-5.872-12.582-8.675-18.042.86,3.746,1.705,7.613,2.5,11.415,3.09,14.749,5.432,28.625,5.068,31.6-.832,6.767-27.27,3.719-34.085,2.09s-22.313,2.1-34.708,1.859c-7.13-.133-4.942-19.985-1.8-36.8.748-4.034,1.559-7.9,2.307-11.268-4.005,7.969-8.143,16.385-9.115,19.041l-8.535,4.488-9.682,5.1a.451.451,0,0,1-.042-.126c-.58-3.027,9.325-60.117,22.432-69.9a24.812,24.812,0,0,1,18.874-5.1s4.313,7.661,16.749,8.242a23.612,23.612,0,0,0,19.055-7.948s10.388.259,14.582,4.8C1641.593,1003.2,1661.7,1041.63,1662.124,1069.06Z" transform="translate(-409.202 -176.855)" fill="#2b478b"/>
      <path id="Path_7022" data-name="Path 7022" d="M1685.388,1199.389c-.832,6.767-27.27,3.719-34.085,2.09s-22.313,2.1-34.708,1.859c-7.13-.133-4.942-19.985-1.8-36.8,0,0,13.436,23.522,30.184,23.361s35.343-22.1,35.343-22.1C1683.409,1182.542,1685.751,1196.418,1685.388,1199.389Z" transform="translate(-453.157 -292.001)" fill="#233f77"/>
      <path id="Path_7023" data-name="Path 7023" d="M1763.959,1189.746s-25.317,18.3-36.992,23.847l1.949,7.325s36.292-7.19,53.3-21.714Z" transform="translate(-529.718 -307.437)" fill="#e8945b"/>
      <path id="Path_7024" data-name="Path 7024" d="M1695.014,1257.668s-8.711-2.7-11.39-1.184-6.408,8.4-3.845,8.51,17.185,0,17.185,0Z" transform="translate(-497.765 -351.512)" fill="#e8945b"/>
      <path id="Path_7025" data-name="Path 7025" d="M1668.23,979.192s5.828,11.444,11.5,13.232c0,0-8.072,3.053-19.838-8.473A9.648,9.648,0,0,1,1668.23,979.192Z" transform="translate(-485.114 -167.415)" fill="#fff"/>
      <path id="Path_7026" data-name="Path 7026" d="M1732.082,979.192s-7.288,11.444-12.964,13.232c0,0,9.532,3.053,21.3-8.473A9.648,9.648,0,0,0,1732.082,979.192Z" transform="translate(-524.498 -167.415)" fill="#fff"/>
      <path id="Path_7027" data-name="Path 7027" d="M1564.077,1189.746s25.316,18.3,36.992,23.847l-1.949,7.325s-36.292-7.19-53.3-21.714Z" transform="translate(-409.25 -307.437)" fill="#ffb27d"/>
      <path id="Path_7028" data-name="Path 7028" d="M1706.884,1257.668s8.711-2.7,11.391-1.184,6.408,8.4,3.844,8.51-17.184,0-17.184,0Z" transform="translate(-515.066 -351.512)" fill="#ffb27d"/>
      <path id="Path_7029" data-name="Path 7029" d="M1570.017,1190.792l-4.215,3.677-10.877,9.472c-6.019-.468-10.36-7.605-10.36-7.605a22.848,22.848,0,0,1,8.6-7.641,39.76,39.76,0,0,1,10.793-3.921Z" transform="translate(-408.418 -304.13)" fill="#fff"/>
      <path id="Path_7030" data-name="Path 7030" d="M1842.635,1196.7s-4.348,7.137-10.36,7.605l-12.366-10.772-2.726-2.377,5.151-5.837a42.52,42.52,0,0,1,8.333,2.4C1834.952,1189.432,1839.859,1192.25,1842.635,1196.7Z" transform="translate(-589.713 -304.49)" fill="#fff"/>
      <path id="Path_7031" data-name="Path 7031" d="M1716.69,1016.74a.926.926,0,1,1,.926.926A.926.926,0,0,1,1716.69,1016.74Z" transform="translate(-522.883 -191.769)" fill="#35488b"/>
      <path id="Path_7032" data-name="Path 7032" d="M1713.853,1085.333a1.764,1.764,0,1,1,1.764,1.764A1.764,1.764,0,0,1,1713.853,1085.333Z" transform="translate(-520.997 -236.827)" fill="#1b2e59"/>
      <path id="Path_7033" data-name="Path 7033" d="M1713.853,1169.78a1.764,1.764,0,1,1,1.764,1.764A1.764,1.764,0,0,1,1713.853,1169.78Z" transform="translate(-520.997 -292.986)" fill="#1b2e59"/>
      <path id="Path_7034" data-name="Path 7034" d="M1629.221,925.4s-2.751,7.837-13.3,9.92-9.116,14.292-9.116,14.292,1.867-5.777,4.453-6.192c0,0-5.171,12.081-.287,20.556s6.7,15.907,5.574,17.937c0,0,11.239-6.3,11.091-14.2s-.291-18.385,2.582-20.253c0,0,3.461-1.109,2.664-4.038s-1.307-14.305-1.307-14.305A35.567,35.567,0,0,1,1629.221,925.4Z" transform="translate(-449.762 -131.64)"/>
      <path id="Path_7035" data-name="Path 7035" d="M1700.976,925.983s.215,2.243,5.668,2.645c0,0,4.578.338,4.765-2.069C1711.409,926.559,1707.238,924.259,1700.976,925.983Z" transform="translate(-510.716 -130.732)" fill="#fff"/>
      <g id="Group_2184" data-name="Group 2184" transform="translate(1056.054 877.536)">
        <rect id="Rectangle_1482" data-name="Rectangle 1482" width="11.482" height="155.96" transform="translate(14.785 15.9)" fill="#264e6b"/>
        <path id="Rectangle_1483" data-name="Rectangle 1483" d="M7.95,0H260.912a7.95,7.95,0,0,1,7.95,7.95v0a7.95,7.95,0,0,1-7.95,7.95H7.95A7.95,7.95,0,0,1,0,7.95v0A7.95,7.95,0,0,1,7.95,0Z" transform="translate(0)" fill="#6a97c3"/>
        <rect id="Rectangle_1484" data-name="Rectangle 1484" width="11.482" height="155.96" transform="translate(247.245 15.9)" fill="#264e6b"/>
        <rect id="Rectangle_1485" data-name="Rectangle 1485" width="244.383" height="59.614" transform="translate(14.344 41.177)" fill="#6a97c3"/>
      </g>
      <g id="Group_2188" data-name="Group 2188" transform="translate(1454.455 938.638)">
        <g id="Group_2187" data-name="Group 2187" transform="translate(0 22.366)">
          <g id="Group_2185" data-name="Group 2185" transform="translate(96.89)">
            <path id="Path_7036" data-name="Path 7036" d="M2806.25,1512.828a2.25,2.25,0,0,1-.3.021,1.659,1.659,0,0,1-1.667-1.181l-18.882-80.826-.008-.007-1.371-5.885,6.458-.28,2.109,11.017,14.561,76.031A.992.992,0,0,1,2806.25,1512.828Z" transform="translate(-2784.025 -1424.669)" fill="#a6c6f4"/>
          </g>
          <g id="Group_2186" data-name="Group 2186">
            <path id="Path_7037" data-name="Path 7037" d="M2517.927,1424.949l-3.108,13.3-17.152,73.417a1.659,1.659,0,0,1-1.667,1.181,2.25,2.25,0,0,1-.3-.021.991.991,0,0,1-.9-1.112l15.519-81.057,1.151-5.99Z" transform="translate(-2494.786 -1424.669)" fill="#a6c6f4"/>
          </g>
          <path id="Path_7038" data-name="Path 7038" d="M2548.764,1424.949l-3.108,13.3a9.708,9.708,0,0,0-4.5-7.591l1.151-5.99Z" transform="translate(-2525.623 -1424.669)" fill="#a6c6f4"/>
          <path id="Path_7039" data-name="Path 7039" d="M2792.591,1435.686a10.7,10.7,0,0,0-7.187-4.844l-.008-.007-1.371-5.885,6.458-.28Z" transform="translate(-2687.135 -1424.669)" fill="#a6c6f4"/>
        </g>
        <rect id="Rectangle_1486" data-name="Rectangle 1486" width="110.259" height="23.227" rx="11.614" transform="translate(1.934)" fill="#a6c6f4"/>
      </g>
      <path id="Rectangle_1487" data-name="Rectangle 1487" d="M15.819,0H98.706a15.82,15.82,0,0,1,15.82,15.82V83.638A15.819,15.819,0,0,1,98.707,99.457H15.82A15.82,15.82,0,0,1,0,83.637V15.819A15.819,15.819,0,0,1,15.819,0Z" transform="translate(1457.208 846.552)" fill="#a6c6f4"/>
      <path id="Path_7040" data-name="Path 7040" d="M2607.216,1660.876s-.1-13.052,5.677-14.08,14.156-4.161,15.331,14.08Z" transform="translate(-1115.098 -610.809)" fill="#22356b"/>
      <path id="Path_7041" data-name="Path 7041" d="M2696.253,1660.876s-.1-13.052,5.677-14.08,14.156-4.161,15.331,14.08Z" transform="translate(-1174.309 -610.809)" fill="#22356b"/>
      <path id="Path_7042" data-name="Path 7042" d="M2565.373,1269.247a88.239,88.239,0,0,0-6.619,24.586h81.609s-7.476-23.9-14.177-26.546S2565.373,1269.247,2565.373,1269.247Z" transform="translate(-1082.87 -358.458)" fill="#1b2e59"/>
      <path id="Path_7043" data-name="Path 7043" d="M2607.926,816.887s-5.472-11.6-8.8-20.71c-3.973-10.869,2.373-25.857,24.41-24.988,0,0,7.162-.114,9.475-1.548,0,0-.6,2.518-1.345,3.069,0,0,17.478,1.12,17.218,8.932-.793,23.908-6.819,31.516-6.819,31.516Z" transform="translate(-1108.979 -28.06)"/>
      <path id="Path_7044" data-name="Path 7044" d="M2658.221,1043.6c-2.873-15.846-11.261-33.889-11.261-33.889,6.088-25.262-.128-53.67-.128-53.67a71.624,71.624,0,0,0-10.209-1.932c-.428-2.256-1.66-9.036-2.181-14.874-.058-.679-.107-1.344-.15-1.988a32.649,32.649,0,0,1-.021-4.411l-4.29.279-17.66,1.165-.751.05s.107,1.566.136,3.932c.054,4.247-.155,11.043-1.692,15.919-7.6.779-12.746,1.878-12.746,1.878-4.972.84-3.93,31.489,5.367,55.31,4.28,10.967-7.807,27.942-7.807,32.232S2659.259,1049.326,2658.221,1043.6Z" transform="translate(-1106.527 -136.587)" fill="#ffb27d"/>
      <path id="Path_7045" data-name="Path 7045" d="M2668.941,935.769c-1.659,1.931-5.841,6.084-11.168,6.177-6.935.122-11.568-7.149-11.568-7.149a28.545,28.545,0,0,1,.615-3.983l21.1-3.19c.826.523.686,4.2.874,6.157C2668.834,934.424,2668.884,935.089,2668.941,935.769Z" transform="translate(-1141.027 -133.121)" fill="#ef9e67"/>
      <path id="Path_7046" data-name="Path 7046" d="M2645.067,866.113h0a17.525,17.525,0,0,1-17.484-17.465l-.009-14.561a11.805,11.805,0,0,1,11.764-11.777l10.6-.006a11.805,11.805,0,0,1,11.777,11.764l.009,15.37A16.714,16.714,0,0,1,2645.067,866.113Z" transform="translate(-1128.637 -63.082)" fill="#ffb27d"/>
      <path id="Path_7048" data-name="Path 7048" d="M2621.046,1074.752l-15.4-7.691-4.632-2.318c-1.375-3.116-6.007-12.87-8.876-18.453.644,2.794,1.278,5.654,1.886,8.506.229,1.058.449,2.115.67,3.169,3.16,15.086,5.553,29.278,5.183,32.32-.85,6.919-27.894,3.8-34.862,2.137s-22.821,2.147-35.5,1.9c-7.29-.132-5.055-20.441-1.842-37.643.762-4.125,1.6-8.078,2.358-11.525-4.094,8.154-8.33,16.761-9.321,19.476l-8.731,4.593-9.652,5.077-.251.132a.346.346,0,0,1-.04-.127v0c-.586-3.138,9.542-61.487,22.94-71.491a14.3,14.3,0,0,1,1.247-.957,25.781,25.781,0,0,1,18.057-4.257s4.412,7.836,17.132,8.431a24.14,24.14,0,0,0,19.489-8.131,33.76,33.76,0,0,1,11.062,2.309,11.653,11.653,0,0,1,3.852,2.6C2600.045,1007.391,2620.614,1046.7,2621.046,1074.752Z" transform="translate(-1045.138 -179.493)" fill="#2b478b"/>
      <path id="Path_7049" data-name="Path 7049" d="M2644.833,1208.056c-.851,6.921-27.891,3.8-34.862,2.137s-22.822,2.145-35.5,1.9c-7.293-.136-5.055-20.441-1.845-37.643,0,0,13.742,24.059,30.872,23.894s36.149-22.607,36.149-22.607C2642.81,1190.825,2645.2,1205.017,2644.833,1208.056Z" transform="translate(-1090.09 -297.266)" fill="#233f77"/>
      <path id="Path_7050" data-name="Path 7050" d="M2735.109,1196.413s-21.832,23.331-32.468,31.181l3.391,6.972s33.726-12.764,47.96-30.674Z" transform="translate(-1178.558 -311.871)" fill="#e8945b"/>
      <path id="Path_7051" data-name="Path 7051" d="M2688.539,1284.613s-8.981,2.516-10.443,5.3-.844,10.77,1.42,9.444,14.764-9.537,14.764-9.537Z" transform="translate(-1161.709 -370.525)" fill="#e8945b"/>
      <path id="Path_7052" data-name="Path 7052" d="M2627.284,982.839s5.961,11.705,11.766,13.533c0,0-8.255,3.123-20.291-8.666A9.867,9.867,0,0,1,2627.284,982.839Z" transform="translate(-1122.776 -169.84)" fill="#fff"/>
      <path id="Path_7053" data-name="Path 7053" d="M2692.593,982.839s-7.454,11.705-13.26,13.533c0,0,9.749,3.123,21.784-8.666A9.867,9.867,0,0,0,2692.593,982.839Z" transform="translate(-1163.057 -169.84)" fill="#fff"/>
      <path id="Path_7054" data-name="Path 7054" d="M2525.053,1196.413s22.723,22.464,33.656,29.895l-3.117,7.1s-32.233-10.956-47.151-28.3Z" transform="translate(-1049.411 -311.871)" fill="#ffb27d"/>
      <path id="Path_7055" data-name="Path 7055" d="M2625.19,1279.751s9.306.636,11.3,3.069,3.018,10.373.532,9.536-16.4-6.334-16.4-6.334Z" transform="translate(-1124.019 -367.292)" fill="#ffb27d"/>
      <path id="Path_7056" data-name="Path 7056" d="M2673.947,1091.4a1.8,1.8,0,1,1,1.8,1.8A1.8,1.8,0,0,1,2673.947,1091.4Z" transform="translate(-1159.476 -240.836)" fill="#1b2e59"/>
      <path id="Path_7057" data-name="Path 7057" d="M2673.947,1177.772a1.8,1.8,0,1,1,1.8,1.8A1.8,1.8,0,0,1,2673.947,1177.772Z" transform="translate(-1159.476 -298.274)" fill="#a53d38"/>
      <path id="Path_7058" data-name="Path 7058" d="M2653.274,800.306c-.441-.294-31-4.537-31-4.537l-8.664,6.175-1.318,8.705,5.119,5.792s1.639-5.612,5.458-5.8,16.458,7.3,20.129,3.919,6.229-4.582,7.816-2.22S2653.715,800.6,2653.274,800.306Z" transform="translate(-1118.474 -45.435)"/>
      <path id="Path_7059" data-name="Path 7059" d="M2605.051,1415.734a38.137,38.137,0,0,1-13.121,2.221,44.743,44.743,0,0,1-16.409-3.005s-4.562-31.966-7.29-59.31c-1.547-15.549-2.5-29.6-1.688-35.43,2.248-16.073,9.56-25.36,18.788-24.584s17.859,7.166,18.5,14.923S2605.051,1415.734,2605.051,1415.734Z" transform="translate(-1087.853 -377.819)" fill="#2b478b"/>
      <path id="Path_7060" data-name="Path 7060" d="M2711.586,1391.994c-1.653,13.244-3,22.9-3,22.9-16.28,6.32-29.525.877-29.525.877s.2-75.282.67-98.764c.062-3.23.133-5.483.208-6.421.617-7.757,9.229-14.183,18.454-14.985s16.567,8.458,18.867,24.527C2718.753,1330.573,2714.645,1367.441,2711.586,1391.994Z" transform="translate(-1162.876 -377.804)" fill="#2b478b"/>
      <path id="Path_7061" data-name="Path 7061" d="M2533.437,1041.935l-3.4,12.142c-4.094,8.154-8.33,16.761-9.321,19.476l-8.731,4.593-9.652,5.077h-.291c-.586-3.138,9.542-61.487,22.94-71.491a14.318,14.318,0,0,1,1.247-.957C2530.546,1018.929,2538.493,1035.888,2533.437,1041.935Z" transform="translate(-1045.138 -188.418)" fill="#fff"/>
      <path id="Path_7062" data-name="Path 7062" d="M2526.833,1199.262l-4.311,3.761-11.125,9.688c-6.156-.479-10.6-7.779-10.6-7.779a23.357,23.357,0,0,1,8.794-7.814,40.658,40.658,0,0,1,11.039-4.011Z" transform="translate(-1044.331 -309.672)" fill="#fff"/>
      <path id="Path_7063" data-name="Path 7063" d="M2788.9,1080.405l-9-4.5-6.4-3.2-4.632-2.318c-1.375-3.116-6.007-12.87-8.876-18.453.644,2.794,1.278,5.654,1.886,8.506l-6.677-24.738c-2.967-4.372,3.3-25.563,4.614-29.855a11.649,11.649,0,0,1,3.852,2.6c1.366,1.481,4.438,6.589,7.987,13.773l0,0a.038.038,0,0,0,0,.018C2779.093,1037.3,2788.6,1061.427,2788.9,1080.405Z" transform="translate(-1212.987 -185.146)" fill="#fff"/>
      <path id="Path_7064" data-name="Path 7064" d="M2805.664,1205.3s-4.447,7.3-10.6,7.779l-12.648-11.018-2.789-2.431,5.27-5.97a43.5,43.5,0,0,1,8.522,2.452C2797.807,1197.872,2802.826,1200.754,2805.664,1205.3Z" transform="translate(-1229.758 -310.041)" fill="#fff"/>
      <path id="Path_7065" data-name="Path 7065" d="M2711.586,1427.018c-1.653,13.244-3,22.9-3,22.9-16.28,6.32-29.525.877-29.525.877s.2-75.282.67-98.764c.52-2.283.833-3.636.873-3.812C2680.5,1349.7,2675.966,1417.525,2711.586,1427.018Z" transform="translate(-1162.876 -412.828)" fill="#233f77"/>
      <path id="Path_7066" data-name="Path 7066" d="M2595.872,1537.187a44.742,44.742,0,0,1-16.409-3.006s-4.562-31.966-7.29-59.31C2572.328,1475.626,2581.791,1521.581,2595.872,1537.187Z" transform="translate(-1091.795 -497.051)" fill="#233f77"/>
      <g id="Group_2189" data-name="Group 2189" transform="translate(1369.558 874.698)">
        <rect id="Rectangle_1488" data-name="Rectangle 1488" width="11.482" height="155.96" transform="translate(18.589 15.9)" fill="#264e6b"/>
        <rect id="Rectangle_1489" data-name="Rectangle 1489" width="268.862" height="15.9" rx="7.95" transform="translate(0 0)" fill="#6a97c3"/>
        <rect id="Rectangle_1490" data-name="Rectangle 1490" width="11.482" height="155.96" transform="translate(251.048 15.9)" fill="#264e6b"/>
        <rect id="Rectangle_1491" data-name="Rectangle 1491" width="244.383" height="59.614" transform="translate(18.147 41.177)" fill="#6a97c3"/>
      </g>
      <g id="Group_2194" data-name="Group 2194" transform="translate(1064.586 862.357)">
        <g id="Group_2192" data-name="Group 2192" transform="translate(0 0)">
          <g id="Group_2190" data-name="Group 2190" transform="translate(2.705 6.107)">
            <rect id="Rectangle_1492" data-name="Rectangle 1492" width="32.818" height="5.52" transform="translate(19.094 0.588)" fill="#efdece"/>
            <path id="Path_7067" data-name="Path 7067" d="M1391.62,1153.937h-49.4l-.148-4.932h49.52a.285.285,0,0,0,.287-.286.31.31,0,0,0-.311-.3h-50.963a1,1,0,0,0-.868.5,4.913,4.913,0,0,0,.329,5.606h51.479a.333.333,0,0,0,.333-.329A.26.26,0,0,0,1391.62,1153.937Z" transform="translate(-1339.011 -1148.417)" fill="#2a4e96"/>
            <path id="Path_7068" data-name="Path 7068" d="M1374.985,1155.1l-31.812.032a1,1,0,0,1-1.006-1.005v-3.352a.607.607,0,0,1,.607-.607h32.211Z" transform="translate(-1341.11 -1149.584)" fill="#fcecdb"/>
            <path id="Path_7069" data-name="Path 7069" d="M1411.779,1157.911l9.5-.088v.324Z" transform="translate(-1387.403 -1154.672)" fill="#efdece"/>
            <path id="Path_7070" data-name="Path 7070" d="M1429.923,1161.182l3.422-.17v.222Z" transform="translate(-1399.469 -1156.793)" fill="#efdece"/>
          </g>
          <g id="Group_2191" data-name="Group 2191">
            <rect id="Rectangle_1493" data-name="Rectangle 1493" width="28.997" height="5.52" transform="translate(16.871 0.588)" fill="#efdece"/>
            <path id="Path_7071" data-name="Path 7071" d="M1377.418,1135.706h-43.646l-.131-4.932h43.754a.27.27,0,0,0,.254-.286.293.293,0,0,0-.275-.3h-45.028a.87.87,0,0,0-.767.5,5.45,5.45,0,0,0,.29,5.607h45.485a.315.315,0,0,0,.294-.329A.246.246,0,0,0,1377.418,1135.706Z" transform="translate(-1330.935 -1130.186)" fill="#a9453d"/>
            <path id="Path_7072" data-name="Path 7072" d="M1362.72,1136.874l-28.108.032a.952.952,0,0,1-.889-1.005v-3.352a.576.576,0,0,1,.536-.608h28.461Z" transform="translate(-1332.789 -1131.354)" fill="#fcecdb"/>
            <path id="Path_7073" data-name="Path 7073" d="M1395.229,1139.681l8.393-.088v.324Z" transform="translate(-1373.692 -1136.442)" fill="#efdece"/>
            <path id="Path_7074" data-name="Path 7074" d="M1411.26,1142.952l3.023-.17V1143Z" transform="translate(-1384.353 -1138.563)" fill="#efdece"/>
          </g>
        </g>
        <g id="Group_2193" data-name="Group 2193" transform="translate(23.152 9.339)">
          <path id="Path_7075" data-name="Path 7075" d="M1406.181,1158.066a3.285,3.285,0,0,0-.922.391,1.233,1.233,0,0,0-.66,1.048.6.6,0,0,1-.045.246h-2.643a1.1,1.1,0,0,0,.136-.531,1.219,1.219,0,0,1,.277-.762,1.637,1.637,0,0,1,.444-.391Z" transform="translate(-1401.287 -1158.066)" fill="#c94c43"/>
          <path id="Path_7076" data-name="Path 7076" d="M1403.316,1163.094c-.2.484-1,.6-1,.6l-.925-.231-1.343.231a1.61,1.61,0,0,0,.624-.6Z" transform="translate(-1400.049 -1161.41)" fill="#a9453d"/>
          <path id="Path_7077" data-name="Path 7077" d="M1407,1158.066a3.285,3.285,0,0,0-.922.391h-2.935a1.638,1.638,0,0,1,.443-.391Z" transform="translate(-1402.107 -1158.066)" fill="#a9453d"/>
        </g>
      </g>
      <g id="Group_2205" data-name="Group 2205" transform="translate(1555.877 850.067)">
        <g id="Group_2196" data-name="Group 2196" transform="translate(0 9.634)">
          <g id="Group_2195" data-name="Group 2195">
            <path id="Rectangle_1494" data-name="Rectangle 1494" d="M0,0H23.193a4.176,4.176,0,0,1,4.176,4.176v0A4.271,4.271,0,0,1,23.1,8.446H0a0,0,0,0,1,0,0V0A0,0,0,0,1,0,0Z" transform="translate(1.27 0)" fill="#fcecdb"/>
            <path id="Path_7078" data-name="Path 7078" d="M2846.6,1125.731V1127a3.7,3.7,0,0,1-3.7,3.7h-44.813a.537.537,0,0,1-.537-.537v-.19a.537.537,0,0,1,.537-.536h27.317a3.447,3.447,0,0,0,.784-2.191v-1.615a3.362,3.362,0,0,0-.744-2.114h-27.357a.537.537,0,0,1-.537-.537v-.19a.537.537,0,0,1,.537-.537h45.038a3.473,3.473,0,0,1,3.475,3.475Z" transform="translate(-2797.554 -1122.256)" fill="#699dee"/>
            <path id="Path_7079" data-name="Path 7079" d="M2846.47,1124.774h-20.389a3.363,3.363,0,0,0-.634-1.254h-27.357a.537.537,0,0,1-.537-.537v-.19a.537.537,0,0,1,.537-.537h45.038A3.476,3.476,0,0,1,2846.47,1124.774Z" transform="translate(-2797.554 -1122.256)" fill="#548ee2"/>
          </g>
          <path id="Path_7080" data-name="Path 7080" d="M2801.344,1134.863l3.318.142-3.318.086Z" transform="translate(-2800.074 -1130.64)" fill="#f4d2b8"/>
          <path id="Path_7081" data-name="Path 7081" d="M2801.344,1138.82l7.894.142-7.894.085Z" transform="translate(-2800.074 -1133.272)" fill="#f4d2b8"/>
        </g>
        <g id="Group_2200" data-name="Group 2200" transform="translate(3.585 18.063)">
          <g id="Group_2198" data-name="Group 2198">
            <g id="Group_2197" data-name="Group 2197">
              <path id="Path_7082" data-name="Path 7082" d="M2811.644,1153.988H2837.1v-6.57h-25.664a3.181,3.181,0,0,0-3.181,3.182h0A3.388,3.388,0,0,0,2811.644,1153.988Z" transform="translate(-2808.256 -1147.418)" fill="#2b478b"/>
              <path id="Rectangle_1495" data-name="Rectangle 1495" d="M0,0H28.96a3.322,3.322,0,0,1,3.322,3.322v0A3.248,3.248,0,0,1,29.034,6.57H0a0,0,0,0,1,0,0V0A0,0,0,0,1,0,0Z" transform="translate(56.358 6.57) rotate(180)" fill="#fcecdb"/>
              <path id="Path_7083" data-name="Path 7083" d="M2873.379,1165.08H2908.6a.491.491,0,0,0,.491-.491h0a.491.491,0,0,0-.491-.491h-35.222a.491.491,0,0,0-.491.491h0A.491.491,0,0,0,2873.379,1165.08Z" transform="translate(-2851.238 -1158.51)" fill="#2b478b"/>
              <path id="Path_7084" data-name="Path 7084" d="M2873.379,1148.4H2908.6a.492.492,0,0,0,.491-.491h0a.491.491,0,0,0-.491-.491h-35.222a.491.491,0,0,0-.491.491h0A.492.492,0,0,0,2873.379,1148.4Z" transform="translate(-2851.238 -1147.418)" fill="#2b478b"/>
            </g>
            <path id="Path_7085" data-name="Path 7085" d="M2968.727,1157.224l-3.914.111,3.914.066Z" transform="translate(-2912.37 -1153.939)" fill="#f4d2b8"/>
            <path id="Path_7086" data-name="Path 7086" d="M2958.012,1152.711l-9.311.11,9.311.066Z" transform="translate(-2901.655 -1150.938)" fill="#f4d2b8"/>
          </g>
          <g id="Group_2199" data-name="Group 2199" transform="translate(47.142 1.862)">
            <path id="Path_7087" data-name="Path 7087" d="M2948.987,1152.975a1.529,1.529,0,0,1,.531.746,1.043,1.043,0,0,1,.041.26c.022.616,0,2.012,0,2.012l1.178-.7,1.175.7V1154.1a1.5,1.5,0,0,0-.288-.933.446.446,0,0,0-.325-.193Z" transform="translate(-2948.987 -1152.975)" fill="#699dee"/>
            <path id="Path_7088" data-name="Path 7088" d="M2948.987,1152.975a1.529,1.529,0,0,1,.531.746l2.361.028s-.093-.664-.58-.774Z" transform="translate(-2948.987 -1152.975)" fill="#568cdb"/>
          </g>
        </g>
        <g id="Group_2204" data-name="Group 2204" transform="translate(2.5)">
          <g id="Group_2202" data-name="Group 2202">
            <g id="Group_2201" data-name="Group 2201">
              <path id="Rectangle_1496" data-name="Rectangle 1496" d="M0,0H24.987a4.88,4.88,0,0,1,4.88,4.88v0A4.772,4.772,0,0,1,25.1,9.652H0a0,0,0,0,1,0,0V0A0,0,0,0,1,0,0Z" transform="translate(51.517 9.652) rotate(180)" fill="#fcecdb"/>
              <path id="Path_7089" data-name="Path 7089" d="M2827.279,1097.24v2.077a2.4,2.4,0,0,0,1.219,2.069,2.427,2.427,0,0,0,1.2.317h28.247a.6.6,0,0,1,.6.6v.245a.6.6,0,0,1-.6.6h-48.8a4.132,4.132,0,0,1-4.132-4.133v-1.639a3.877,3.877,0,0,1,3.88-3.88h49.049a.6.6,0,0,1,.6.6v.245a.6.6,0,0,1-.6.6h-28.333a2.34,2.34,0,0,0-1.718.749A2.3,2.3,0,0,0,2827.279,1097.24Z" transform="translate(-2805.018 -1093.495)" fill="#b5453c"/>
            </g>
            <path id="Path_7090" data-name="Path 7090" d="M2951.619,1107.9l-3.621.162,3.621.1Z" transform="translate(-2900.102 -1103.076)" fill="#f4d2b8"/>
            <path id="Path_7091" data-name="Path 7091" d="M2941.7,1101.271l-8.615.162,8.615.1Z" transform="translate(-2890.188 -1098.667)" fill="#f4d2b8"/>
          </g>
          <g id="Group_2203" data-name="Group 2203" transform="translate(42.991 2.735)">
            <path id="Path_7092" data-name="Path 7092" d="M2933.355,1101.659a1.809,1.809,0,0,1,.757.809.9.9,0,0,1,.059.282c.031.668,0,2.181,0,2.181l1.679-.757,1.674.757v-2.05a1.38,1.38,0,0,0-.41-1.012.694.694,0,0,0-.464-.21Z" transform="translate(-2933.355 -1101.659)" fill="#f99746"/>
            <path id="Path_7093" data-name="Path 7093" d="M2933.355,1101.659a1.809,1.809,0,0,1,.757.809l3.364.03a1.073,1.073,0,0,0-.826-.839Z" transform="translate(-2933.355 -1101.659)" fill="#ed7d2b"/>
          </g>
        </g>
      </g>
      <g id="Group_2212" data-name="Group 2212" transform="translate(1399.629 821.942)">
        <g id="Group_2207" data-name="Group 2207">
          <g id="Group_2206" data-name="Group 2206">
            <path id="Rectangle_1497" data-name="Rectangle 1497" d="M0,0H17.139a3.086,3.086,0,0,1,3.086,3.086v0a3.156,3.156,0,0,1-3.156,3.156H0a0,0,0,0,1,0,0V0A0,0,0,0,1,0,0Z" transform="translate(0.938 0)" fill="#fcecdb"/>
            <path id="Path_7094" data-name="Path 7094" d="M2367.363,1012.1v.939a2.735,2.735,0,0,1-2.735,2.734h-33.115a.4.4,0,0,1-.4-.4v-.14a.4.4,0,0,1,.4-.4H2351.7a2.56,2.56,0,0,0,.579-1.619v-1.194a2.481,2.481,0,0,0-.55-1.562h-20.216a.4.4,0,0,1-.4-.4v-.14a.4.4,0,0,1,.4-.4h33.282a2.568,2.568,0,0,1,2.568,2.568Z" transform="translate(-2331.116 -1009.536)" fill="#699dee"/>
            <path id="Path_7095" data-name="Path 7095" d="M2367.263,1011.4H2352.2a2.488,2.488,0,0,0-.469-.927h-20.216a.4.4,0,0,1-.4-.4v-.14a.4.4,0,0,1,.4-.4h33.282A2.569,2.569,0,0,1,2367.263,1011.4Z" transform="translate(-2331.116 -1009.536)" fill="#548ee2"/>
          </g>
          <path id="Path_7096" data-name="Path 7096" d="M2333.917,1018.852l2.452.1-2.452.063Z" transform="translate(-2332.979 -1015.732)" fill="#f4d2b8"/>
          <path id="Path_7097" data-name="Path 7097" d="M2333.917,1021.776l5.833.1-5.833.063Z" transform="translate(-2332.979 -1017.676)" fill="#f4d2b8"/>
        </g>
        <g id="Group_2211" data-name="Group 2211" transform="translate(2.649 6.229)">
          <g id="Group_2209" data-name="Group 2209" transform="translate(0 0)">
            <g id="Group_2208" data-name="Group 2208">
              <path id="Path_7098" data-name="Path 7098" d="M2341.527,1032.985h18.813v-4.855h-18.965a2.351,2.351,0,0,0-2.352,2.351h0A2.5,2.5,0,0,0,2341.527,1032.985Z" transform="translate(-2339.023 -1028.13)" fill="#2b478b"/>
              <path id="Rectangle_1498" data-name="Rectangle 1498" d="M0,0H21.4a2.455,2.455,0,0,1,2.455,2.455v0a2.4,2.4,0,0,1-2.4,2.4H0a0,0,0,0,1,0,0V0A0,0,0,0,1,0,0Z" transform="translate(41.647 4.855) rotate(-180)" fill="#fcecdb"/>
              <path id="Path_7099" data-name="Path 7099" d="M2387.148,1041.181h26.028a.363.363,0,0,0,.363-.363h0a.363.363,0,0,0-.363-.363h-26.028a.363.363,0,0,0-.363.363h0A.363.363,0,0,0,2387.148,1041.181Z" transform="translate(-2370.785 -1036.326)" fill="#2b478b"/>
              <path id="Path_7100" data-name="Path 7100" d="M2387.148,1028.856h26.028a.363.363,0,0,0,.363-.363h0a.363.363,0,0,0-.363-.363h-26.028a.363.363,0,0,0-.363.363h0A.363.363,0,0,0,2387.148,1028.856Z" transform="translate(-2370.785 -1028.13)" fill="#2b478b"/>
            </g>
            <path id="Path_7101" data-name="Path 7101" d="M2457.607,1035.376l-2.892.082,2.892.049Z" transform="translate(-2415.96 -1032.949)" fill="#f4d2b8"/>
            <path id="Path_7102" data-name="Path 7102" d="M2449.689,1032.041l-6.881.081,6.881.049Z" transform="translate(-2408.042 -1030.731)" fill="#f4d2b8"/>
          </g>
          <g id="Group_2210" data-name="Group 2210" transform="translate(34.838 1.375)">
            <path id="Path_7103" data-name="Path 7103" d="M2443.021,1032.236a1.134,1.134,0,0,1,.392.552.787.787,0,0,1,.031.192c.016.456,0,1.487,0,1.487l.871-.516.869.516v-1.4a1.109,1.109,0,0,0-.213-.69.33.33,0,0,0-.24-.143Z" transform="translate(-2443.021 -1032.236)" fill="#699dee"/>
            <path id="Path_7104" data-name="Path 7104" d="M2443.021,1032.236a1.134,1.134,0,0,1,.392.552l1.744.02s-.068-.491-.428-.572Z" transform="translate(-2443.021 -1032.236)" fill="#568cdb"/>
          </g>
        </g>
      </g>
    </g>
    <g id="Group_2223" data-name="Group 2223">
      <g id="Group_2219" data-name="Group 2219" transform="translate(-4.921 -0.806)">
        <g id="Group_2218" data-name="Group 2218" transform="translate(1241.388 356.206)">
          <g id="Group_2214" data-name="Group 2214" transform="translate(0 0.098)">
            <path id="Path_7105" data-name="Path 7105" d="M584.381,712.122a.908.908,0,0,1-.455-1.694c4.872-2.8,8.175-2.06,8.314-2.029a.909.909,0,0,1-.411,1.771c-.064-.016-2.832-.556-7,1.832A.909.909,0,0,1,584.381,712.122Z" transform="translate(-583.471 -708.289)"/>
          </g>
          <g id="Group_2215" data-name="Group 2215" transform="translate(17.09)">
            <path id="Path_7106" data-name="Path 7106" d="M661.5,712.427a.9.9,0,0,1-.633-.258,8.783,8.783,0,0,0-6.609-2.443.908.908,0,1,1-.213-1.8,10.557,10.557,0,0,1,8.09,2.947.907.907,0,0,1-.636,1.556Z" transform="translate(-653.243 -707.89)"/>
          </g>
          <path id="Path_7107" data-name="Path 7107" d="M612.007,779.922a29.671,29.671,0,0,0,12.268,0,5.883,5.883,0,0,1-6.2,5.324A5.7,5.7,0,0,1,612.007,779.922Z" transform="translate(-605.017 -762.278)"/>
          <path id="Path_7108" data-name="Path 7108" d="M627.751,795.78a7.267,7.267,0,0,0,2.21.323,6.385,6.385,0,0,0,3.723-1.043A4.643,4.643,0,0,0,627.751,795.78Z" transform="translate(-616.905 -773.135)" fill="#444343"/>
          <path id="Path_7109" data-name="Path 7109" d="M623.592,782.148a6.571,6.571,0,0,0,.683-2.226,87.877,87.877,0,0,1-12.268,0,6.437,6.437,0,0,0,.627,2.226,25.233,25.233,0,0,0,5.573.473A22.264,22.264,0,0,0,623.592,782.148Z" transform="translate(-605.017 -762.278)" fill="#fff"/>
          <path id="Path_7110" data-name="Path 7110" d="M608.924,730.765c0,1.264-.665,2.292-1.484,2.292s-1.481-1.027-1.481-2.292.663-2.293,1.481-2.293S608.924,729.5,608.924,730.765Z" transform="translate(-600.451 -723.431)"/>
          <path id="Path_7111" data-name="Path 7111" d="M656.394,730.765c0,1.264.665,2.292,1.484,2.292s1.484-1.027,1.484-2.292-.665-2.293-1.484-2.293S656.394,729.5,656.394,730.765Z" transform="translate(-638.532 -723.431)"/>
          <g id="Group_2217" data-name="Group 2217" transform="translate(11.182 7.063)">
            <g id="Group_2216" data-name="Group 2216" transform="translate(0 0)">
              <path id="Path_7112" data-name="Path 7112" d="M630.682,736.727a12.646,12.646,0,0,1,.4,1.9,4.064,4.064,0,0,1-.036,1.018,4.65,4.65,0,0,1-.281,1l-.007.013-.027.05a9.77,9.77,0,0,0-.505,1.117c-.078.2-.138.4-.2.591l-.081.284-.041.225a1.7,1.7,0,0,0,.019.234.677.677,0,0,0,.089.206,1.335,1.335,0,0,0,.388.378,4.741,4.741,0,0,0,1.183.538,3.093,3.093,0,0,1-1.4-.087,1.683,1.683,0,0,1-.678-.406,1.41,1.41,0,0,1-.255-.363,1.572,1.572,0,0,1-.12-.415,2.251,2.251,0,0,1,.009-.439c.018-.122.034-.251.059-.368a5.969,5.969,0,0,1,.195-.682,5.853,5.853,0,0,1,.611-1.3l-.034.063a6.635,6.635,0,0,0,.306-.8,4.935,4.935,0,0,0,.178-.861C630.541,738.023,630.536,737.358,630.682,736.727Z" transform="translate(-629.122 -736.727)"/>
            </g>
          </g>
        </g>
      </g>
      <g id="Group_2220" data-name="Group 2220" transform="translate(-46.109 -7.829)">
        <g id="Group_2214-2" data-name="Group 2214" transform="translate(1115.466 340.469)">
          <path id="Path_7105-2" data-name="Path 7105" d="M584.112,710.986a.639.639,0,0,1-.32-1.192c3.428-1.967,5.752-1.45,5.85-1.427a.64.64,0,0,1-.29,1.246c-.045-.011-1.992-.391-4.924,1.289A.639.639,0,0,1,584.112,710.986Z" transform="translate(-583.471 -708.289)"/>
        </g>
        <g id="Group_2215-2" data-name="Group 2215" transform="translate(1127.491 340.4)">
          <path id="Path_7106-2" data-name="Path 7106" d="M659.052,711.082a.636.636,0,0,1-.446-.182,6.18,6.18,0,0,0-4.65-1.719.639.639,0,1,1-.15-1.268,7.429,7.429,0,0,1,5.693,2.073.638.638,0,0,1-.447,1.095Z" transform="translate(-653.243 -707.89)"/>
        </g>
        <path id="Path_7110-2" data-name="Path 7110" d="M608.045,730.086c0,.89-.468,1.612-1.044,1.612s-1.042-.723-1.042-1.612.466-1.614,1.042-1.614S608.045,729.195,608.045,730.086Z" transform="translate(513.383 -384.525)"/>
        <path id="Path_7111-2" data-name="Path 7111" d="M656.394,730.086c0,.89.468,1.612,1.044,1.612s1.044-.723,1.044-1.612-.468-1.614-1.044-1.614S656.394,729.195,656.394,730.086Z" transform="translate(471.641 -384.525)"/>
        <g id="Group_2217-2" data-name="Group 2217" transform="translate(1123.334 345.37)">
          <g id="Group_2216-2" data-name="Group 2216" transform="translate(0 0)">
            <path id="Path_7112-2" data-name="Path 7112" d="M630.22,736.727a8.908,8.908,0,0,1,.282,1.335,2.859,2.859,0,0,1-.026.716,3.268,3.268,0,0,1-.2.7l0,.01-.019.035a6.887,6.887,0,0,0-.356.786c-.055.138-.1.279-.144.416l-.057.2-.029.158a1.185,1.185,0,0,0,.014.165.475.475,0,0,0,.063.145.939.939,0,0,0,.273.266,3.336,3.336,0,0,0,.832.379,2.177,2.177,0,0,1-.983-.061,1.183,1.183,0,0,1-.477-.286.99.99,0,0,1-.18-.255,1.111,1.111,0,0,1-.084-.292,1.585,1.585,0,0,1,.006-.309c.013-.086.024-.177.041-.259a4.2,4.2,0,0,1,.137-.48,4.115,4.115,0,0,1,.43-.917l-.024.044a4.65,4.65,0,0,0,.216-.565,3.474,3.474,0,0,0,.125-.606C630.121,737.639,630.117,737.171,630.22,736.727Z" transform="translate(-629.122 -736.727)"/>
          </g>
        </g>
      </g>
      <g id="Group_2221" data-name="Group 2221" transform="translate(-366.109 -11.829)">
        <g id="Group_2214-3" data-name="Group 2214" transform="translate(1115.466 340.469)">
          <path id="Path_7105-3" data-name="Path 7105" d="M584.112,710.986a.639.639,0,0,1-.32-1.192c3.428-1.967,5.752-1.45,5.85-1.427a.64.64,0,0,1-.29,1.246c-.045-.011-1.992-.391-4.924,1.289A.639.639,0,0,1,584.112,710.986Z" transform="translate(-583.471 -708.289)"/>
        </g>
        <g id="Group_2215-3" data-name="Group 2215" transform="translate(1127.491 340.4)">
          <path id="Path_7106-3" data-name="Path 7106" d="M659.052,711.082a.636.636,0,0,1-.446-.182,6.18,6.18,0,0,0-4.65-1.719.639.639,0,1,1-.15-1.268,7.429,7.429,0,0,1,5.693,2.073.638.638,0,0,1-.447,1.095Z" transform="translate(-653.243 -707.89)"/>
        </g>
        <path id="Path_7110-3" data-name="Path 7110" d="M608.045,730.086c0,.89-.468,1.612-1.044,1.612s-1.042-.723-1.042-1.612.466-1.614,1.042-1.614S608.045,729.195,608.045,730.086Z" transform="translate(513.383 -384.525)"/>
        <path id="Path_7111-3" data-name="Path 7111" d="M656.394,730.086c0,.89.468,1.612,1.044,1.612s1.044-.723,1.044-1.612-.468-1.614-1.044-1.614S656.394,729.195,656.394,730.086Z" transform="translate(471.641 -384.525)"/>
        <g id="Group_2217-3" data-name="Group 2217" transform="translate(1123.334 345.37)">
          <g id="Group_2216-3" data-name="Group 2216" transform="translate(0 0)">
            <path id="Path_7112-3" data-name="Path 7112" d="M630.22,736.727a8.908,8.908,0,0,1,.282,1.335,2.859,2.859,0,0,1-.026.716,3.268,3.268,0,0,1-.2.7l0,.01-.019.035a6.887,6.887,0,0,0-.356.786c-.055.138-.1.279-.144.416l-.057.2-.029.158a1.185,1.185,0,0,0,.014.165.475.475,0,0,0,.063.145.939.939,0,0,0,.273.266,3.336,3.336,0,0,0,.832.379,2.177,2.177,0,0,1-.983-.061,1.183,1.183,0,0,1-.477-.286.99.99,0,0,1-.18-.255,1.111,1.111,0,0,1-.084-.292,1.585,1.585,0,0,1,.006-.309c.013-.086.024-.177.041-.259a4.2,4.2,0,0,1,.137-.48,4.115,4.115,0,0,1,.43-.917l-.024.044a4.65,4.65,0,0,0,.216-.565,3.474,3.474,0,0,0,.125-.606C630.121,737.639,630.117,737.171,630.22,736.727Z" transform="translate(-629.122 -736.727)"/>
          </g>
        </g>
      </g>
      <g id="Group_2222" data-name="Group 2222" transform="translate(-198.373 17.35)">
        <g id="Group_2214-4" data-name="Group 2214" transform="translate(1115.466 340.493)">
          <path id="Path_7105-4" data-name="Path 7105" d="M584.338,711.939a.864.864,0,0,1-.433-1.613c4.639-2.662,7.785-1.962,7.917-1.932a.865.865,0,0,1-.392,1.686c-.061-.015-2.7-.53-6.664,1.745A.865.865,0,0,1,584.338,711.939Z" transform="translate(-583.471 -708.289)"/>
        </g>
        <g id="Group_2215-4" data-name="Group 2215" transform="translate(1131.74 340.4)">
          <path id="Path_7106-4" data-name="Path 7106" d="M661.1,712.21a.861.861,0,0,1-.6-.246,8.364,8.364,0,0,0-6.293-2.326.864.864,0,1,1-.2-1.716,10.053,10.053,0,0,1,7.7,2.806.864.864,0,0,1-.605,1.482Z" transform="translate(-653.243 -707.89)"/>
        </g>
        <path id="Path_7110-4" data-name="Path 7110" d="M608.782,730.656c0,1.2-.633,2.182-1.413,2.182s-1.411-.978-1.411-2.182.631-2.184,1.411-2.184S608.782,729.45,608.782,730.656Z" transform="translate(514.753 -383.271)"/>
        <path id="Path_7111-4" data-name="Path 7111" d="M656.394,730.656c0,1.2.633,2.182,1.413,2.182s1.413-.978,1.413-2.182-.633-2.184-1.413-2.184S656.394,729.45,656.394,730.656Z" transform="translate(476.081 -383.271)"/>
        <g id="Group_2217-4" data-name="Group 2217" transform="translate(1126.114 347.126)">
          <g id="Group_2216-4" data-name="Group 2216" transform="translate(0 0)">
            <path id="Path_7112-4" data-name="Path 7112" d="M630.607,736.727a12.06,12.06,0,0,1,.382,1.807,3.869,3.869,0,0,1-.035.969,4.42,4.42,0,0,1-.267.948l-.006.013-.026.047a9.327,9.327,0,0,0-.481,1.064c-.074.187-.132.378-.2.563l-.078.27-.039.214a1.6,1.6,0,0,0,.018.223.643.643,0,0,0,.085.2,1.27,1.27,0,0,0,.369.36,4.508,4.508,0,0,0,1.126.513,2.945,2.945,0,0,1-1.331-.083,1.6,1.6,0,0,1-.645-.386,1.339,1.339,0,0,1-.243-.346,1.5,1.5,0,0,1-.114-.4,2.146,2.146,0,0,1,.009-.418c.017-.116.032-.239.056-.35a5.689,5.689,0,0,1,.185-.649,5.567,5.567,0,0,1,.581-1.24l-.032.06a6.291,6.291,0,0,0,.292-.764,4.7,4.7,0,0,0,.169-.82C630.474,737.961,630.468,737.328,630.607,736.727Z" transform="translate(-629.122 -736.727)"/>
          </g>
        </g>
      </g>
    </g>
  </g>
</svg>
