<svg id="Group_2120" data-name="Group 2120" xmlns="http://www.w3.org/2000/svg" width="64.465" height="127.524" viewBox="0 0 64.465 127.524">
  <path id="Path_29" data-name="Path 29" d="M26.448,3.091c0-.977,0-1.762-.625-2.162-1.137.3-.1.641-1.505,2.05s-3.555.224-7.335,3.315a12.652,12.652,0,0,0,6.838,22.533,12.187,12.187,0,0,0,6.758-1.265,12.524,12.524,0,0,0,6.934-10.6,12.123,12.123,0,0,0-1.6-7.127c-.641-.977-2.386-3.427-3.443-3.667a14.526,14.526,0,0,0-.3-3.86c-.993.272-.577,1.281-1.858,1.393-.16-.689,0-.865-.144-2.482-.08-.673,0-.9-.48-1.217-.961.256-.256.512-1.345,1.73-.464.528-1.073,1.281-1.89,1.361" transform="translate(7.327 0)" fill="#75a9d9"/>
  <path id="Path_30" data-name="Path 30" d="M44.393,78.079c4.484-.9,3.731-2.995,3.731-7.479V40.508c.625.4,5.557,8.664,6.694,10.362,2.434,3.667,4.212,2.21,6.87.865,1.025-.512,2.755-.865,2.755-2.21a4.148,4.148,0,0,0-.721-2.787c-2-3.379-14.862-27.818-18.337-27.818H19.65a3.972,3.972,0,0,0-3.731,2.546c-.4.689-.8,1.233-1.185,1.874s-.721,1.073-1.121,1.762C11.643,28.657,0,48.371,0,49.012c0,2.4,1.409,2.178,4.516,3.747a2.851,2.851,0,0,0,3.8-.08A93.572,93.572,0,0,0,14.8,43.071c.208-.352.336-.609.528-.9l.593-.689V71.449c0,2.242-.881,6.63,4.324,6.63v34.977a3.443,3.443,0,0,0,3.78,3.059c2.546,0,7.463.545,7.463-3.059V78.079h1.954v35.233c0,3.2,4.8,2.723,7.079,2.723,5.045,0,3.924-4.132,3.924-6.294Z" transform="translate(0 11.38)" fill="#75a9d9"/>
</svg>
