<svg xmlns="http://www.w3.org/2000/svg" width="21" height="15.75" viewBox="0 0 21 15.75">
  <path id="chart-bar-regular" d="M16.275,75.812h.919a.565.565,0,0,0,.525-.525v-9.45a.565.565,0,0,0-.525-.525h-.919a.565.565,0,0,0-.525.525v9.45A.565.565,0,0,0,16.275,75.812Zm-7.875,0h.919a.565.565,0,0,0,.525-.525V67.15a.565.565,0,0,0-.525-.525H8.4a.565.565,0,0,0-.525.525v8.137A.565.565,0,0,0,8.4,75.812Zm3.938,0h.919a.565.565,0,0,0,.525-.525V69.775a.565.565,0,0,0-.525-.525h-.919a.565.565,0,0,0-.525.525v5.512A.565.565,0,0,0,12.338,75.812Zm8.006,1.969H1.969V64.656A.656.656,0,0,0,1.312,64H.656A.656.656,0,0,0,0,64.656V78.437A1.313,1.313,0,0,0,1.312,79.75H20.344A.656.656,0,0,0,21,79.094v-.656A.656.656,0,0,0,20.344,77.781ZM4.462,75.812h.919a.565.565,0,0,0,.525-.525V72.4a.565.565,0,0,0-.525-.525H4.462a.565.565,0,0,0-.525.525v2.887a.565.565,0,0,0,.525.525Z" transform="translate(0 -64)" fill="#fff"/>
</svg>
