<svg xmlns="http://www.w3.org/2000/svg" width="35.469" height="32.1" viewBox="0 0 35.469 32.1">
  <g id="Group_3191" data-name="Group 3191" transform="translate(-1193.548 -820.4)">
    <g id="fb90e2b5f46080fe5913facc499544bd" transform="translate(1183.548 763.8)">
      <path id="Path_7169" data-name="Path 7169" d="M20.34,74.765a9.083,9.083,0,1,0-2.515,0v4.372H11.944v2.512h5.881v5.885h2.512V81.653h5.881V79.141H20.34Zm-1.26-2.425a6.565,6.565,0,1,1,6.565-6.565A6.565,6.565,0,0,1,19.081,72.34Zm18.56-1.719,0-9.215,2.4,2.4,1.777-1.777-4.184-4.177L36.374,56.6l-5.429,5.436,1.777,1.777,2.4-2.407,0,9.215a9.085,9.085,0,1,0,2.512,0ZM36.389,86.184a6.567,6.567,0,1,1,6.565-6.573A6.566,6.566,0,0,1,36.389,86.184Z" transform="translate(0 0)" fill="#3cacae"/>
    </g>
    <circle id="Ellipse_68" data-name="Ellipse 68" cx="8" cy="8" r="8" transform="translate(1195 821)" fill="#3cacae"/>
    <circle id="Ellipse_69" data-name="Ellipse 69" cx="8" cy="8" r="8" transform="translate(1212 835)" fill="#3cacae"/>
    <circle id="Ellipse_70" data-name="Ellipse 70" cx="4" cy="4" r="4" transform="translate(1199 826)" fill="#d8eeef"/>
    <circle id="Ellipse_71" data-name="Ellipse 71" cx="4" cy="4" r="4" transform="translate(1216 839)" fill="#d8eeef"/>
  </g>
</svg>
