<svg xmlns="http://www.w3.org/2000/svg" width="37.5" height="44.998" viewBox="0 0 37.5 44.998">
  <g id="ad5990c4e09453f00bab11d9b7e0fd75" transform="translate(-91.7 -10)">
    <path id="Path_6426" data-name="Path 6426" d="M124.7,10H105.948a2.256,2.256,0,0,0-2.25,2.25v7.5a2.208,2.208,0,0,1-2.25,2.25h-7.5a2.208,2.208,0,0,0-2.25,2.25V50.5A4.513,4.513,0,0,0,96.2,55h28.5a4.513,4.513,0,0,0,4.5-4.5v-36A4.52,4.52,0,0,0,124.7,10Zm-4.872,33.749H101.072a1.125,1.125,0,1,1,0-2.25h18.748a1.125,1.125,0,0,1,0,2.25Zm0-7.5H101.072a1.125,1.125,0,1,1,0-2.25h18.748a1.125,1.125,0,0,1,0,2.25Zm0-7.5h-12a1.125,1.125,0,1,1,0-2.25h12a1.125,1.125,0,0,1,0,2.25Z" fill="#e9769f"/>
    <path id="Path_6427" data-name="Path 6427" d="M110.81,32.987h5.776a2.208,2.208,0,0,0,2.25-2.25V24.584c0-.826-.45-1.051-1.051-.45l-7.5,7.728C109.758,32.459,109.983,32.987,110.81,32.987Z" transform="translate(-17.461 -13.161)" fill="#e9769f"/>
  </g>
</svg>
