<svg xmlns="http://www.w3.org/2000/svg" width="39.603" height="34" viewBox="0 0 39.603 34">
  <g id="_993c4aeb81cf9548b218de074cfd014d" data-name="993c4aeb81cf9548b218de074cfd014d" transform="translate(-10 -79.325)">
    <path id="Path_6509" data-name="Path 6509" d="M49.6,111.152a2.121,2.121,0,0,1-2.122,2.122c-.251,0-.485.1-.707.02H10v-5.658H41.117a2.391,2.391,0,0,0,1.414-1.414V87.835H49.6v23.317Zm-12.73-6.345a1.416,1.416,0,0,1-1.414,1.414H18.486a1.416,1.416,0,0,1-1.414-1.414V92.078H13.665L26.039,79.7a1.3,1.3,0,0,1,1.839,0L40.252,92.078H36.873ZM24.124,93.476H19.881v4.243h4.243Zm0,5.658H19.881v4.243h4.243Zm5.658-5.658H25.538v4.243h4.243Zm0,5.658H25.538v4.243h4.243Z" fill="#989898"/>
  </g>
</svg>
