<svg xmlns="http://www.w3.org/2000/svg" width="76.954" height="53.297" viewBox="0 0 76.954 53.297">
  <g id="_3b961db1736dbd3455fa822ed7583dde" data-name="3b961db1736dbd3455fa822ed7583dde" transform="translate(-10 -160.498)">
    <path id="Path_112" data-name="Path 112" d="M68.048,160.554a21.44,21.44,0,0,1,6.933.628,31.917,31.917,0,0,1,6.046,2.183,18.913,18.913,0,0,1,4.287,2.772c1.091.981,1.641,1.806,1.641,2.481s-.424,1.076-1.256,1.217-1.892.267-3.149.377a37.916,37.916,0,0,0-4.161.628A10.169,10.169,0,0,0,74.1,172.9a23.561,23.561,0,0,0-2.56,2.23c-.809.809-1.625,1.594-2.434,2.356a28.756,28.756,0,0,1-2.52,2.1,10.122,10.122,0,0,1-2.811,1.468c-.5.165-1.123.338-1.845.5a7.027,7.027,0,0,1-2.308.126,7.213,7.213,0,0,1-2.52-.8,7.355,7.355,0,0,1-2.481-2.269,10.464,10.464,0,0,0-1.3,2.395,27.734,27.734,0,0,0-.966,2.984c-.283,1.068-.518,2.167-.714,3.321s-.353,2.23-.463,3.235c-.11.84-.2,1.892-.251,3.149s-.071,2.5-.039,3.737.1,2.363.212,3.4a7.224,7.224,0,0,0,.5,2.23,2.714,2.714,0,0,1,.416,1.256,1.093,1.093,0,0,1-.416.8,2.459,2.459,0,0,1-1.594.377,3.032,3.032,0,0,1-1.806-.377,1.059,1.059,0,0,1-.463-.8,1.732,1.732,0,0,1,.338-1.178,5.8,5.8,0,0,0,.55-1.971,17.386,17.386,0,0,0,.086-2.434c-.031-.872-.071-1.751-.126-2.646s-.086-1.767-.086-2.607a39.528,39.528,0,0,0-2.607-4.538,33.147,33.147,0,0,0-2.772-3.525,8.26,8.26,0,0,1-2.144,3.023,7.18,7.18,0,0,1-2.481,1.39,7.533,7.533,0,0,1-2.395.338,11.389,11.389,0,0,1-1.971-.212,9.178,9.178,0,0,1-2.858-.966c-.9-.479-1.79-1-2.685-1.594s-1.806-1.217-2.732-1.892a24.182,24.182,0,0,0-2.811-1.767,9.568,9.568,0,0,0-4.491-1.343,28.77,28.77,0,0,0-4.2.126,21.426,21.426,0,0,1-3.109.165c-.817-.031-1.241-.4-1.241-1.123a4.875,4.875,0,0,1,1.39-2.772,19.039,19.039,0,0,1,3.7-3.321,27.878,27.878,0,0,1,5.418-2.937,22.521,22.521,0,0,1,6.556-1.641,23.076,23.076,0,0,1,8.778.55A12.982,12.982,0,0,1,41.3,174.42a8.452,8.452,0,0,1,2.481,4.452,10.951,10.951,0,0,1-.165,5.041,35.725,35.725,0,0,1,5.292,6.218,31.02,31.02,0,0,1,2.1-8.315c.448-.95.872-1.767,1.256-2.434s.872-1.4,1.429-2.183a11.026,11.026,0,0,1-1.39-5.206,8.893,8.893,0,0,1,1.594-5.206,12.916,12.916,0,0,1,5.08-4.161,23.422,23.422,0,0,1,9.077-2.073Zm-25.031,23.1a23.018,23.018,0,0,0-9.909-5.206,22.6,22.6,0,0,0-10.749.251c-.11,0-.141.016-.086.039a.542.542,0,0,0,.251.039,43.035,43.035,0,0,1,4.954-.212,20.452,20.452,0,0,1,5.08.754,24.129,24.129,0,0,1,5.08,2.1,23.529,23.529,0,0,1,4.954,3.737Zm30.826-15.962a.669.669,0,0,0,.251-.039c.055-.024,0-.039-.165-.039A19.979,19.979,0,0,0,62.842,169.5a25.928,25.928,0,0,0-8.739,7.263l.84,1.429a29.142,29.142,0,0,1,4.664-5.127,22.7,22.7,0,0,1,4.876-3.2,20.658,20.658,0,0,1,4.829-1.641,31.449,31.449,0,0,1,4.53-.542ZM29.99,210.616c-.448-.393-.306-.856.416-1.39a15.138,15.138,0,0,1,3.2-1.641c1.4-.557,2.984-1.131,4.742-1.72s3.455-1.107,5.08-1.555a2.088,2.088,0,0,1,1.72.039,5.581,5.581,0,0,1,1.178.966,7.6,7.6,0,0,0,1.343,1.131,4.108,4.108,0,0,0,2.308.55,4.044,4.044,0,0,0,2.308-.55,11.913,11.913,0,0,0,1.39-1.091,8.671,8.671,0,0,1,1.178-.926,2.2,2.2,0,0,1,1.68-.126c1.625.448,3.329.981,5.127,1.594s3.4,1.217,4.829,1.806a15.972,15.972,0,0,1,3.235,1.68c.73.534.809.934.251,1.217a20.336,20.336,0,0,1-5.418,1.806,61.274,61.274,0,0,1-7.388,1.052q-3.993.342-8.229.338t-8.024-.377a49.109,49.109,0,0,1-6.721-1.091,10.959,10.959,0,0,1-4.2-1.712Z" transform="translate(0 0)" fill="#fff"/>
  </g>
</svg>
