<svg xmlns="http://www.w3.org/2000/svg" width="20.571" height="18" viewBox="0 0 20.571 18">
  <path id="Icon_metro-image" data-name="Icon metro-image" d="M21.854,5.142l0,0V20.568l0,0h-18l0,0V5.144l0,0Zm0-1.286h-18A1.289,1.289,0,0,0,2.571,5.142V20.57a1.289,1.289,0,0,0,1.286,1.286h18a1.289,1.289,0,0,0,1.286-1.286V5.142A1.289,1.289,0,0,0,21.856,3.856Zm-2.571,4.5a1.929,1.929,0,1,1-1.929-1.929,1.929,1.929,0,0,1,1.929,1.929Zm1.286,10.929H5.142V16.713L9.642,9l5.143,6.429h1.286l4.5-3.857Z" transform="translate(-2.571 -3.856)" fill="#989898"/>
</svg>
