<svg xmlns="http://www.w3.org/2000/svg" width="36.179" height="39.789" viewBox="0 0 36.179 39.789">
  <g id="_2d5dbd61ee109f92f4380cbccdfd7564" data-name="2d5dbd61ee109f92f4380cbccdfd7564" transform="translate(-54.5 -10)">
    <g id="Group_2080" data-name="Group 2080" transform="translate(54.5 10)">
      <path id="Path_6512" data-name="Path 6512" d="M55.405-1870.211a.877.877,0,0,1-.641-.264.876.876,0,0,1-.264-.641v-.906h.02a2.426,2.426,0,0,1-.016-.325,5.732,5.732,0,0,1,.037-.633,4.356,4.356,0,0,1,.207-.841,5.207,5.207,0,0,1,.451-.995,5.19,5.19,0,0,1,.824-1.023,6.643,6.643,0,0,1,1.267-.979c.252-.158.987-.654,2.2-1.494s2.525-1.713,3.942-2.631a41.947,41.947,0,0,1,3.735-2.188v-3.654l-4.5-1.665-3.727,5.66-4.162-4.17,6.277-2.1,2.5-4.665v-7.235a9.083,9.083,0,0,1,.65-3.39,9.22,9.22,0,0,1,1.819-2.895,8.6,8.6,0,0,1,2.875-2.006,9.108,9.108,0,0,1,3.7-.751,7.9,7.9,0,0,1,3.366.751,8.877,8.877,0,0,1,2.777,2.006,11.243,11.243,0,0,1,1.937,2.895,10.741,10.741,0,0,1,.966,3.39v7.235l2.477,4.665,6.293,2.1-4.162,4.178-3.723-5.66-4.5,1.665v3.654q1.59.816,3.727,2.188t3.95,2.639c1.21.844,1.945,1.34,2.2,1.482a6.846,6.846,0,0,1,1.494,1.21,4.435,4.435,0,0,1,.861,1.319,6.721,6.721,0,0,1,.345,1.1,4.283,4.283,0,0,1,.089.849v1.214a.853.853,0,0,1-.272.641.892.892,0,0,1-.633.264Z" transform="translate(-54.5 1910)" fill="#989898"/>
    </g>
  </g>
</svg>
