<svg xmlns="http://www.w3.org/2000/svg" xmlns:xlink="http://www.w3.org/1999/xlink" width="272.541" height="349.769" viewBox="0 0 272.541 349.769">
  <defs>
    <clipPath id="clip-path">
      <rect id="Rectangle_461" data-name="Rectangle 461" width="93.771" height="35.386" fill="#ffcd00"/>
    </clipPath>
  </defs>
  <g id="Group_2226" data-name="Group 2226" transform="translate(-1010.459 -256.456)">
    <rect id="Rectangle_455" data-name="Rectangle 455" width="272.541" height="340.961" transform="translate(1010.459 265.263)" fill="#254d6b"/>
    <rect id="Rectangle_456" data-name="Rectangle 456" width="239.176" height="309.27" transform="translate(1027.135 283.579)" fill="#1d262d" opacity="0.2"/>
    <rect id="Rectangle_457" data-name="Rectangle 457" width="239.176" height="303.702" transform="translate(1027.135 283.579)" fill="#6a97c3"/>
    <rect id="Rectangle_458" data-name="Rectangle 458" width="88.932" height="8.001" transform="translate(1102.264 265.263)" fill="#1d262d" opacity="0.2"/>
    <rect id="Rectangle_459" data-name="Rectangle 459" width="93.771" height="29.137" transform="translate(1099.703 258.442)" fill="#2b3a68"/>
    <g id="Group_1943" data-name="Group 1943" transform="translate(1099.844 256.456)" clip-path="url(#clip-path)">
      <rect id="Rectangle_460" data-name="Rectangle 460" width="115.01" height="17.078" transform="translate(-9.376 17.308)" fill="#515151" opacity="0.26"/>
    </g>
    <rect id="Rectangle_462" data-name="Rectangle 462" width="32.719" height="32.719" transform="translate(1051.069 321.93)" fill="#fff"/>
    <path id="Path_3439" data-name="Path 3439" d="M401.9,170.947H362.25V131.3H401.9Zm-38.493-1.2H400.66V132.5H363.4Z" transform="translate(685.354 187.165)" fill="#fff"/>
    <rect id="Rectangle_463" data-name="Rectangle 463" width="32.719" height="32.719" transform="translate(1051.069 372.053)" fill="#fff"/>
    <path id="Path_3440" data-name="Path 3440" d="M401.9,207.417H362.25V167.77H401.9Zm-38.493-1.2H400.66V168.966H363.4Z" transform="translate(685.354 200.832)" fill="#fff"/>
    <rect id="Rectangle_464" data-name="Rectangle 464" width="32.719" height="32.719" transform="translate(1051.069 422.189)" fill="#fff"/>
    <path id="Path_3441" data-name="Path 3441" d="M401.9,243.887H362.25V204.24H401.9Zm-38.493-1.2H400.66V205.436H363.4Z" transform="translate(685.354 214.498)" fill="#fff"/>
    <path id="Path_3442" data-name="Path 3442" d="M375.645,155.33l-8.87-8.77a1.568,1.568,0,1,1,2.217-2.217l6.553,6.486,10.378-11.5a1.566,1.566,0,1,1,2.317,2.107Z" transform="translate(689.541 191.952)" fill="#254d6b"/>
    <path id="Path_3443" data-name="Path 3443" d="M375.663,191.288l-8.888-8.8A1.571,1.571,0,1,1,369,180.267l6.566,6.488,10.4-11.5a1.566,1.566,0,0,1,2.322,2.1Z" transform="translate(689.541 205.487)" fill="#254d6b"/>
    <path id="Path_3444" data-name="Path 3444" d="M375.663,228.568l-8.888-8.8A1.571,1.571,0,1,1,369,217.547l6.566,6.5,10.4-11.509a1.566,1.566,0,0,1,2.322,2.1Z" transform="translate(689.946 220.305)" fill="#254d6b"/>
    <rect id="Rectangle_465" data-name="Rectangle 465" width="32.719" height="32.719" transform="translate(1051.069 472.326)" fill="#fff"/>
    <path id="Path_3445" data-name="Path 3445" d="M401.9,280.357H362.25V240.71H401.9Zm-38.493-1.2H400.66V241.906H363.4Z" transform="translate(685.354 228.165)" fill="#fff"/>
    <path id="Path_3446" data-name="Path 3446" d="M375.645,264.25l-8.87-8.77a1.568,1.568,0,1,1,2.217-2.218l6.553,6.486,10.378-11.5a1.566,1.566,0,1,1,2.317,2.107Z" transform="translate(689.946 232.774)" fill="#254d6b"/>
    <rect id="Rectangle_466" data-name="Rectangle 466" width="32.719" height="32.719" transform="translate(1051.069 522.462)" fill="#fff"/>
    <path id="Path_3447" data-name="Path 3447" d="M401.9,316.8H362.25V277.18H401.9ZM363.4,315.6H400.66V278.349H363.4Z" transform="translate(685.354 241.832)" fill="#fff"/>
    <path id="Path_3448" data-name="Path 3448" d="M375.645,300.615l-8.87-8.77a1.568,1.568,0,1,1,2.217-2.218l6.553,6.486,10.378-11.454a1.566,1.566,0,1,1,2.317,2.107Z" transform="translate(689.946 247.142)" fill="#254d6b"/>
    <g id="Group_2099" data-name="Group 2099" transform="translate(27.714 -34)" opacity="0.85">
      <rect id="Rectangle_467" data-name="Rectangle 467" width="144.801" height="3.945" transform="translate(1071.374 360.824)" fill="#fff"/>
      <rect id="Rectangle_468" data-name="Rectangle 468" width="144.801" height="3.945" transform="translate(1071.374 370.309)" fill="#fff"/>
      <rect id="Rectangle_469" data-name="Rectangle 469" width="44.761" height="3.945" transform="translate(1071.374 379.795)" fill="#fff"/>
      <rect id="Rectangle_470" data-name="Rectangle 470" width="144.801" height="3.945" transform="translate(1071.374 410.328)" fill="#fff"/>
      <rect id="Rectangle_471" data-name="Rectangle 471" width="144.801" height="3.945" transform="translate(1071.374 419.814)" fill="#fff"/>
      <rect id="Rectangle_472" data-name="Rectangle 472" width="94.623" height="3.945" transform="translate(1071.374 429.299)" fill="#fff"/>
      <rect id="Rectangle_473" data-name="Rectangle 473" width="144.801" height="3.945" transform="translate(1071.374 459.832)" fill="#fff"/>
      <rect id="Rectangle_474" data-name="Rectangle 474" width="123.85" height="3.945" transform="translate(1071.374 469.318)" fill="#fff"/>
      <rect id="Rectangle_475" data-name="Rectangle 475" width="44.761" height="3.945" transform="translate(1071.374 478.803)" fill="#fff"/>
      <rect id="Rectangle_476" data-name="Rectangle 476" width="144.801" height="3.945" transform="translate(1071.374 509.336)" fill="#fff"/>
      <rect id="Rectangle_477" data-name="Rectangle 477" width="72.971" height="3.945" transform="translate(1071.374 518.822)" fill="#fff"/>
      <rect id="Rectangle_478" data-name="Rectangle 478" width="144.801" height="3.945" transform="translate(1071.374 558.84)" fill="#fff"/>
      <rect id="Rectangle_479" data-name="Rectangle 479" width="144.801" height="3.945" transform="translate(1071.374 568.326)" fill="#fff"/>
      <rect id="Rectangle_480" data-name="Rectangle 480" width="105.58" height="3.945" transform="translate(1071.374 577.812)" fill="#fff"/>
    </g>
    <path id="Path_3449" data-name="Path 3449" d="M439.336,72.138a3.918,3.918,0,1,1-3.918-3.918A3.918,3.918,0,0,1,439.336,72.138Z" transform="translate(711.204 201.983)" fill="#fff"/>
  </g>
</svg>
