<svg xmlns="http://www.w3.org/2000/svg" width="28.282" height="30.793" viewBox="0 0 28.282 30.793">
  <g id="_1231e0e57825caf87e4f7837acca2a04" data-name="1231e0e57825caf87e4f7837acca2a04" transform="translate(-49.8 -9.762)">
    <path id="Path_6498" data-name="Path 6498" d="M191.2,542.3h19.521v14.064H191.2V542.3Z" transform="translate(-136.958 -515.808)" fill="#cac55f"/>
    <path id="Path_6499" data-name="Path 6499" d="M49.8,574.665v7.549h3.182v-9.782A3.1,3.1,0,0,0,49.8,574.665Z" transform="translate(0 -544.988)" fill="#cac55f"/>
    <path id="Path_6500" data-name="Path 6500" d="M848.8,572.432v9.779h3.182v-7.546A3.1,3.1,0,0,0,848.8,572.432Z" transform="translate(-773.9 -544.988)" fill="#cac55f"/>
    <path id="Path_6501" data-name="Path 6501" d="M265.48,23.944v-.911c0-.182-.424-.729-.424-.908,0-.085-.135-.553-.27-1.071a5.787,5.787,0,0,1-.273-1.476c.06-.484-.308-1.272.481-1.454a8.042,8.042,0,0,1,1.64-.3,7.847,7.847,0,0,1,1.514.364s.276.666,1.973.456,2.318.547,1.794-1.03.267-2.12.751-2.092.848.242,1.03,1.181a16.618,16.618,0,0,1,.214,3.7c-.119.456-.06,1.363-.543,1.454s-1.062,1.483-1.034,1.787a3.091,3.091,0,0,0,.154.638H276.7V15.509A6.816,6.816,0,0,0,269.6,9.795s-6.412-.817-8,5.727v8.749h3.88Z" transform="translate(-205.146 0)" fill="#cac55f"/>
  </g>
</svg>
