<svg xmlns="http://www.w3.org/2000/svg" width="25.5" height="25.5" viewBox="0 0 25.5 25.5">
  <path id="Icon_material-location-searching" data-name="Icon material-location-searching" d="M24.612,13.091a10.425,10.425,0,0,0-9.2-9.2V1.5H13.091V3.888a10.425,10.425,0,0,0-9.2,9.2H1.5v2.318H3.888a10.425,10.425,0,0,0,9.2,9.2V27h2.318V24.612a10.425,10.425,0,0,0,9.2-9.2H27V13.091ZM14.25,22.364a8.114,8.114,0,1,1,8.114-8.114A8.108,8.108,0,0,1,14.25,22.364Z" transform="translate(-1.5 -1.5)" fill="#fff"/>
</svg>
