<svg xmlns="http://www.w3.org/2000/svg" width="35.949" height="35.219" viewBox="0 0 35.949 35.219">
  <g id="_3ab58ac7f8dbc97557145ef30f1a486a" data-name="3ab58ac7f8dbc97557145ef30f1a486a" transform="translate(-10 -20)">
    <g id="Group_2079" data-name="Group 2079" transform="translate(10 20)">
      <g id="Group_2078" data-name="Group 2078">
        <path id="Path_6510" data-name="Path 6510" d="M45.626,30.6a.773.773,0,0,0-.7-.088l-9.63,3.6c.293-.536.561-1.06.789-1.563a8.7,8.7,0,0,0,.785-3.647,8.9,8.9,0,0,0-17.793,0,9.183,9.183,0,0,0,.106,1.376l-8.68,3.03a.755.755,0,0,0-.506.715V53.062a.755.755,0,0,0,1.005.712l10.28-3.592L33.6,55.164a.759.759,0,0,0,.282.055.731.731,0,0,0,.264-.048l11.314-4.215a.753.753,0,0,0,.492-.708V31.215A.734.734,0,0,0,45.626,30.6Zm-11.9.855a39.7,39.7,0,0,1-5.481,8.111.349.349,0,0,1-.528,0,39.8,39.8,0,0,1-5.481-8.111,6.118,6.118,0,0,1-.55-2.568,6.3,6.3,0,1,1,12.591,0A6.175,6.175,0,0,1,33.721,31.45Z" transform="translate(-10 -20)" fill="#989898"/>
        <path id="Path_6511" data-name="Path 6511" d="M414.169,172.9a3.269,3.269,0,1,0,3.269,3.269A3.274,3.274,0,0,0,414.169,172.9Z" transform="translate(-396.192 -167.291)" fill="#989898"/>
      </g>
    </g>
  </g>
</svg>
