<svg xmlns="http://www.w3.org/2000/svg" width="19.25" height="22" viewBox="0 0 19.25 22">
  <g id="Group_988" data-name="Group 988" transform="translate(-572 -182)">
    <path id="user-tie-regular" d="M9.625,12.375A6.187,6.187,0,1,0,3.437,6.187,6.189,6.189,0,0,0,9.625,12.375Zm0-10.312A4.125,4.125,0,1,1,5.5,6.187,4.132,4.132,0,0,1,9.625,2.062Zm3.949,11.009L11.146,19.71l-.834-3.554,1.375-2.406H7.562l1.375,2.406L8.1,19.71,5.672,13.071A5.77,5.77,0,0,0,0,18.837v1.1A2.063,2.063,0,0,0,2.062,22H17.187a2.063,2.063,0,0,0,2.063-2.062v-1.1A5.771,5.771,0,0,0,13.574,13.071ZM4.125,19.937H2.062v-1.1A3.725,3.725,0,0,1,4.34,15.426l1.65,4.512Zm13.062,0H13.264l1.646-4.512a3.732,3.732,0,0,1,2.277,3.412Z" transform="translate(572 182)" fill="#fff"/>
  </g>
</svg>
