<svg xmlns="http://www.w3.org/2000/svg" width="63.302" height="38.43" viewBox="0 0 63.302 38.43">
  <g id="da5b432e5cba45d154eabe3d69345386" transform="translate(-16.8 -230.588)">
    <g id="Group_1591" data-name="Group 1591" transform="translate(16.8 230.588)">
      <path id="Path_107" data-name="Path 107" d="M325.345-283.707c-.2.471-3.993,9.1-8.457,19.2l-8.1,18.353,3.858.04c2.114.013,3.882-.013,3.932-.067s3.845-8.672,8.456-19.133,8.407-19.065,8.431-19.132a38.083,38.083,0,0,0-3.857-.094H325.7Z" transform="translate(-289.49 284.54)" fill="#fff"/>
      <path id="Path_108" data-name="Path 108" d="M17.047-156.3v3.832H10v5.647h7.047v7.664H22.24v-7.664h7.047v-5.647H22.24v-7.664H17.047Z" transform="translate(-10 168.869)" fill="#fff"/>
      <path id="Path_109" data-name="Path 109" d="M691.4-128.664v2.756h19.287v-5.513H691.4v2.756Z" transform="translate(-647.386 142.176)" fill="#fff"/>
      <path id="Path_110" data-name="Path 110" d="M691.4,34.026v2.756h19.287V31.27H691.4v2.756Z" transform="translate(-647.386 -9.086)" fill="#fff"/>
    </g>
  </g>
</svg>
