<svg xmlns="http://www.w3.org/2000/svg" width="70" height="47.957" viewBox="0 0 70 47.957">
  <g id="Group_2946" data-name="Group 2946" transform="translate(-447 -1192)">
    <path id="Path_7156" data-name="Path 7156" d="M63.521,36.293V2.593A2.6,2.6,0,0,0,60.929,0H9.079a2.6,2.6,0,0,0-2.6,2.593V36.3L0,44.071a3.89,3.89,0,0,0,3.886,3.886H66.114A3.89,3.89,0,0,0,70,44.071ZM40.186,46.671H29.821a.65.65,0,1,1,0-1.3H40.186a.65.65,0,1,1,0,1.3ZM24.314,44.079l1.979-2.371H43.714l1.979,2.371Zm33.3-10.107H12.393a2.268,2.268,0,0,1-2.257-2.264V4.586a2.268,2.268,0,0,1,2.257-2.264H57.614a2.268,2.268,0,0,1,2.257,2.264V31.707h0A2.268,2.268,0,0,1,57.614,33.971Z" transform="translate(447 1192)" fill="#fff"/>
    <path id="Path_7157" data-name="Path 7157" d="M400.621,171.907,385.9,167l4.907,14.721,1.986-5.979,6.143,6.129,1.843-1.836-6.143-6.136Z" transform="translate(88.664 1036.929)" fill="#fff"/>
  </g>
</svg>
