<svg xmlns="http://www.w3.org/2000/svg" width="45.848" height="25.793" viewBox="0 0 45.848 25.793">
  <g id="_155f6acfac7e1e2b9939a3e4d4860bef" data-name="155f6acfac7e1e2b9939a3e4d4860bef" transform="translate(-10 -224.4)">
    <path id="Path_6497" data-name="Path 6497" d="M55.846,249.052h0a1.126,1.126,0,0,1-1.123,1.137h-8.4a1.416,1.416,0,0,0,1.1-1.38v0h0s0-5.156-3.743-7.032a6.591,6.591,0,0,0-2.5-.837L41.2,238.7a4.2,4.2,0,0,1-1.142-2.784c-.547.159-.73-.646-.763-1.16-.028-.491-.318-2.04.351-1.9a14.118,14.118,0,0,1-.192-2.461,4.43,4.43,0,0,1,4.379-3.673c3,.136,4.187,1.942,4.356,3.673a13.751,13.751,0,0,1-.2,2.456c.669-.14.379,1.4.346,1.9-.033.515-.215,1.319-.763,1.16a4.182,4.182,0,0,1-1.146,2.774l.019,2.232s.552.318,2.887,1.291,1.6.248,3.5,1.2c3.013,1.507,3.013,5.642,3.008,5.642Zm-16.913-7.631c2.564,1.071,1.759.271,3.846,1.319,3.3,1.652,3.3,6.2,3.3,6.2h0v0a1.247,1.247,0,0,1-1.24,1.249H20.873a1.243,1.243,0,0,1-1.235-1.249v0h0s0-4.548,3.3-6.2c2.087-1.048,1.287-.2,3.846-1.268a28.181,28.181,0,0,0,3.172-1.446l.023-2.461s-.959-.739-1.259-3.06c-.6.173-.8-.711-.833-1.273s-.346-2.246.388-2.091a15.278,15.278,0,0,1-.206-2.7,4.859,4.859,0,0,1,4.81-4.042c3.3.145,4.608,2.133,4.791,4.038a15.14,15.14,0,0,1-.22,2.7c.735-.15.416,1.549.379,2.091-.033.561-.234,1.446-.833,1.273-.3,2.316-1.259,3.055-1.259,3.055l.023,2.452S36.364,240.349,38.933,241.421Zm-13.016-5.507a4.184,4.184,0,0,1-1.156,2.784l.023,2.236a6.826,6.826,0,0,0-2.517.837c-3.776,1.876-3.776,7.032-3.776,7.032h0v0a1.419,1.419,0,0,0,1.109,1.38H11.137A1.135,1.135,0,0,1,10,249.052v0h0s0-4.141,3.027-5.642c1.918-.95,1.179-.225,3.532-1.2s2.905-1.291,2.905-1.291l.023-2.232a4.189,4.189,0,0,1-1.156-2.779c-.552.159-.735-.646-.763-1.156s-.323-2.04.346-1.9a13.319,13.319,0,0,1-.2-2.456c.168-1.736,1.366-3.542,4.393-3.673a4.452,4.452,0,0,1,4.412,3.673,13.721,13.721,0,0,1-.192,2.461c.674-.14.384,1.408.351,1.9S26.469,236.073,25.917,235.914Z" fill="#e9769f"/>
  </g>
</svg>
