<svg xmlns="http://www.w3.org/2000/svg" width="71.689" height="53.928" viewBox="0 0 71.689 53.928">
  <g id="fc32e74db624eb16eecc4e3b0a763aea" transform="translate(-10 -131.4)">
    <path id="Path_38" data-name="Path 38" d="M395.5,131.4v24.221l2.765-1.156.015-20.292h37.93v25.011H416.831l-7.286,2.772h29.444V131.4Z" transform="translate(-357.3 0)" fill="#be4e76"/>
    <path id="Path_39" data-name="Path 39" d="M471.545,242.14a14.311,14.311,0,0,1,.41,1.712c.3,1.536.614,3.124,1.778,3.877a2.423,2.423,0,0,0,1.917.307c2.056-.475,2.685-2.97,3.292-5.391a12,12,0,0,1,1.039-3.087c.461.285,1.229,2.319,1.492,3.014.761,2.012,1.544,4.1,3.168,4.616a2.481,2.481,0,0,0,2.165,0c1.288-.644,1.661-2.253,2.019-3.8.051-.219.117-.5.19-.783.029.132.051.256.073.373.329,1.77.819,4.448,3.431,5.208a5.682,5.682,0,0,0,2.575.088c.315-.044.636-.088.666-.088a2.855,2.855,0,0,1,.819.468,3.812,3.812,0,0,0,2.3.863,3.914,3.914,0,0,0,.4-.022l-.322-2.875c-.161.022-.241,0-.717-.337a5.558,5.558,0,0,0-1.763-.892,5.123,5.123,0,0,0-1.778.029,3.1,3.1,0,0,1-1.346.007c-.856-.249-1.119-1.339-1.419-2.963-.271-1.47-.68-3.694-2.816-3.738-2.114-.051-2.692,2.3-3.087,4.016a13.622,13.622,0,0,1-.461,1.675,10.7,10.7,0,0,1-1.375-2.868c-.849-2.246-1.807-4.791-4.133-4.916-2.524-.139-3.255,2.758-3.9,5.3a17.082,17.082,0,0,1-.951,3.036,15.81,15.81,0,0,1-.4-1.69c-.344-1.763-.819-4.184-3.014-4.184-2.641,0-4.1,3.555-5.384,6.693-.263.636-.5,1.214-.71,1.668l2.6,1.236c.234-.49.49-1.127.783-1.814C469.54,245.739,470.733,242.828,471.545,242.14Z" transform="translate(-422.364 -97.536)" fill="#be4e76"/>
    <path id="Path_40" data-name="Path 40" d="M50,167.2a11.8,11.8,0,1,0,11.8-11.8A11.8,11.8,0,0,0,50,167.2Z" transform="translate(-37.074 -22.244)" fill="#be4e76"/>
    <path id="Path_41" data-name="Path 41" d="M55.837,415.2l-19.246,6.372H29.02l-4.5,5.216-4.353-5.216-9.51,1.441L10,444.549h4.053l.19,3.819h21.28l1.061-20.673,21.075-6.979Z" transform="translate(0 -263.039)" fill="#be4e76"/>
  </g>
</svg>
