<svg xmlns="http://www.w3.org/2000/svg" width="16.805" height="14.552" viewBox="0 0 16.805 14.552">
  <path id="icon-twitter" d="M765.642,22.528a6.541,6.541,0,0,1-1.981.568,3.634,3.634,0,0,0,1.514-2.024,6.526,6.526,0,0,1-2.186.886,3.342,3.342,0,0,0-2.517-1.16,3.563,3.563,0,0,0-3.445,3.673,4.4,4.4,0,0,0,.085.841,9.6,9.6,0,0,1-7.1-3.843,3.834,3.834,0,0,0-.469,1.854,3.738,3.738,0,0,0,1.536,3.058,3.316,3.316,0,0,1-1.557-.466v.045a3.622,3.622,0,0,0,2.762,3.6,3.434,3.434,0,0,1-.907.125,4.151,4.151,0,0,1-.651-.056,3.486,3.486,0,0,0,3.221,2.546,6.632,6.632,0,0,1-4.277,1.569,6.786,6.786,0,0,1-.832-.045,9.3,9.3,0,0,0,5.29,1.648c6.335,0,9.8-5.593,9.8-10.448,0-.158,0-.318-.011-.477a7.645,7.645,0,0,0,1.725-1.9Z" transform="translate(-748.836 -20.799)" fill="#fff"/>
</svg>
