<svg xmlns="http://www.w3.org/2000/svg" width="84.177" height="77.168" viewBox="0 0 84.177 77.168">
  <g id="c1e57e2e30878df24f323d167f002daf" transform="translate(-10 -50.8)">
    <path id="Path_6912" data-name="Path 6912" d="M90.673,54.313V50.8H73.133v3.5h-3.5v35.08H62.611V71.844H48.584v3.5h-3.5v7.018H55.6v3.5H45.071v7.018H55.593v3.5H45.071v3.5H38.053V75.357H31.044V64.835L10,57.818v70.151H94.177V54.313ZM17.018,71.844h7.018v3.5H17.018Zm14.027,45.6H17.018v-3.5H31.044Zm0-10.522H17.018v-3.5H31.044Zm0-10.522H17.018V92.9H31.044Zm0-10.522H17.018v-3.5H31.044Zm24.549,31.567H45.071v-3.5H55.593Zm0-10.522H45.071v-3.5H55.593ZM87.16,117.446H76.638v-3.5H87.16Zm0-10.522H76.638v-3.5H87.16Zm0-10.522H76.638V92.9H87.16Zm0-10.522H76.638v-3.5H87.16Zm0-10.522H76.638v-3.5H87.16Zm0-10.522H76.638v-3.5H87.16Z" transform="translate(0 0)" fill="#e9769f"/>
  </g>
</svg>
